<svg id="ac5a4175-2989-4120-ac63-14fa4cf801c5" data-name="Layer 1" xmlns="http://www.w3.org/2000/svg" xmlns:xlink="http://www.w3.org/1999/xlink" viewBox="0 0 100 100"><defs><style>.f4108607-2041-44cc-a34f-09d55cbb427c{fill:url(#fc1afcc6-d9d4-4d81-abc4-46e065e66e88);}.e0ab861a-07be-4b43-bed8-f14450e79e60{fill:url(#eae16202-a773-40d5-a15b-261f99e9d34b);}.ba78d467-e230-4664-a249-95f9be0c8e91{fill:url(#e936fd75-b08d-4b01-80f5-0d16c0681801);}.a5a9d7f7-8746-41b2-b507-91729e3157cf{fill:url(#aefbcdb0-7744-4d5a-b866-4c56c9621e81);}.ad48ec48-dde3-4a1f-9cda-996160ca8260{opacity:0.2;}.a7f86567-f7a8-4615-ad18-490c51918090,.ad48ec48-dde3-4a1f-9cda-996160ca8260,.fdf3fcf9-5707-412a-95ff-d86affaad69d{isolation:isolate;}.fdf3fcf9-5707-412a-95ff-d86affaad69d{opacity:0.12;}.a7f86567-f7a8-4615-ad18-490c51918090{fill:#fff;opacity:0.25;}</style><linearGradient id="fc1afcc6-d9d4-4d81-abc4-46e065e66e88" x1="51.07" y1="161.96" x2="-12.87" y2="98.02" gradientTransform="matrix(1, 0, 0, -1, 0, 168.94)" gradientUnits="userSpaceOnUse"><stop offset="0" stop-color="#00a0ff"/><stop offset="0.01" stop-color="#00a1ff"/><stop offset="0.26" stop-color="#00beff"/><stop offset="0.51" stop-color="#00d2ff"/><stop offset="0.76" stop-color="#00dfff"/><stop offset="1" stop-color="#00e3ff"/></linearGradient><linearGradient id="eae16202-a773-40d5-a15b-261f99e9d34b" x1="96.93" y1="118.94" x2="4.73" y2="118.94" gradientTransform="matrix(1, 0, 0, -1, 0, 168.94)" gradientUnits="userSpaceOnUse"><stop offset="0" stop-color="#ffe000"/><stop offset="0.41" stop-color="#ffbd00"/><stop offset="0.78" stop-color="orange"/><stop offset="1" stop-color="#ff9c00"/></linearGradient><linearGradient id="e936fd75-b08d-4b01-80f5-0d16c0681801" x1="62.61" y1="110.19" x2="-24.1" y2="23.48" gradientTransform="matrix(1, 0, 0, -1, 0, 168.94)" gradientUnits="userSpaceOnUse"><stop offset="0" stop-color="#ff3a44"/><stop offset="1" stop-color="#c31162"/></linearGradient><linearGradient id="aefbcdb0-7744-4d5a-b866-4c56c9621e81" x1="-4.18" y1="194.47" x2="34.54" y2="155.75" gradientTransform="matrix(1, 0, 0, -1, 0, 168.94)" gradientUnits="userSpaceOnUse"><stop offset="0" stop-color="#32a071"/><stop offset="0.07" stop-color="#2da771"/><stop offset="0.48" stop-color="#15cf74"/><stop offset="0.8" stop-color="#06e775"/><stop offset="1" stop-color="#00f076"/></linearGradient></defs><path class="f4108607-2041-44cc-a34f-09d55cbb427c" d="M7.77,2.51A7.7,7.7,0,0,0,6,7.87V92.13a7.7,7.7,0,0,0,1.76,5.36l.29.27,47.2-47.2V49.44L8.06,2.24Z"/><path class="e0ab861a-07be-4b43-bed8-f14450e79e60" d="M71,66.3,55.26,50.56V49.44L71,33.71l.35.2L90,44.5c5.33,3,5.33,8,0,11L71.35,66.1Z"/><path class="ba78d467-e230-4664-a249-95f9be0c8e91" d="M71.35,66.09,55.26,50,7.77,97.49c1.76,1.85,4.66,2.08,7.92.23L71.35,66.09"/><path class="a5a9d7f7-8746-41b2-b507-91729e3157cf" d="M71.35,33.91,15.69,2.28C12.43.43,9.53.66,7.77,2.51L55.26,50Z"/><path class="ad48ec48-dde3-4a1f-9cda-996160ca8260" d="M71,65.74,15.69,97.16c-3.09,1.76-5.86,1.64-7.63,0h0l-.29.29h0l.29.27h0c1.77,1.6,4.54,1.72,7.63,0L71.35,66.09Z"/><path class="fdf3fcf9-5707-412a-95ff-d86affaad69d" d="M7.77,96.93A7.65,7.65,0,0,1,6,91.58v.55a7.7,7.7,0,0,0,1.76,5.36l.29-.29Z"/><path class="fdf3fcf9-5707-412a-95ff-d86affaad69d" d="M90,54.94,71,65.74l.35.35L90,55.5C92.66,54,94,52,94,50h0C93.76,51.8,92.41,53.57,90,54.94Z"/><path class="a7f86567-f7a8-4615-ad18-490c51918090" d="M15.69,2.84,90,45.06c2.42,1.37,3.77,3.13,4,4.94h0c0-2-1.33-4-4-5.5L15.69,2.28C10.37-.74,6,1.77,6,7.87v.56C6,2.33,10.37-.19,15.69,2.84Z"/></svg>