<svg id="ab8cd8d2-ae4a-450f-b972-32dfa5e42666" data-name="Layer 1" xmlns="http://www.w3.org/2000/svg" viewBox="0 0 100 100"><defs><style>.b2e50925-dd88-4ce1-9171-ba3c15734f74{fill:#fff;}</style></defs><path class="b2e50925-dd88-4ce1-9171-ba3c15734f74" d="M76.73,53.12c-.11-12.38,10.13-18.41,10.6-18.69a22.8,22.8,0,0,0-18-9.71c-7.56-.79-14.88,4.52-18.73,4.52S40.78,24.8,34.4,24.93A23.93,23.93,0,0,0,14.27,37.21C5.56,52.28,12.06,74.42,20.39,86.6c4.17,6,9.05,12.63,15.43,12.39s8.57-4,16.11-4,9.65,4,16.16,3.83c6.7-.11,10.92-6,14.94-12a49.52,49.52,0,0,0,6.84-13.92C89.71,72.86,76.86,68,76.73,53.12Z"/><path class="b2e50925-dd88-4ce1-9171-ba3c15734f74" d="M64.43,16.71c3.36-4.2,5.66-9.91,5-15.71C64.59,1.22,58.51,4.36,55,8.47,51.92,12.09,49.15,18,49.87,23.6,55.33,24,60.93,20.84,64.43,16.71Z"/></svg>