<svg id="e1bfcf81-d1d0-47a7-b1a6-e6944289da8b" data-name="Layer 1" xmlns="http://www.w3.org/2000/svg" viewBox="0 0 100 35.1"><defs><style>.fd7786b8-2d3a-44c0-8d29-df6ca42cc253{fill:none;}.f2f12a5e-04cd-42ae-b71b-ddc68baad506{fill:#fff;}.bfaed8d6-c350-40f1-9029-8c61a74651f5{fill:#005fe8;}.bd9b915c-bad4-476b-a020-744b4042d7c5{fill:red;}.b566a098-6722-45e1-a5d1-42dd459ccd1c{fill:#becc30;}.b4fc5dcd-1ee3-4bb8-b9fc-87878360eaa9{fill:#ffe300;}.a6d5f0c0-bbcf-4b90-b28b-04d1b1ade527{fill:#fe0;}.aaac3cd8-fec9-4eab-806f-88e9d075a419{fill:#f09;}.b5fda61e-49f8-4003-a371-53d1d6661c32{fill:#390;}</style></defs><path class="fd7786b8-2d3a-44c0-8d29-df6ca42cc253" d="M93.93,26.92a1.22,1.22,0,1,0,0,2.43,1.22,1.22,0,0,0,0-2.43Z"/><path d="M32,17.58a1.85,1.85,0,0,0,0,.23Z"/><path class="fd7786b8-2d3a-44c0-8d29-df6ca42cc253" d="M32.77,7.3A7.42,7.42,0,0,1,36,7.84h0A7.44,7.44,0,0,0,32.77,7.3Z"/><path class="fd7786b8-2d3a-44c0-8d29-df6ca42cc253" d="M32.19,10.76a.27.27,0,0,1-.11,0,.27.27,0,0,0,.11,0Z"/><path class="fd7786b8-2d3a-44c0-8d29-df6ca42cc253" d="M35.69,6A2.54,2.54,0,0,0,34.51,4.6,2.54,2.54,0,0,1,35.69,6Z"/><path class="fd7786b8-2d3a-44c0-8d29-df6ca42cc253" d="M32.71,7.3h0c.06-.24.13-.49.21-.73C32.84,6.81,32.77,7.06,32.71,7.3Z"/><path class="fd7786b8-2d3a-44c0-8d29-df6ca42cc253" d="M25.48,9.83a2,2,0,0,0-1.36.79l-.08.16.08-.16A2,2,0,0,1,25.48,9.83Z"/><path class="fd7786b8-2d3a-44c0-8d29-df6ca42cc253" d="M25.63,16.42s0,0,0,0l.14.12h0Z"/><path class="fd7786b8-2d3a-44c0-8d29-df6ca42cc253" d="M24,12.17a3.43,3.43,0,0,1-.06-.57,3.43,3.43,0,0,0,.06.57,4.62,4.62,0,0,0,.29.94,4.62,4.62,0,0,1-.29-.94,19.08,19.08,0,0,0,2,.49c-.08,1-.13,1.91-.15,2.49,0-.58.07-1.52.15-2.49,0-.38.08-.76.13-1.13-.05.37-.09.75-.13,1.13A19.08,19.08,0,0,1,24,12.17Z"/><path class="fd7786b8-2d3a-44c0-8d29-df6ca42cc253" d="M32.69,5.4A11.33,11.33,0,0,0,32,7.78,11.33,11.33,0,0,1,32.69,5.4Z"/><path class="fd7786b8-2d3a-44c0-8d29-df6ca42cc253" d="M25.79,15.74h0a9,9,0,0,1-1.4-2.32A9,9,0,0,0,25.79,15.74Z"/><path class="fd7786b8-2d3a-44c0-8d29-df6ca42cc253" d="M30.22,10.71l.11,0,.2,0-.2,0Z"/><path class="fd7786b8-2d3a-44c0-8d29-df6ca42cc253" d="M34.41,4.55l.08,0Z"/><path class="fd7786b8-2d3a-44c0-8d29-df6ca42cc253" d="M32.25,16.28h0c.08-.48.32-1.8.54-2.92C32.57,14.48,32.33,15.8,32.25,16.28Z"/><path class="fd7786b8-2d3a-44c0-8d29-df6ca42cc253" d="M66.29,11.45a2.7,2.7,0,0,0-.75-.09h0A2.4,2.4,0,0,1,66.29,11.45Z"/><path class="fd7786b8-2d3a-44c0-8d29-df6ca42cc253" d="M32.86,5h0l-.45,0Z"/><path class="fd7786b8-2d3a-44c0-8d29-df6ca42cc253" d="M34.26,15.57l.08-.07v0Z"/><path class="fd7786b8-2d3a-44c0-8d29-df6ca42cc253" d="M32.93,12.68v0c.25-1.2.47-2,.47-2a2.87,2.87,0,0,0,.86-.4h0a2.86,2.86,0,0,1-.87.4s-.21.84-.46,2Z"/><path class="fd7786b8-2d3a-44c0-8d29-df6ca42cc253" d="M34.3,4.5Z"/><path class="fd7786b8-2d3a-44c0-8d29-df6ca42cc253" d="M31.65,5.22a4.17,4.17,0,0,0-1.8,1,3.31,3.31,0,0,0-.76,1.13,3.62,3.62,0,0,1,.76-1.13A4.17,4.17,0,0,1,31.65,5.22Z"/><path class="fd7786b8-2d3a-44c0-8d29-df6ca42cc253" d="M30.62,6.48a.58.58,0,0,1,.58-.58h0a.58.58,0,1,0,0,1.16h0A.58.58,0,0,1,30.62,6.48Z"/><path class="fd7786b8-2d3a-44c0-8d29-df6ca42cc253" d="M33.89,4.37s-.16.28-.37.72c.21-.44.37-.72.37-.72Z"/><path class="fd7786b8-2d3a-44c0-8d29-df6ca42cc253" d="M70.07,17l-.18.15.18-.15Z"/><path class="fd7786b8-2d3a-44c0-8d29-df6ca42cc253" d="M69.18,17.55a5.32,5.32,0,0,1-1.36.47h0A5.52,5.52,0,0,0,69.18,17.55Z"/><path class="fd7786b8-2d3a-44c0-8d29-df6ca42cc253" d="M69.89,17.11a4.17,4.17,0,0,1-.37.26Z"/><path class="fd7786b8-2d3a-44c0-8d29-df6ca42cc253" d="M70.66,17.16c.27.08.54.14.8.19a6.16,6.16,0,0,1-.8-.19l-.3-.09Z"/><path class="fd7786b8-2d3a-44c0-8d29-df6ca42cc253" d="M71.46,17.35a6.75,6.75,0,0,0,1.34.12A6.75,6.75,0,0,1,71.46,17.35Z"/><path class="fd7786b8-2d3a-44c0-8d29-df6ca42cc253" d="M72.8,17.47a10.06,10.06,0,0,0,2.3-.31A10.06,10.06,0,0,1,72.8,17.47Z"/><path class="fd7786b8-2d3a-44c0-8d29-df6ca42cc253" d="M75.24,17.12c.37-.09.77-.2,1.18-.32C76,16.92,75.62,17,75.24,17.12Z"/><path class="fd7786b8-2d3a-44c0-8d29-df6ca42cc253" d="M78,16.29h0l-1.4.44C77.08,16.6,77.54,16.45,78,16.29Z"/><path class="f2f12a5e-04cd-42ae-b71b-ddc68baad506" d="M31.65,5.22a4.17,4.17,0,0,0-1.8,1,3.69,3.69,0,0,0-1.06,2.61,1.8,1.8,0,0,0,1.43,1.92l.11,0,.2,0a6.14,6.14,0,0,0,1.66,0,.27.27,0,0,1-.11,0,.31.31,0,0,1-.13-.16,5.26,5.26,0,0,1-.12-1.21A8.26,8.26,0,0,1,32,7.78a11.33,11.33,0,0,1,.71-2.38c.05-.12.11-.24.17-.37l-.45,0C32.2,5.1,31.93,5.15,31.65,5.22ZM31.2,7.06h0a.58.58,0,1,1,0-1.16h0a.58.58,0,1,1,0,1.16Z"/><path class="bfaed8d6-c350-40f1-9029-8c61a74651f5" d="M34.39,12.41c-.49.13-1,.23-1.47.31,0,.2-.08.42-.13.64-.22,1.12-.46,2.44-.54,2.92a5.46,5.46,0,0,0,1.47-1,5.86,5.86,0,0,1,.6-2.72Z"/><path class="bfaed8d6-c350-40f1-9029-8c61a74651f5" d="M24.27,13.11v0a1.84,1.84,0,0,0,.11.28,9,9,0,0,0,1.4,2.32s0-.23,0-.59c0-.58.07-1.52.15-2.49a19.08,19.08,0,0,1-2-.49A4.62,4.62,0,0,0,24.27,13.11Z"/><path class="bd9b915c-bad4-476b-a020-744b4042d7c5" d="M30.53,10.77a6.14,6.14,0,0,0,1.66,0h0A6.14,6.14,0,0,1,30.53,10.77Z"/><path class="bd9b915c-bad4-476b-a020-744b4042d7c5" d="M28.79,8.79a3.61,3.61,0,0,1,.3-1.48,3.61,3.61,0,0,0-.3,1.48,1.8,1.8,0,0,0,1.43,1.92A1.8,1.8,0,0,1,28.79,8.79Z"/><path class="bd9b915c-bad4-476b-a020-744b4042d7c5" d="M31.65,5.22c.28-.07.55-.12.76-.15C32.2,5.1,31.93,5.15,31.65,5.22Z"/><path class="b566a098-6722-45e1-a5d1-42dd459ccd1c" d="M60.66,20.45c-.22-.13-.45-.06-.6-.22s-.06-.32-.15-.41-.22,0-.27,0a13,13,0,0,1-2,1.8,10.2,10.2,0,0,0,3.51-.85C60.57,20.73,60.91,20.59,60.66,20.45Z"/><path class="b566a098-6722-45e1-a5d1-42dd459ccd1c" d="M76.63,16.73l-.21.07c-.41.12-.8.23-1.18.32l-.14,0a8.54,8.54,0,0,1-3.64.19,6.16,6.16,0,0,1-.8-.19l-.3-.09L70.07,17l-.18.15h0a4.17,4.17,0,0,1-.37.26l-.2.11-.14.07a5.32,5.32,0,0,1-1.36.47h0l.13.34a.43.43,0,0,0,0,.05l0,.12,0,.12c0,.17.11.36.16.55h0a3.13,3.13,0,0,1,.1.44l.38.05a12.59,12.59,0,0,0,6.41-1.09,11.17,11.17,0,0,0,1.39-.85l.29-.22h0a5.75,5.75,0,0,0,.62-.55c.23-.24.43-.47.62-.71Z"/><path d="M68.32,19.66l.38.05-.38,0Z"/><path d="M76.79,17.55a5.75,5.75,0,0,0,.62-.55A5.75,5.75,0,0,1,76.79,17.55Z"/><path d="M78,16.29c-.2.24-.4.48-.63.71.23-.24.43-.47.62-.71h0Z"/><path class="b4fc5dcd-1ee3-4bb8-b9fc-87878360eaa9" d="M34.39,12.41h0c-.49.13-1,.23-1.47.31h0C33.41,12.64,33.9,12.54,34.39,12.41Z"/><path class="a6d5f0c0-bbcf-4b90-b28b-04d1b1ade527" d="M34.26,10.21a2.87,2.87,0,0,1-.86.4s-.22.84-.47,2v.07h0c.49-.08,1-.18,1.47-.31h0a7.76,7.76,0,0,1,.79-1A1.55,1.55,0,0,0,34.26,10.21Z"/><path class="a6d5f0c0-bbcf-4b90-b28b-04d1b1ade527" d="M34.51,4.6l0,0-.08,0-.11,0h0a2.19,2.19,0,0,0-.41-.13s-.16.28-.37.72a11,11,0,0,0-.6,1.48c-.08.24-.15.49-.21.73h.06A7.44,7.44,0,0,1,36,7.84,4.62,4.62,0,0,0,35.69,6,2.54,2.54,0,0,0,34.51,4.6Z"/><path class="a6d5f0c0-bbcf-4b90-b28b-04d1b1ade527" d="M25.48,9.83a2,2,0,0,0-1.36.79l-.08.16a2,2,0,0,0-.12.82,3.43,3.43,0,0,0,.06.57,19.08,19.08,0,0,0,2,.49c0-.38.08-.76.13-1.13a9.65,9.65,0,0,1,.35-1.78A4.54,4.54,0,0,0,25.48,9.83Z"/><path class="a6d5f0c0-bbcf-4b90-b28b-04d1b1ade527" d="M63.19,14.64h0a.22.22,0,0,0,0-.08.64.64,0,0,1-.06.18c-.42,1.21-1.32,1.51-1.58,2.89-.1.57.47.94,1.11,1S63.94,18.53,64,18C64.1,16.51,63.25,15.94,63.19,14.64Z"/><path class="aaac3cd8-fec9-4eab-806f-88e9d075a419" d="M57.46,18.91c.1.22.87.25,1.89,0a.9.9,0,0,1,0-.18,4.69,4.69,0,0,1,0-.65c0-.23.22-.39.3-.57a.08.08,0,0,0,0,0,5.17,5.17,0,0,1-1.11-.37S57.31,18.59,57.46,18.91Z"/><path class="aaac3cd8-fec9-4eab-806f-88e9d075a419" d="M63.19,14.64c.06,1.3.91,1.87.79,3.31,0,.58-.69.78-1.33.72s-1.21-.47-1.11-1c.26-1.38,1.16-1.68,1.58-2.89-.85,1.37-2.64,2.14-2.74,3.39-.15,2,1.76,2,2.38,2.23.89.08,2.44.07,2.11-2C64.66,17.12,63.56,16.19,63.19,14.64Z"/><path class="aaac3cd8-fec9-4eab-806f-88e9d075a419" d="M63.41,12.9a3.74,3.74,0,0,1,1.4-1.09s-.12-2.58-.89-2.76c-.8,0-1.58,2.44-1.58,2.44A3.53,3.53,0,0,1,63.41,12.9Z"/><path class="aaac3cd8-fec9-4eab-806f-88e9d075a419" d="M65.88,18.26s0,0,0,.06a2.26,2.26,0,0,1,.14.62,5,5,0,0,1-.17.63.58.58,0,0,1-.05.14,3.18,3.18,0,0,0,1.8.6c.3-.21-.57-2.12-.57-2.12A4.71,4.71,0,0,1,65.88,18.26Z"/><path class="aaac3cd8-fec9-4eab-806f-88e9d075a419" d="M61.78,11.78c-3.24-.78-3.16,2.48-5.22,2.43.25,1.9,3.2,2.53,3.74,2.53h.27c.16-.14.17-.47.41-.53s.41-.38.63-.49.38-.1.58-.23.23-.4.47-.5a1.34,1.34,0,0,0,.63-1.1C63.23,13.63,62.76,12,61.78,11.78Z"/><path class="aaac3cd8-fec9-4eab-806f-88e9d075a419" d="M65.29,12.24c-1,0-1.88,1.41-2,1.64a1.27,1.27,0,0,0,.33,1.22c.21.17.19.46.32.61s.34.21.5.37.26.52.49.64.13.44.26.62l.25.07c.53.14,3.53.29,4.27-1.48C67.7,15.45,68.62,12.32,65.29,12.24Z"/><path d="M34.32,12.52a5.86,5.86,0,0,0-.6,2.72,5.46,5.46,0,0,1-1.47,1h0a5.63,5.63,0,0,0,1.47-1,5.86,5.86,0,0,1,.6-2.72l.07-.11h0Z"/><path d="M32.92,12.72h0c0,.2-.08.42-.13.64.05-.22.09-.44.13-.64Z"/><path d="M32.86,5h0c-.06.13-.12.25-.17.37C32.74,5.28,32.8,5.16,32.86,5Z"/><path d="M31.83,9.34A5.26,5.26,0,0,0,32,10.55a.31.31,0,0,0,.13.16.31.31,0,0,1-.13-.16,5.26,5.26,0,0,1-.12-1.21A8.26,8.26,0,0,1,32,7.78,8.26,8.26,0,0,0,31.83,9.34Z"/><path d="M24.27,13.11v0a2.43,2.43,0,0,0,.11.28,1.84,1.84,0,0,1-.11-.28Z"/><path d="M25.79,15.74s0-.23,0-.59c0,.36,0,.59,0,.59Z"/><path d="M32.92,12.72v0Z"/><path d="M35.18,11.4a7.76,7.76,0,0,0-.79,1h0a8.5,8.5,0,0,1,.79-1,1.55,1.55,0,0,0-.92-1.19h0A1.55,1.55,0,0,1,35.18,11.4Z"/><rect x="32.92" y="12.72"/><path d="M34.49,4.58l0,0Z"/><path d="M34.3,4.5l.11,0Z"/><path d="M33.89,4.37h0a2.19,2.19,0,0,1,.41.13A2.19,2.19,0,0,0,33.89,4.37Z"/><path d="M33.52,5.09a11,11,0,0,0-.6,1.48A11,11,0,0,1,33.52,5.09Z"/><path d="M32.71,7.3h0Z"/><path d="M36,7.84h0A4.62,4.62,0,0,0,35.69,6,4.62,4.62,0,0,1,36,7.84Z"/><path d="M24,10.78a2,2,0,0,0-.12.82A2,2,0,0,1,24,10.78Z"/><path d="M26.44,9.75a9.65,9.65,0,0,0-.35,1.78,9.65,9.65,0,0,1,.35-1.78,4.54,4.54,0,0,0-1,.08A4.54,4.54,0,0,1,26.44,9.75Z"/><path d="M25.42,16.22a8.17,8.17,0,0,1-1.2-1.73A7.36,7.36,0,0,0,25.42,16.22Z"/><path d="M35.52,11.91a4.31,4.31,0,0,0-.74,1A7.36,7.36,0,0,1,35.52,11.91Z"/><path d="M34.36,14.2a4.35,4.35,0,0,0,0,1.25,6.43,6.43,0,0,1,.28-2.15,4.78,4.78,0,0,0-.25.84A.13.13,0,0,1,34.36,14.2Z"/><path d="M31.2,5.9h0a.58.58,0,1,1,0,1.16h0a.58.58,0,1,0,0-1.16Z"/><path d="M66.53,11.52a1.72,1.72,0,0,1,.29.11Z"/><path d="M67.13,11.78l.12.07-.13-.07-.29-.15A2.1,2.1,0,0,1,67.13,11.78Z"/><path d="M67.61,12.1h0a3.12,3.12,0,0,0-.35-.25A2.16,2.16,0,0,1,67.61,12.1Z"/><path d="M65.54,11.36h0s-.21-3-1.34-3.47C65.31,8.33,65.54,11.25,65.54,11.36Z"/><path class="bd9b915c-bad4-476b-a020-744b4042d7c5" d="M93.92,23.78a4.38,4.38,0,1,0,4.38,4.37A4.37,4.37,0,0,0,93.92,23.78Zm0,5.57a1.22,1.22,0,1,1,1.21-1.21A1.22,1.22,0,0,1,93.93,29.35Z"/><path class="bd9b915c-bad4-476b-a020-744b4042d7c5" d="M29.09,6.05c-1.92,1.82-2.33,6.06-2.33,6.06a41.8,41.8,0,0,0-.21,5,3.64,3.64,0,0,0,.59.3v-.11a.85.85,0,1,1,1.64,0,1.66,1.66,0,0,1,0,.32l.4,0a1,1,0,0,1,0-.3.85.85,0,1,1,1.65,0v.1c.23-.05.46-.11.68-.18l0-.22s.27-2.13.63-3.72.59-2.58.59-2.58l-.37,0a.27.27,0,0,1-.14,0h0a6.14,6.14,0,0,1-1.66,0l-.2,0-.11,0a1.8,1.8,0,0,1-1.43-1.92,3.61,3.61,0,0,1,.3-1.48,3.31,3.31,0,0,1,.76-1.13,4.17,4.17,0,0,1,1.8-1c.28-.07.55-.12.76-.15l.45,0q.16-.36.36-.72A6.2,6.2,0,0,0,29.09,6.05Z"/><path class="bd9b915c-bad4-476b-a020-744b4042d7c5" d="M27.72,20.56l-.86,0c.11,2.21.4,5.14.42,5.37a.42.42,0,0,0,.44.38h0C27.69,23.79,27.7,21.79,27.72,20.56Z"/><path class="bd9b915c-bad4-476b-a020-744b4042d7c5" d="M29.34,31.53s0,.4.4.4.37-.39.37-.39c.14-4.59.66-9.13,1-11.55a10.47,10.47,0,0,1-1.11.32C29.52,25.3,29.34,31.53,29.34,31.53Z"/><path class="bd9b915c-bad4-476b-a020-744b4042d7c5" d="M28.37,28.42a.41.41,0,0,0,.41.39l.09,0c.13-3.42.33-6.63.45-8.35a8.4,8.4,0,0,1-1,.1C28.17,24.44,28.37,28.29,28.37,28.42Z"/><path d="M35.55,4.43a3.26,3.26,0,0,0-1.86-.85,6.38,6.38,0,0,0-2.4.31,7.11,7.11,0,0,0-2.5,1.42c-.59.5-1.4,1.3-2.18,3.83a4.1,4.1,0,0,0-2.52.61,2.33,2.33,0,0,0-.77,2.17,4.88,4.88,0,0,0,.14.62.57.57,0,0,0,0,.14,2.29,2.29,0,0,0,.08.28s0,.1.05.15a2.83,2.83,0,0,0,.11.31l0,0a1.21,1.21,0,0,0,0,.14l.09.22L24,14h0l.12.26.14.28a8.17,8.17,0,0,0,1.2,1.73l.21.2.16.15h0a4.94,4.94,0,0,0,.71.54l.05,0a41.8,41.8,0,0,1,.21-5s.41-4.24,2.33-6.06a6.2,6.2,0,0,1,4.13-1.74q-.19.36-.36.72h0c-.06.13-.12.25-.17.37A11.33,11.33,0,0,0,32,7.78a8.26,8.26,0,0,0-.15,1.56A5.26,5.26,0,0,0,32,10.55a.31.31,0,0,0,.13.16.31.31,0,0,0,.25,0l.37,0s-.23,1-.59,2.58S31.48,17,31.48,17l0,.22a7.15,7.15,0,0,0,2.82-1.68l.08-.08v0a4.35,4.35,0,0,1,0-1.25.13.13,0,0,0,0-.06,4.78,4.78,0,0,1,.25-.84h0l.12-.27a.16.16,0,0,1,0-.07h0a4.31,4.31,0,0,1,.74-1,3.9,3.9,0,0,1,.32-.35,2.52,2.52,0,0,0-1.05-1.78,2.44,2.44,0,0,0,.6-.82A20,20,0,0,1,33.27,8a6.32,6.32,0,0,1,3.29,1,7.24,7.24,0,0,0,.08-2.41A3.77,3.77,0,0,0,35.55,4.43Zm-9.46,7.1c-.05.37-.09.75-.13,1.13-.08,1-.13,1.91-.15,2.49,0,.36,0,.59,0,.59h0a9,9,0,0,1-1.4-2.32,2.43,2.43,0,0,1-.11-.28v0a4.62,4.62,0,0,1-.29-.94,3.43,3.43,0,0,1-.06-.57,2,2,0,0,1,.12-.82l.08-.16a2,2,0,0,1,1.36-.79,4.54,4.54,0,0,1,1-.08A9.65,9.65,0,0,0,26.09,11.53Zm7.3-.92a2.86,2.86,0,0,0,.87-.4h0a1.55,1.55,0,0,1,.92,1.19,7.76,7.76,0,0,0-.79,1h0l-.07.11a5.86,5.86,0,0,0-.6,2.72,5.63,5.63,0,0,1-1.47,1h0c.08-.48.32-1.8.54-2.92.05-.22.09-.44.13-.64h0v-.07C33.18,11.45,33.39,10.61,33.39,10.61ZM36,7.84h0a7.42,7.42,0,0,0-3.19-.54h-.06c.06-.24.13-.49.21-.73a11,11,0,0,1,.6-1.48c.21-.44.37-.72.37-.72h0a2.19,2.19,0,0,1,.41.13h0l.11,0,.08,0,0,0A2.54,2.54,0,0,1,35.69,6,4.62,4.62,0,0,1,36,7.84Z"/><path d="M31.2,7.06a.58.58,0,1,0-.58-.58A.58.58,0,0,0,31.2,7.06Z"/><path d="M70.57,16.37a2.29,2.29,0,0,0,.35-.88c-1.76,0-1.57-2.05-3.29-3.38h0a3.12,3.12,0,0,0-.35-.25h0l-.13-.07-.29-.15h0l-.29-.11-.24-.07a2.7,2.7,0,0,0-.75-.09h0s-.21-3-1.34-3.47l-.11,0a1.22,1.22,0,0,0-.91.47,8.15,8.15,0,0,0-1.41,2.53,3.28,3.28,0,0,0-1.64,0,4.45,4.45,0,0,0-2.52,2,1.57,1.57,0,0,1-1.49.78l-.16,0a3.28,3.28,0,0,0,1.44,2.84h0c.19.14.34.22.4.26h0s-1.53,2-1.13,2.71a.4.4,0,0,0,.11.12,3.26,3.26,0,0,0,2,.14c-1.16,1-3.37,2.68-3.37,2.68s2.38.53,6.61-1.27h0a1,1,0,0,0,.29,0,1.74,1.74,0,0,1,.6.18c.18.12.59,0,.59,0a.68.68,0,0,0,.34.06c.25,0,.38-.37.61-.46a3,3,0,0,0,.67-.26,1.49,1.49,0,0,0,.28-.34c1.22.68,2.41,1,2.77.66a.83.83,0,0,0,.17-.48c7.49,1.12,10.7-4.05,10.91-5.2C77.54,15.61,73.49,17.24,70.57,16.37ZM63.92,9.05c.77.18.89,2.76.89,2.76a3.74,3.74,0,0,0-1.4,1.09,3.53,3.53,0,0,0-1.07-1.41S63.12,9,63.92,9.05Zm-6.46,9.86c-.15-.32,1.08-1.84,1.08-1.84a5.17,5.17,0,0,0,1.11.37.08.08,0,0,1,0,0c-.08.18-.27.34-.3.57a4.69,4.69,0,0,0,0,.65.9.9,0,0,0,0,.18C58.33,19.16,57.56,19.13,57.46,18.91Zm.21,2.71a13,13,0,0,0,2-1.8s.23,0,.27,0,0,.23.15.41.38.09.6.22-.09.28.52.32A10.2,10.2,0,0,1,57.67,21.62Zm5.09-1.26c-.62-.22-2.53-.21-2.38-2.23.1-1.25,1.89-2,2.74-3.39a.64.64,0,0,0,.06-.18.22.22,0,0,1,0,.08h0c.37,1.55,1.47,2.48,1.68,3.75C65.2,20.43,63.65,20.44,62.76,20.36Zm4.86-.05a3.18,3.18,0,0,1-1.8-.6.58.58,0,0,0,.05-.14,5,5,0,0,0,.17-.63,2.26,2.26,0,0,0-.14-.62s0,0,0-.06a4.71,4.71,0,0,0,1.17-.07S67.92,20.1,67.62,20.31Zm-2.18-2.9-.25-.07c-.13-.18,0-.5-.26-.62s-.31-.47-.49-.64-.34-.19-.5-.37-.11-.44-.32-.61a1.27,1.27,0,0,1-.33-1.22,1.34,1.34,0,0,1-.63,1.1c-.24.1-.3.39-.47.5s-.38.12-.58.23-.39.43-.63.49-.25.39-.41.53H60.3c-.54,0-3.49-.63-3.74-2.53,2.06,0,2-3.21,5.22-2.43,1,.24,1.45,1.85,1.51,2.1.12-.23,1-1.66,2-1.64,3.33.08,2.41,3.21,4.42,3.69C69,17.7,66,17.55,65.44,17.41Zm12-.41a5.75,5.75,0,0,1-.62.55h0l-.29.22a11.17,11.17,0,0,1-1.39.85,12.59,12.59,0,0,1-6.41,1.09l-.38,0h0c0-.15-.06-.3-.1-.44h0c0-.19-.11-.38-.16-.55l0-.12,0-.12a.43.43,0,0,1,0-.05L67.83,18h0a5.52,5.52,0,0,0,1.36-.46l.14-.07.2-.11.37-.26h0l.18-.15h0l.29.11.3.09c.27.08.54.14.8.19a8.54,8.54,0,0,0,3.64-.19l.14,0c.37-.09.77-.2,1.18-.32l.21-.07c.45-.13.91-.28,1.4-.44h0C77.84,16.53,77.64,16.77,77.41,17Z"/><path d="M28,18.38a.87.87,0,0,0,.79-.73,1.66,1.66,0,0,0,0-.32.85.85,0,1,0-1.64,0v.11A.94.94,0,0,0,28,18.38Z"/><path d="M29.94,16.27a1,1,0,0,0-.83,1.06,1,1,0,0,0,0,.3.87.87,0,0,0,.79.75.93.93,0,0,0,.82-.95v-.1A1,1,0,0,0,29.94,16.27Z"/><path d="M31.09,20c-.32,2.42-.84,7-1,11.55,0,0,0,.39-.37.39s-.4-.4-.4-.4.18-6.23.64-11.22c-.22.05-.44.1-.66.13-.12,1.72-.32,4.93-.45,8.35l-.09,0a.41.41,0,0,1-.41-.39c0-.13-.2-4,0-7.88l-.63,0c0,1.23,0,3.23,0,5.69h0a.42.42,0,0,1-.44-.38c0-.23-.31-3.16-.42-5.37l-.22,0-.36-.05c.09,1.59.26,4.12.46,5.48a1,1,0,0,0,1,.91h.06c0,.54,0,1.1.05,1.68a.94.94,0,0,0,.84.85h.2c0,.72-.05,1.46-.06,2.18a.9.9,0,0,0,1,.9c.84,0,.87-.9.87-.9s.22-5.94,1.1-11.83l-.48.2Z"/><polygon class="b5fda61e-49f8-4003-a371-53d1d6661c32" points="70.62 23.98 66.56 23.98 65.18 25.73 65.1 25.73 63.76 23.98 59.7 23.98 62.84 27.99 59.35 32.33 63.65 32.33 65.1 30.49 65.18 30.49 66.68 32.33 70.85 32.33 67.48 27.99 70.62 23.98"/><path class="b5fda61e-49f8-4003-a371-53d1d6661c32" d="M42.13,24l-1,3.27a10.19,10.19,0,0,0-.22,1.1h-.09L39.53,24H36.12l-1.47,8.32h3.2l.39-3.55c0-.33.06-.68.08-1h.11a5.33,5.33,0,0,0,.21,1l1.18,3.52h1.94l1.32-3.73a7.19,7.19,0,0,0,.21-.83h.06l.45,4.56H47L45.5,24Z"/><polygon class="b5fda61e-49f8-4003-a371-53d1d6661c32" points="53.23 29.07 57.04 29.07 57.04 27.31 53.23 27.31 53.23 26 57.39 26 57.39 24 49.51 24 49.51 32.33 57.53 32.33 57.53 30.3 53.23 30.3 53.23 29.07"/><rect class="b5fda61e-49f8-4003-a371-53d1d6661c32" x="72.81" y="23.98" width="4.03" height="8.35"/><path class="b5fda61e-49f8-4003-a371-53d1d6661c32" d="M84.67,29.77a1.55,1.55,0,1,1,1-2.71l2.23-1.76a5,5,0,0,0-3.65-1.53,4.61,4.61,0,0,0-4.81,4.39,4.61,4.61,0,0,0,4.81,4.38A5,5,0,0,0,88,31l-2.2-1.66A1.51,1.51,0,0,1,84.67,29.77Z"/><path class="b5fda61e-49f8-4003-a371-53d1d6661c32" d="M20.57,18.89A.92.92,0,0,0,19.8,18a5,5,0,0,1-2-1.51L13.11,11l4.72-5.49a4.84,4.84,0,0,1,1.88-1.43.92.92,0,0,0,.78-.91,1,1,0,0,0-.92-1H13.19a1,1,0,0,0-.9,1,.91.91,0,0,0,.82.91c.18.06.13.25-.17.55L10.29,7.69,7.63,4.6c-.3-.3-.35-.49-.17-.55a.91.91,0,0,0,.83-.91,1,1,0,0,0-.93-1H1a1,1,0,0,0-.91,1,.92.92,0,0,0,.78.91A4.77,4.77,0,0,1,2.74,5.48L7.47,11l-4.73,5.5A5.11,5.11,0,0,1,.78,18a.92.92,0,0,0-.78.91.92.92,0,0,0,.92.91H7.29A.91.91,0,0,0,7.38,18c-.18-.06-.13-.25.16-.55l2.75-3.18L13,17.43c.3.3.35.49.16.55a.91.91,0,0,0,.09,1.82h6.38A.91.91,0,0,0,20.57,18.89Z"/><path class="b5fda61e-49f8-4003-a371-53d1d6661c32" d="M99.53,1.52C99.19.53,98.79.15,98.18,0L98,0c-.63-.06-1.17.19-1.76,1a15.44,15.44,0,0,0-2.1,6.59,99.7,99.7,0,0,0,.28,13.23,1.62,1.62,0,0,0,.27.85.34.34,0,0,0,.21.15h0a.34.34,0,0,0,.24-.09,1.64,1.64,0,0,0,.5-.74,100.85,100.85,0,0,0,4-12.62A15.42,15.42,0,0,0,99.53,1.52Z"/><path class="b5fda61e-49f8-4003-a371-53d1d6661c32" d="M89,17.79a8.47,8.47,0,0,1-1.63.17c-1.3,0-2.35-.48-2.34-3.88V10c0-1.86.07-4.22.07-4.28h3.09c.59,0,1.46-.25,1.46-1.22s-.75-1.22-1.46-1.22H85.14c0-.15-.07-1.55-.07-1.55,0-1-.22-1.72-.86-1.72s-.66.47-1.07,1.51S81.37,3,79.76,3c-.27,0-.42.1-.47.29a.51.51,0,0,0,.27.57,2.68,2.68,0,0,1,1,1.87,18.18,18.18,0,0,1,.22,4.12v4.07c0,3.52.88,6.69,4.87,6.69a11.74,11.74,0,0,0,3.39-.94c.94-.46,1.35-.79,1.31-1.28C90.33,17.6,89.81,17.59,89,17.79Z"/><path class="b5fda61e-49f8-4003-a371-53d1d6661c32" d="M76.79,3.08c-2.06-1.64-6.66-1.53-8.91-.25-1.52.87-3.17,1.72-4.73,5.49a1.27,1.27,0,0,1,.91-.47h0l.11,0c1.12.44,1.35,3.36,1.35,3.47a2.4,2.4,0,0,1,.75.09l.24.07a1.72,1.72,0,0,1,.29.11h0a2.1,2.1,0,0,1,.3.15l.12.07h0a2.16,2.16,0,0,1,.35.24,11.15,11.15,0,0,1-.09-1.71,7.19,7.19,0,0,1,.47-3,5.31,5.31,0,0,1,3.32-3c.56-.14,2.66-.09,3,1.45a3.06,3.06,0,0,1-1.54,3.59,9.56,9.56,0,0,1-3.41,1.1l-.14.09c-1,.6-.64,2.08.15,2.21,3.5-.32,7.2-1.16,8.26-2.51C78.82,8.73,80.05,6,76.79,3.08Z"/><path class="b5fda61e-49f8-4003-a371-53d1d6661c32" d="M60.65,6.43a2,2,0,0,0,3-.62c.58-1.45.19-3.39-1.48-3.63-1.31-.19-2.3.25-3.43,1.61A16.3,16.3,0,0,0,57,6.14a6.58,6.58,0,0,0-1-3.33,1.84,1.84,0,0,0-2.07-.19L51.19,3.84A1.18,1.18,0,0,0,51.56,6C52.45,6.23,53,7.65,53,8.59c0,.78,0,5.42,0,7a2.15,2.15,0,0,1,0,.39,2,2,0,0,1-1.72,1.82,2.28,2.28,0,0,1-1.78-2.11V15.6c0-.09.09-6.28-.14-8.56S47,3.23,45.47,2.67C43.61,2,39.1,1.35,37.12,2.05c-.61.19-1.47,1.4.42,1.27a8.89,8.89,0,0,1,4.66.9c1.22.56,2.61,2.63,2.66,5.21l0,1.82c0,2.82.08,5.75-3.12,6.41-2.54.23-3.06-2.4-3.06-3a2.57,2.57,0,0,1,2.1-3c1.51-.27,2,.45,2.69,0a.85.85,0,0,0-.05-1.51,14.15,14.15,0,0,0-1.73-.26c-2.73.06-4,.41-5.32,1.29a4.76,4.76,0,0,0-.87.72,8,8,0,0,0-.74,1h0l0,.06-.12.27h0a6.43,6.43,0,0,0-.28,2.15v.05l-.08.07a7.15,7.15,0,0,1-2.82,1.68c-.22.07-.45.13-.68.18a.93.93,0,0,1-.82.95.87.87,0,0,1-.79-.75l-.4,0a.87.87,0,0,1-.79.73.93.93,0,0,1-.82-.94,3.64,3.64,0,0,1-.59-.3l-.05,0a5.79,5.79,0,0,1-.71-.54l-.14-.13,0,0-.2-.2a7.08,7.08,0,0,1-1.2-1.73l-.14-.28L24,14h0l-.06-.13-.09-.22a1.21,1.21,0,0,1,0-.14l0,0a2.83,2.83,0,0,1-.11-.31s0-.1-.05-.15a2.29,2.29,0,0,1-.08-.28.57.57,0,0,1,0-.14s0-.08,0-.11a.52.52,0,0,1,0-.11l0-.09c-.06-.25-.11-.49-.15-.73a8.75,8.75,0,0,1-.08-1.9,7.27,7.27,0,0,1,8.23-6.19c1.9.13,1-1.08.42-1.26a13.84,13.84,0,0,0-5.39-.24l-.22,0h0a9.5,9.5,0,0,0-1.76.56c-.34.11-1,.4-1,.4a8.65,8.65,0,0,0-5.19,8,9.62,9.62,0,0,0,8.55,9.56l.66.05h.7a5.19,5.19,0,0,0,.68-.05q.33,0,.66-.09l.13,0h0c.19,0,.37-.07.55-.12l.13,0c.23-.06.45-.13.68-.21l.38-.14a3.68,3.68,0,0,0,.35-.15l.3-.13.39-.2q.39-.21.75-.45l.39-.27.25-.19a10.1,10.1,0,0,0,.84-.76l0,0,.33-.33c.07.12.14.25.22.37a5.72,5.72,0,0,0,1.38,1.67,7.52,7.52,0,0,0,5.36.79,5.47,5.47,0,0,0,3.27-2.41c.19,1.74.75,1.88,1.31,1.88l1.3.05,5.56,0a19.31,19.31,0,0,0,3.45-.22l-.11-.12c-.39-.7,1.14-2.71,1.14-2.71h0a4.4,4.4,0,0,1-.4-.26h0a3.29,3.29,0,0,1-1.46-2.85l.18,0a1.59,1.59,0,0,0,1.48-.79v-.33a10.3,10.3,0,0,1,.88-4.69C59.13,6.43,60,6,60.65,6.43Z"/><path class="b5fda61e-49f8-4003-a371-53d1d6661c32" d="M15.7,27.63a2.45,2.45,0,0,0-1.32.38V25.34H13.32v7h1.06V32a2.33,2.33,0,0,0,1.3.39h0A2.36,2.36,0,0,0,18.05,30V30a2.32,2.32,0,0,0-.49-1.4A2.35,2.35,0,0,0,15.7,27.63ZM17,30a1.18,1.18,0,0,1-.25.71,1.26,1.26,0,0,1-1,.54,1.4,1.4,0,0,1-.63-.16A1.31,1.31,0,0,1,14.38,30a1.49,1.49,0,0,1,.19-.68A1.29,1.29,0,0,1,16.49,29,1.28,1.28,0,0,1,17,30Z"/><path class="b5fda61e-49f8-4003-a371-53d1d6661c32" d="M22.42,29.73a2.09,2.09,0,0,1-.12.64,1.15,1.15,0,0,1-1.17.92,1.21,1.21,0,0,1-.73-.21,1.91,1.91,0,0,1-.58-1.49v-2H18.75v1.95A3.65,3.65,0,0,0,19,30.87a2.18,2.18,0,0,0,2.14,1.49,2.26,2.26,0,0,0,1.3-.38v.74a1.83,1.83,0,0,1-.09.5,1.12,1.12,0,0,1-1.14.81h-.08V35.1h.08A2.26,2.26,0,0,0,23,34.3a2.67,2.67,0,0,0,.53-1.53V27.63H22.42Z"/></svg>