<svg id="e8a0fda9-bd4b-4b94-b0a0-005a91811e19" data-name="Layer 1" xmlns="http://www.w3.org/2000/svg" viewBox="0 0 100 31.67"><defs><style>.acacd6f4-77c2-4ff8-bcb2-11c743e99d1c{fill:#ac162c;}</style></defs><polygon class="acacd6f4-77c2-4ff8-bcb2-11c743e99d1c" points="10.31 5.56 6.2 0.25 0 0.25 4.26 5.56 10.31 5.56"/><polygon class="acacd6f4-77c2-4ff8-bcb2-11c743e99d1c" points="0.11 19.17 0.11 16.84 2.21 16.84 2.21 14.59 4.16 14.59 4.16 12.4 6.11 12.4 6.11 10.31 9.08 10.31 9.08 10.31 9.08 12.5 5.8 19.17 0.11 19.17"/><polygon class="acacd6f4-77c2-4ff8-bcb2-11c743e99d1c" points="11.3 5.56 15.42 0.25 21.62 0.25 17.36 5.56 11.3 5.56"/><polygon class="acacd6f4-77c2-4ff8-bcb2-11c743e99d1c" points="10.65 6.24 9.99 6.24 4.76 6.36 5.62 7.55 9.99 7.55 10.65 7.55 16 7.55 16.87 6.34 10.65 6.24"/><path class="acacd6f4-77c2-4ff8-bcb2-11c743e99d1c" d="M15.92,8.36s-4.51,0-5.58,0c-.89,0-4.68.08-4.65,0L5.07,9.5H16.55Z"/><polygon class="acacd6f4-77c2-4ff8-bcb2-11c743e99d1c" points="21.51 19.17 21.51 16.84 19.41 16.84 19.41 14.59 17.45 14.59 17.45 12.4 15.5 12.4 15.5 10.31 12.54 10.31 12.54 10.31 12.54 12.5 15.82 19.17 21.51 19.17"/><polygon class="acacd6f4-77c2-4ff8-bcb2-11c743e99d1c" points="12.56 14.35 12.07 13.35 9.54 13.35 9.06 14.36 12.56 14.35"/><polygon class="acacd6f4-77c2-4ff8-bcb2-11c743e99d1c" points="13.62 16.7 13.14 15.68 8.45 15.68 8 16.7 13.62 16.7"/><polygon class="acacd6f4-77c2-4ff8-bcb2-11c743e99d1c" points="14.26 18.04 10.81 18.06 7.36 18.04 6.88 19.04 10.46 19.04 11.15 19.04 14.73 19.04 14.26 18.04"/><rect class="acacd6f4-77c2-4ff8-bcb2-11c743e99d1c" x="9.74" y="15.7" width="1.45" height="1"/><rect class="acacd6f4-77c2-4ff8-bcb2-11c743e99d1c" x="22.81" y="0.28" width="5.51" height="18.87"/><rect class="acacd6f4-77c2-4ff8-bcb2-11c743e99d1c" x="58.62" y="0.28" width="5.51" height="18.87"/><rect class="acacd6f4-77c2-4ff8-bcb2-11c743e99d1c" x="66.37" y="0.28" width="5.51" height="18.87"/><polygon class="acacd6f4-77c2-4ff8-bcb2-11c743e99d1c" points="89.47 19.16 83.96 19.16 83.96 3.56 89.47 12.87 89.47 19.16"/><polygon class="acacd6f4-77c2-4ff8-bcb2-11c743e99d1c" points="99.89 15.73 94.38 6.42 94.38 0.28 99.89 0.28 99.89 15.73"/><polygon class="acacd6f4-77c2-4ff8-bcb2-11c743e99d1c" points="57.81 7.17 54.09 7.17 54.09 0.28 48.59 0.28 48.59 19.16 54.09 19.16 54.09 12.27 57.81 12.27 57.81 7.17"/><rect class="acacd6f4-77c2-4ff8-bcb2-11c743e99d1c" x="72.69" y="7.17" width="5.51" height="5.1"/><rect class="acacd6f4-77c2-4ff8-bcb2-11c743e99d1c" x="72.69" y="0.3" width="8.73" height="5.1"/><rect class="acacd6f4-77c2-4ff8-bcb2-11c743e99d1c" x="72.69" y="14.11" width="8.73" height="5.1"/><path class="acacd6f4-77c2-4ff8-bcb2-11c743e99d1c" d="M42.26,12.27a4.24,4.24,0,0,1-3.5,1.9,4.4,4.4,0,0,1-4.29-4.5,4.4,4.4,0,0,1,4.29-4.5,4.22,4.22,0,0,1,3.56,2h5.35A9.32,9.32,0,0,0,38.76,0a9.47,9.47,0,0,0-9.23,9.68,9.47,9.47,0,0,0,9.23,9.69,9.32,9.32,0,0,0,8.89-7.1Z"/><path class="acacd6f4-77c2-4ff8-bcb2-11c743e99d1c" d="M94.2,19.14H100V17.48L89.71.26s-5.8,0-5.78,0V2Z"/><path class="acacd6f4-77c2-4ff8-bcb2-11c743e99d1c" d="M60.12,25.35a2.06,2.06,0,0,0-1.12.32V23.41h-.9v5.94H59V29a1.94,1.94,0,0,0,1.09.33h0a2,2,0,0,0,2-2v-.08a2,2,0,0,0-2-2Zm1.08,2A1,1,0,0,1,61,28a1.07,1.07,0,0,1-.89.46,1.25,1.25,0,0,1-.53-.13,1.13,1.13,0,0,1-.57-1,1.15,1.15,0,0,1,.16-.57,1.09,1.09,0,0,1,1.62-.29,1.07,1.07,0,0,1,.42.82Z"/><path class="acacd6f4-77c2-4ff8-bcb2-11c743e99d1c" d="M65.8,27.12a1.74,1.74,0,0,1-.1.55,1,1,0,0,1-1,.78,1,1,0,0,1-.63-.18A1.6,1.6,0,0,1,63.6,27V25.35h-.9V27a3,3,0,0,0,.19,1.09,1.84,1.84,0,0,0,1.81,1.26A1.92,1.92,0,0,0,65.8,29v.62a1.64,1.64,0,0,1-.07.43,1,1,0,0,1-1,.68h-.07v.9h.07A1.88,1.88,0,0,0,66.25,31a2.25,2.25,0,0,0,.45-1.3V25.35h-.9Z"/><path class="acacd6f4-77c2-4ff8-bcb2-11c743e99d1c" d="M85.73,23.51H85v.59h0a3,3,0,0,0-1.76-.59,3,3,0,0,0-3,3,3.09,3.09,0,0,0,.59,1.79,2.94,2.94,0,0,0,2.3,1.16h.16A2.87,2.87,0,0,0,85,28.85v.58h1.18V24A.48.48,0,0,0,85.73,23.51Zm-.7,3a1.7,1.7,0,0,1-.32,1,1.75,1.75,0,0,1-1.4.75h-.08a1.75,1.75,0,0,1-.81-.21,1.78,1.78,0,0,1-1-1.57,1.86,1.86,0,0,1,.34-1,1.78,1.78,0,0,1,1.44-.75,1.91,1.91,0,0,1,.9.25A1.75,1.75,0,0,1,85,26.45Z"/><path class="acacd6f4-77c2-4ff8-bcb2-11c743e99d1c" d="M79,27.7a1.71,1.71,0,0,1-1.24.51,1.82,1.82,0,0,1-.86-.23A1.76,1.76,0,0,1,76,26.43a2,2,0,0,1,.25-.93,1.8,1.8,0,0,1,1.51-.85,1.73,1.73,0,0,1,1.23.48.38.38,0,0,0,.56,0l.49-.57a2.87,2.87,0,0,0-2.24-1.06,2.94,2.94,0,0,0-3,3,3,3,0,0,0,.61,1.81,2.91,2.91,0,0,0,2.34,1.15h0a2.91,2.91,0,0,0,1.84-.66,5.37,5.37,0,0,0,.41-.4l-.51-.6A.36.36,0,0,0,79,27.7Z"/><path class="acacd6f4-77c2-4ff8-bcb2-11c743e99d1c" d="M93.71,23.51a3,3,0,0,0-2.28,4.87,2.93,2.93,0,0,0,2.26,1.05h0a2.86,2.86,0,0,0,2-.79l-.75-.9h0a1.85,1.85,0,0,1-1.26.51,1.74,1.74,0,0,1-.8-.19,1.84,1.84,0,0,1-.6-.49.31.31,0,0,1,.24-.51H96.6a2.61,2.61,0,0,0,.06-.59A3,3,0,0,0,96,24.56,3,3,0,0,0,93.71,23.51ZM95,25.89H92a1.63,1.63,0,0,1,1.66-1.2,2,2,0,0,1,.88.23,1.83,1.83,0,0,1,.6.57A.25.25,0,0,1,95,25.89Z"/><path class="acacd6f4-77c2-4ff8-bcb2-11c743e99d1c" d="M74.89,24a.32.32,0,0,0-.25-.52h-.85l-.15.16L72.1,25.5l-1.71-2H68.91l.23.26,2.17,2.69h0l-2.45,2.94h1.55l1.67-2,1.72,2h1.55l-2.49-3Z"/><path class="acacd6f4-77c2-4ff8-bcb2-11c743e99d1c" d="M99.4,23.47h-.52V21.4a.49.49,0,0,0-.48-.48h-.66v2.55H96.68v1.18h1.06v4.73h1.14V24.65h1V24A.48.48,0,0,0,99.4,23.47Z"/><path class="acacd6f4-77c2-4ff8-bcb2-11c743e99d1c" d="M90.74,23.47a3.93,3.93,0,0,0-2.35.67h0V24a.48.48,0,0,0-.48-.48h-.7v5.91h1.18V26.49a1.62,1.62,0,0,1,.14-.65,2.14,2.14,0,0,1,2.22-1.19Z"/></svg>