<svg id="a85489bf-6b99-43c5-b127-61b57cd63124" data-name="Layer 1" xmlns="http://www.w3.org/2000/svg" viewBox="0 0 100 35.99"><defs><style>.bf0a1e27-edad-42da-a02d-0968258d5e6d,.fe66ee52-1d12-4ba6-8ea7-aea847f7960f{fill:#f60;}.bf0a1e27-edad-42da-a02d-0968258d5e6d{fill-rule:evenodd;}</style></defs><path class="bf0a1e27-edad-42da-a02d-0968258d5e6d" d="M35.85,20.5l-.14-.06L35.43,20l-.37-.16-.28.36-.42-.14.19-.22-.33.09-.09-.09-.69.42-.19-.1L33,20l.56-.16-.38-.1L33,19.66,33,19.52l.23-.06.23,0v-.25l.18-.29.3.09.06.2,0,.23-.17.22.44.12.44-.08.47-.09L35,19l-.28-.28-.09-.07v-.13l.09-.06.14-.1,0-.39,0-.4.33-.22,0-.27,0-.26-.19,0-.09.33-.1,0H34.5l-.09-.1,0-.1.19-.59.56-.66v-.42l0-8.26-.46-.23.09-.55.33,0V6l-.28-.26.32-.17V1.74l-.23-.13-.23.09,0,.2-.27,0,.14-.32v-.3L34,.59,33.9.16h-.51L33.2.33l-.37.1-.18-.2-.32.26-.28.1L31.4.46l-.28.13L31,.49,30.8.62l-.56-.1L30,.59l-.09-.2-.18.08-.31,0L29.1.13h-.79l.05.2-.14.16-.7-.06L27.57.1H27L25.9.39l-.46.3-.14.46.09.46,1.12.72.28.19.23.33.69.13.14.07.09.13v.33l.14.25L28,4.05l.23.82-.83,0L27,5v.53l.55-.36.19.33.42.1-.05.45.14.1-.46.13h-.42l.05-.06L27,6.12v.65h.18l.19-.36.28.1,0,.2L28,7l-.09.46-.74.06-.1.43.14.16,0,.23H27l.05.2h.09l.46,1-.09.16,0,.36L27,10v.59h.23l.24-.23-.05.59.28.22-.23.3,0,.2-.23-.2H27l-.05.29h.51l.09.27-.51.1.51.23.14.16-.09.52L27.25,13l-.28.42-.09.27L27,14.8l0,1.37.19.1-.19,2.27,0,.26,0,.06-.14.2.14.13-.09.2-.05.2v.13l-.19.06-.05.13h.14l0,.13-.66.57-.18.16-.14.43.19.46.37.29,1,.06,1.34.06L29.4,22l.52-.34.23.36L31,22l.35-.1.34-.09c.06-.11.65-.15.65-.15l.28.11.23.11a4,4,0,0,0,1,.3l1.58-.29.56-.36.18-.46-.14-.4ZM30.32,7.56l.23-.26-.18-.13.51-.37.37.5L31,7.62Zm.65.3V8L30.55,8l.14-.16Zm-.82-2.33.65-.1v.1l.18,0v.26l.23.14,0,.19-.7.07L29.92,6Zm-.4,3,.32,0,.19-.2h.23l0,.36-.84-.1ZM31,21.06l-.88.2-.09.16-.42,0,0-.23-.18-.1,0-.13.14-.1.28,0,1.11.07-.14-.23.42,0,.37.33ZM32.45,7.13l-.32.17-.42-.1.6-.49h.23Zm15.7,2.14.26-.21-.31-.12c-.29-.13.29-.41.4-.51s-.17-.22-.12-.45a5.13,5.13,0,0,0,0-1c0-.34.15.11,0-.35C48.37,6.49,48.09,6,48,6s-.25-.12-.18-.21l.16-.09V5.53l-.53-.21.11-.22-.37-.21.26-.39.16-.24V4l-.13-.62-.88-1.12-1.12-1L44.61.87l.08.86.57.21-.1.18h-.31l.15.16h-.94l-.42-.1.1-.21L44,1.88l-.31,0,.16-.51-.21-.15,0-.15,0-.53L42.81.35,41.15.22,39.69.27,37,.32l-.37.21-.31.72c0,.9,0,1.08.58,1.12l.74.07.61.12.51.26.27.29.48.09.47.15v.13l.62.37.45.31.23.36v.57l.2,0,.2.16-.06.06-.11.12-.16,0,0,.18.28,0-.09.17.21,0v.27l.23.16-.11.1h-.21l.1.22.17.27c.18-.27.26.34-.11.27.2.07.4.15.18.37s-.44.52-.29.67l0,.32-.37.08L41.5,9l-.27.27-.42.12.29.6-.42,0-.11.3.09.38.18-.08-.06.37-.05,0-1.46.63c-.3.59-1.44.52-1.5.74s-.79.23-.79.23-.3,1.09-.11,1.24L37,14l.46.3,1.47.17,1.58.06,1.23-.15.63-.09,0-.09.52-.12.28-.09.47-.24.31.21,1.1-.18.11-.06V13.6L45,13.52l-.58-.1v-.09h.21l.16-.21L45,13l.42.19-.1-.12.1-.16.21-.09.11-.12.63-.18-.16-.3-.32.18-.52-.15-.42.06-.16-.09L46,11.89l.1-.18,0-.24.42-.06.38.21.24-.13.15-.2-.06-.15.23-.22.19-.26.21-.18-.16-.09.26-.18.11-.57-.37,0Zm-5.32,1.61-.63-.09.26-.09.37.06Zm-.21-.42-.37,0,0-.11.32-.09.36.12ZM43.69,2.6l.16-.15.31.25Zm1.16,2.05h-.32l.21-.21.11-.21.21-.06.1.54Zm.31-1.2L45,3.3l.16-.15.36.33ZM41.85,7.21l-.15,0A.65.65,0,0,0,41.85,7.21ZM86.28,20.29l-.57-.23-.25-.2-.09-.09-.05-.08-.55,0-.22-.2-.36-.26.28-.09-.24-.06.68-.11-.21-.51.16-.29L85,16.27l-.26-.2H85l-.15-7.8-.36.35-.31,0L84,8.33l.76-.16V7.84l.21-.2V7.32H84.7l.36-.2L85,.72l0-.13L84.44.26,83.17.16,82.6.2l.05.42L82.5.75,82.19.59l-.56-.1V.72l-.35,0-.41-.3-.19,0V.46l-.26,0,.15.13-.15.13h-.26l-.1.13L79.81.69l.45-.2L79.91.26H79.5l0,.17-.36-.2h-.3l-.11.1L78.58.2,77.36.1,77,.16,77,.49l-.31.16,0-.45-.39,0-.39.2-.4.26v.37l.31.47.42.18.33.46.37,0,.11,0,.73.49H77.5l-.24.42.11.23-.26,0,0,.23.36.1-.41.1.36.26.11.13,0,.2,0,.16-.26.33L77,4.74l-.1,0-.26.13.05.82L77,5.65l.05.26h-.1l0,.43-.26,0V8.2l.46.23.16.29.1.36-.26,0v.27l-.1.06.2,0v.36l.21.43-.21.13v.42l.26.14-.36.32.36,0-.26.29.46.27-.71-.13.15.13-.15.23.15.1.1.52-.51.1V13h.16l-.21.07v2.55l.72.19-.36.07h.41l.1-.39.51.09v.17l.21.16-.11.36-.3.23.3.1-.3.45L77.06,17l-.2.16.25.19-.2.4v.16l-.72,1.9.29.2-.72.48-.2.1,0,.35.2.56.3.22.57.23.51,0,.15-.13.29,0,.21-.14.33-.17.58.12.5-.08.25,0,.22.19-.2.16,2.1,0,2.67.19,1.23-.16.87-.22.46-.27.1-.39-.25-.55ZM78,1.66l-.1.39L77.57,2V1.69l-.72-.07-.61-.39,0-.1L76.5,1l.2.35.41,0,.1.13.36-.62.36.17.15.19h-.15l-.15.16.41.17Zm1.29,3.21.2-.23.47-.06-.47-.29L79.63,4l.56.1-.1-.2L80.5,4l0,.32h-.31l-.2-.13.1.16h.1l0,.26L79.68,5ZM80.6,21.39H80l.51-.26.26.13ZM81.89,2.48l.25,0-.1.16h-.31ZM81,3.67l.25-.46.26-.07.15.13-.31.3.26.06v.13h-.3Zm1.3,17.65-.36.13-.31-.16h-.25l.56-.29.41.16ZM82.49,2h-.21V1.79h.21Zm.22,7.39.1-.36,1-.45.21.16v.13l-.31.23L83.12,9l.2.26-.1.13-.16,0Zm.76,10.92-.13-.35,0-.2-.3-.09.61-.07.13-.26.21.19-.36.78Zm.38,1.06-.1-.16.1-.1h.26l.35.26Zm15.56-.8-.23-.29L98.86,20l-.45-.41-.19-.22L98,18.8l-.17-.7-.23-.53-.35.1,0-.16.14-.1-.19-.26H97v-.07l-.32-.1.37-.13L97,16.72l-.11-.19-.22-.92.09-.32-.33-.23,0-.16-.28-.4.19-.06-.28-.07.09-.49-.67-.12.08-.36.32,0-.56-.78-.84-.79-.38-.65-.2-.05-.08-.26.6.06.22-.14.19-.17-.19-.16.21-.15.13,0,.19-.15.1-.23.24-.13-.2-.3.23-.06.24,0,.06-.33L96,8.85l.42-.8.18-1.41V6l-.37.1L96.1,6l.15-.49L96.1,5.4l-.65,0,0,.13.28.07-.25.11v.1l0,.18-.2,0-.22-.13L95,6l0,.13.2.07v.16l-.56-.1V6.09l-.1-.1.27-.24-.08-.18-.09-.4L94.89,5l.16.33.13-.23.44-.19.71.06.06-.86L96.25,4l-.23,0,0-.72-.32-.1-.15-.38-.36-.57L94.72,2l.09-.09-.55-.4L94,1.12,93.51.78l0,.22-.14.11-.23-.4-.85-.1L92.1.35l-.59.09L91.23.12l-.69,0-1,.2L89.06.12l-1,0L86.78.41l-.2.2L86,1.28l.48.54.23.3,1.31.16,1,.39.28.43.1.28.42.13-.09.26.19.14L90,3.45l.18.25.18-.06.41.65.47-.13,0,.34.55,0-.28.16-.37.1L91,4.92l.06,0h.19V5h-.37l-.23.06.44,1.5L91,7l-.47.3,0,.65-.14.17-.4-.24.14-.26,0-.16.23-.16,0-.16L90.48,7l0-.13.09-.1.1-.42L90.57,6h-.14l-.14.36-.23.06v.1l.14.1-.47.85,0,.19.1.37.32,0,0,.39-.1.11L90,9l-1.13.9-1.21.5-.69.19-.37.16-.28.43.3,1,.79,0,.45.31.47.21.29.33h.18V13l-.18-.13.09-.2.46.1.38,1,.23.13,0,.1-.19,0,.44.56-.14.06-.09.17.46,0v.36h-.14l.28.2.42.88.58.29v.23l.17.72.28.29-.09.46.09.3v.51l-.19.42-.14.12-1.22.88,0,.26.14.61.47.3.66.26.93.07.43-.07,0-.2.37-.13.09-.06.19.09-.1.1.91.1v-.31l.38.24v-.33l.37.15-.06.18.8,0,.1,0,.18-.07.17.18h.47l.37-.06.18,0V22H98l.87-.27.46-.33.19-.52Zm-10-8.1V12.2l.19-.1,0-.36.24-.1.37.06,0,.33.32.26ZM94,20.93l-.09,0-.23.16-.14.16L93.39,21l.33-.26.28,0,.22,0,0,.18Zm2.31,0,.1-.26h.37l0,.29Zm-37,.07h0Zm.68.94-.15-.05-.61.11Zm-.57-1,.06-.08L59.3,21Zm-.11,0h0l0,0Zm14.27-5.81-.4-.12h-.68l0,.48h-.17l0-.09-.72.16v-.16l-.34.09-.07.31-.29.21-.53.17-.26.55-.37.18.06.24h-.22l.15.11.12-.08.12-.1.06.09.12,0,0,.09-.24.11v.15l-.22.13,0,.08h-.41v-.15l.14-.05,0-.06-.06-.05-.18.07-.34.23-.06.1-.27,0-.3.22.91,0-.37.21-1.14,0L67,18.2l-.23.18-1.86.24L63,18.37l-.65-.24-.31.08-.45-.05-.29.06L61,18.15h-.26l0,.11a1.73,1.73,0,0,1,.31.07s-.09.14-.09.14l-.27-.09-.26-.16s-.1.21-.16.23-.05-.12-.05-.12l.09-.07-.09-.06.06-.08-.22,0,0,.23h-.6l-.27.09.81.09-.25.07-1-.05h0l-.18-.39V17.3L58.45,17l-.32.07-.2.25-.16-.16.11-.19-.07-.29.24-.33.28.26.2-.06,0-1.52-.44,0,.24-.78h.2v-.39l-.2.07,0-.42.16,0,0-.32-.12-.77-.28-.14.2,0,0-.29L58,11.77V11.7l.36-1.19-.32,0L58,10.35l-.4-.06.2-.2V10l-.65-.13,0,.3.29.51.07.36-.2,0,0,.32-.24-.06-.32.16h-.28L56.4,12l-.37.13-.16-.42.36-.19.12-.13,0-.13L56.32,11l.48-.45-.12-.42L56.8,10l-.24.06-.21-.48.57-.49h-.08l-.12-.35.36.1,0,.35.16.19h.21V9.22l.24-.07.24.26,0,.23.16,0-.08-.52,0-.29-.2-.1L58,8.25l-.24.19-.32-.16-.25-.39.32,0,.09.19.24,0,.24-.29-.16,0,0-.32.4-.23-.49,0-.07-.45.12-.16h.2l-.08-.33.36-.09-.2-.07.12-.19L58.17,6l-.24-.16-.28.07.12-1,.4-.06.28-.2V3.14l.2-.55.45-.65.44-.19.16-.36.24-.52L59.87.71,59.26.32,58.74.19V.38h-.2L58.17.19l-.44.39L57.47.5,57.4.44v0l-.89.13L56.36.36l-.61.06L56,.29,53.76.23,53.63.16V.23L52.3.32,51,.19l-1.13,0L48.82.39,48.5.65l-.16.45.12.42.44.32.61.16.09.1.16.13v.49l-.16.13,0,.2.28.16,0,.16.29.2V4.3l0,.36.44.16-.16.32-.36.1v.19l.16,0L50,5.89l.08.16L50,6.18l.28.64L50,7l.16.81v.81l.44.13,0,.42L50.16,9l-.25.36.21.09v.16L50,9.6l.16.42-.41.39.29.2,0,.22-.21-.06v.68l.33.55-.25.51.08.91-.08,1,.13.32-.17.07L50,16.33l-.25.16.12.16-.08.42,0,.36.25-.07.32-.35.4.39,0,.16,0,.13-.32.16,0,.13-.2.16.08.13h.16l-.08.23-.53.06v.16l.25,0,0,.26-.45,0,0,.39-.48.51-.28.33-.61.42-.12.16-.08.46.08.35.2.16.69.13h.56l.53,0,.48-.29.24.23.33-.13.2.06.28-.42h.56l.45-.1.2.33-.11.08-.33,0,.16.16.44,0,.84-.19,1.41,0,.12.06.08.13h.12l.2-.16.28.16.57.1.73,0,.76-.13.63.16.62-.24v0l.36.11.25,0,.8,0,.12.06.49-.14-.09-.09.12-.09.25.22.91.11.1-.07s.73.07.78.05a19.06,19.06,0,0,1,2.15,0l.5-.1.15.15s.52.08.64,0a2.83,2.83,0,0,1,.47-.17h.46l.65.17h.53c.35,0-.65-.16-.65-.16l.39-.14.36.17.41-.31.24.09v.22l1.34.09.56-.06.2-.09.16-.16.08-.37H72l.32-.21L72.23,21l-.12,0L72,20.91l.13-.23.23,0,.16-.22.37-.68-.19-.18.27-.36.26-.29-.06-.46.19,0,.13-.57.08-.25-.2-.07.2-.15v-.17L73.48,17l-.38,0,.19-.19.1.08.09-.15.25-.06.07-.82-.11-.55Zm-16.68-9,.44-.26,0,.39h-.2l0,.13-.48.22-.12-.42Zm-6.12,4.2-.12.06.28.55,0,.17h-.2v-.1l-.24.13.12-.65-.2-.22.24-.16Zm.08,1.13-.36.13v-.42l.32.13Zm-.36-2.1.2.19V10h-.16V9.7l-.2,0Zm.08,3.69-.16-.2,0-.23-.2-.28.08-.43.4-.32.24.23.08.64.16.65v.36l-.32-.1,0-.23Zm.52,3.59-.32-.1.12-.07L51,16.2l.29.16Zm1.36,3.94.32-.16.08.16ZM53.7,1.39l-.2.13-.24.06-.12,0-.32-.22-.17.06.08-.52h.17V1L53.66,1l.08.33ZM54,21.47l-.12-.06.08-.33,1.25.26ZM55.66.73l.4,0-.12.16ZM56.8,17.11l.16-.2.08.26Zm.12-.36-.12-.06.08-.42,0-.59.36.23,0,.13ZM57.49,18l.28.19-.25.07-.12-.13Zm.44,1.91-.2.06-.21-.35.21-.07-.12-.29-.21,0v-.16h.21v-.26l.24.13,0,.16.25.1,0,.48Zm1.66,1.29-.09-.1-.12.24L59.27,21l0,0-.15-.12.18-.22L59,20.33l.14-.25.18-.09.34.08,0,.23-.1.15.16.05,0,.21-.14.16.34-.22.17.19Zm1.33-1.31-.44,0-.09-.19.12-.22.26.27.15-.15.26-.12Zm10.3.53-.16.23v.16l-.2,0,0,.17-.2,0-.09.28-.21.14-.26-.22.18-.25.4-.25.15-.27.37,0v0l0,0Zm1.33-3.65-.18-.14-.07-.11h-.37l0-.12s-.24-.07-.21-.13,0-.14.06-.16.31-.17.32-.12-.14.21-.14.21l.3.23.3-.08-.07.21.23.07ZM7,18.26,8.4,16.79l.81-1-.28-.4-1.26-2-.38,0-.13,0-.41.19.33.07.17.26-.41.2-.17-.19L6,14.35l0,.48-.21.33-.67.05.06.46-.08.79-.29-.07H4.57L4,17.12l-.24.19.2.2-.16.13-.25-.17L3,18.26h.28v.29l-.33,0-.3-.33-.21.16v.2l.21.1L2.8,19l-.39,0-.2,0-.29.11.16.3.07.63-.16,0-.32-.36.15-.17L1.7,19.5l-1.37.81-.08.16-.08.37.12.42.33.29.66.17.05,0-.17-.16.08-.17,1.24.21L3,21.39l.49-.1.17.33,3.41.26,1.07,0,.46-.38.13-.83-.08-.36-1.86-.69-.16-.19-.09-.33,0-.33ZM16.84,2.33l.13.26-.09.49.21,0v.17l-.29,0,.5.42L17,4l-.33-.33-.33.07L16.18,4l.13.06.34.14.12.32-.16.07v.1l-.5-.13L16,4.46l-.29.22L15.45,5l0,.46L16.29,7l.41.09.17.07.2.17.54-.66.55-.38h-.31l-.06.07-.37-.07h.43L19,5l-.29-.14L19,4.64l.21.13.57-.59-.12-.1.21-.34.21,0,1-.51V3l.8.12-.05-.17.3-.56.46,0,.22-.21,1.09-.57L24,1,23.9.64,23.61.35,23.2.19l-.42,0L22.5.35l-.25,0L22.08.12l-1,.18L21,.27l-.24,0-.09.1-.29,0V.24l-1.1.13L19.19.24,16.93.17,15.85.34l-.37.23-.2.29.08.72Zm7.07,17.46-.54-.19-.52-.34L22.76,19l-.36-.66-.35-.69-.29-.09-.25-.2.13-.49.58,0-.17-.33-.21.07,0,.22-.25.07v-.2l-.41-.29L21,15.93l-.33,0-.08-.29-.54-.36,0-.33L20,14.56l-.16-.13-.37-.1-.62,0,.2-.92-.24-.16-.17-.2-.12,0-.13-.23v-.2l-.16-.06.08-.2h-.16l-.13-.26-.12-.06v-.27l-.29-.06,0-.26.21.06-.21-.29-.29,0-.2-.19H17l0-.39h.25v-.27l-.37-.36.61,0-4.14-6-.49-.13-.21,0,.08-.33-.36,0-.09-.13L12.59,3l-.2-.1L12.18,3l0-.23.41-.13.17-.36.61-.36L14,1.47l.08-.26L14,.78,13.5.36,12.76.13l-.5,0-.08.16L11.32.19l.2-.16L11.2,0,11,.13h-.29v.2l-.49-.1-.13.1V.52L9.5.46,7.35.28,7,.32,6.3.17,6.46.09,5.92,0,5.44.24l-2,.24V.64L3.13.52,3,.68,2.76.45,2.4.28,1.89.45H1.05L.41.71.12,1,0,1.43l.12.39,1.24.63-.23.35.71.76.24.36.54,0,.12.36.66,1,.17.39L4,5.85l-.16-.63-.17,0,.37-.36.25.3.12.58.5-.06L4.76,4.9l-.33-.1.09-.13.74,0,0,.2.16.2v.16l.25.1-.25.29-.24-.09-.13.06.25.2.49,0L6.08,6l.12.26.13.42,0,.1L6.08,7l.33.32.29.5.37.81,0,.33H7l.2.56,0-.33.13-.07.41.36.37.62.21,0,.12-.26.21-.1-.17-.06-.08-.37.57,0-.08.23.17.23v.13l-.29.1.2.13v.19l-1.27.14.08.29-.37-.07v.2l.08.36.45.19.13,0,.21.39.28,0,1.12.23-.13.33.33.26,0,.36-.41-.1-.25-.32-.62,0-.2-.26-.25,0v.3H8l1.27,1.73.42.42.08.27.2.32.38-.13.24.3v.19l-.16,0,0,.23.49-.09.37.78.74.82-.12.1.45.26v.46l.66.39.13.22.12.3-.16.06.2.14.21.29-.54.2-.08-.07-.33,0-.37.42-1.2.53-.08.68.16.29.5.33,1,.2.91-.1.53-.23,1.24,0,.14.15.1.18.7-.07.09-.26.41,0,.29.17.37-.1.12.06,2.46-.19-.2-.09-.12-.08.65-.1.42.2.45.2.57-.2.54.16.08-.13,0,.1.08.17.37.06V22l.33-.14,0,0,.76-.17.25-.23.12-.29,0-1.08ZM8.31,1.08V.88L8.8,1ZM9.83,12.31l-.08-.09.16-.17v.2Zm-.41,1.15,0-.2.37-.06.45.22-.33.23.05.07Zm1.28,1.67L10.61,15l-.78-.19.08-.36.42-.1.08-.23.45,0,.29.79Zm8.88,2.24.16-.59c.37.1.41.17.37.59l-.74.26-.08-.29Zm1,1.48-.29-.13L20,18.65l.28.34-.41-.07,0-.13-.7-.07L19,18.59l-.41.23.08.13.62,0,.12.16-.95.3-.2-.39.12-.17,0-.3.58-.1,0-.22h.33l.2.22h.87l.16.17h.17l0-.29.62.09,0-.26.2.46ZM23.06,22l-.07-.1-.16,0ZM59.84,6.31l-.08.33.08.48-.1,0,.07.48L59.69,8l.1.67.19.83.42,1.06.22.39.17.22.07-.06,0-.18.26-.23.15.1V11l.25.14,0,.24.32.31v.12l.22.06,0,.35h-.13l.1.18h.29l0-.12.44-.12.24.16.1.18h.08v.08l.24.25-.17.16,0,.14,0,.19.12.14.59.3,1,.33.88.16.51.16.46-.11.3-.29.08-.35-.08-.55-.66-.57-.5-.83-.22-.1.12-.07-.12-.08,0-.26h-.14v-.41l-.08-.34.08,0-.36-.25,0-.34-.09-.13,0-.18.11-.18.1-.06,0-.06L65.2,9l-.15-.24.17-.24-.15-.17-.13-.26-.29-.33-.22-.06.12,0,.1-.12-.05-.06.37,0,.09-.11,0,.25,0-.35-.12,0V7.08L65,7.1l0-.67.1-.25.17-.2,0,0L65,6l0-.12L65,5.74l.12.14V5h-.09l0,.17L65,5.25v.2l0,0,.06-.12v.1l-.06,0,0,.12v-.1l-.11,0,0-.18,0-.27-.22-.12L64.45,5l-.12,0,.37-.14-.08-.06.08-.1-.08-.06.31-.27.1-.07-.1-.19,0-.3-.07-.19L65,3.48l.27-.12.27,0,.05.14-.15.18.12.07,0,.28.3-.14,0,0,.07-.9.34-.51.24-.16.54-.42.1-.33,0-.31,0-.18L67.1.53,67,.43l-.17,0-.12,0-.24.2L66.36.57h-.1l-.14.18L66,.82h0L65.8.57h-.15L65.51.43l-.1.12-.27,0,.1,0-.2.2L64.9.88,64.75.83l-.2-.11-1.29.46.15.06-.2.08h-.15l-.07,0,.15.15-.1,0,.05.16-.17,0-.05.1.05.07-.05.14-.42,0-.15.1-.07-.06-.09.14-.27.12v.19l-.25,0-.24.22L61.3,3l0,.31-.17.12L61,3.58l0,.06,0,.08-.21.07-.13.45-.17.1v.1l.07,0-.07.08-.12-.06-.17.2,0,.45-.07.2-.1,0v.59h-.19ZM75,6.21l0,.08.1.2h.09l0,.33-.07-.11-.17,0,0-.63.19-.16.17.3,0-.36-.25-.75-.24-.25,0,.11L74.54,5l0-.27,0-.22-.12,0,.12,0,0-.08h-.17l0-.12-.22-.11-.12.11,0,.1-.34.08V4.34l-.07-.06h-.12l-.05-.17.12,0,0-.2.2,0,.15.16h.19l0-.22,0-.17H74l.11-.57-.17,0-.15-.17-.15,0-.41,0,0-.23.05-.14-.07-.25-.25,0-.11,0,0,0,0-.1h-.22l-.15-.31-.08,0V1.75l-.09,0-.1-.14.12-.08-.22-.14-.61-.33L70.54.63,68.88.37l-.32,0-.34.08-.1.1-.1.77.09.56,1,.83.13,0,.59,1.62.36,1.51-.08.27.1.4,0,.08-.07.14.07.21,0,.26,0,.25-.1.16L70,7.83l-.19.06.07.13V8.1l.15.08L70,8.3l-.1.08.17.23,0,.18-.22,0,0,.15-.12,0,0,.13,0,.1V9.5l-.12.08.1.19.12.4-.44,1.06,0,.16.24.55H69.4l-.32.22-.33.36-.63.54-.15.65.1.29.38.44.29-.06.19-.22v.06l.41,0,.15-.08.15.06.19-.18.22.1.15,0,0-.17H70.1l-.17-.23-.32.31,0-.15.24-.14,0-.08,0-.1,0,0-.12,0,0-.29.24,0,.12.11-.07.22h.14l.1.1-.1.06.08.18h0l.17,0V14l.37-.11.91-.34.74-.51.32-.22h-.2l.24-.15.17.07,0-.11-.07-.16.46-.12L73.26,12l.36-.14V11.7l-.07,0,.15-.13h.12l.05.14.12,0,0-.17.07-.07-.1,0-.15-.08h.15l-.1-.14,0-.35-.1,0,0-.14.12-.1-.05,0,.08-.24.34,0,0-.09.15-.22h-.05l0-.14.12,0,.3,0,.29,0,0-.25L75.4,8V7.43l-.08-1.22Zm-5.57,7.54,0-.12-.15,0,.22-.16v.18l.07.06Zm3.31-1.28-.32-.06v.1l-.12-.12,0-.12,0,0L72.5,12l.19,0,0,.11h.15l-.12,0,.15.1,0,.14Zm.15-.83,0,.14-.1,0,0,.2-.15-.14,0-.14.13,0-.2-.15v-.1l.12,0,.27,0,0,.13Zm1.23-7,0,.13-.1,0v.11L74,4.6l.29,0Zm.68.87L75,5.47l.17.25h-.24l0,0,0-.08Zm0,1.47h-.15L75,6.86l.2.06ZM65.51,4.13h-.14l-.15.29L65,4.6l.05.22h.1l.07-.12,0-.12.37-.12ZM62.6,12.59l.07-.06-.27,0,0,0Zm10.12-.42h-.07l0,.16h.13v-.06l-.1,0Zm2.6-6h0ZM63.06,12.53v-.08l-.17.08Z"/><path class="fe66ee52-1d12-4ba6-8ea7-aea847f7960f" d="M58.52,29.47a2,2,0,0,0-1.15.34V27.47h-.93V33.6h.93v-.34a2.05,2.05,0,0,0,1.13.34h0a2,2,0,0,0,1.23-.42,2,2,0,0,0,.81-1.61v-.08a2,2,0,0,0-.42-1.22A2,2,0,0,0,58.52,29.47Zm1.11,2.1a1.08,1.08,0,0,1-.21.62,1.11,1.11,0,0,1-.92.47,1.16,1.16,0,0,1-.54-.13,1.14,1.14,0,0,1-.59-1,1.22,1.22,0,0,1,.16-.59,1.14,1.14,0,0,1,1-.55,1.06,1.06,0,0,1,.71.25,1.09,1.09,0,0,1,.43.84Z"/><path class="fe66ee52-1d12-4ba6-8ea7-aea847f7960f" d="M64.38,31.3a2,2,0,0,1-.11.57,1,1,0,0,1-1,.79,1.11,1.11,0,0,1-.65-.18,1.65,1.65,0,0,1-.5-1.3V29.47h-.93v1.7a3.24,3.24,0,0,0,.2,1.13,1.89,1.89,0,0,0,1.86,1.3,2,2,0,0,0,1.14-.33v.64a1.65,1.65,0,0,1-.08.44,1,1,0,0,1-1,.71h-.07V36h.07a2,2,0,0,0,1.54-.69A2.32,2.32,0,0,0,65.31,34V29.47h-.93Z"/><path class="fe66ee52-1d12-4ba6-8ea7-aea847f7960f" d="M85.35,27.53h-.72v.6h0a3,3,0,0,0-1.81-.6,3.09,3.09,0,0,0-1.75.54,3,3,0,0,0-1.3,2.51,3.15,3.15,0,0,0,.61,1.85,3,3,0,0,0,2.37,1.19h.16a3,3,0,0,0,1.74-.6v.6h1.21V28A.49.49,0,0,0,85.35,27.53Zm-.72,3.11a1.77,1.77,0,0,1-.34,1,1.82,1.82,0,0,1-1.44.77h-.08A1.82,1.82,0,0,1,81,30.57a1.91,1.91,0,0,1,.35-1.06,1.82,1.82,0,0,1,1.48-.77,1.93,1.93,0,0,1,.93.26,1.81,1.81,0,0,1,.91,1.55Z"/><path class="fe66ee52-1d12-4ba6-8ea7-aea847f7960f" d="M78.44,31.84a1.77,1.77,0,0,1-1.28.52,1.84,1.84,0,0,1-1.84-1.83,2,2,0,0,1,.27-1,1.87,1.87,0,0,1,1.55-.88,1.78,1.78,0,0,1,1.27.5.39.39,0,0,0,.58,0l.5-.59a3,3,0,0,0-2.31-1.09,3,3,0,0,0-3.07,3,3.12,3.12,0,0,0,.63,1.87,3,3,0,0,0,2.41,1.19h0a3,3,0,0,0,1.9-.69,5.64,5.64,0,0,0,.42-.41L79,31.86A.38.38,0,0,0,78.44,31.84Z"/><path class="fe66ee52-1d12-4ba6-8ea7-aea847f7960f" d="M93.57,27.53a3,3,0,0,0-2.35,5,3,3,0,0,0,2.33,1.08h0a3,3,0,0,0,2.06-.81l-.77-.93h0a1.86,1.86,0,0,1-1.29.53,1.88,1.88,0,0,1-.83-.2,1.7,1.7,0,0,1-.61-.51.32.32,0,0,1,.25-.52h4.18a5,5,0,0,0,.06-.61,3.09,3.09,0,0,0-.72-2A3,3,0,0,0,93.57,27.53ZM94.86,30h-3a1.67,1.67,0,0,1,1.71-1.23,2.07,2.07,0,0,1,.9.23,2.11,2.11,0,0,1,.63.59A.27.27,0,0,1,94.86,30Z"/><path class="fe66ee52-1d12-4ba6-8ea7-aea847f7960f" d="M74.17,28a.33.33,0,0,0-.25-.54H73l-.15.17L71.3,29.57l-1.76-2.09H68l.23.27,2.24,2.77h0l-2.52,3v0h1.59l1.73-2.1,1.77,2.1h1.59l-2.56-3.06Z"/><path class="fe66ee52-1d12-4ba6-8ea7-aea847f7960f" d="M99.43,27.48h-.54V25.35a.5.5,0,0,0-.49-.5h-.68v2.63H96.63v1.21h1.09v4.89h1.17V28.69h1V28A.5.5,0,0,0,99.43,27.48Z"/><path class="fe66ee52-1d12-4ba6-8ea7-aea847f7960f" d="M90.51,27.48a4,4,0,0,0-2.42.69h0V28a.49.49,0,0,0-.49-.5h-.72v6.1h1.21v-3a1.74,1.74,0,0,1,.15-.67,2.22,2.22,0,0,1,2.29-1.23Z"/></svg>