<svg id="ad1c0960-e4ab-4140-8a1b-a9eb31545b89" data-name="Layer 1" xmlns="http://www.w3.org/2000/svg" viewBox="0 0 100 42.75"><defs><style>.a430d98a-9c30-4a32-ba7b-1e836cb7e53b,.be588c40-370c-4ee4-aa73-f847ebff7013{fill:#fff;}.a430d98a-9c30-4a32-ba7b-1e836cb7e53b{fill-rule:evenodd;}.a16338a3-09a3-4812-9fe5-a15524282346{fill:#0abcbc;}.bc8a7a51-ff8d-4db7-9893-abdb26e3fff7{fill:#00a2a6;}.fcaf46df-e97c-461f-8baf-30df1aee191f{fill:#0095d9;}.bb2aa91e-bb8f-4bd6-924a-36725ac8a4b2{fill:#01296c;}.e3357c89-bac2-4caa-9bbd-ed80d74d6613{fill:#85a113;}</style></defs><path class="be588c40-370c-4ee4-aa73-f847ebff7013" d="M52,.07a20.1,20.1,0,0,0-5.25,2.35,8.68,8.68,0,0,0-3.34,3.05,20.59,20.59,0,0,0-1.05,4,14.05,14.05,0,0,0,.49,4.39c.25,1,.68.59.85,1.51,0,.21.21.69.24,1s-.09.36-.06.5c.09.44.23.35.59,1a8.76,8.76,0,0,0,1.08,1.47,7.44,7.44,0,0,0,3,1.9c.78.29,2.88,1.31,4.2,1.32a9.93,9.93,0,0,0,5.76-1.93,19.25,19.25,0,0,0,3.26-3.19,5.45,5.45,0,0,0,.62-3c0-.64-.58-1.15-.51-1.87s.49-.77.68-1.51a11.85,11.85,0,0,0,.21-3c-.1-.51-1-1.86-1.65-3.16a7.49,7.49,0,0,0-3.32-3.21C56.44,1,54.2-.31,52,.07Z"/><path class="a430d98a-9c30-4a32-ba7b-1e836cb7e53b" d="M52.74,9.81s-.05,0-.09,0,.06,0,.09,0"/><path class="a16338a3-09a3-4812-9fe5-a15524282346" d="M54.08,16.89a2.64,2.64,0,0,0,.56-.19,1.91,1.91,0,0,0,.81-.56,1.86,1.86,0,0,0,.38-.65A1.57,1.57,0,0,0,55,13.62l-.44-.15a3.38,3.38,0,0,0-.72-.11c-.23,0-.45.06-.67.09a1.67,1.67,0,0,1-.23.12c-.24.11-.52.14-.75.24a.72.72,0,0,1-.28.07,1.73,1.73,0,0,0-.64.12,3.38,3.38,0,0,0-1,1.17,1.21,1.21,0,0,0-.07,1.5c.28.32.68.28,1.09.35l.21,0h0a3.24,3.24,0,0,1,.43,0,2.91,2.91,0,0,0,.69,0l.13,0c.15-.11,0-.22-.14-.27l-.37-.1c-.64-.2-.58-.9-.11-1.27a2.29,2.29,0,0,1,2.07-.21c.67.22.5,1.09,0,1.4a3.36,3.36,0,0,0-.33.16C53.71,16.84,53.92,16.91,54.08,16.89Z"/><path class="a16338a3-09a3-4812-9fe5-a15524282346" d="M57,14.34a1.2,1.2,0,0,0-.27-.54c-.3-.29-.33.06-.33.18a.75.75,0,0,0,0,.15,3.86,3.86,0,0,1,0,1,1.93,1.93,0,0,1-.06.42,2.25,2.25,0,0,1-1.78,1.51,6,6,0,0,0-.85.13,2.77,2.77,0,0,1-.64.11,12.78,12.78,0,0,1-1.75,0h-.07c-.25,0-.49-.06-.72-.1l0,0-.28-.08,0,0A1.64,1.64,0,0,1,48.81,16,1.82,1.82,0,0,1,49,14c.15-.15.23-.42.38-.59a2,2,0,0,1,.52-.39,5.85,5.85,0,0,1,1.4-.5c.51-.15,1-.34,1.52-.45a3.92,3.92,0,0,1,1.6,0c.26,0,1.18.31,1.34,0s-.26-.53-.45-.65l-.42-.2c-.14-.08-.36-.3-.51-.32s-.42-.24-.73-.26a1.88,1.88,0,0,0-.8-.14c-.19,0-.37-.06-.54-.06a6.09,6.09,0,0,0-2.68.8A4.24,4.24,0,0,0,48,12.33a4.25,4.25,0,0,0-.46,2.93,4.09,4.09,0,0,0,.32,1.15,3.31,3.31,0,0,0,2.28,1.34,8.34,8.34,0,0,0,1.21.1,6,6,0,0,0,1.47-.14,14.45,14.45,0,0,0,3-1,2.51,2.51,0,0,0,.44-.35.67.67,0,0,0,.26-.27,2,2,0,0,0,.42-.82v0a1.59,1.59,0,0,0,.09-.33A2.76,2.76,0,0,0,57,14.34Z"/><path class="bc8a7a51-ff8d-4db7-9893-abdb26e3fff7" d="M53.84,16l0-.06c-.15-.28-.58-.23-.82-.1a.36.36,0,0,0-.16.45c0,.07.28.29.31.14s-.19-.1-.14-.24a.46.46,0,0,1,.32-.2c.1,0,.26,0,.34,0s0,.23,0,.33C53.86,16.38,53.88,16.17,53.84,16Z"/><path class="fcaf46df-e97c-461f-8baf-30df1aee191f" d="M61.25,11.36c0-1-1.12-1.86-1.69-2.42A15.4,15.4,0,0,0,57,6.72a16.71,16.71,0,0,0-4.55-.82,6.85,6.85,0,0,0-3.08,1.39,15.89,15.89,0,0,0-2.64,2.17,4.86,4.86,0,0,0-1.18,3.21,4.35,4.35,0,0,0,1,2.47c.87.47-.13-1.56-.22-2.13a3.32,3.32,0,0,1,1-2.21A5.92,5.92,0,0,1,51,9.33a26.86,26.86,0,0,0,3.51-.65,4,4,0,0,1,2.82.47A9.38,9.38,0,0,1,60,11.84c.61,1.13.09,3-.26,3.73s-1.21,1.86-.74,2.08,1.17-1.21,1.48-1.82A16.78,16.78,0,0,0,61.25,11.36Z"/><path class="fcaf46df-e97c-461f-8baf-30df1aee191f" d="M59,11.75A5.4,5.4,0,0,0,54.7,9.68c-.29,0-.89,0-.46.39a15.74,15.74,0,0,0,1.92,1.11,4.64,4.64,0,0,1,1.78,1.71,2.72,2.72,0,0,1,.28,1,2.69,2.69,0,0,1-.4,1.95,7.17,7.17,0,0,1-1.59,1.43c-.5.19-1.25.39-1.75.58a10.62,10.62,0,0,1-2.71.48,9.06,9.06,0,0,1-1.56-.07,3.89,3.89,0,0,1-1.07-.2c-.36-.15-.62-.43-1-.61a5,5,0,0,1-.59-.34,4.33,4.33,0,0,1-1.23-1.36c-.1-.17-.3-1-.59-.84a7.07,7.07,0,0,0,1,2.15l.13.15A5.42,5.42,0,0,0,50.42,19a10.72,10.72,0,0,0,2.12,0c.62,0,1.24-.05,1.86-.14a6.12,6.12,0,0,0,4.52-2.67A4.51,4.51,0,0,0,59,11.75Z"/><path class="bb2aa91e-bb8f-4bd6-924a-36725ac8a4b2" d="M45.53,17.17c.52-.34-.43-1.17-.83-1.64a7.65,7.65,0,0,1-.56-3.34c0-1.22.7-1.74,1-2.43a5.71,5.71,0,0,1,1.56-2.34c.65-.44,2-1.82,2.86-2.34s4.16-.22,5.85,0a8.31,8.31,0,0,1,4.38,2.61,8.2,8.2,0,0,0,1.13,2,6.08,6.08,0,0,1,.91,2.47c.09.53.47-.13.65-.3a11,11,0,0,0,.22-2.95c0-1.21-1.39-2.77-1.91-3.47S59.79,4,59.19,3.3,56.93,2.09,56,1.61a11.61,11.61,0,0,0-4.12-.48,9.73,9.73,0,0,0-4,1.65c-.95.65-3.29,1.86-4,2.9S42.67,10,42.67,12.4a5.15,5.15,0,0,0,1.65,4C45,17.22,45.53,17.17,45.53,17.17Z"/><path class="bb2aa91e-bb8f-4bd6-924a-36725ac8a4b2" d="M62.36,13.29c0-.15-.09-.47-.3-.47H62c-.2.07-.25.39-.28.62a1,1,0,0,1,0,.12c-.07.33-.16.66-.26,1a10.53,10.53,0,0,1-.88,2l-.08.15a4.28,4.28,0,0,1-1.12,1.49,1.73,1.73,0,0,0-.28.26l-.11.12-.13.09a.28.28,0,0,0-.14.1,2.7,2.7,0,0,1-.9.52,3.61,3.61,0,0,0-.44.21h0a7.59,7.59,0,0,1-1.45.66l-.73.23c-.18.06-.35.13-.53.18l0,0a5,5,0,0,1-1.71.32c-.44,0-.89-.09-1.31-.15L51,20.67a6.58,6.58,0,0,1-1.93-.51L49,20.09c-.54-.26-1-.5-1.61-.71A4.5,4.5,0,0,1,46,18.51L46,18.45l-.37-.28c-.15-.11-.31-.23-.46-.36a1.59,1.59,0,0,1-.31-.35l-.07-.12c-.14-.27-.14-.28-.18-.28h0c-.07-.16-.22-.46-.5-.46a.43.43,0,0,0-.19,0l0,0v.05a.58.58,0,0,0,0,.19.43.43,0,0,1,0,.11v0l0,0a.29.29,0,0,1,.12.18l0,.09a2.21,2.21,0,0,0,.38.56,1.46,1.46,0,0,1,.16.19l.18.25a4.7,4.7,0,0,0,.34.44,6.57,6.57,0,0,0,1.54,1.09,16.06,16.06,0,0,0,3.94,1.74,6.64,6.64,0,0,0,1.53.17,16,16,0,0,0,3.94-.65h0a7.9,7.9,0,0,0,2.38-.9,7.53,7.53,0,0,0,1.81-1.8l.21-.27c1.06-1.39,2.26-3,1.86-4.84Z"/><path class="bb2aa91e-bb8f-4bd6-924a-36725ac8a4b2" d="M57.56,18.16c-.26.18-.49.38-.77.54-1.11.64-2.5.42-3.72.67a6.7,6.7,0,0,1-2,.11,12.88,12.88,0,0,1-1.87-.19,2.78,2.78,0,0,1-.8-.26c-.1-.05-.51-.39-.62-.23s.91.77,1.06.82a6.68,6.68,0,0,0,1.59.37c.75.09,1.5.22,2.25.25A7,7,0,0,0,55,19.92a10.81,10.81,0,0,0,1.93-.69,3.29,3.29,0,0,0,1.33-1.31v0C58.12,17.66,57.68,18.07,57.56,18.16Z"/><path class="e3357c89-bac2-4caa-9bbd-ed80d74d6613" d="M43.46,18.79a16.26,16.26,0,0,0-1.22-1.36c-.38-.45,0-1.24-.43-1.68-.66-.76-1.09-3.52-1-4.51a35.93,35.93,0,0,1,.71-4.06,6.13,6.13,0,0,1,.38-1.46c.39-.74.93-1.31,1.28-1.94.11-.2.55-.67.64-.88.32-.72.3-1.11-.51-1.11-.63,0-3.23.64-4.81.79-.42,0-.85-.27-.85.58V9.11c0,.41,0,.9-.7.17A68.39,68.39,0,0,1,32.25,3c-.34-.63-.38-.87-1.35-.83-.78,0-2.06,0-2.66,0h-.11c-2,0-10.41.21-11.1.21-.3,0-.76-.05-.9.4-1-.26-1.95-.51-2.35-.63-.58-.19-.92-.29-1.26.39A27.44,27.44,0,0,1,10.45,6.1C9.89,6.69,9.6,6.81,9,6c-.8-1.19-1.9-3-2.26-3.62-.22-.31-.29-.63-1.26-.36S.73,3.43.41,3.48s-.63.36,0,1S4.93,9.63,5.3,10c.48.61.39.81,0,1.51s-4.77,6-5,6.37S-.27,19,.73,19.08a41.12,41.12,0,0,1,4.88,1,1.28,1.28,0,0,0,1.49-.61A31.45,31.45,0,0,1,9,16.16c.32-.36.41-.9,1.14,0,.61.7,2.31,3.23,2.63,3.6s.65.51,1.53.24l1.56-.45c0,.35.21.55,1,.5,1.24-.09,8.85,0,11.15,0a1,1,0,0,0,.44.06c.16,0,.41,0,.81,0,1,0,2.44,0,2.83,0,.54,0,.79-.1.72-.58s0-6.22-.05-6.43.05-.93.5-.32,3.59,5.12,4.17,6.07.91,1.21,1.65,1.16,4.68,0,4.91,0C44.87,20,43.47,19.19,43.46,18.79ZM14.24,12.25c-.51-.53-1.26-.78-.05-2.19.46-.51,1.18-1.41,1.89-2.32,0,2.12,0,4.62-.07,6.72C15.15,13.37,14.4,12.4,14.24,12.25Zm6.83,2.85c0-.54-.3-1.53.21-1.58,1.12-.13,4.78-.17,5.1-.13s1.21.39,1.17-.67c0-.78-.54-1.83-.83-3.21-.22-1.15-.07-.78-1.22-.68-.41,0-2.59.24-3.63.22-.85,0-.8-.27-.8-.59s-.25-1.36.26-1.41a45.32,45.32,0,0,1,6.05.27l.55.07c.06,1.94.1,3.93.08,4.69s-.05,2.06-.07,3.46c-2.29.07-5.35.12-5.71.12C21.7,15.66,21.07,15.66,21.07,15.1Z"/><path class="e3357c89-bac2-4caa-9bbd-ed80d74d6613" d="M99.68,12.39c-.72-1.8-2.56-2.42-4.34-3a13.35,13.35,0,0,1-2.25-.91A1.79,1.79,0,0,1,92,6.35c.27-.8,1.32-.86,1.92-.82A6.05,6.05,0,0,1,98.1,7.62l0,0a.43.43,0,0,0,.42.16.35.35,0,0,0,.31-.28L99.45,4a.76.76,0,0,0-.08-.46A1,1,0,0,0,99,3.21a15.15,15.15,0,0,0-5.72-1.33c-2-.13-4.67,0-6.24,1.5a4.88,4.88,0,0,0-.52.59,10.61,10.61,0,0,1-.18-1.22c0-.63-.31-.66-1.14-.58s-4,.12-6.74.17h-.84l-2.86,0a2.6,2.6,0,0,0-.39,0c-2.53,0-5.64,0-6.59,0-1.62,0-5.37,0-6-.15s-1-.17-1.22.48c-.07.28.6.76.8,1A7.37,7.37,0,0,1,62.9,5.09c.31.52.42,1.78,1,1.89.29.06.43-.11.61.17s-.06,3.34,0,3.94-.44,1-.4,1.47a15.43,15.43,0,0,1,.43,1.86,3.11,3.11,0,0,1-.63,1.85,13.57,13.57,0,0,1-1.66,2.43c-.31.31-.48,1.19.13,1.19s3.82-.12,4.83-.1c.82.05,2.12.05,2.53.05s.8.17.63-.7a62.65,62.65,0,0,1-.46-6.33c0-1.26.1-4.17.17-4.8s0-.8.55-.77c.33,0,1.81,0,3.22.09,0,4.54-.11,11.14-.15,11.61,0,.68-.21,1.16,1,1.09,1.36-.1,8.1,0,9.41,0s1.46.12,1.63-.63l0-.14a13,13,0,0,0,3.68,1.06l.42,0c3.78.25,7.68-.77,9.24-2.87A6,6,0,0,0,99.68,12.39Zm-6,1.95c-.2,1.14-2.24,1.76-3.85,1.66h-.07A3.23,3.23,0,0,1,87,14.29h0a.43.43,0,0,0-.42-.19.39.39,0,0,0-.36.27l-.26,1h-.13c-.95.15-5.35.25-5.88.25s-1.17,0-1.17-.56-.29-1.53.22-1.58c1.12-.13,5.3-.17,5.62-.13s1.21.39,1.16-.67A31.68,31.68,0,0,0,85,9.51c-.22-1.15-.08-.78-1.22-.68-.41,0-3.11.24-4.15.22-.86,0-.81-.27-.81-.59s-.24-1.36.27-1.41a51.34,51.34,0,0,1,6.46.27l.18,0c.39,2.85,2.76,3.71,5.73,4.78l.41.14C93.37,12.81,93.89,13.39,93.71,14.34Z"/><path class="bb2aa91e-bb8f-4bd6-924a-36725ac8a4b2" d="M3.67,28.78l0,.94H0q.06-1.29.06-2.91c0-1,0-1.92-.06-2.65H3.47l-.05.94C2.57,25.05,1.79,25,1.1,25c0,.39,0,.86,0,1.4.6,0,1.23,0,1.91-.05v.89c-.67,0-1.3,0-1.91,0q0,.87,0,1.62C2,28.85,2.79,28.83,3.67,28.78Z"/><path class="bb2aa91e-bb8f-4bd6-924a-36725ac8a4b2" d="M9.19,29.72h-1A10.61,10.61,0,0,0,7,27.87a10.35,10.35,0,0,1-1.4-2.41H5.5a15.18,15.18,0,0,1,.1,1.69c0,.7,0,1.56.06,2.57h-1c0-.88.07-1.85.07-2.91s0-1.92-.07-2.65H5.88a8,8,0,0,0,1,1.81,10.78,10.78,0,0,1,1.29,2.27h.07a15.49,15.49,0,0,1-.1-1.7c0-.78,0-1.57-.06-2.38H9.19c0,.71-.06,1.59-.06,2.65S9.15,28.85,9.19,29.72Z"/><path class="bb2aa91e-bb8f-4bd6-924a-36725ac8a4b2" d="M11.63,29.72H10.42q.06-1.32.06-2.91c0-1,0-1.92-.06-2.65h1.21c0,.72-.05,1.6-.05,2.65S11.59,28.86,11.63,29.72Z"/><path class="bb2aa91e-bb8f-4bd6-924a-36725ac8a4b2" d="M17.26,29.58a7.26,7.26,0,0,1-1.7.26A2.92,2.92,0,0,1,13.33,29a2.75,2.75,0,0,1-.75-2,2.93,2.93,0,0,1,3.11-3,5.6,5.6,0,0,1,1.22.12l-.15,1a4.6,4.6,0,0,0-1.2-.18,1.63,1.63,0,0,0-1.34.55A2.08,2.08,0,0,0,13.77,27a2.2,2.2,0,0,0,.5,1.42,1.68,1.68,0,0,0,1.37.6,3,3,0,0,0,.56,0,7.26,7.26,0,0,1-.06-.93,6.85,6.85,0,0,0-.09-1h1.21c0,.44,0,.88,0,1.33S17.24,29,17.26,29.58Z"/><path class="bb2aa91e-bb8f-4bd6-924a-36725ac8a4b2" d="M24.72,29.72H23.47c0-.48,0-1.3-.09-2.45s-.09-1.86-.09-2.15h-.06c0,.17-.11.49-.23.95s-.35,1.14-.69,2a8,8,0,0,0-.51,1.61h-.94a8,8,0,0,0-.49-1.63q-.48-1.35-.63-1.89a10.46,10.46,0,0,1-.24-1.08h-.06c0,.36,0,1.12-.11,2.29s-.1,1.94-.1,2.31H18.11c0-.08.1-.94.3-2.56s.31-2.63.31-3h1.66a9.32,9.32,0,0,0,.52,2.11,9.5,9.5,0,0,1,.52,2.09h.07a8.69,8.69,0,0,1,.59-2.09,8.47,8.47,0,0,0,.6-2.11h1.64c0,.59.06,1.64.2,3.16S24.72,29.63,24.72,29.72Z"/><path class="bb2aa91e-bb8f-4bd6-924a-36725ac8a4b2" d="M30.7,29.72H29.33a9,9,0,0,0-.39-1.6H27a8.18,8.18,0,0,0-.4,1.6H25.28c0-.11.34-1,1-2.73a22.11,22.11,0,0,0,1-2.83h1.61a24,24,0,0,0,.9,2.79A23.5,23.5,0,0,1,30.7,29.72Zm-2-2.41c-.48-1.47-.73-2.26-.73-2.38h-.06c0,.11-.26.9-.76,2.38Z"/><path class="bb2aa91e-bb8f-4bd6-924a-36725ac8a4b2" d="M35,24.16l0,.92C34.44,25,33.9,25,33.4,25c0,.53,0,1.13,0,1.79,0,1,0,2,0,2.91h-1.2q.06-1.35.06-2.91c0-.65,0-1.24,0-1.79q-.6,0-1.65.06l0-.92Z"/><path class="bb2aa91e-bb8f-4bd6-924a-36725ac8a4b2" d="M37,29.72H35.75c0-.88,0-1.85,0-2.91s0-1.92,0-2.65H37c0,.72-.06,1.6-.06,2.65S36.92,28.86,37,29.72Z"/><path class="bb2aa91e-bb8f-4bd6-924a-36725ac8a4b2" d="M42.17,28.71l-.08,1a4.91,4.91,0,0,1-1.19.15A2.92,2.92,0,0,1,38.67,29a2.77,2.77,0,0,1-.77-2A3,3,0,0,1,38.71,25,2.9,2.9,0,0,1,41,24.09a4.46,4.46,0,0,1,1,.11l-.15,1a3.06,3.06,0,0,0-1-.16,1.51,1.51,0,0,0-1.29.55,2.11,2.11,0,0,0-.42,1.33,2,2,0,0,0,.5,1.39,1.71,1.71,0,0,0,1.4.59A4.21,4.21,0,0,0,42.17,28.71Z"/><path class="bb2aa91e-bb8f-4bd6-924a-36725ac8a4b2" d="M52.27,24.16A16.26,16.26,0,0,1,51.41,27a17.92,17.92,0,0,0-.85,2.74H49.43a9.5,9.5,0,0,0-.52-1.9,17.07,17.07,0,0,1-.62-2.21h-.07a16.42,16.42,0,0,1-.57,2.23,11.65,11.65,0,0,0-.47,1.88H46a16.69,16.69,0,0,0-.84-2.85,21.43,21.43,0,0,1-.85-2.71H45.7a16.54,16.54,0,0,0,.49,2.15,15.53,15.53,0,0,1,.48,2.22h.07a13.3,13.3,0,0,1,.52-2.18,13.3,13.3,0,0,0,.52-2.19H49a14.59,14.59,0,0,0,.52,2.22A17.41,17.41,0,0,1,50,28.53h.07a15.61,15.61,0,0,1,.47-2.09,11.57,11.57,0,0,0,.47-2.28Z"/><path class="bb2aa91e-bb8f-4bd6-924a-36725ac8a4b2" d="M57.6,29.72H56.23a9,9,0,0,0-.39-1.6h-2a8.18,8.18,0,0,0-.4,1.6H52.18c0-.11.34-1,1-2.73a20.39,20.39,0,0,0,1-2.83h1.61A23.06,23.06,0,0,0,56.7,27,24.48,24.48,0,0,1,57.6,29.72Zm-2-2.41a23.16,23.16,0,0,1-.73-2.38h-.07a24.35,24.35,0,0,1-.76,2.38Z"/><path class="bb2aa91e-bb8f-4bd6-924a-36725ac8a4b2" d="M61.94,24.16l0,.92c-.57,0-1.1-.06-1.61-.06,0,.53,0,1.13,0,1.79,0,1,0,2,.05,2.91h-1.2q.06-1.35.06-2.91c0-.65,0-1.24,0-1.79q-.6,0-1.65.06l0-.92Z"/><path class="bb2aa91e-bb8f-4bd6-924a-36725ac8a4b2" d="M66.32,28.78l0,.94H62.65q.06-1.29.06-2.91c0-1,0-1.92-.06-2.65h3.47l-.05.94c-.85-.05-1.63-.07-2.32-.07,0,.39,0,.86,0,1.4.6,0,1.23,0,1.91-.05v.89c-.67,0-1.3,0-1.91,0q0,.87,0,1.62C64.6,28.85,65.44,28.83,66.32,28.78Z"/><path class="bb2aa91e-bb8f-4bd6-924a-36725ac8a4b2" d="M71.76,29.72H70.5a7.92,7.92,0,0,0-.76-1.86,1,1,0,0,0-.86-.36h-.47c0,.73,0,1.47,0,2.21H67.26q.06-1.29.06-2.91c0-1,0-1.92-.06-2.65h2c1.31,0,2,.44,2,1.34A1.5,1.5,0,0,1,70.13,27V27a1.36,1.36,0,0,1,.76.68A14.33,14.33,0,0,1,71.76,29.72Zm-1.6-3.93c0-.56-.36-.85-1.09-.85a3.69,3.69,0,0,0-.71.06c0,.44,0,1,0,1.73h.39C69.71,26.74,70.16,26.42,70.16,25.79Z"/><path class="bb2aa91e-bb8f-4bd6-924a-36725ac8a4b2" d="M76.1,28.21c0,1.11-.8,1.67-2.4,1.67a5.57,5.57,0,0,1-1.51-.2l.2-.95A4.05,4.05,0,0,0,73.7,29a2.53,2.53,0,0,0,1-.14.44.44,0,0,0,.3-.44.67.67,0,0,0-.28-.55,4.65,4.65,0,0,0-1-.51,3,3,0,0,1-1-.63,1.46,1.46,0,0,1-.41-1.06,1.36,1.36,0,0,1,.54-1.15,2.53,2.53,0,0,1,1.57-.42,6.17,6.17,0,0,1,1.4.14l-.16.95A3.59,3.59,0,0,0,74.41,25c-.68,0-1,.18-1,.54a.58.58,0,0,0,.23.47,5.5,5.5,0,0,0,.9.43,3.23,3.23,0,0,1,1.09.65A1.56,1.56,0,0,1,76.1,28.21Z"/><path class="bb2aa91e-bb8f-4bd6-924a-36725ac8a4b2" d="M82.83,24.16l0,.92c-.57,0-1.11-.06-1.61-.06,0,.53,0,1.13,0,1.79,0,1,0,2,0,2.91H80q.06-1.35.06-2.91c0-.65,0-1.24,0-1.79q-.6,0-1.65.06l0-.92Z"/><path class="bb2aa91e-bb8f-4bd6-924a-36725ac8a4b2" d="M88.69,26.84a3.08,3.08,0,0,1-.8,2.17,2.61,2.61,0,0,1-2,.87,2.52,2.52,0,0,1-1.89-.8,2.8,2.8,0,0,1-.76-2,3,3,0,0,1,.81-2.17,2.67,2.67,0,0,1,3.87-.08A2.79,2.79,0,0,1,88.69,26.84ZM87.51,27a2.16,2.16,0,0,0-.46-1.44A1.4,1.4,0,0,0,85.93,25a1.31,1.31,0,0,0-1.06.56,2.5,2.5,0,0,0,0,2.86,1.42,1.42,0,0,0,1.13.56,1.32,1.32,0,0,0,1.06-.57A2.21,2.21,0,0,0,87.51,27Z"/><path class="bb2aa91e-bb8f-4bd6-924a-36725ac8a4b2" d="M94.25,24.16c0,1,0,1.92,0,2.87,0,1.89-.77,2.84-2.32,2.84a2.24,2.24,0,0,1-1.73-.63A3.34,3.34,0,0,1,89.58,27c0-.95,0-1.89,0-2.82h1.21q-.06,1.44-.06,2.79a3.05,3.05,0,0,0,.3,1.61,1,1,0,0,0,.92.43,1.06,1.06,0,0,0,1-.43,3.19,3.19,0,0,0,.29-1.62c0-.87,0-1.8-.06-2.78Z"/><path class="bb2aa91e-bb8f-4bd6-924a-36725ac8a4b2" d="M99.89,29.72H98.62a7.92,7.92,0,0,0-.76-1.86A1,1,0,0,0,97,27.5h-.48c0,.73,0,1.47,0,2.21H95.38q.06-1.29.06-2.91c0-1,0-1.92-.06-2.65h2c1.31,0,2,.44,2,1.34A1.5,1.5,0,0,1,98.25,27V27a1.36,1.36,0,0,1,.76.68A14,14,0,0,1,99.89,29.72Zm-1.61-3.93c0-.56-.36-.85-1.09-.85a3.76,3.76,0,0,0-.71.06c0,.44,0,1,0,1.73h.4C97.83,26.74,98.28,26.42,98.28,25.79Z"/><path class="bb2aa91e-bb8f-4bd6-924a-36725ac8a4b2" d="M58.38,36.2a2.07,2.07,0,0,0-1.16.34V34.19h-.93v6.15h.93V40a2.1,2.1,0,0,0,1.14.33h0a2.06,2.06,0,0,0,1.24-.42,2,2,0,0,0,.81-1.61v-.08a2,2,0,0,0-2-2Zm1.12,2.11a1.16,1.16,0,0,1-1.14,1.1,1.17,1.17,0,0,1-.54-.14,1.14,1.14,0,0,1-.6-1,1.34,1.34,0,0,1,.16-.59,1.14,1.14,0,0,1,1.69-.3,1.14,1.14,0,0,1,.43.85Z"/><path class="bb2aa91e-bb8f-4bd6-924a-36725ac8a4b2" d="M64.27,38a2,2,0,0,1-.11.57,1,1,0,0,1-1,.8,1.11,1.11,0,0,1-.65-.19,1.65,1.65,0,0,1-.5-1.3V36.2h-.94v1.71a3.24,3.24,0,0,0,.2,1.13,1.9,1.9,0,0,0,1.87,1.3A2.07,2.07,0,0,0,64.27,40v.64a1.78,1.78,0,0,1-.08.45,1,1,0,0,1-1,.7h-.07v.94h.07a2,2,0,0,0,1.54-.7,2.32,2.32,0,0,0,.47-1.34V36.2h-.93Z"/><path class="bb2aa91e-bb8f-4bd6-924a-36725ac8a4b2" d="M85.34,34.25h-.72v.6h0a3.07,3.07,0,0,0-4.89,2.46,3.17,3.17,0,0,0,.62,1.86,3,3,0,0,0,2.38,1.2h.16a3,3,0,0,0,1.75-.6v.6h1.22V34.74A.5.5,0,0,0,85.34,34.25Zm-.72,3.12a1.8,1.8,0,0,1-.34,1,1.82,1.82,0,0,1-1.45.77h-.08a1.83,1.83,0,0,1-1.82-1.85,1.91,1.91,0,0,1,.35-1.06,1.82,1.82,0,0,1,1.49-.77,2,2,0,0,1,.94.25,1.85,1.85,0,0,1,.91,1.57Z"/><path class="bb2aa91e-bb8f-4bd6-924a-36725ac8a4b2" d="M78.39,38.58a1.75,1.75,0,0,1-1.27.52,1.84,1.84,0,0,1-1.85-1.83,2.11,2.11,0,0,1,.26-1,1.86,1.86,0,0,1,1.56-.88,1.73,1.73,0,0,1,1.27.5.41.41,0,0,0,.59,0l.51-.6a3,3,0,0,0-2.33-1.09,3,3,0,0,0-3.08,3.06,3.12,3.12,0,0,0,.63,1.87,3,3,0,0,0,2.43,1.19h0a3,3,0,0,0,1.91-.68c.18-.17.33-.31.43-.42L79,38.61A.39.39,0,0,0,78.39,38.58Z"/><path class="bb2aa91e-bb8f-4bd6-924a-36725ac8a4b2" d="M93.61,34.25a3.06,3.06,0,0,0-2.36,5,3,3,0,0,0,2.33,1.08h0a3,3,0,0,0,2.06-.82l-.77-.93h0a1.92,1.92,0,0,1-1.31.53,1.75,1.75,0,0,1-.83-.2,1.83,1.83,0,0,1-.62-.51.32.32,0,0,1,.25-.52H96.6a5.22,5.22,0,0,0,.06-.62,3.13,3.13,0,0,0-.72-2A3.05,3.05,0,0,0,93.61,34.25ZM94.9,36.7h-3a1.67,1.67,0,0,1,1.72-1.23,1.84,1.84,0,0,1,.91.23,1.89,1.89,0,0,1,.63.59A.26.26,0,0,1,94.9,36.7Z"/><path class="bb2aa91e-bb8f-4bd6-924a-36725ac8a4b2" d="M74.11,34.74a.33.33,0,0,0-.26-.54H73l-.15.17-1.6,1.93-1.77-2.1H67.92l.23.27,2.25,2.79h0l-2.53,3h1.6l1.73-2.1L73,40.33h1.6L72,37.26Z"/><path class="bb2aa91e-bb8f-4bd6-924a-36725ac8a4b2" d="M99.5,34.2H99V32.06a.5.5,0,0,0-.5-.5h-.68V34.2H96.68v1.22h1.09v4.9H99v-4.9h1V34.7A.5.5,0,0,0,99.5,34.2Z"/><path class="bb2aa91e-bb8f-4bd6-924a-36725ac8a4b2" d="M90.53,34.2a4.08,4.08,0,0,0-2.43.69h0V34.7a.5.5,0,0,0-.5-.5h-.72v6.12h1.22v-3a1.78,1.78,0,0,1,.15-.67,2.23,2.23,0,0,1,2.3-1.23Z"/></svg>