<svg id="aecb51b8-fbba-49de-8fe8-c01566f0dc80" data-name="Layer 1" xmlns="http://www.w3.org/2000/svg" viewBox="0 0 100 57.46"><defs><style>.f74c42dc-4bfe-4b23-8363-242e2419ea92{fill:#002d72;}.b3f0261d-28eb-4b4b-99f9-c9d448dc8092{fill:#00a5ea;}.fe57062c-751c-4517-baa8-42c6b09a8751{fill:#c4eb7c;}.a7aff755-bbb0-4dbd-b1fe-296fe8b820bd{fill:#390;}.b4482fc6-fcf8-4fb4-ab2f-688e861bf29d{fill:#fff;}.a5fc5d3f-2d94-45bb-ac6b-68b3fd3b3bdb{fill:#f09;}</style></defs><path class="f74c42dc-4bfe-4b23-8363-242e2419ea92" d="M99.47,8.35A2.45,2.45,0,0,0,97.36,7h-.08a3.28,3.28,0,0,0-.68.13l-.22.06-.49.09a20.59,20.59,0,0,1-2.09.08H92.49a6.44,6.44,0,0,0-4.18,1.32A6.35,6.35,0,0,0,87,10a7.8,7.8,0,0,0-1.21,2.58,18.46,18.46,0,0,0-2,.42,37.45,37.45,0,0,0-5.36,2.12V10.52a3,3,0,0,0-3-2.95,2.3,2.3,0,0,0-.45,0l-4.86,1a3.17,3.17,0,0,0-2.49,3.08v4.9H66.46V10.52a3,3,0,0,0-2.94-2.95,2.31,2.31,0,0,0-.46,0l-4.85,1-.09,0h0a3.2,3.2,0,0,0-2.38,3.06v2.54A11.13,11.13,0,0,0,53.09,14a12.41,12.41,0,0,0-2.28.22l-.24-3.24a2.92,2.92,0,0,0,.86-1.62l.19-1.2a2.19,2.19,0,0,0-.22-1.38,2.68,2.68,0,0,0,.16-.34,2.45,2.45,0,0,0-.71-2.7L47.41.79A3.26,3.26,0,0,0,45.28,0a3.31,3.31,0,0,0-2.14.79L39.71,3.7A2.44,2.44,0,0,0,39,6.4a2.81,2.81,0,0,0,.26.52,2.22,2.22,0,0,0-.13,1.2l.19,1.2A2.9,2.9,0,0,0,40.18,11l-.26,3.46a7.1,7.1,0,0,0-3.64-1.76,12.42,12.42,0,0,0-1.92-.15,13.4,13.4,0,0,0-12.45,9c-.07.19-.13.37-.17.49h0l-.35-.65A6.87,6.87,0,0,0,21.3,20l1.32-2,3.74-5.59a3.12,3.12,0,0,0-2.6-4.85H17.65A3.11,3.11,0,0,0,15.06,9l-1.62,2.4L11.83,9A3.11,3.11,0,0,0,9.24,7.57H3.12A3.12,3.12,0,0,0,.53,12.42l4.6,6.83,1.52,2.27a1.13,1.13,0,0,0-.1.13v0l0,.06-6,8.91a3.11,3.11,0,0,0,2.59,4.85H9.24a3.11,3.11,0,0,0,2.59-1.39l1.61-2.4,1.62,2.4a3.1,3.1,0,0,0,2.59,1.39h6.11a3.12,3.12,0,0,0,2.41-1.13,13.48,13.48,0,0,0,5.77,1.19,20,20,0,0,0,7.34-1.47,3,3,0,0,0,2.23,1h7.7a3,3,0,0,0,3-3.25l-.08-1a7,7,0,0,0,.8,0,9.91,9.91,0,0,0,2.81-.42v2.11a3,3,0,0,0,2.94,3h4.86a3,3,0,0,0,2.94-3V25.9h1.23v6.64a3,3,0,0,0,3,3h4.85a2.94,2.94,0,0,0,2.2-1,8.67,8.67,0,0,0,4.67,1.21,14.15,14.15,0,0,0,4.81-.89,2.52,2.52,0,0,0,1.66.66h5.46a2.43,2.43,0,0,0,2.08-1.21A2.4,2.4,0,0,0,96.46,32c0-.05,0-.12,0-.21a.81.81,0,0,0,0-.16V20.82a.53.53,0,0,0,0-.13h0a8.51,8.51,0,0,0-.27-2.24,8.65,8.65,0,0,0,2.38-2.68,10.49,10.49,0,0,0,1.44-5A5.17,5.17,0,0,0,99.47,8.35ZM98.64,13c-.06.19-.12.38-.19.57A9.34,9.34,0,0,1,98,14.71c-.09.18-.19.36-.29.53a7.8,7.8,0,0,1-1.23,1.63c-.11.12-.23.23-.35.34a5.54,5.54,0,0,1-.74.56A4.11,4.11,0,0,1,95,18a7,7,0,0,1,.46,2.65v11.2c0,.07,0,.18,0,.28a.61.61,0,0,0,0,.15.15.15,0,0,0,0,.1s0,.11.08.16a1.54,1.54,0,0,1,0,.17,1.42,1.42,0,0,1,0,.71.49.49,0,0,1-.06.17.89.89,0,0,1-.08.17,1.3,1.3,0,0,1-.22.29,1.39,1.39,0,0,1-.62.36,1.36,1.36,0,0,1-.36,0H88.84a1.12,1.12,0,0,1-.32,0,1.26,1.26,0,0,1-.38-.15A1.62,1.62,0,0,1,87.8,34l-.12-.13a2,2,0,0,1-.2-.29,13,13,0,0,1-5.12,1.1,7,7,0,0,1-5-1.72,1.6,1.6,0,0,1-.1.31,1.9,1.9,0,0,1-.34.54,1.92,1.92,0,0,1-1.1.61,1.87,1.87,0,0,1-.34,0H70.64a1.93,1.93,0,0,1-1.93-1.93V24.89H65.45v7.65a1.85,1.85,0,0,1-.12.67,2.39,2.39,0,0,1-.32.56,2.23,2.23,0,0,1-.27.26.58.58,0,0,1-.15.11,2,2,0,0,1-.32.18l-.18.06a1.61,1.61,0,0,1-.38.08H58.66l-.29,0-.28-.07a1.7,1.7,0,0,1-.51-.24,1.93,1.93,0,0,1-.85-1.6V29a8.54,8.54,0,0,1-1.86.65,6.35,6.35,0,0,1-1,.17,8.22,8.22,0,0,1-1,.06q-.34,0-.69,0a5.4,5.4,0,0,1-.69-.08L51,29.64l.18,2.28a2.07,2.07,0,0,1,0,.61,2.35,2.35,0,0,1-.23.57,3.43,3.43,0,0,1-.24.33,2.61,2.61,0,0,1-.31.27,2.43,2.43,0,0,1-.35.2,2,2,0,0,1-.8.17h-7.7a2,2,0,0,1-1.84-1.26,20.56,20.56,0,0,1-4.84,1.48c-.36.06-.73.11-1.12.15a16.91,16.91,0,0,1-1.77.09h0l-.89,0a13.81,13.81,0,0,1-2.49-.37,11,11,0,0,1-1.47-.48A9,9,0,0,1,25.77,33a1.84,1.84,0,0,1-.15.36,2.07,2.07,0,0,1-.77.81,1.85,1.85,0,0,1-.52.22,2.12,2.12,0,0,1-.57.08H17.65a2.1,2.1,0,0,1-1.75-.93l-2.46-3.67L11,33.54a2.35,2.35,0,0,1-.54.55l-.22.13a2.11,2.11,0,0,1-1,.25H3.12a2.09,2.09,0,0,1-1.75-3.26l6-8.94h0l0-.07.18-.26.18-.25.1-.14h0L6,18.68l-4.6-6.83A2.1,2.1,0,0,1,1.26,9.7a2.29,2.29,0,0,1,.55-.65,2.11,2.11,0,0,1,1.31-.46H9.24a2.11,2.11,0,0,1,1.59.73,1.56,1.56,0,0,1,.16.2l2.45,3.67L15.9,9.52a2.11,2.11,0,0,1,1.75-.93h6.11a2.12,2.12,0,0,1,.57.08,1.85,1.85,0,0,1,.52.22,2.1,2.1,0,0,1,.67,3l-3.75,5.59-1.56,2.33A4.59,4.59,0,0,1,20.38,21v.35a.41.41,0,0,0,0,.11,1,1,0,0,1,0,.15l1.75,3.33a13.93,13.93,0,0,1,.46-2.18c0-.1.07-.21.11-.32v-.08l.16-.46q.18-.48.39-.93l.05-.11c.13-.27.26-.53.4-.78a1,1,0,0,1,.08-.14l.16-.29,0,0a9.9,9.9,0,0,1,.56-.87,12.57,12.57,0,0,1,4.86-4.12l.45-.2h0a8.71,8.71,0,0,1,.85-.32h0l.42-.13h0l.44-.12h.06l.39-.09.11,0c.12,0,.23-.05.35-.06l.1,0L33,13.6h.13l.34,0h.17l.3,0h.47a11.5,11.5,0,0,1,1.76.14l.36.07a5.75,5.75,0,0,1,.71.2l.34.14a6.09,6.09,0,0,1,1,.53,6.17,6.17,0,0,1,1.38,1.24,6.47,6.47,0,0,1,.85,1.26l.08-.92v0l.43-5.67a2.08,2.08,0,0,1-.34-.24,1.93,1.93,0,0,1-.27-.3,1.9,1.9,0,0,1-.2-.37,2.45,2.45,0,0,1-.12-.41L40.12,8a1.06,1.06,0,0,1,0-.25,1.2,1.2,0,0,1,.14-.49A1.64,1.64,0,0,1,40.38,7a.91.91,0,0,1,.21-.18,1.39,1.39,0,0,1-.53-.52A1.63,1.63,0,0,1,40,6.06a1,1,0,0,1-.06-.22,1.38,1.38,0,0,1,0-.64,1.18,1.18,0,0,1,.17-.4,1.44,1.44,0,0,1,.28-.33l3.43-2.91a2.31,2.31,0,0,1,2.64-.23l.33.23,3.43,2.91a1.43,1.43,0,0,1,.5,1.15,1.72,1.72,0,0,1-.09.44,1.21,1.21,0,0,1-.09.2,1.27,1.27,0,0,1-.13.19,1.3,1.3,0,0,1-.32.3,1.13,1.13,0,0,1,.29.24,1.67,1.67,0,0,1,.12.16,1.42,1.42,0,0,1,.14.36l0,.19a1.06,1.06,0,0,1,0,.25l-.2,1.2a1.12,1.12,0,0,1,0,.21,1.82,1.82,0,0,1-.27.56,1.76,1.76,0,0,1-.43.43l-.17.11L49.7,13l.19,2.51a9.31,9.31,0,0,1,1.58-.37c.26,0,.53-.07.8-.09s.54,0,.82,0h0a11.55,11.55,0,0,1,1.8.15,9.71,9.71,0,0,1,1.15.28c.22.07.46.16.69.26V11.73a2.19,2.19,0,0,1,1.66-2.08h0l4.85-1a1,1,0,0,1,.25,0h.19a1.61,1.61,0,0,1,.38.08l.18.06a2,2,0,0,1,.32.18,1,1,0,0,1,.15.11,2.23,2.23,0,0,1,.27.26,2.27,2.27,0,0,1,.32.57,1.8,1.8,0,0,1,.12.66v7.13h3.26V11.73A2.18,2.18,0,0,1,70.4,9.64l4.85-1,.24,0h0a1.91,1.91,0,0,1,1.49.7,1.91,1.91,0,0,1,.44,1.23v7.25a4.24,4.24,0,0,1,.18-.5,2.84,2.84,0,0,1,.45-.64,2.51,2.51,0,0,1,.65-.47A35.73,35.73,0,0,1,84.07,14,16,16,0,0,1,86,13.6l.61-.07A6.89,6.89,0,0,1,87.53,11a3.42,3.42,0,0,1,.26-.4,5.54,5.54,0,0,1,1.13-1.18,5.46,5.46,0,0,1,2.59-1.06l.4,0h2.92l.54,0,.45,0,.21,0h.13l.29-.06.13,0,.2-.05.19,0A1.15,1.15,0,0,1,97.32,8h.3l.06,0,.06,0,.07,0,0,0,.06,0,0,0,0,0,0,0,.05,0,0,0,0,0,0,0s0,0,0,0l0,0,0,0,0,0,0,0,0,0,0,0,0,0,0,0v0l0,0v0l0,0,0,0a2.3,2.3,0,0,1,.18.46,2.7,2.7,0,0,1,.12.49,2.5,2.5,0,0,1,0,.29,4.64,4.64,0,0,1,0,.67A8.36,8.36,0,0,1,98.64,13Z"/><path class="f74c42dc-4bfe-4b23-8363-242e2419ea92" d="M6.44,37.27H5.55a.38.38,0,0,0-.39.39v1.65H2.63V37.66a.39.39,0,0,0-.39-.39h-.9a.38.38,0,0,0-.39.39v4.79a.39.39,0,0,0,.39.39h.9a.4.4,0,0,0,.39-.39V40.66H5.16v1.79a.39.39,0,0,0,.39.39h.89a.39.39,0,0,0,.39-.39V37.66A.38.38,0,0,0,6.44,37.27Z"/><rect class="f74c42dc-4bfe-4b23-8363-242e2419ea92" x="9.48" y="37.27" width="1.68" height="5.57" rx="0.37"/><path class="f74c42dc-4bfe-4b23-8363-242e2419ea92" d="M19.06,38.51a2.39,2.39,0,0,0-.5-.55,2.72,2.72,0,0,0-.37-.27,3.11,3.11,0,0,0-.51-.22,5.16,5.16,0,0,0-.67-.15,5.71,5.71,0,0,0-.89,0h-2a.36.36,0,0,0-.37.36v4.84a.36.36,0,0,0,.37.37h2.64a2.69,2.69,0,0,0,1.68-.47,3.16,3.16,0,0,0,.73-.84,2.66,2.66,0,0,0,.31-1.38,3.34,3.34,0,0,0-.12-.91A2.74,2.74,0,0,0,19.06,38.51Zm-1.72,2.86a2,2,0,0,1-1.14.32h-.72V38.38h.72a2.35,2.35,0,0,1,.74.13,1.31,1.31,0,0,1,.62.51,1.81,1.81,0,0,1,.26,1.06A1.44,1.44,0,0,1,17.34,41.37Z"/><path class="f74c42dc-4bfe-4b23-8363-242e2419ea92" d="M27.07,38.51a2.64,2.64,0,0,0-.5-.55,2.84,2.84,0,0,0-.38-.27,3,3,0,0,0-.5-.22,5.16,5.16,0,0,0-.67-.15,5.92,5.92,0,0,0-.9,0H22.18a.36.36,0,0,0-.37.37v4.83a.37.37,0,0,0,.37.37h2.63a2.69,2.69,0,0,0,1.68-.47,3.19,3.19,0,0,0,.74-.84,2.76,2.76,0,0,0,.31-1.38,3.33,3.33,0,0,0-.13-.91A2.72,2.72,0,0,0,27.07,38.51Zm-1.73,2.86a2,2,0,0,1-1.14.32h-.71V38.38h.71a2.35,2.35,0,0,1,.74.13,1.28,1.28,0,0,1,.63.51,1.89,1.89,0,0,1,.26,1.06A1.42,1.42,0,0,1,25.34,41.37Z"/><path class="f74c42dc-4bfe-4b23-8363-242e2419ea92" d="M33.64,41.72H31.49V40.53h2a.38.38,0,0,0,.38-.38v-.37a.38.38,0,0,0-.38-.38h-2v-1h2.08a.37.37,0,0,0,.37-.37v-.37a.36.36,0,0,0-.37-.37h-3.4a.36.36,0,0,0-.36.36v4.83a.38.38,0,0,0,.38.38h3.45a.38.38,0,0,0,.37-.38V42.1A.38.38,0,0,0,33.64,41.72Z"/><path class="f74c42dc-4bfe-4b23-8363-242e2419ea92" d="M42.06,37.27h-.94a.36.36,0,0,0-.37.36v2.72l-2.77-3a.39.39,0,0,0-.27-.11h-1a.37.37,0,0,0-.37.36v4.84a.37.37,0,0,0,.37.37h.93a.36.36,0,0,0,.37-.37V39.73l2.78,3a.36.36,0,0,0,.27.12h1a.37.37,0,0,0,.37-.37V37.63A.37.37,0,0,0,42.06,37.27Z"/><path class="f74c42dc-4bfe-4b23-8363-242e2419ea92" d="M57.25,37.27h-1a.33.33,0,0,0-.32.21l-1.13,2.87-1.21-2.87a.35.35,0,0,0-.32-.21h-.75a.33.33,0,0,0-.31.2L51,40.35l-1.08-2.86a.33.33,0,0,0-.32-.22h-1a.34.34,0,0,0-.31.47l2.07,5a.35.35,0,0,0,.32.21h.53a.36.36,0,0,0,.32-.2l1.39-3.08,1.36,3.08a.33.33,0,0,0,.31.2h.52a.35.35,0,0,0,.32-.21l2.12-5A.34.34,0,0,0,57.25,37.27Z"/><path class="f74c42dc-4bfe-4b23-8363-242e2419ea92" d="M65,38a2.74,2.74,0,0,0-1-.62,4,4,0,0,0-1.38-.23,3.51,3.51,0,0,0-1.75.4,2.64,2.64,0,0,0-1.07,1,3,3,0,0,0-.34,1.41,2.83,2.83,0,0,0,.35,1.4,2.58,2.58,0,0,0,1.06,1.06,3.51,3.51,0,0,0,1.75.4,3.66,3.66,0,0,0,1.73-.38,2.58,2.58,0,0,0,1.07-1.05,2.89,2.89,0,0,0,.36-1.43,2.94,2.94,0,0,0-.2-1.1A2.6,2.6,0,0,0,65,38Zm-1.09,2.75a1.21,1.21,0,0,1-.49.51,1.62,1.62,0,0,1-.79.18,1.36,1.36,0,0,1-1.45-1.43,1.43,1.43,0,0,1,.39-1,1.41,1.41,0,0,1,1.06-.39,1.67,1.67,0,0,1,.62.11,1.44,1.44,0,0,1,.46.29,1.27,1.27,0,0,1,.28.46,1.7,1.7,0,0,1,.09.57A1.5,1.5,0,0,1,63.86,40.79Z"/><path class="f74c42dc-4bfe-4b23-8363-242e2419ea92" d="M69.23,42.84a.34.34,0,0,0,.34-.34V39.73l2.79,3a.36.36,0,0,0,.26.11h1A.34.34,0,0,0,74,42.5V37.61a.34.34,0,0,0-.34-.34h-1a.35.35,0,0,0-.35.34v2.74l-2.78-3a.32.32,0,0,0-.25-.1h-1a.34.34,0,0,0-.34.34V42.5a.34.34,0,0,0,.34.34Z"/><path class="f74c42dc-4bfe-4b23-8363-242e2419ea92" d="M79.61,42.84a2.67,2.67,0,0,0,1.67-.47,3.19,3.19,0,0,0,.74-.84,2.76,2.76,0,0,0,.31-1.38,3,3,0,0,0-.13-.91,2.72,2.72,0,0,0-.34-.73,2.39,2.39,0,0,0-.5-.55,3.52,3.52,0,0,0-.37-.27,3.11,3.11,0,0,0-.51-.22,5.16,5.16,0,0,0-.67-.15,5.92,5.92,0,0,0-.9,0H77a.35.35,0,0,0-.35.35v4.86a.36.36,0,0,0,.35.36Zm-1.33-4.46H79a2.41,2.41,0,0,1,.75.13,1.31,1.31,0,0,1,.62.51,1.89,1.89,0,0,1,.26,1.06,1.44,1.44,0,0,1-.48,1.29,2.09,2.09,0,0,1-1.15.32h-.71Z"/><path class="f74c42dc-4bfe-4b23-8363-242e2419ea92" d="M88.8,42.47v-.38a.36.36,0,0,0-.37-.37H86.28V40.53h2a.37.37,0,0,0,.37-.38v-.37a.37.37,0,0,0-.37-.38h-2v-1h2.08a.37.37,0,0,0,.38-.37v-.37a.37.37,0,0,0-.38-.37H85a.37.37,0,0,0-.38.37v4.83a.38.38,0,0,0,.38.37h3.45A.37.37,0,0,0,88.8,42.47Z"/><path class="f74c42dc-4bfe-4b23-8363-242e2419ea92" d="M95.83,39.71A1.45,1.45,0,0,0,96,39a1.74,1.74,0,0,0-.19-.76,1.66,1.66,0,0,0-.64-.68A2.06,2.06,0,0,0,94,37.27H91.54a.36.36,0,0,0-.37.37v4.83a.37.37,0,0,0,.37.37h.93a.38.38,0,0,0,.38-.37V40.66H93a1.5,1.5,0,0,1,.47.07.92.92,0,0,1,.37.33,3.75,3.75,0,0,1,.44.79l.34.77a.38.38,0,0,0,.34.22h1a.38.38,0,0,0,.34-.53L96,41.63a4.18,4.18,0,0,0-.48-.87,1.34,1.34,0,0,0-.44-.37,4.1,4.1,0,0,0,.41-.26A1.38,1.38,0,0,0,95.83,39.71Zm-1.78-.17a1.78,1.78,0,0,1-.84.14h-.36V38.34h.35a1.72,1.72,0,0,1,.83.15.59.59,0,0,1,.25.54A.55.55,0,0,1,94.05,39.54Z"/><path class="b3f0261d-28eb-4b4b-99f9-c9d448dc8092" d="M46.39,6.68a1,1,0,1,0-2,0V7.92h2Z"/><path class="b3f0261d-28eb-4b4b-99f9-c9d448dc8092" d="M98.94,10.09a2.5,2.5,0,0,0,0-.29,2.7,2.7,0,0,0-.12-.49,2.3,2.3,0,0,0-.18-.46l0,0,0,0v0l0,0v0l0,0,0,0,0,0,0,0,0,0,0,0,0,0,0,0s0,0,0,0l0,0,0,0,0,0-.05,0,0,0,0,0,0,0-.06,0,0,0-.07,0-.06,0-.06,0h-.3a1.15,1.15,0,0,0-.35.07l-.19,0-.2.05-.13,0-.29.06H96l-.21,0-.45,0-.54,0H91.91l-.4,0a5.46,5.46,0,0,0-2.59,1.06,5.54,5.54,0,0,0-1.13,1.18,3.42,3.42,0,0,0-.26.4,6.89,6.89,0,0,0-.94,2.51L86,13.6a16,16,0,0,0-1.91.41,35.73,35.73,0,0,0-5.37,2.15,2.51,2.51,0,0,0-.65.47,2.84,2.84,0,0,0-.45.64,4.24,4.24,0,0,0-.18.5V10.52A1.91,1.91,0,0,0,77,9.29a1.91,1.91,0,0,0-1.49-.7l-.24,0-4.85,1a2.18,2.18,0,0,0-1.69,2.09v5.92H65.45V10.52a1.8,1.8,0,0,0-.12-.66A2.27,2.27,0,0,0,65,9.29,2.23,2.23,0,0,0,64.74,9a1,1,0,0,0-.15-.11,2,2,0,0,0-.32-.18l-.18-.06a1.61,1.61,0,0,0-.38-.08h-.19a1,1,0,0,0-.25,0l-4.85,1h0a2.19,2.19,0,0,0-1.66,2.08v3.94c-.23-.1-.47-.19-.69-.26a9.71,9.71,0,0,0-1.15-.28,11.55,11.55,0,0,0-1.8-.15h0c-.28,0-.55,0-.82,0s-.54.05-.8.09a9.31,9.31,0,0,0-1.58.37L49.7,13l-.19-2.5.17-.11a1.76,1.76,0,0,0,.43-.43,1.82,1.82,0,0,0,.27-.56,1.12,1.12,0,0,0,0-.21l.2-1.2a1.06,1.06,0,0,0,0-.25l0-.19a1.42,1.42,0,0,0-.14-.36A1.67,1.67,0,0,0,50.35,7a1.13,1.13,0,0,0-.29-.24,1.3,1.3,0,0,0,.32-.3,1.27,1.27,0,0,0,.13-.19,1.21,1.21,0,0,0,.09-.2,1.72,1.72,0,0,0,.09-.44,1.43,1.43,0,0,0-.5-1.15L46.76,1.56l-.33-.23a2.31,2.31,0,0,0-2.64.23L40.36,4.47a1.44,1.44,0,0,0-.28.33,1.18,1.18,0,0,0-.17.4,1.38,1.38,0,0,0,0,.64,1,1,0,0,0,.06.22,1.63,1.63,0,0,0,.11.23,1.39,1.39,0,0,0,.53.52.91.91,0,0,0-.21.18,1.64,1.64,0,0,0-.14.22,1.2,1.2,0,0,0-.14.49,1.06,1.06,0,0,0,0,.25l.19,1.2a2.45,2.45,0,0,0,.12.41,1.9,1.9,0,0,0,.2.37,1.93,1.93,0,0,0,.27.3,2.08,2.08,0,0,0,.34.24l-.43,5.67v0l-.08.92a6.47,6.47,0,0,0-.85-1.26,6.17,6.17,0,0,0-1.38-1.24,6.09,6.09,0,0,0-1-.53l-.34-.14a5.75,5.75,0,0,0-.71-.2l-.36-.07a11.5,11.5,0,0,0-1.76-.14h-.47l-.3,0h-.17l-.34,0H33l-.36.05-.1,0c-.12,0-.23,0-.35.06l-.11,0-.39.09h-.06l-.44.12h0l-.42.13h0a8.71,8.71,0,0,0-.85.32h0l-.45.2a12.57,12.57,0,0,0-4.86,4.12,9.9,9.9,0,0,0-.56.87l0,0-.16.29a1,1,0,0,0-.08.14c-.14.25-.27.51-.4.78l-.05.11q-.21.45-.39.93l-.16.46v.08c0,.11-.07.22-.11.32a13.93,13.93,0,0,0-.46,2.18L20.36,21.6v0a.37.37,0,0,0,0-.11.41.41,0,0,1,0-.11V21a4.59,4.59,0,0,0-.17-1.22l1.56-2.33,3.75-5.59a2.1,2.1,0,0,0-.67-3,1.85,1.85,0,0,0-.52-.22,2.12,2.12,0,0,0-.57-.08H17.65a2.11,2.11,0,0,0-1.75.93l-2.46,3.67L11,9.52a1.56,1.56,0,0,0-.16-.2,2.11,2.11,0,0,0-1.59-.73H3.12a2.11,2.11,0,0,0-1.31.46,2.29,2.29,0,0,0-.55.65,2.1,2.1,0,0,0,.11,2.15L6,18.68l1.91,2.86h0l-.1.14-.18.25-.18.26,0,.07h0l-6,8.94a2.09,2.09,0,0,0,1.75,3.26H9.24a2.11,2.11,0,0,0,1-.25l.22-.13a2.35,2.35,0,0,0,.54-.55l2.45-3.67,2.46,3.67a2.1,2.1,0,0,0,1.75.93h6.11a2.12,2.12,0,0,0,.57-.08,1.85,1.85,0,0,0,.52-.22,2.07,2.07,0,0,0,.77-.81,1.84,1.84,0,0,0,.15-.36,9,9,0,0,0,1.32.66,11,11,0,0,0,1.47.48,13.81,13.81,0,0,0,2.49.37l.89,0h0a16.91,16.91,0,0,0,1.77-.09c.39,0,.76-.09,1.12-.15a20.56,20.56,0,0,0,4.84-1.48,2,2,0,0,0,1.84,1.26h7.7a2,2,0,0,0,.8-.17,2.43,2.43,0,0,0,.35-.2,2.61,2.61,0,0,0,.31-.27,3.43,3.43,0,0,0,.24-.33,2.35,2.35,0,0,0,.23-.57,2.07,2.07,0,0,0,0-.61L51,29.64l.53.08a5.4,5.4,0,0,0,.69.08q.35,0,.69,0a8.22,8.22,0,0,0,1-.06,6.35,6.35,0,0,0,1-.17A8.54,8.54,0,0,0,56.73,29v3.59a1.93,1.93,0,0,0,.85,1.6,1.7,1.7,0,0,0,.51.24l.28.07.29,0h5.05a1.61,1.61,0,0,0,.38-.08l.18-.06a2,2,0,0,0,.32-.18.58.58,0,0,0,.15-.11,2.23,2.23,0,0,0,.27-.26,2.39,2.39,0,0,0,.32-.56,1.85,1.85,0,0,0,.12-.67V24.89h3.26v7.65a1.93,1.93,0,0,0,1.93,1.93h4.85a1.87,1.87,0,0,0,.34,0,1.92,1.92,0,0,0,1.1-.61,1.9,1.9,0,0,0,.34-.54,1.6,1.6,0,0,0,.1-.31,7,7,0,0,0,5,1.72,13,13,0,0,0,5.12-1.1,2,2,0,0,0,.2.29l.12.13a1.62,1.62,0,0,0,.34.26,1.26,1.26,0,0,0,.38.15,1.12,1.12,0,0,0,.32,0h5.45a1.36,1.36,0,0,0,.36,0,1.39,1.39,0,0,0,.62-.36,1.3,1.3,0,0,0,.22-.29.89.89,0,0,0,.08-.17.49.49,0,0,0,.06-.17,1.42,1.42,0,0,0,0-.71,1.54,1.54,0,0,0,0-.17s0-.11-.08-.16a.15.15,0,0,1,0-.1.61.61,0,0,1,0-.15c0-.1,0-.21,0-.28V20.66A7,7,0,0,0,95,18a4.11,4.11,0,0,0,.39-.24,5.54,5.54,0,0,0,.74-.56c.12-.11.24-.22.35-.34a7.8,7.8,0,0,0,1.23-1.63c.1-.17.2-.35.29-.53a9.34,9.34,0,0,0,.48-1.13c.07-.19.13-.38.19-.57A8.36,8.36,0,0,0,99,10.76,4.64,4.64,0,0,0,98.94,10.09ZM41.13,5.38l3.43-2.91a1.08,1.08,0,0,1,1.43,0l3.43,2.91a.23.23,0,0,1-.12.41h-.67v2h.81L49.25,9a.65.65,0,0,1-.64.55h-.36s-1.32,2.47-6.07,4.4l0-.4.28-4h-.36A.66.66,0,0,1,41.48,9l-.19-1.2h.81v-2h-.84A.23.23,0,0,1,41.13,5.38Zm7.61,10.67h0c-4.19,4.63-7.18,5.49-7.18,5.49L42,16.27a14.32,14.32,0,0,0,6.39-5.06ZM2.36,11.19a.9.9,0,0,1,.76-1.41H9.24a.91.91,0,0,1,.76.4l3.44,5.14,3.44-5.14a.93.93,0,0,1,.77-.4h6.12a.9.9,0,0,1,.76,1.41l-4.66,7c-.94-1.38-2.58-2-4.6-2-1.83,0-4,.17-7.18,3.54Zm21.41,22.1H17.65a.94.94,0,0,1-.77-.41l-3.44-5.14L10,32.87a.94.94,0,0,1-.77.42H3.12a.91.91,0,0,1-.76-1.42l6-8.94a27,27,0,0,1,2.33-3,6.22,6.22,0,0,1,4.45-2.1,3.82,3.82,0,0,1,3.32,1.42,2.6,2.6,0,0,1,.47.94,3.68,3.68,0,0,1,.15,1,2.42,2.42,0,0,1-2.38,2.41,1.64,1.64,0,0,1-1.37-.56.05.05,0,0,1,0-.09c.35,0,1.57-.21,1.57-1.34a1.38,1.38,0,0,0-1.52-1.4c-.2,0-1.81,0-1.81,2.06,0,1.58,1.44,2.63,3.13,2.63A3.73,3.73,0,0,0,20,23.53l4.53,8.34A.91.91,0,0,1,23.77,33.29Zm52.47-9v8.27a.75.75,0,0,1-.75.75H70.64a.75.75,0,0,1-.74-.75V23.7H64.26v8.84a.75.75,0,0,1-.74.75H58.66a.75.75,0,0,1-.74-.75v-6a1.28,1.28,0,0,1-.35.45l-.21.17a7.53,7.53,0,0,1-4.45,1.46,7.85,7.85,0,0,1-1.19-.1l-2-.32h0L50,32a.8.8,0,0,1-.79.86h-7.7a.79.79,0,0,1-.76-.58,5.12,5.12,0,0,0,1.89-2c.11-.21-.15-.5-.35-.36-.81.53-1.48.92-1.48.92h0a18.19,18.19,0,0,1-8.87,2.46c-6.89,0-10-4.47-8.23-10.25l.09-.3,0-.08c0-.14.09-.28.14-.42a11.09,11.09,0,0,1,12-7.48c3.92.62,6.18,6.19,2.57,9-3,2.29-7.95,2.57-8,2.58-.33.12.87,1.08,1.49,1.33a4,4,0,0,0,.82.23c4,0,8.44-2.93,8.44-2.93a37.71,37.71,0,0,0,5.08-3.65A1.66,1.66,0,0,1,46,19.55a1.63,1.63,0,0,1,1.64-.89h.59a1.84,1.84,0,0,1,1.12-1.75,9.61,9.61,0,0,1,3.73-.76,8.77,8.77,0,0,1,2.59.38,7.58,7.58,0,0,1,2.24,1.23v-6a1,1,0,0,1,.74-.93l4.86-1a.74.74,0,0,1,.74.74v8.32H69.9V11.73a1,1,0,0,1,.74-.93l4.85-1a.74.74,0,0,1,.75.74Zm17-6.86.14.19a5.29,5.29,0,0,1,.86,3,.55.55,0,0,1,0,.12v11A2.86,2.86,0,0,0,94.47,33a.22.22,0,0,1-.18.31H88.85a.37.37,0,0,1-.25-.15,1.57,1.57,0,0,1-.31-.75.35.35,0,0,0-.52-.25c-3.56,2-10.72,2.56-10.9-3.36a6.19,6.19,0,0,1,1.44-4.26c2.23-2.67,6.54-3.64,9.33-3.56a.39.39,0,0,0,.32-.18.39.39,0,0,0,0-.4,2.87,2.87,0,0,0-1.8-1.26c-2.06-.46-5.7,1.46-7,2.27a.39.39,0,0,1-.6-.33c0-.68,0-1.75,0-2.74a1.26,1.26,0,0,1,.7-1.1,34.06,34.06,0,0,1,5.14-2.07,12,12,0,0,1,3.27-.48h0a5.45,5.45,0,0,1,1.06-3.37,4.35,4.35,0,0,1,3.71-1.81h1.36a8.9,8.9,0,0,0,3-.26.56.56,0,0,1,.33-.12c.38,0,.68.53.68,1.64C97.8,13,96.27,16.7,93.25,17.41Z"/><path class="b3f0261d-28eb-4b4b-99f9-c9d448dc8092" d="M35.61,20.67c.3-.63.24-2.59-1.65-2.21a4.89,4.89,0,0,0-3.65,3.24A7.42,7.42,0,0,0,30,22.94S34.48,23.11,35.61,20.67Z"/><path class="b3f0261d-28eb-4b4b-99f9-c9d448dc8092" d="M86.64,24c-1.36.37-3.19,1.15-3.67,2.73-.2.67.12,2.59,1.94,2A4.89,4.89,0,0,0,88.08,25a9.06,9.06,0,0,0,.1-1.27s-.35,0-.88.15Z"/><path class="fe57062c-751c-4517-baa8-42c6b09a8751" d="M97.12,9.47a.23.23,0,0,0-.14,0c-.24.18-.81.36-3.15.36H92.47c-1.43,0-2,.29-2.62,1.28a3.66,3.66,0,0,0-.39,1.28,1.82,1.82,0,0,0,0,.57c.06.43.19.8.48.65a.46.46,0,0,0,.22-.29,4.78,4.78,0,0,0,0-1.76.13.13,0,0,1,.25-.09,3.43,3.43,0,0,1,.4,1.43,4.37,4.37,0,0,1,.66-.36.79.79,0,0,0,.42-.42,3,3,0,0,0,.19-1.33.16.16,0,0,1,.3-.08,2,2,0,0,1,.24,1.5h0a5.51,5.51,0,0,0,.79-.12A3.1,3.1,0,0,0,94,11a.11.11,0,0,1,.22,0,2.87,2.87,0,0,1,0,1,3.67,3.67,0,0,0,2.08-1.21.13.13,0,0,1,.21.13c-.68,1.66-3,1.75-4.19,2.2a2.5,2.5,0,0,0-1,.74,1,1,0,0,0,.27,1.52l.21.14c1.41.94,3,.08,3.9-.66a2.1,2.1,0,0,1-1.47-.64.11.11,0,0,1,.1-.18A3.33,3.33,0,0,0,96.11,14a1.1,1.1,0,0,0,.59-.49c.06-.11.12-.21.17-.32a1.13,1.13,0,0,1-1-.09.1.1,0,0,1,0-.19,4.21,4.21,0,0,0,.7-.15A1.07,1.07,0,0,0,97.3,12a5.77,5.77,0,0,0,.15-1.27C97.45,9.77,97.21,9.48,97.12,9.47Z"/><path class="a7aff755-bbb0-4dbd-b1fe-296fe8b820bd" d="M97.12,9.12a.56.56,0,0,0-.33.12,8.9,8.9,0,0,1-3,.26H92.47a4.35,4.35,0,0,0-3.71,1.81,5.45,5.45,0,0,0-1.06,3.37,7.69,7.69,0,0,1,1.1.08,6.41,6.41,0,0,1,3.39,1.5,7.43,7.43,0,0,1,1.06,1.16c3-.71,4.55-4.44,4.55-6.65C97.8,9.65,97.5,9.12,97.12,9.12ZM97.3,12a1.07,1.07,0,0,1-.71.75,4.21,4.21,0,0,1-.7.15.1.1,0,0,0,0,.19,1.13,1.13,0,0,0,1,.09c-.05.11-.11.21-.17.32a1.1,1.1,0,0,1-.59.49,3.33,3.33,0,0,1-1.88.06.11.11,0,0,0-.1.18,2.1,2.1,0,0,0,1.47.64c-.89.74-2.49,1.6-3.9.66l-.21-.14a1,1,0,0,1-.27-1.52,2.5,2.5,0,0,1,1-.74c1.14-.45,3.51-.54,4.19-2.2a.13.13,0,0,0-.21-.13A3.67,3.67,0,0,1,94.12,12a2.87,2.87,0,0,0,0-1A.11.11,0,0,0,94,11a3.1,3.1,0,0,1-.54,1.14,5.51,5.51,0,0,1-.79.12h0a2,2,0,0,0-.24-1.5.16.16,0,0,0-.3.08,3,3,0,0,1-.19,1.33.79.79,0,0,1-.42.42,4.37,4.37,0,0,0-.66.36,3.43,3.43,0,0,0-.4-1.43.13.13,0,0,0-.25.09,4.78,4.78,0,0,1,0,1.76.46.46,0,0,1-.22.29c-.29.15-.42-.22-.48-.65a1.82,1.82,0,0,1,0-.57,3.66,3.66,0,0,1,.39-1.28c.6-1,1.19-1.28,2.62-1.28h1.36c2.34,0,2.91-.18,3.15-.36a.23.23,0,0,1,.14,0c.09,0,.33.3.33,1.29A5.77,5.77,0,0,1,97.3,12Z"/><path class="b4482fc6-fcf8-4fb4-ab2f-688e861bf29d" d="M75.49,9.78l-4.85,1a1,1,0,0,0-.74.93v7.11H64.26V10.52a.74.74,0,0,0-.74-.74l-4.86,1a1,1,0,0,0-.74.93v6a8.87,8.87,0,0,1,1,.86,6.22,6.22,0,0,1,1.91,4.2,3.11,3.11,0,0,1-1.59,2.85,4.62,4.62,0,0,1-1.18.47,1.2,1.2,0,0,1-.12.42v6a.75.75,0,0,0,.74.75h4.86a.75.75,0,0,0,.74-.75V23.7H69.9v8.84a.75.75,0,0,0,.74.75h4.85a.75.75,0,0,0,.75-.75v-22A.74.74,0,0,0,75.49,9.78Z"/><path class="b4482fc6-fcf8-4fb4-ab2f-688e861bf29d" d="M8.09,19.71c3.18-3.37,5.35-3.54,7.18-3.54,2,0,3.66.6,4.6,2l4.66-7a.9.9,0,0,0-.76-1.41H17.65a.93.93,0,0,0-.77.4l-3.44,5.14L10,10.18a.91.91,0,0,0-.76-.4H3.12a.9.9,0,0,0-.76,1.41Z"/><path class="b4482fc6-fcf8-4fb4-ab2f-688e861bf29d" d="M20,23.53a3.73,3.73,0,0,1-3.28,1.41c-1.69,0-3.13-1.05-3.13-2.63,0-2,1.61-2.06,1.81-2.06a1.38,1.38,0,0,1,1.52,1.4c0,1.13-1.22,1.32-1.57,1.34a.05.05,0,0,0,0,.09,1.64,1.64,0,0,0,1.37.56,2.42,2.42,0,0,0,2.38-2.41,3.68,3.68,0,0,0-.15-1,2.6,2.6,0,0,0-.47-.94,3.82,3.82,0,0,0-3.32-1.42A6.22,6.22,0,0,0,10.68,20a27,27,0,0,0-2.33,3l-6,8.94a.91.91,0,0,0,.76,1.42H9.24a.94.94,0,0,0,.77-.42l3.43-5.13,3.44,5.14a.94.94,0,0,0,.77.41h6.12a.91.91,0,0,0,.76-1.42Z"/><path class="b4482fc6-fcf8-4fb4-ab2f-688e861bf29d" d="M94.47,33a2.86,2.86,0,0,1-.23-1.24v-11a.55.55,0,0,0,0-.12,5.29,5.29,0,0,0-.86-3l-.14-.19a7.43,7.43,0,0,0-1.06-1.16,6.41,6.41,0,0,0-3.39-1.5,7.69,7.69,0,0,0-1.1-.08h0a12,12,0,0,0-3.27.48,34.06,34.06,0,0,0-5.14,2.07,1.26,1.26,0,0,0-.7,1.1c0,1,0,2.06,0,2.74a.39.39,0,0,0,.6.33c1.29-.81,4.93-2.73,7-2.27a2.87,2.87,0,0,1,1.8,1.26.39.39,0,0,1,0,.4.39.39,0,0,1-.32.18c-2.79-.08-7.1.89-9.33,3.56a6.19,6.19,0,0,0-1.44,4.26c.18,5.92,7.34,5.34,10.9,3.36a.35.35,0,0,1,.52.25,1.57,1.57,0,0,0,.31.75.37.37,0,0,0,.25.15h5.44A.22.22,0,0,0,94.47,33Zm-6.39-8a4.89,4.89,0,0,1-3.17,3.71c-1.82.64-2.14-1.28-1.94-2,.48-1.58,2.31-2.36,3.67-2.73l.66-.15c.53-.11.88-.15.88-.15A9.06,9.06,0,0,1,88.08,25Z"/><path class="b4482fc6-fcf8-4fb4-ab2f-688e861bf29d" d="M41.26,5.79h.84v2h-.81L41.48,9a.66.66,0,0,0,.65.55h.36l-.28,4,0,.4c4.75-1.93,6.07-4.4,6.07-4.4h.36A.65.65,0,0,0,49.25,9l.2-1.2h-.81v-2h.67a.23.23,0,0,0,.12-.41L46,2.47a1.08,1.08,0,0,0-1.43,0L41.13,5.38A.23.23,0,0,0,41.26,5.79Zm3.08.89a1,1,0,1,1,2,0V7.92h-2Z"/><path class="b4482fc6-fcf8-4fb4-ab2f-688e861bf29d" d="M48.68,27.67a1.65,1.65,0,0,1-.35-1.1l-.67,0A1.65,1.65,0,0,1,46,25.67a1.8,1.8,0,0,1,.61-2,3.47,3.47,0,0,0,.57-.72.72.72,0,0,0,.08-.27.74.74,0,0,0-.09-.32,3.54,3.54,0,0,0-.44-.63,1.83,1.83,0,0,1-.13-.16,2.76,2.76,0,0,1-.21-.25A37.71,37.71,0,0,1,41.29,25s-4.47,2.93-8.44,2.93a4,4,0,0,1-.82-.23c-.62-.25-1.82-1.21-1.49-1.33,0,0,5-.29,8-2.58,3.61-2.77,1.35-8.34-2.57-9A11.09,11.09,0,0,0,24,22.3c0,.14-.1.28-.14.42l0,.08-.09.3c-1.77,5.78,1.34,10.25,8.23,10.25a18.19,18.19,0,0,0,8.87-2.46h0s.67-.39,1.48-.92c.2-.14.46.15.35.36a5.12,5.12,0,0,1-1.89,2,.79.79,0,0,0,.76.58h7.7A.8.8,0,0,0,50,32l-.3-3.79A1.56,1.56,0,0,1,48.68,27.67ZM30,22.94a7.42,7.42,0,0,1,.28-1.24A4.89,4.89,0,0,1,34,18.46c1.89-.38,1.95,1.58,1.65,2.21C34.48,23.11,30,22.94,30,22.94Z"/><path class="b4482fc6-fcf8-4fb4-ab2f-688e861bf29d" d="M42,16.27l-.43,5.26s3-.86,7.18-5.49h0l-.36-4.84A14.32,14.32,0,0,1,42,16.27Z"/><path class="b4482fc6-fcf8-4fb4-ab2f-688e861bf29d" d="M58.2,24.7l.34-.17a2.3,2.3,0,0,0,.34-.25,1.73,1.73,0,0,0,.34-.4,1.62,1.62,0,0,0,.13-.27,1.44,1.44,0,0,0,.08-.25c0-.08,0-.15,0-.21a1.61,1.61,0,0,0,0-.25,4.71,4.71,0,0,0-1.22-3q-.16-.19-.33-.36l-.32-.31L57.26,19a6.55,6.55,0,0,0-.7-.51,6.34,6.34,0,0,0-1-.52,2,2,0,0,0-.29-.1l-.17-.06H55l-.14,0-.08,0-.15,0-.1,0-.16,0-.12,0-.16,0-.14,0-.17,0H52.4l-.21,0-.18,0-.22,0-.18,0-.24.05-.18,0-.25.07-.18.05-.28.09-.15.05-.44.17h0l0,0a.48.48,0,0,0-.27.36.78.78,0,0,0,.09.46c.06.11.12.22.19.33a6.86,6.86,0,0,0,.94,1.11.16.16,0,0,1,.06.08,0,0,0,0,1,0,0s0,0,0,.06v0s0,0,0,.05,0,0,0,0l0,.07h0l-.06,0h-.15s0,0,0,0l-.08,0a3.83,3.83,0,0,0-.39-.27,2.57,2.57,0,0,0-.47-.23,3.24,3.24,0,0,0-.57-.17h-.05l-.36-.06-.33,0L48,20h-.39a1.11,1.11,0,0,0-.31,0,.14.14,0,0,0-.1.06.09.09,0,0,0,0,.09.11.11,0,0,0,0,.05.9.9,0,0,0,.05.09l0,.08.07.09h0c.09.12.21.25.33.39l.16.2.17.22a3.62,3.62,0,0,1,.2.33l.09.16.09.21a2.11,2.11,0,0,1,.12.51c0,.06,0,.11,0,.18a2,2,0,0,1-.22.87,5.16,5.16,0,0,1-.88,1.13,1.07,1.07,0,0,0-.27.38.08.08,0,0,0,0,.08.17.17,0,0,0,.11.06,1.33,1.33,0,0,0,.32,0h.7a6.34,6.34,0,0,0,.74-.1,2.75,2.75,0,0,0,.34-.1l.23-.08.22-.12a2.58,2.58,0,0,0,.55-.45.27.27,0,0,1,.08-.07h0l.06,0h.08l.05,0h0l0,.05h0a.14.14,0,0,1,0,.06v0a.13.13,0,0,1,0,.06v0a.41.41,0,0,1,0,.09h0l-.2.24a6.7,6.7,0,0,0-.5.77,3.61,3.61,0,0,0-.36.86.69.69,0,0,0,0,.13v0a.15.15,0,0,1,0,.06s0,0,0,0l0,0s0,0,0,0l0,0h.13l2.06.33h0a5.32,5.32,0,0,0,.56.06h.76l.39,0,.17,0,.55-.1h0l.53-.16.16-.06a3.88,3.88,0,0,0,.36-.15l.18-.08.35-.18.15-.09a4.76,4.76,0,0,0,.47-.31l.11-.09,0,0h0l-.37,0L56,25.91a5.75,5.75,0,0,1-1.16-.38l-.13-.07a2.45,2.45,0,0,1-.53-.38,2.73,2.73,0,0,1-.25-.23l0,0a1.92,1.92,0,0,1-.18-.22,2.73,2.73,0,0,1-.3-.48L53.35,24a3.83,3.83,0,0,1-.22-.65,3.28,3.28,0,0,1,0-1.36s0-.11,0-.16a.75.75,0,0,1,0-.16l0-.12v0l.07-.16,0-.08,0-.06.07-.13,0,0v0l0,0,0-.07a.18.18,0,0,1,.05-.07l0-.07a1.7,1.7,0,0,1,.22-.24,2.39,2.39,0,0,1,.26-.21l.28-.16c.09-.05.19-.08.28-.12h0l.35-.08h.1l.24,0h.11a1.84,1.84,0,0,1,.33,0h0a1.06,1.06,0,0,1,.23.05l.21.07.2.09.18.12,0,0,0,0a1.52,1.52,0,0,1,.3.33.69.69,0,0,1,.1.19c0,.06.05.12.07.17a1.22,1.22,0,0,1,0,.17,1,1,0,0,1,0,.39v.15h0a.9.9,0,0,1-.08.21.94.94,0,0,1-.12.18.75.75,0,0,1-.16.15,1.22,1.22,0,0,1-.19.12l-.18.06h-.26l-.23,0h0l-.09,0a1,1,0,0,1-.36-.22,1.07,1.07,0,0,1-.26-.45,1,1,0,0,1,.27-1l0-.06v0a0,0,0,0,0,0,0s0,0,0,0l0,0h-.1a1.69,1.69,0,0,0-.49.09.66.66,0,0,0-.19.09,1.24,1.24,0,0,0-.35.25,1.22,1.22,0,0,0-.15.17.33.33,0,0,0-.06.1l-.06.08,0,.07,0,.06,0,.07,0,.05,0,.11,0,0,0,.07s0,0,0,.06a1.16,1.16,0,0,1,0,.18l0,.26v.25a2.26,2.26,0,0,0,.08.51,1.09,1.09,0,0,0,.07.24,2.4,2.4,0,0,0,.11.23l.06.11a1.4,1.4,0,0,0,.1.16l.11.15a1.45,1.45,0,0,0,.17.18,2.44,2.44,0,0,0,.59.42,2.61,2.61,0,0,0,.66.24l.22,0h.82a4,4,0,0,0,.49,0,4.93,4.93,0,0,0,.58-.13Z"/><path class="a5fc5d3f-2d94-45bb-ac6b-68b3fd3b3bdb" d="M60.81,22.83a6.22,6.22,0,0,0-1.91-4.2,8.87,8.87,0,0,0-1-.86,7.58,7.58,0,0,0-2.24-1.23,8.77,8.77,0,0,0-2.59-.38,9.61,9.61,0,0,0-3.73.76,1.84,1.84,0,0,0-1.12,1.75h-.59a1.63,1.63,0,0,0-1.64.89,1.66,1.66,0,0,0,.36,1.79,2.76,2.76,0,0,0,.21.25,1.83,1.83,0,0,0,.13.16,3.54,3.54,0,0,1,.44.63.74.74,0,0,1,.09.32.72.72,0,0,1-.08.27,3.47,3.47,0,0,1-.57.72,1.8,1.8,0,0,0-.61,2,1.65,1.65,0,0,0,1.68.92l.67,0a1.65,1.65,0,0,0,.35,1.1,1.56,1.56,0,0,0,1,.56h0l2,.32a7.85,7.85,0,0,0,1.19.1,7.53,7.53,0,0,0,4.45-1.46l.21-.17a1.28,1.28,0,0,0,.35-.45,1.2,1.2,0,0,0,.12-.42,4.62,4.62,0,0,0,1.18-.47A3.11,3.11,0,0,0,60.81,22.83Zm-1.34.32c0,.06,0,.13,0,.21a1.44,1.44,0,0,1-.08.25,1.62,1.62,0,0,1-.13.27,1.73,1.73,0,0,1-.34.4,2.3,2.3,0,0,1-.34.25l-.34.17-.28.1a4.93,4.93,0,0,1-.58.13,4,4,0,0,1-.49,0H56l-.22,0a2.61,2.61,0,0,1-.66-.24,2.44,2.44,0,0,1-.59-.42,1.45,1.45,0,0,1-.17-.18l-.11-.15a1.4,1.4,0,0,1-.1-.16l-.06-.11A2.4,2.4,0,0,1,54,23.4a1.09,1.09,0,0,1-.07-.24,2.26,2.26,0,0,1-.08-.51V22.4l0-.26a1.16,1.16,0,0,0,0-.18s0,0,0-.06l0-.07,0,0,0-.11,0-.05,0-.07,0-.06,0-.07.06-.08a.33.33,0,0,1,.06-.1,1.22,1.22,0,0,1,.15-.17,1.24,1.24,0,0,1,.35-.25.66.66,0,0,1,.19-.09,1.69,1.69,0,0,1,.49-.09h.1l0,0s0,0,0,0a0,0,0,0,1,0,0v0l0,.06a1,1,0,0,0-.27,1,1.07,1.07,0,0,0,.26.45,1,1,0,0,0,.36.22l.09,0h0l.23,0h.26l.18-.06a1.22,1.22,0,0,0,.19-.12.75.75,0,0,0,.16-.15.94.94,0,0,0,.12-.18.9.9,0,0,0,.08-.21h0v-.15a1,1,0,0,0,0-.39,1.22,1.22,0,0,0,0-.17c0-.05,0-.11-.07-.17a.69.69,0,0,0-.1-.19,1.52,1.52,0,0,0-.3-.33l0,0,0,0-.18-.12-.2-.09L56.08,20a1.06,1.06,0,0,0-.23-.05h0a1.84,1.84,0,0,0-.33,0h-.11l-.24,0h-.1l-.35.08h0c-.09,0-.19.07-.28.12l-.28.16a2.39,2.39,0,0,0-.26.21,1.7,1.7,0,0,0-.22.24l0,.07a.18.18,0,0,0-.05.07l0,.07,0,0v0l0,0-.07.13,0,.06,0,.08-.07.16v0l0,.12a.75.75,0,0,0,0,.16c0,.05,0,.11,0,.16a3.28,3.28,0,0,0,0,1.36,3.83,3.83,0,0,0,.22.65l.06.11a2.73,2.73,0,0,0,.3.48,1.92,1.92,0,0,0,.18.22l0,0a2.73,2.73,0,0,0,.25.23,2.45,2.45,0,0,0,.53.38l.13.07a5.75,5.75,0,0,0,1.16.38l.31.05.37,0h0l0,0-.11.09a4.76,4.76,0,0,1-.47.31l-.15.09-.35.18-.18.08a3.88,3.88,0,0,1-.36.15l-.16.06-.53.16h0l-.55.1-.17,0-.39,0h-.76a5.32,5.32,0,0,1-.56-.06h0l-2.06-.33h-.13l0,0s0,0,0,0l0,0s0,0,0,0a.15.15,0,0,0,0-.06v0a.69.69,0,0,1,0-.13,3.61,3.61,0,0,1,.36-.86,6.7,6.7,0,0,1,.5-.77l.2-.24h0a.41.41,0,0,0,0-.09v0a.13.13,0,0,0,0-.06v0a.14.14,0,0,0,0-.06h0l0-.05h0l-.05,0h-.08l-.06,0h0a.27.27,0,0,0-.08.07,2.58,2.58,0,0,1-.55.45l-.22.12-.23.08a2.75,2.75,0,0,1-.34.1,6.34,6.34,0,0,1-.74.1h-.7a1.33,1.33,0,0,1-.32,0,.17.17,0,0,1-.11-.06.08.08,0,0,1,0-.08,1.07,1.07,0,0,1,.27-.38,5.16,5.16,0,0,0,.88-1.13,2,2,0,0,0,.22-.87c0-.07,0-.12,0-.18a2.11,2.11,0,0,0-.12-.51l-.09-.21-.09-.16a3.62,3.62,0,0,0-.2-.33l-.17-.22-.16-.2c-.12-.14-.24-.27-.33-.39h0l-.07-.09,0-.08a.9.9,0,0,1-.05-.09.11.11,0,0,1,0-.05.09.09,0,0,1,0-.09.14.14,0,0,1,.1-.06,1.11,1.11,0,0,1,.31,0H48l.32,0,.33,0,.36.06h.05a3.24,3.24,0,0,1,.57.17,2.57,2.57,0,0,1,.47.23,3.83,3.83,0,0,1,.39.27l.08,0s0,0,0,0h.15l.06,0h0l0-.07s0,0,0,0,0,0,0-.05v0s0,0,0-.06a0,0,0,0,0,0,0,.16.16,0,0,0-.06-.08,6.86,6.86,0,0,1-.94-1.11c-.07-.11-.13-.22-.19-.33a.78.78,0,0,1-.09-.46.48.48,0,0,1,.27-.36l0,0h0l.44-.17.15-.05.28-.09.18-.05.25-.07.18,0,.24-.05.18,0,.22,0,.18,0,.21,0h1.42l.17,0,.14,0,.16,0,.12,0,.16,0,.1,0,.15,0,.08,0,.14,0h.07l.17.06a2,2,0,0,1,.29.1,6.34,6.34,0,0,1,1,.52,6.55,6.55,0,0,1,.7.51l.34.29.32.31q.16.16.33.36a4.71,4.71,0,0,1,1.22,3A1.61,1.61,0,0,1,59.47,23.15Z"/><path class="f74c42dc-4bfe-4b23-8363-242e2419ea92" d="M54.2,50.9a2.15,2.15,0,0,0-1.16.34V48.9h-.93v6.15H53v-.34a2,2,0,0,0,1.14.34h0a2.06,2.06,0,0,0,1.24-.42A2,2,0,0,0,56.25,53v-.08a2.05,2.05,0,0,0-.42-1.23A2.09,2.09,0,0,0,54.2,50.9ZM55.32,53a1.09,1.09,0,0,1-.22.62,1.12,1.12,0,0,1-.92.48,1.25,1.25,0,0,1-.55-.14A1.17,1.17,0,0,1,53,53a1.34,1.34,0,0,1,.16-.59,1.16,1.16,0,0,1,1-.55,1.06,1.06,0,0,1,.71.25,1.11,1.11,0,0,1,.44.85Z"/><path class="f74c42dc-4bfe-4b23-8363-242e2419ea92" d="M60.08,52.74a1.8,1.8,0,0,1-.1.57,1,1,0,0,1-1,.81,1.11,1.11,0,0,1-.65-.19,1.66,1.66,0,0,1-.5-1.31V50.9h-.94v1.71a3.25,3.25,0,0,0,.2,1.14,1.91,1.91,0,0,0,1.87,1.3,1.94,1.94,0,0,0,1.14-.33v.65a1.7,1.7,0,0,1-.07.44,1,1,0,0,1-1,.71h-.07v.94H59a2,2,0,0,0,1.54-.7A2.33,2.33,0,0,0,61,55.41V50.9h-.94Z"/><path class="f74c42dc-4bfe-4b23-8363-242e2419ea92" d="M81.16,49h-.72v.6h0A3.08,3.08,0,0,0,78.6,49a3.15,3.15,0,0,0-1.76.55A3.07,3.07,0,0,0,75.53,52a3.17,3.17,0,0,0,.62,1.86,3,3,0,0,0,2.38,1.2h.16a3,3,0,0,0,1.75-.6v.6h1.22V49.45A.51.51,0,0,0,81.16,49Zm-.72,3.13a1.85,1.85,0,0,1-1.79,1.78h-.08a1.73,1.73,0,0,1-.84-.22,1.84,1.84,0,0,1-1-1.63A1.89,1.89,0,0,1,77.1,51a1.83,1.83,0,0,1,1.49-.78,1.93,1.93,0,0,1,.93.26A1.82,1.82,0,0,1,80.44,52Z"/><path class="f74c42dc-4bfe-4b23-8363-242e2419ea92" d="M74.21,53.28a1.73,1.73,0,0,1-1.28.53,2,2,0,0,1-.89-.23,1.84,1.84,0,0,1-1-1.61,2.1,2.1,0,0,1,.26-1,1.87,1.87,0,0,1,1.56-.89,1.73,1.73,0,0,1,1.27.51.41.41,0,0,0,.59,0l.5-.6A3,3,0,0,0,73,48.9a3.08,3.08,0,0,0-2.08.8,3,3,0,0,0-1,2.26,3.13,3.13,0,0,0,.63,1.88A3,3,0,0,0,72.92,55h0a3,3,0,0,0,1.91-.69c.18-.16.33-.3.43-.41l-.53-.62A.4.4,0,0,0,74.21,53.28Z"/><path class="f74c42dc-4bfe-4b23-8363-242e2419ea92" d="M89.43,49A3.08,3.08,0,0,0,86.34,52a3.14,3.14,0,0,0,.72,2,3,3,0,0,0,2.34,1.08h0a3,3,0,0,0,2.06-.82l-.77-.93h0a1.85,1.85,0,0,1-2.13.33,2.09,2.09,0,0,1-.62-.51.33.33,0,0,1,.25-.53h4.21a4.84,4.84,0,0,0,.06-.61,3.09,3.09,0,0,0-.72-2A3,3,0,0,0,89.43,49Zm1.29,2.46h-3a1.69,1.69,0,0,1,1.72-1.24,2.08,2.08,0,0,1,.91.23,2,2,0,0,1,.63.6A.27.27,0,0,1,90.72,51.41Z"/><path class="f74c42dc-4bfe-4b23-8363-242e2419ea92" d="M69.93,49.44a.33.33,0,0,0-.26-.54h-.88l-.15.18L67,51,65.27,48.9H63.74l.23.28L66.22,52h0l-2.53,3v0h1.6L67,52.93,68.8,55h1.6L67.83,52Z"/><path class="f74c42dc-4bfe-4b23-8363-242e2419ea92" d="M95.32,48.9h-.55V46.77a.5.5,0,0,0-.5-.5h-.68V48.9H92.5v1.22h1.09V55h1.18V50.12h1v-.71A.51.51,0,0,0,95.32,48.9Z"/><path class="f74c42dc-4bfe-4b23-8363-242e2419ea92" d="M86.35,48.9a4.14,4.14,0,0,0-2.44.7h0v-.2a.5.5,0,0,0-.5-.5h-.72V55H83.9V52a1.92,1.92,0,0,1,.14-.67,2.26,2.26,0,0,1,2.31-1.24Z"/></svg>