<svg id="b9163213-fbb6-498b-b671-f613b82dbf6b" data-name="Layer 1" xmlns="http://www.w3.org/2000/svg" viewBox="0 0 100 33.8"><defs><style>.a37736dd-7c36-46f2-a8a3-63be0676dfb6{fill:#fb0;}.fd5fc5de-ee36-40d3-b38b-38685051e0de{fill:#f09;}.e6527358-268c-410a-925b-1b209c8f2757{fill:#00aeaa;}</style></defs><polygon class="a37736dd-7c36-46f2-a8a3-63be0676dfb6" points="38.21 5.93 38.21 12.75 39.46 14.41 43.47 14.41 43.47 5.93 38.21 5.93"/><polygon class="a37736dd-7c36-46f2-a8a3-63be0676dfb6" points="60.76 14.41 66.03 14.41 66.04 5.93 60.76 5.93 60.76 14.41"/><path class="a37736dd-7c36-46f2-a8a3-63be0676dfb6" d="M63.42.18a2.67,2.67,0,1,0,2.66,2.66A2.67,2.67,0,0,0,63.42.18Z"/><path class="a37736dd-7c36-46f2-a8a3-63be0676dfb6" d="M23.31,3.46l0,0A4.07,4.07,0,0,0,21.34.85a4.52,4.52,0,0,0-.88-.36h0a.05.05,0,0,1,0,0,4.93,4.93,0,0,0-.67-.11l-.37,0a4.34,4.34,0,0,0-1,.13l0,0L18,.57a4,4,0,0,0-2.59,2.88A4,4,0,0,0,12.35,7c0,.12,0,.24,0,.35a3.81,3.81,0,0,0,.24,1.36,4,4,0,0,0,2.87,2.56,4,4,0,0,0,2.84,3,4.33,4.33,0,0,0,1.08.15l.39,0a3.78,3.78,0,0,0,.67-.13h0a3.68,3.68,0,0,0,.85-.34,4,4,0,0,0,2-2.63A4,4,0,0,0,26.4,7.37c0-.11,0-.23,0-.35A4,4,0,0,0,23.31,3.46ZM19.37,9.61a2.24,2.24,0,0,1-2.23-2.24,2.28,2.28,0,0,1,0-.45,1.21,1.21,0,0,1,.05-.18,2.24,2.24,0,0,1,4.28,0,1.21,1.21,0,0,0,0,.18,2.3,2.3,0,0,1,.05.45A2.25,2.25,0,0,1,19.37,9.61Z"/><path class="a37736dd-7c36-46f2-a8a3-63be0676dfb6" d="M40.83.18A2.67,2.67,0,1,0,43.5,2.84,2.67,2.67,0,0,0,40.83.18Z"/><path class="fd5fc5de-ee36-40d3-b38b-38685051e0de" d="M52.06,2.75,49.91.35h-5.8V14.41h5.31v-7l2.21.84a2.73,2.73,0,0,1-.44-1.48,2.87,2.87,0,0,1,.94-2.08,2.83,2.83,0,0,1,.94,2.08,2.69,2.69,0,0,1-.45,1.49l2.22-.85v7h5.31V.35h-6Z"/><path class="a37736dd-7c36-46f2-a8a3-63be0676dfb6" d="M82.62,8.64a2.69,2.69,0,0,1-2.54,1.58,2.74,2.74,0,0,1-1.94-.82,2.81,2.81,0,0,1,0-4,2.7,2.7,0,0,1,1.94-.82,2.53,2.53,0,0,1,2.35,1.26h2a7.77,7.77,0,0,1,1.47-3.06A7.27,7.27,0,0,0,80.08,0,7.61,7.61,0,0,0,74.76,2.2h0A7.39,7.39,0,0,0,72.59,7.4a6.94,6.94,0,0,0,.24,1.82,2,2,0,0,0,.06.24H77v4.65a7.56,7.56,0,0,0,3.06.64,7.37,7.37,0,0,0,5.79-2.66,7.56,7.56,0,0,1-1.5-3.45Z"/><polygon class="e6527358-268c-410a-925b-1b209c8f2757" points="71.92 10.05 71.91 0.35 66.64 0.35 66.64 14.41 76.41 14.41 76.41 10.05 71.92 10.05"/><path class="fd5fc5de-ee36-40d3-b38b-38685051e0de" d="M92.41,0a7.48,7.48,0,0,0-7.58,7.38,7.59,7.59,0,0,0,15.17,0A7.49,7.49,0,0,0,92.41,0Zm0,10.26a2.88,2.88,0,1,1,2.94-2.88A2.9,2.9,0,0,1,92.42,10.26Z"/><path class="e6527358-268c-410a-925b-1b209c8f2757" d="M33.66,7.69h0l5-7.35H31.6l-2.06,2.4L27.38.34H21.65A4.72,4.72,0,0,1,23.78,3,4.63,4.63,0,0,1,27,7c0,.13,0,.27,0,.4a4.33,4.33,0,0,1-.28,1.57,4.56,4.56,0,0,1-2.95,2.84,4.63,4.63,0,0,1-2.12,2.62h5.8L29.54,12l2.15,2.4h7Z"/><path class="fd5fc5de-ee36-40d3-b38b-38685051e0de" d="M15,11.78a4.62,4.62,0,0,1-3-2.84,4.54,4.54,0,0,1-.27-1.57c0-.13,0-.26,0-.39A4.62,4.62,0,0,1,15,3,4.66,4.66,0,0,1,17.13.35H11.27L9.2,2.75,7.05.35H0L5.07,7.07,0,14.41H7.13L9.2,12l2.16,2.4h5.75A4.61,4.61,0,0,1,15,11.78Z"/><path class="fd5fc5de-ee36-40d3-b38b-38685051e0de" d="M.4,16.66a.12.12,0,0,1,0-.08.1.1,0,0,1,.09,0h1a.13.13,0,0,1,.13.11l.76,2.53.77-2.53a.14.14,0,0,1,.14-.11h1a.1.1,0,0,1,.09,0,.1.1,0,0,1,0,.08c.07.66.13,1.31.2,1.95s.13,1.3.2,1.95v0c0,.07,0,.11-.12.11H3.88c-.09,0-.13,0-.14-.13L3.5,18.41l-.63,2.17s0,0,0,.07a.09.09,0,0,1-.07,0H2a.11.11,0,0,1-.07,0s0,0,0-.07l-.63-2.17-.24,2.15c0,.09-.05.13-.14.13H.12c-.08,0-.12,0-.12-.13Z"/><path class="fd5fc5de-ee36-40d3-b38b-38685051e0de" d="M5.25,16.67a.12.12,0,0,1,0-.09.1.1,0,0,1,.09,0H8.14a.12.12,0,0,1,.1,0,.13.13,0,0,1,0,.1v.69a.16.16,0,0,1,0,.09.15.15,0,0,1-.1,0H6.33v.69h1.4a.11.11,0,0,1,.08,0s0,0,0,.08v.6a.13.13,0,0,1,0,.08.12.12,0,0,1-.09,0H6.33v.72H8.21c.08,0,.12,0,.12.13v.7a.06.06,0,0,1,0,.05.1.1,0,0,1-.11.08H5.37a.16.16,0,0,1-.09,0,.12.12,0,0,1,0-.09Z"/><path class="fd5fc5de-ee36-40d3-b38b-38685051e0de" d="M8.34,20.61l0-.08.06-.09,1.25-1.87c-.21-.33-.42-.64-.63-1l-.64-.95s0,0,0-.05a.05.05,0,0,1,0,0l0,0h1a.17.17,0,0,1,.16.1l.69,1,.69-1a.17.17,0,0,1,.16-.1h1s0,0,0,0a.13.13,0,0,1,0,.07l-1.28,1.92,1.31,1.95,0,.07a.07.07,0,0,1,0,.06s0,0-.05,0h-1a.11.11,0,0,1-.08,0,.12.12,0,0,1-.06-.08l-.76-1.12-.75,1.12a.19.19,0,0,1-.07.08.11.11,0,0,1-.08,0h-1a.05.05,0,0,1,0,0s0,0,0,0A0,0,0,0,1,8.34,20.61Z"/><path class="fd5fc5de-ee36-40d3-b38b-38685051e0de" d="M12.53,16.66a.11.11,0,0,1,0-.08.1.1,0,0,1,.09,0h.82a.12.12,0,0,1,.09,0,.08.08,0,0,1,0,.08v3.9c0,.09,0,.13-.14.13h-.82c-.08,0-.12,0-.12-.13Z"/><path class="fd5fc5de-ee36-40d3-b38b-38685051e0de" d="M17.39,16.84a.13.13,0,0,1,.07.08.08.08,0,0,1,0,.1l-.47.67-.06.06a.19.19,0,0,1-.09,0,1.08,1.08,0,0,0-.3-.16,1.34,1.34,0,0,0-.35,0,1.16,1.16,0,0,0-.42.08,1,1,0,0,0-.33.24,1.15,1.15,0,0,0-.22.35,1.26,1.26,0,0,0-.08.43,1.18,1.18,0,0,0,.08.43,1.15,1.15,0,0,0,.22.35,1,1,0,0,0,.33.24,1.16,1.16,0,0,0,.42.08,1.34,1.34,0,0,0,.35-.05,1,1,0,0,0,.31-.17.13.13,0,0,1,.08,0,.1.1,0,0,1,.07.05l.48.69a.09.09,0,0,1,0,.1.12.12,0,0,1-.07.07,2.16,2.16,0,0,1-1.2.37,2.12,2.12,0,0,1-.57-.08,2.28,2.28,0,0,1-.51-.21,2.79,2.79,0,0,1-.43-.34,1.76,1.76,0,0,1-.33-.43,2.05,2.05,0,0,1-.22-.5,2.17,2.17,0,0,1-.07-.57,2.12,2.12,0,0,1,.07-.57,2.31,2.31,0,0,1,.22-.51,2,2,0,0,1,.33-.43,2,2,0,0,1,.94-.55,2.16,2.16,0,0,1,1.2,0A2.63,2.63,0,0,1,17.39,16.84Z"/><path class="fd5fc5de-ee36-40d3-b38b-38685051e0de" d="M19.07,16.65l0,0,0,0,0,0h.77a.11.11,0,0,1,.08,0l.05.05.07.16,1.46,3.78s0,.07,0,.09a.11.11,0,0,1-.1,0h-.8a.13.13,0,0,1-.1,0s0,0-.06-.08-.07-.19-.11-.28l-.1-.28H18.84c0,.09-.07.19-.11.28s-.07.19-.11.28a.14.14,0,0,1-.14.11h-.82a.12.12,0,0,1-.09,0,.05.05,0,0,1,0-.08Zm.51,1.2c0,.09-.07.19-.11.3s-.07.22-.11.33-.07.23-.1.34l-.11.3H20Z"/><path class="fd5fc5de-ee36-40d3-b38b-38685051e0de" d="M21.89,16.66a.11.11,0,0,1,0-.08.1.1,0,0,1,.09,0h.92l.08,0,.07.07.7,1.13.71,1.12V16.65a.15.15,0,0,1,0-.08.13.13,0,0,1,.08,0h.8a.17.17,0,0,1,.1,0,.16.16,0,0,1,0,.09v3.92a.1.1,0,0,1,0,.08.12.12,0,0,1-.09,0h-.89a.09.09,0,0,1-.07,0l-.05-.07-.74-1.21-.74-1.21v2.39a.1.1,0,0,1-.12.13H22a.1.1,0,0,1-.09,0,.11.11,0,0,1,0-.08Z"/><path class="fd5fc5de-ee36-40d3-b38b-38685051e0de" d="M27.67,16.67a.12.12,0,0,1,.11-.13h2.67a.13.13,0,0,1,.1,0,.13.13,0,0,1,0,.1v.69a.12.12,0,0,1,0,.09.13.13,0,0,1-.09,0h-1.7v.86H30a.12.12,0,0,1,.09,0,.11.11,0,0,1,0,.1v.66a.17.17,0,0,1,0,.1.15.15,0,0,1-.09,0H28.75v1.28c0,.08,0,.12-.13.12h-.85a.11.11,0,0,1-.1-.12Z"/><path class="fd5fc5de-ee36-40d3-b38b-38685051e0de" d="M30.89,16.66a.11.11,0,0,1,0-.08.13.13,0,0,1,.1,0h.82a.16.16,0,0,1,.09,0,.13.13,0,0,1,0,.09v3h1.54a.11.11,0,0,1,.08,0,.11.11,0,0,1,0,.09v.74a.16.16,0,0,1,0,.09.18.18,0,0,1-.09,0H31c-.08,0-.12,0-.12-.13Z"/><path class="fd5fc5de-ee36-40d3-b38b-38685051e0de" d="M33.7,18.62a2.12,2.12,0,0,1,.07-.57,1.92,1.92,0,0,1,.22-.51,2,2,0,0,1,.33-.43,2,2,0,0,1,.43-.34,2.28,2.28,0,0,1,.51-.21,2.12,2.12,0,0,1,.57-.08,2.18,2.18,0,0,1,.57.08,2.28,2.28,0,0,1,.51.21,2,2,0,0,1,.43.34,2,2,0,0,1,.33.43,1.92,1.92,0,0,1,.22.51,2.12,2.12,0,0,1,.08.57,2.18,2.18,0,0,1-.08.57,1.73,1.73,0,0,1-.22.5,1.76,1.76,0,0,1-.33.43,2.38,2.38,0,0,1-.43.34,2.28,2.28,0,0,1-.51.21,2.18,2.18,0,0,1-.57.08,2.12,2.12,0,0,1-.57-.08,2.28,2.28,0,0,1-.51-.21,2.38,2.38,0,0,1-.43-.34,1.76,1.76,0,0,1-.33-.43,1.73,1.73,0,0,1-.22-.5A2.17,2.17,0,0,1,33.7,18.62Zm1.08,0a1.25,1.25,0,0,0,.07.43,1.38,1.38,0,0,0,.22.35,1,1,0,0,0,.34.23,1,1,0,0,0,.84,0,.89.89,0,0,0,.34-.23,1.15,1.15,0,0,0,.22-.35,1.22,1.22,0,0,0,0-.87,1.15,1.15,0,0,0-.22-.35,1,1,0,0,0-.34-.24,1.14,1.14,0,0,0-.84,0,1.16,1.16,0,0,0-.34.24,1.38,1.38,0,0,0-.22.35A1.27,1.27,0,0,0,34.78,18.62Z"/><path class="fd5fc5de-ee36-40d3-b38b-38685051e0de" d="M39.22,16.65l0,0,0,0,0,0h.77a.13.13,0,0,1,.08,0l0,.05.07.16,1.46,3.78a.07.07,0,0,1,0,.09.11.11,0,0,1-.1,0h-.8a.13.13,0,0,1-.1,0s0,0-.06-.08-.07-.19-.11-.28l-.1-.28H39c0,.09-.08.19-.11.28s-.07.19-.11.28a.14.14,0,0,1-.14.11H37.8a.11.11,0,0,1-.08,0,.06.06,0,0,1,0-.08Zm.51,1.2c0,.09-.07.19-.11.3l-.11.33c0,.12-.07.23-.1.34l-.11.3h.86Z"/><path class="fd5fc5de-ee36-40d3-b38b-38685051e0de" d="M41.1,16.66a.18.18,0,0,1,0-.09.17.17,0,0,1,.1,0h3a.16.16,0,0,1,.09,0,.13.13,0,0,1,0,.09v.7a.16.16,0,0,1,0,.09.14.14,0,0,1-.1.05h-1v3.06a.18.18,0,0,1,0,.09.15.15,0,0,1-.09,0h-.82a.15.15,0,0,1-.09,0,.12.12,0,0,1,0-.09V17.5h-1a.13.13,0,0,1-.1,0,.15.15,0,0,1,0-.1Z"/><path class="fd5fc5de-ee36-40d3-b38b-38685051e0de" d="M44.78,16.66a.11.11,0,0,1,0-.08.1.1,0,0,1,.09,0h.82a.12.12,0,0,1,.09,0,.1.1,0,0,1,0,.08v3.9c0,.09,0,.13-.14.13H44.9c-.08,0-.12,0-.12-.13Z"/><path class="fd5fc5de-ee36-40d3-b38b-38685051e0de" d="M46.49,16.66a.11.11,0,0,1,0-.08.1.1,0,0,1,.09,0h.92l.08,0a.16.16,0,0,1,.07.07l.7,1.13.71,1.12V16.65a.11.11,0,0,1,0-.08.09.09,0,0,1,.07,0H50a.17.17,0,0,1,.1,0,.18.18,0,0,1,0,.09v3.92a.1.1,0,0,1,0,.08.12.12,0,0,1-.09,0h-.89a.07.07,0,0,1-.06,0,.22.22,0,0,1-.06-.07l-.74-1.21c-.24-.4-.49-.8-.73-1.21v2.39a.15.15,0,0,1,0,.1.13.13,0,0,1-.1,0h-.8a.1.1,0,0,1-.09,0,.11.11,0,0,1,0-.08Z"/><path class="fd5fc5de-ee36-40d3-b38b-38685051e0de" d="M53.39,17.71a1.08,1.08,0,0,0-.3-.16,1.34,1.34,0,0,0-.35-.05,1,1,0,0,0-.42.09,1,1,0,0,0-.33.24.91.91,0,0,0-.22.35,1.2,1.2,0,0,0,0,.86,1,1,0,0,0,.22.35,1,1,0,0,0,.33.24,1.16,1.16,0,0,0,.42.08h.2l.2,0v-.73a.16.16,0,0,1,0-.09.12.12,0,0,1,.09,0H54l.09,0a.11.11,0,0,1,0,.09v1.35a.14.14,0,0,1-.08.12,1.64,1.64,0,0,1-.29.16,2.07,2.07,0,0,1-.33.1l-.35.07-.35,0a2.12,2.12,0,0,1-.57-.08,2.28,2.28,0,0,1-.51-.21,2.79,2.79,0,0,1-.43-.34,1.76,1.76,0,0,1-.33-.43,2.05,2.05,0,0,1-.22-.5,2.17,2.17,0,0,1-.07-.57,2.12,2.12,0,0,1,.07-.57,2.31,2.31,0,0,1,.22-.51,2,2,0,0,1,.33-.43,2,2,0,0,1,.94-.55,2.16,2.16,0,0,1,1.2,0,2.63,2.63,0,0,1,.56.27l.08.08a.1.1,0,0,1,0,.1l-.45.65a.19.19,0,0,1-.07.06S53.43,17.74,53.39,17.71Z"/><path class="fd5fc5de-ee36-40d3-b38b-38685051e0de" d="M56.18,16.67a.1.1,0,0,1,0-.09.1.1,0,0,1,.07,0H59a.11.11,0,0,1,.1,0,.13.13,0,0,1,0,.1v.69a.16.16,0,0,1,0,.09.15.15,0,0,1-.1,0h-1.7v.86h1.26l.09,0a.13.13,0,0,1,0,.1v.66a.17.17,0,0,1,0,.1.13.13,0,0,1-.09,0H57.26v1.28a.11.11,0,0,1-.12.12h-.86a.11.11,0,0,1-.1-.12Z"/><path class="fd5fc5de-ee36-40d3-b38b-38685051e0de" d="M59.51,16.66a.11.11,0,0,1,0-.08.12.12,0,0,1,.1,0h.82a.14.14,0,0,1,.09,0,.09.09,0,0,1,0,.08v3.9c0,.09,0,.13-.13.13h-.82c-.09,0-.13,0-.13-.13Z"/><path class="fd5fc5de-ee36-40d3-b38b-38685051e0de" d="M61.21,16.67a.14.14,0,0,1,.13-.13h2.77a.1.1,0,0,1,.09,0,.13.13,0,0,1,0,.1v.69a.16.16,0,0,1,0,.09.13.13,0,0,1-.1,0H62.29v.69h1.4a.16.16,0,0,1,.09,0s0,0,0,.08v.6a.13.13,0,0,1,0,.08.12.12,0,0,1-.09,0h-1.4v.72h1.88a.12.12,0,0,1,.13.13v.7s0,0,0,.05,0,.08-.11.08H61.34a.12.12,0,0,1-.09,0,.1.1,0,0,1,0-.09Z"/><path class="fd5fc5de-ee36-40d3-b38b-38685051e0de" d="M65.22,19.35a.91.91,0,0,1,.13.1.76.76,0,0,0,.17.13,1.51,1.51,0,0,0,.28.15.93.93,0,0,0,.29.05.83.83,0,0,0,.24,0,.53.53,0,0,0,.15-.08.35.35,0,0,0,.08-.13.34.34,0,0,0,0-.15.24.24,0,0,0-.06-.15.48.48,0,0,0-.16-.12.72.72,0,0,0-.2-.09L66,19a4,4,0,0,1-.58-.26,1.74,1.74,0,0,1-.42-.3.94.94,0,0,1-.25-.36,1.1,1.1,0,0,1-.09-.45,1,1,0,0,1,.11-.47,1.12,1.12,0,0,1,.29-.36,1.6,1.6,0,0,1,.47-.24,2.31,2.31,0,0,1,.61-.08,1.93,1.93,0,0,1,.49.06,2,2,0,0,1,.46.18l.18.12.15.11.1.11a.12.12,0,0,1,0,.09.14.14,0,0,1,0,.06l0,.07-.43.46a.14.14,0,0,1-.1.05.11.11,0,0,1-.07,0l-.07-.05,0,0-.13-.1a.42.42,0,0,0-.14-.09l-.17-.07a.51.51,0,0,0-.17,0l-.18,0-.14.05a.28.28,0,0,0-.1.09.25.25,0,0,0,0,.13.18.18,0,0,0,0,.13.29.29,0,0,0,.11.11l.2.09.27.1c.19.06.37.13.54.2a2,2,0,0,1,.43.25,1.21,1.21,0,0,1,.29.35,1.27,1.27,0,0,1,.1.5,1.18,1.18,0,0,1-.13.56,1.37,1.37,0,0,1-.34.42,1.51,1.51,0,0,1-.52.27,1.85,1.85,0,0,1-.63.1,1.9,1.9,0,0,1-.63-.11,2.49,2.49,0,0,1-.58-.31l-.19-.16L64.56,20h0c0-.05-.07-.08-.07-.11a.16.16,0,0,1,.07-.11l.48-.46a.16.16,0,0,1,.09,0l.06,0A.13.13,0,0,1,65.22,19.35Z"/><path class="fd5fc5de-ee36-40d3-b38b-38685051e0de" d="M67.86,16.66a.12.12,0,0,1,.13-.12h3a.12.12,0,0,1,.09,0,.11.11,0,0,1,0,.09v.7a.12.12,0,0,1,0,.09.11.11,0,0,1-.1.05H70v3.06a.16.16,0,0,1,0,.09.18.18,0,0,1-.1,0h-.82a.14.14,0,0,1-.13-.13V17.5H68a.1.1,0,0,1-.09,0,.12.12,0,0,1,0-.1Z"/><path class="fd5fc5de-ee36-40d3-b38b-38685051e0de" d="M72,16.65l0,0,0,0,0,0h.76a.11.11,0,0,1,.08,0l0,.05.07.16,1.47,3.78s0,.07,0,.09a.12.12,0,0,1-.11,0h-.8a.17.17,0,0,1-.1,0,.12.12,0,0,1,0-.08c0-.09-.08-.19-.11-.28s-.07-.19-.11-.28H71.72c0,.09-.07.19-.11.28l-.1.28a.16.16,0,0,1-.15.11h-.82a.14.14,0,0,1-.09,0,.06.06,0,0,1,0-.08Zm.51,1.2c0,.09-.07.19-.1.3s-.08.22-.11.33-.07.23-.11.34-.07.21-.11.3h.86Z"/><path class="a37736dd-7c36-46f2-a8a3-63be0676dfb6" d="M79.4,16.84a.27.27,0,0,1,.07.08.12.12,0,0,1,0,.1l-.47.67a.19.19,0,0,1-.07.06l-.08,0a1.3,1.3,0,0,0-.31-.16,1.27,1.27,0,0,0-.34,0,1.18,1.18,0,0,0-.43.08,1.12,1.12,0,0,0-.33.24,1.38,1.38,0,0,0-.22.35,1.25,1.25,0,0,0-.07.43,1.18,1.18,0,0,0,.07.43,1.38,1.38,0,0,0,.22.35,1.12,1.12,0,0,0,.33.24,1.18,1.18,0,0,0,.43.08,1.34,1.34,0,0,0,.35-.05,1.11,1.11,0,0,0,.3-.17.15.15,0,0,1,.09,0s0,0,.06.05l.48.69a.12.12,0,0,1,0,.1l-.07.07a2.12,2.12,0,0,1-.57.27,1.89,1.89,0,0,1-.63.1,2.12,2.12,0,0,1-.57-.08,2.28,2.28,0,0,1-.51-.21,2.38,2.38,0,0,1-.43-.34,2.08,2.08,0,0,1-.34-.43,2,2,0,0,1-.21-.5,2.18,2.18,0,0,1-.08-.57,2.12,2.12,0,0,1,.08-.57,2.28,2.28,0,0,1,.21-.51,2.38,2.38,0,0,1,.34-.43,2,2,0,0,1,.43-.34,2.28,2.28,0,0,1,.51-.21,2.12,2.12,0,0,1,.57-.08,2.18,2.18,0,0,1,.63.09A2.89,2.89,0,0,1,79.4,16.84Z"/><path class="a37736dd-7c36-46f2-a8a3-63be0676dfb6" d="M81.07,16.65s0,0,0,0l0,0,.05,0h.76a.11.11,0,0,1,.08,0l0,.05.07.16,1.47,3.78s0,.07,0,.09a.12.12,0,0,1-.11,0h-.8a.17.17,0,0,1-.1,0,.12.12,0,0,1,0-.08c0-.09-.08-.19-.11-.28s-.07-.19-.11-.28H80.84c0,.09-.07.19-.11.28l-.1.28a.16.16,0,0,1-.15.11h-.82a.12.12,0,0,1-.09,0,.06.06,0,0,1,0-.08Zm.51,1.2c0,.09-.07.19-.1.3s-.08.22-.11.33-.07.23-.11.34-.07.21-.11.3H82Z"/><path class="a37736dd-7c36-46f2-a8a3-63be0676dfb6" d="M83.89,16.66a.11.11,0,0,1,0-.08.13.13,0,0,1,.1,0h.91l.08,0a.16.16,0,0,1,.07.07c.24.38.47.76.71,1.13l.7,1.12V16.65a.16.16,0,0,1,.05-.08.11.11,0,0,1,.08,0h.79a.17.17,0,0,1,.1,0,.18.18,0,0,1,0,.09v3.92a.08.08,0,0,1,0,.08.12.12,0,0,1-.09,0h-.89a.09.09,0,0,1-.06,0,.22.22,0,0,1-.06-.07l-.74-1.21-.73-1.21v2.39a.15.15,0,0,1,0,.1.13.13,0,0,1-.1,0H84a.11.11,0,0,1-.1,0,.11.11,0,0,1,0-.08Z"/><path class="a37736dd-7c36-46f2-a8a3-63be0676dfb6" d="M91.34,16.84a.18.18,0,0,1,.07.08s0,.06,0,.1l-.47.67-.06.06a.16.16,0,0,1-.09,0,1.08,1.08,0,0,0-.3-.16,1.34,1.34,0,0,0-.35,0,1.16,1.16,0,0,0-.42.08,1,1,0,0,0-.33.24,1,1,0,0,0-.22.35,1.26,1.26,0,0,0-.08.43,1.18,1.18,0,0,0,.08.43,1,1,0,0,0,.22.35,1,1,0,0,0,.33.24,1.16,1.16,0,0,0,.42.08,1,1,0,0,0,.66-.22.13.13,0,0,1,.08,0s0,0,.07.05l.47.69s0,.07,0,.1a.16.16,0,0,1-.07.07,2.16,2.16,0,0,1-1.2.37,2.12,2.12,0,0,1-.57-.08,2.28,2.28,0,0,1-.51-.21,2.38,2.38,0,0,1-.43-.34,1.76,1.76,0,0,1-.33-.43,1.73,1.73,0,0,1-.22-.5,2.17,2.17,0,0,1-.07-.57,2.12,2.12,0,0,1,.07-.57,1.92,1.92,0,0,1,.22-.51,2,2,0,0,1,.33-.43,2,2,0,0,1,.43-.34,2.28,2.28,0,0,1,.51-.21,2.12,2.12,0,0,1,.57-.08,2.18,2.18,0,0,1,.63.09A2.63,2.63,0,0,1,91.34,16.84Z"/><path class="a37736dd-7c36-46f2-a8a3-63be0676dfb6" d="M92.9,19a.88.88,0,0,0,.06.35.58.58,0,0,0,.15.24.54.54,0,0,0,.22.13.69.69,0,0,0,.25,0,.59.59,0,0,0,.27-.05.74.74,0,0,0,.22-.14.7.7,0,0,0,.15-.24,1,1,0,0,0,0-.33V16.66a.11.11,0,0,1,0-.08.13.13,0,0,1,.1,0h.81a.11.11,0,0,1,.1,0,.09.09,0,0,1,0,.08V19a2.19,2.19,0,0,1-.14.82,1.42,1.42,0,0,1-.95.82,2.58,2.58,0,0,1-1.35,0,1.47,1.47,0,0,1-1-.83,2.14,2.14,0,0,1-.14-.81V16.66a.11.11,0,0,1,0-.08.09.09,0,0,1,.08,0h.84a.12.12,0,0,1,.08,0,.1.1,0,0,1,.05.08Zm.5-3.61a.15.15,0,0,1,.06-.09l.09,0h.72l.06,0a.05.05,0,0,1,0,0,.06.06,0,0,1,0,.06.14.14,0,0,1,0,.06l-.27.6a.35.35,0,0,1-.07.09.11.11,0,0,1-.08,0h-.61a.08.08,0,0,1-.06,0s0,0,0-.05,0-.05,0-.07l0-.06Z"/><path class="a37736dd-7c36-46f2-a8a3-63be0676dfb6" d="M95.89,16.66a.11.11,0,0,1,0-.08.1.1,0,0,1,.09,0h.92l.08,0a.16.16,0,0,1,.07.07l.7,1.13.71,1.12V16.65a.11.11,0,0,1,.05-.08.09.09,0,0,1,.07,0h.8a.17.17,0,0,1,.1,0,.18.18,0,0,1,0,.09v3.92a.1.1,0,0,1,0,.08.12.12,0,0,1-.09,0h-.89a.07.07,0,0,1-.06,0,.22.22,0,0,1-.06-.07l-.74-1.21-.73-1.21v2.39a.15.15,0,0,1,0,.1.13.13,0,0,1-.1,0H96a.1.1,0,0,1-.09,0,.11.11,0,0,1,0-.08Z"/><path class="fd5fc5de-ee36-40d3-b38b-38685051e0de" d="M58.46,27.26a2.07,2.07,0,0,0-1.16.34V25.26h-.93V31.4h.93v-.34a2,2,0,0,0,1.13.34h0a2.07,2.07,0,0,0,2-2v-.08a2.09,2.09,0,0,0-.43-1.23A2,2,0,0,0,58.46,27.26Zm1.11,2.11a1.08,1.08,0,0,1-.21.62,1.11,1.11,0,0,1-.92.47,1.23,1.23,0,0,1-.55-.13,1.14,1.14,0,0,1-.59-1,1.34,1.34,0,0,1,.16-.59,1.13,1.13,0,0,1,1.68-.3,1.11,1.11,0,0,1,.43.85Z"/><path class="fd5fc5de-ee36-40d3-b38b-38685051e0de" d="M64.33,29.1a1.79,1.79,0,0,1-.1.56,1,1,0,0,1-1,.8,1.11,1.11,0,0,1-.65-.18,1.65,1.65,0,0,1-.5-1.3V27.26h-.93V29a3.23,3.23,0,0,0,.19,1.13,1.91,1.91,0,0,0,1.87,1.3,2,2,0,0,0,1.14-.33v.65a1.7,1.7,0,0,1-.07.44,1,1,0,0,1-1,.71h-.06v.93h.06a2,2,0,0,0,1.55-.7,2.32,2.32,0,0,0,.47-1.34v-4.5h-.94Z"/><path class="fd5fc5de-ee36-40d3-b38b-38685051e0de" d="M85.37,25.31h-.72v.6h0a3.05,3.05,0,0,0-1.82-.6,3.1,3.1,0,0,0-1.75.55,3,3,0,0,0-1.31,2.51,3.11,3.11,0,0,0,.61,1.85,3,3,0,0,0,2.38,1.21h.16a3,3,0,0,0,1.75-.6v.6h1.21V25.81A.49.49,0,0,0,85.37,25.31Zm-.72,3.12a1.88,1.88,0,0,1-.34,1,1.82,1.82,0,0,1-1.45.77h-.08a1.76,1.76,0,0,1-.84-.22,1.84,1.84,0,0,1,.86-3.46,2,2,0,0,1,.94.26,1.82,1.82,0,0,1,.91,1.56Z"/><path class="fd5fc5de-ee36-40d3-b38b-38685051e0de" d="M78.43,29.64a1.75,1.75,0,0,1-1.27.52,2,2,0,0,1-.9-.23,1.86,1.86,0,0,1-1-1.6,1.94,1.94,0,0,1,.27-1,1.87,1.87,0,0,1,1.55-.89,1.77,1.77,0,0,1,1.27.5A.41.41,0,0,0,79,27l.5-.59a3,3,0,0,0-2.32-1.1,3,3,0,0,0-3.07,3.06,3.11,3.11,0,0,0,.62,1.87,3.06,3.06,0,0,0,2.43,1.19h0a3,3,0,0,0,1.91-.69c.18-.16.32-.3.43-.41L79,29.66A.39.39,0,0,0,78.43,29.64Z"/><path class="fd5fc5de-ee36-40d3-b38b-38685051e0de" d="M93.62,25.31a3,3,0,0,0-3.08,3.06,3.12,3.12,0,0,0,.72,2,3,3,0,0,0,2.33,1.08h0a3,3,0,0,0,2.06-.82l-.77-.93h0a1.88,1.88,0,0,1-1.3.53,1.84,1.84,0,0,1-.82-.2,2,2,0,0,1-.62-.51.32.32,0,0,1,.25-.52H96.6a3.66,3.66,0,0,0,.07-.62,3.09,3.09,0,0,0-.73-2A3,3,0,0,0,93.62,25.31Zm1.29,2.45h-3a1.67,1.67,0,0,1,1.71-1.23,2.08,2.08,0,0,1,.91.23,2,2,0,0,1,.63.59A.27.27,0,0,1,94.91,27.76Z"/><path class="fd5fc5de-ee36-40d3-b38b-38685051e0de" d="M74.16,25.8a.33.33,0,0,0-.26-.54H73l-.15.18-1.6,1.93-1.76-2.11H68l.23.28,2.25,2.78h0l-2.53,3v0h1.59l1.74-2.1L73,31.38h1.6l-2.57-3.06Z"/><path class="fd5fc5de-ee36-40d3-b38b-38685051e0de" d="M99.5,25.26H99V23.13a.49.49,0,0,0-.49-.5h-.68v2.63H96.69v1.22h1.09v4.9H99v-4.9h1v-.72A.5.5,0,0,0,99.5,25.26Z"/><path class="fd5fc5de-ee36-40d3-b38b-38685051e0de" d="M90.55,25.26a4.08,4.08,0,0,0-2.43.7h0v-.2a.5.5,0,0,0-.5-.5h-.72v6.12H88.1v-3a1.73,1.73,0,0,1,.15-.66,2.22,2.22,0,0,1,2.3-1.24Z"/></svg>