<svg id="b6c14cea-1488-47a0-865d-5ab922f0502d" data-name="Layer 1" xmlns="http://www.w3.org/2000/svg" viewBox="0 0 100 37.71"><defs><style>.afe7d211-ffbe-4f07-8dc6-9d9d7904dbde{fill:red;}.bdaf0706-3789-43e0-986d-10faaa80d34b{fill:#fff;}</style></defs><path class="afe7d211-ffbe-4f07-8dc6-9d9d7904dbde" d="M18,12.39a3.75,3.75,0,0,0,.74-1,2.18,2.18,0,0,0,0-2.06,1.92,1.92,0,0,0-1.69-.92H17a1.94,1.94,0,0,0-1.5.87l-.65.83-.64-.83a1.94,1.94,0,0,0-1.5-.87h-.08a2.11,2.11,0,0,0-1.09.3,1.9,1.9,0,0,0-.85,1.84,3.33,3.33,0,0,0,1,1.87l3.18,3.19,2.71-2.72Z"/><path class="bdaf0706-3789-43e0-986d-10faaa80d34b" d="M96.56,11.79a7.69,7.69,0,0,0-2-1.65,12.07,12.07,0,0,0-2.14-1,5.72,5.72,0,0,1,.27.85,2,2,0,0,1-.87,2.28A1.41,1.41,0,0,1,90.12,12a20.34,20.34,0,0,0-1.77-2.73L86.93,7.51a6.28,6.28,0,0,1-1.47-3.66,3.35,3.35,0,0,1,.13-1.13,7.67,7.67,0,0,0-1.93,1.16l-.34.31a11.52,11.52,0,0,1,2.82,7.57A10.22,10.22,0,0,1,86,13.34l.22.09c.61.22,1.26.43,1.93.62l1.49.44a3.38,3.38,0,0,1,.93.41.59.59,0,0,1,.26.38.22.22,0,0,1,0,.16.31.31,0,0,1-.09.07,3.65,3.65,0,0,1-1.38.39,8.43,8.43,0,0,1-1.81,0,10.87,10.87,0,0,1-1.78-.33l-.23-.07a11.58,11.58,0,0,1-3.29,5l1.69.5a13.4,13.4,0,0,0,3,.52,18,18,0,0,0,3,0,12.33,12.33,0,0,0,3-.7,9,9,0,0,0,2.51-1.41A6.42,6.42,0,0,0,97.2,17.2a5,5,0,0,0,.48-2.74A4.89,4.89,0,0,0,96.56,11.79Z"/><path class="bdaf0706-3789-43e0-986d-10faaa80d34b" d="M98.5,5.64l-.87-.21L95.83,5l-1.72-.45c-.06,0-.28-.1-.24-.31s.36-.15.36-.15L96,4.25l1.84.21.29,0c.2,0,.54,0,.57-.41s-.5-.47-.5-.47l-.22,0-1.84-.27L93.94,3c-.29,0-.51-.13-.5-.41a.38.38,0,0,1,.26-.36.65.65,0,0,1,.17,0s2.58-.13,2.73-.15A.43.43,0,0,0,97,1.6a.38.38,0,0,0-.15-.29.6.6,0,0,0-.27-.1h-.07a50.93,50.93,0,0,0-7.3,0A2.86,2.86,0,0,0,87,2.26a2.09,2.09,0,0,0-.4.87c-.31,1.26,0,2.46,1.7,4.41a16.53,16.53,0,0,1,2.49,3.51c.13.3.41.54.69.28s.3-.67.2-1.18a10.3,10.3,0,0,0-.53-1.4c-.12-.28-.22-.5-.24-.56A.67.67,0,0,1,91,7.46a1.26,1.26,0,0,1,.41-.26,4.29,4.29,0,0,1,2.29.34l1.63.76L96.78,9a1.76,1.76,0,0,0,.3.1.41.41,0,0,0,.51-.23c.16-.35-.28-.59-.28-.59l-.1-.06-1.72-1L94,6.37s-.39-.2-.31-.46.49-.13.49-.13l1.5.29,1.82.35.86.17A.52.52,0,0,0,99,6.21C99.05,5.75,98.5,5.64,98.5,5.64Z"/><path class="bdaf0706-3789-43e0-986d-10faaa80d34b" d="M84.08,13.71a10.33,10.33,0,0,0,.17-1.26c0-.23,0-.46,0-.69a9.07,9.07,0,0,0-.13-1.57,9.57,9.57,0,0,0-2-4.43,9.36,9.36,0,0,0-1.34-1.4,9.68,9.68,0,0,0-7-2.3,9.55,9.55,0,0,0-4.49,1.49,1.93,1.93,0,0,1-.08.94l-1.57,6a9.89,9.89,0,0,1,.87,1.09,6.67,6.67,0,0,1,1.16,3.82,6.8,6.8,0,0,1-1.22,4,9.74,9.74,0,0,0,12,.08,9.83,9.83,0,0,0,2.35-2.63c.13-.22.26-.44.37-.67L83,16.08l-1.19-.39a1.87,1.87,0,0,1,0,.34,3.46,3.46,0,0,1-1,2.09,4.21,4.21,0,0,1-1.18.76,3.67,3.67,0,0,1-1.47.27A5.14,5.14,0,0,1,74.86,18a5,5,0,0,1-1-1.14,5.21,5.21,0,0,1-2.48-3.14ZM71,9.69h0c0-2.24,1.53-4,3.43-4a3.26,3.26,0,0,1,2.68,1.53,4.49,4.49,0,0,1,.75,2.52h0a.52.52,0,0,1-.52.5H71.52A.51.51,0,0,1,71,9.69Z"/><path class="bdaf0706-3789-43e0-986d-10faaa80d34b" d="M78.68,16.85a.25.25,0,0,1-.14,0,.28.28,0,0,1-.21-.13,3.3,3.3,0,0,0-1.17-1.24A2.94,2.94,0,0,0,75.45,15a3.25,3.25,0,0,0-1.22.23,3.46,3.46,0,0,0,1.28,1.95l.44.31a4.11,4.11,0,0,0,2.14.61,2.56,2.56,0,0,0,1-.18,2.42,2.42,0,0,0,1.6-2,1.31,1.31,0,0,0,0-.39.37.37,0,0,0-.16-.2l-.06,0A2.79,2.79,0,0,0,79.31,15a3.43,3.43,0,0,0-1.34.27c-.06,0,0,.12,0,.12a4.07,4.07,0,0,1,.83,1.06S78.89,16.72,78.68,16.85Z"/><path class="bdaf0706-3789-43e0-986d-10faaa80d34b" d="M65.21,10.78a4,4,0,0,0-.34-.23,12.23,12.23,0,0,0-1.74-1C62,9.05,60.8,8.6,59.68,8l-.09,0a5.91,5.91,0,0,1-2.42-1.71.42.42,0,0,1,0-.5,5.15,5.15,0,0,1,3.83-2,5,5,0,0,1,3.68,1.84l.12.15a.4.4,0,0,1,0,.49,4.88,4.88,0,0,1-.91.9,5.7,5.7,0,0,1-1.3.75,4,4,0,0,1,.49.15l.41.14A15.76,15.76,0,0,1,65.2,9l.83.43,1-3.85.45-1.71-1-.45L66,3.15a13.13,13.13,0,0,0-2.61-.83,14.51,14.51,0,0,0-5.84,0,7.53,7.53,0,0,0-2.73,1.24l.54,1.19c.42.9.84,1.81,1.25,2.71s.87,1.89,1.3,2.84l.82,1.77a1.94,1.94,0,0,1,.21.89,1.7,1.7,0,0,1-.43,1.09,1.87,1.87,0,0,1-1.17.53l-2.65.12v2.65h3.79a.53.53,0,0,1,.53.44.55.55,0,0,1-.24.57,1.07,1.07,0,0,1-.56.08H54.65v2.38a15.23,15.23,0,0,0,4.81.7,9.56,9.56,0,0,0,6.41-2.06,5.23,5.23,0,0,0,1.21-1.4v0A5,5,0,0,0,67,12.63,7.65,7.65,0,0,0,65.21,10.78Z"/><path class="bdaf0706-3789-43e0-986d-10faaa80d34b" d="M61.07,7.4A4.26,4.26,0,0,0,63.93,6,4.21,4.21,0,0,0,61,4.61a3.45,3.45,0,0,0-.81.1,1.51,1.51,0,0,1,.88,2.69Z"/><path class="bdaf0706-3789-43e0-986d-10faaa80d34b" d="M58,6a6.07,6.07,0,0,0,.6.52A1.51,1.51,0,0,1,59,5.23,5.29,5.29,0,0,0,58,6Z"/><path class="bdaf0706-3789-43e0-986d-10faaa80d34b" d="M10.85,13.2a7.55,7.55,0,0,1-.55-.64L3.24,21.5h7.64L14,17.61l.54-.72-3.16-3.17Z"/><path class="bdaf0706-3789-43e0-986d-10faaa80d34b" d="M19.41,8.35l0,0A3,3,0,0,1,20.1,10l.32-.45a9.74,9.74,0,0,1,0-1.43,8.85,8.85,0,0,1,1.63-4.5A8.59,8.59,0,0,1,23.57,2H18.33L15.61,5.59l-.79,1-.79-1L11.31,2H3.73l5.81,8a2.76,2.76,0,0,1,.7-1.68,3.14,3.14,0,0,1,2.47-1.06,3,3,0,0,1,2.11,1,3,3,0,0,1,2.11-1A3.16,3.16,0,0,1,19.41,8.35Z"/><path class="bdaf0706-3789-43e0-986d-10faaa80d34b" d="M18.79,13.2l-2.55,2.55-1.13,1.14.54.72,3.11,3.89h7.63l-7.06-8.94A5.93,5.93,0,0,1,18.79,13.2Z"/><path class="bdaf0706-3789-43e0-986d-10faaa80d34b" d="M45.64,6.25a1.47,1.47,0,0,1,.3-.89,4.71,4.71,0,0,0-.8.67,4.34,4.34,0,0,0,.52.47A2,2,0,0,1,45.64,6.25Z"/><path class="bdaf0706-3789-43e0-986d-10faaa80d34b" d="M43.8,8.63h-.06L39.28,2.06h-5a8.72,8.72,0,0,1,2.54,3.62,8.23,8.23,0,0,1,.55,2.44,2.3,2.3,0,0,1-.13,1.08,1.34,1.34,0,0,1-.81.56,3.1,3.1,0,0,0-.88.42,2.1,2.1,0,0,0-.64.84A2.49,2.49,0,0,0,35,13a.32.32,0,0,1,0,.06c0,.06.19.32.2.34a7.4,7.4,0,0,1,.46,1,9.56,9.56,0,0,1,.54,2.12,6.79,6.79,0,0,1-.43,3.81A5.39,5.39,0,0,1,35,21.56h6.68v-6h.05l4.11,6h6.49V18.47h-.16a7.67,7.67,0,0,1-1.85-.28,7.41,7.41,0,0,1-1.74-.74A8.57,8.57,0,0,1,46,15.06c-.16-.23-.33-.47-.47-.72a.61.61,0,0,1,0-.66.56.56,0,0,1,.53-.23c.27,0,.38.27.51.48a7,7,0,0,0,4.06,3.2,6.08,6.08,0,0,0,1.7.25h0V2.06H43.8Zm.46-2.84a5.18,5.18,0,0,1,3.83-2,4.72,4.72,0,0,1,3.17,1.31,4.5,4.5,0,0,1,.63.68.38.38,0,0,1,0,.48,5,5,0,0,1-1.13,1.06,4.58,4.58,0,0,1-2.65.9,5.35,5.35,0,0,1-3.83-2A.41.41,0,0,1,44.26,5.79Z"/><path class="bdaf0706-3789-43e0-986d-10faaa80d34b" d="M55.4,12c.26,0,.52.12.75-.06a.54.54,0,0,0-.09-.91,1.7,1.7,0,0,0-1-.12,2.1,2.1,0,0,0-1.1.45l-.15.13-.16.18a2.22,2.22,0,0,0-.4.73.77.77,0,0,0,0,.37.6.6,0,0,0,.37.36h.2c.25,0,.4-.22.49-.42a1.16,1.16,0,0,1,.43-.57A1.1,1.1,0,0,1,55.4,12Z"/><path class="bdaf0706-3789-43e0-986d-10faaa80d34b" d="M48.66,6.25a1.52,1.52,0,0,1-.57,1.19h0a4.21,4.21,0,0,0,2.83-1.3L51,6.05S51,6,51,6a4.09,4.09,0,0,0-2.88-1.35,3.2,3.2,0,0,0-.83.1A1.51,1.51,0,0,1,48.66,6.25Z"/><path class="bdaf0706-3789-43e0-986d-10faaa80d34b" d="M34,13.46a1.5,1.5,0,0,0-.81-.29,1.73,1.73,0,0,0-1,.22,1.24,1.24,0,0,0-.5.67,9.26,9.26,0,0,0-.13.92,2.58,2.58,0,0,1-.49,1,2.89,2.89,0,0,1-.64.62,2.31,2.31,0,0,1-1.89.36,2.53,2.53,0,0,1-1.87-2.74,2.36,2.36,0,0,1,.88-1.57,2.4,2.4,0,0,1,.95-.46c.38-.1.77,0,1.15-.14a1,1,0,0,0,.78-1.22c-.15-.44-.68-.55-1.1-.57-.68,0-1.36.07-2,.05a3.33,3.33,0,0,1-1.78-.42c-.58-.42-.49-1.15-.35-1.77a4.27,4.27,0,0,1,.94-1.89A4.05,4.05,0,0,1,29.66,5a4.16,4.16,0,0,1,1.41.45,4,4,0,0,1,1.67,1.67,5,5,0,0,1,.4,1.06s0,0,0,.06a1.76,1.76,0,0,0,.47.8,1.16,1.16,0,0,0,.89.19,2.15,2.15,0,0,0,.79-.17c.31-.16.29-.54.27-.85a5.87,5.87,0,0,0-.2-1.11,7.5,7.5,0,0,0-.89-2,6.32,6.32,0,0,0-1.33-1.58s0,0,0,0a6.22,6.22,0,0,0-1.91-1l-.12,0A7.17,7.17,0,0,0,27.85,2a6.61,6.61,0,0,0-1.07.24,5.86,5.86,0,0,0-1.64.82,6.67,6.67,0,0,0-1.59,1.59,7.32,7.32,0,0,0-1,2,6.68,6.68,0,0,0-.35,2.12c0,.33,0,.66,0,1a12.25,12.25,0,0,0,.9,3.47,19.72,19.72,0,0,0,2.33,4,28.47,28.47,0,0,0,3.19,3.4l.12.12a3.32,3.32,0,0,0,2.29.81h0a3.59,3.59,0,0,0,1.8-.5l.27-.19a4.75,4.75,0,0,0,1.59-3.42,9.61,9.61,0,0,0,0-2.21A2.62,2.62,0,0,0,34,13.46Z"/><path d="M99.36,4.94a1.53,1.53,0,0,0,.31-.86,1.54,1.54,0,0,0-1.35-1.5l-.39,0-.24,0a1.58,1.58,0,0,0,.15-.24,1.63,1.63,0,0,0,.16-1c0-.12,0-1-1.87-1.14S91.62,0,91.62,0h-.68a18.53,18.53,0,0,0-2.22.08,14.64,14.64,0,0,0-3.28.7,9.63,9.63,0,0,0-3,1.67c-.16.14-.32.28-.46.43a11.61,11.61,0,0,0-13.89-.8A17.62,17.62,0,0,0,60.4.19,11.82,11.82,0,0,0,54,1.9V.45H41.72V2.86L40,.45h-9c-.34-.08-.68-.15-1-.2a8.66,8.66,0,0,0-3.44.2h-9L14.82,4,12.09.45H.64L8.89,11.81,0,23.08H11.64l3.18-4,3.18,4H29.3a5.68,5.68,0,0,0,3.53,0H43.34V21.3l1.33,1.77h10v-.29a20.06,20.06,0,0,0,4.81.61A14,14,0,0,0,63,23a10.93,10.93,0,0,0,4.22-2.19,11.61,11.61,0,0,0,13.13,1.06l3.06.9a15.35,15.35,0,0,0,3.43.6,19.52,19.52,0,0,0,3.34-.05,14.21,14.21,0,0,0,3.46-.8,11.17,11.17,0,0,0,3-1.72A8.45,8.45,0,0,0,98.86,18a6.89,6.89,0,0,0,.66-3.75A6.79,6.79,0,0,0,98,10.59c-.17-.19-.34-.37-.52-.55a1.47,1.47,0,0,0,1-.61,1.4,1.4,0,0,0-.24-1.8,1.6,1.6,0,0,0,1.7-1A1.54,1.54,0,0,0,99.36,4.94Zm-45,7.79c-.09.2-.24.42-.49.42h-.2a.6.6,0,0,1-.37-.36.77.77,0,0,1,0-.37v0l0,.12,0-.09,0-.06h0a2.22,2.22,0,0,1,.4-.73l.16-.18.15-.13a2.1,2.1,0,0,1,1.1-.45,1.7,1.7,0,0,1,1,.12.54.54,0,0,1,.09.91c-.23.18-.49.08-.75.06a1.1,1.1,0,0,0-.64.15A1.16,1.16,0,0,0,54.33,12.73ZM3.73,2h7.58L14,5.59l.79,1,.79-1L18.33,2h5.24a8.59,8.59,0,0,0-1.51,1.62,8.85,8.85,0,0,0-1.63,4.5,9.74,9.74,0,0,0,0,1.43L20.1,10a3,3,0,0,0-.67-1.65l0,0a3.16,3.16,0,0,0-2.48-1.06,3,3,0,0,0-2.11,1,3,3,0,0,0-2.11-1,3.14,3.14,0,0,0-2.47,1.06A2.76,2.76,0,0,0,9.54,10Zm17.05,9.82,0,0v0ZM14,17.61,10.88,21.5H3.24l7.06-8.94a7.55,7.55,0,0,0,.55.64l.52.52,3.16,3.17Zm-2.33-5.22a3.33,3.33,0,0,1-1-1.87,1.9,1.9,0,0,1,.85-1.84,2.11,2.11,0,0,1,1.09-.3h.08a1.94,1.94,0,0,1,1.5.87l.64.83.65-.83A1.94,1.94,0,0,1,17,8.38h.08a1.92,1.92,0,0,1,1.69.92,2.18,2.18,0,0,1,0,2.06,3.75,3.75,0,0,1-.74,1l-.46.47-2.71,2.72Zm7.1,9.11-3.11-3.89-.54-.72,1.13-1.14,2.55-2.55a5.93,5.93,0,0,0,.54-.64l7.06,8.94Zm12.32,0h0a3.32,3.32,0,0,1-2.29-.81l-.12-.12a28.47,28.47,0,0,1-3.19-3.4,19.72,19.72,0,0,1-2.33-4,12.25,12.25,0,0,1-.9-3.47c0-.32,0-.65,0-1a6.68,6.68,0,0,1,.35-2.12,7.32,7.32,0,0,1,1-2,6.67,6.67,0,0,1,1.59-1.59,5.86,5.86,0,0,1,1.64-.82A6.61,6.61,0,0,1,27.85,2a7.17,7.17,0,0,1,3.22.31l.12,0a6.22,6.22,0,0,1,1.91,1s0,0,0,0A6.32,6.32,0,0,1,34.48,5a7.5,7.5,0,0,1,.89,2.05,5.87,5.87,0,0,1,.2,1.11c0,.31,0,.69-.27.85a2.15,2.15,0,0,1-.79.17A1.16,1.16,0,0,1,33.62,9a1.76,1.76,0,0,1-.47-.8s0,0,0-.06a5,5,0,0,0-.4-1.06,4,4,0,0,0-1.67-1.67A4.16,4.16,0,0,0,29.66,5,4.05,4.05,0,0,0,26.1,6.26a4.27,4.27,0,0,0-.94,1.89c-.14.62-.23,1.35.35,1.77a3.33,3.33,0,0,0,1.78.42c.68,0,1.36-.09,2-.05.42,0,1,.13,1.1.57a1,1,0,0,1-.78,1.22c-.38.1-.77,0-1.15.14a2.4,2.4,0,0,0-.95.46,2.36,2.36,0,0,0-.88,1.57A2.53,2.53,0,0,0,28.54,17a2.31,2.31,0,0,0,1.89-.36,2.89,2.89,0,0,0,.64-.62,2.58,2.58,0,0,0,.49-1,9.26,9.26,0,0,1,.13-.92,1.24,1.24,0,0,1,.5-.67,1.73,1.73,0,0,1,1-.22,1.5,1.5,0,0,1,.81.29,2.62,2.62,0,0,1,.77,1.76,9.61,9.61,0,0,1,0,2.21,4.75,4.75,0,0,1-1.59,3.42l-.27.19A3.59,3.59,0,0,1,31.08,21.54Zm14.8,0-4.11-6h-.05v6H35a5.39,5.39,0,0,0,.78-1.22,6.79,6.79,0,0,0,.43-3.81,9.56,9.56,0,0,0-.54-2.12,7.4,7.4,0,0,0-.46-1s-.21-.28-.2-.34A.32.32,0,0,0,35,13a2.49,2.49,0,0,1-.11-2,2.1,2.1,0,0,1,.64-.84,3.1,3.1,0,0,1,.88-.42,1.34,1.34,0,0,0,.81-.56,2.3,2.3,0,0,0,.13-1.08,8.23,8.23,0,0,0-.55-2.44,8.72,8.72,0,0,0-2.54-3.62h5l4.46,6.57h.06V2.06h8.57V17.38h0a6.08,6.08,0,0,1-1.7-.25,7,7,0,0,1-4.06-3.2c-.13-.21-.24-.44-.51-.48a.56.56,0,0,0-.53.23.61.61,0,0,0,0,.66c.14.25.31.49.47.72a8.57,8.57,0,0,0,2.59,2.39,7.41,7.41,0,0,0,1.74.74,7.67,7.67,0,0,0,1.85.28h.16v3.08H45.88Zm13.58,0a15.23,15.23,0,0,1-4.81-.7V18.46h3.52a1.07,1.07,0,0,0,.56-.08.55.55,0,0,0,.24-.57.53.53,0,0,0-.53-.44H54.65V14.72l2.65-.12a1.87,1.87,0,0,0,1.17-.53A1.7,1.7,0,0,0,58.9,13a1.94,1.94,0,0,0-.21-.89l-.82-1.77c-.43-1-.86-1.89-1.3-2.84s-.83-1.81-1.25-2.71l-.54-1.19a7.53,7.53,0,0,1,2.73-1.24,14.51,14.51,0,0,1,5.84,0A13.13,13.13,0,0,1,66,3.15l.53.25,1,.45L67,5.56,66,9.41,65.2,9a15.76,15.76,0,0,0-1.72-.77l-.41-.14a4,4,0,0,0-.49-.15,5.7,5.7,0,0,0,1.3-.75,4.88,4.88,0,0,0,.91-.9.4.4,0,0,0,0-.49l-.12-.15A5,5,0,0,0,61,3.79a5.15,5.15,0,0,0-3.83,2,.42.42,0,0,0,0,.5A5.91,5.91,0,0,0,59.59,8l.09,0c1.12.58,2.31,1,3.45,1.57a12.23,12.23,0,0,1,1.74,1,4,4,0,0,1,.34.23A7.65,7.65,0,0,1,67,12.63a5,5,0,0,1,.09,5.42v0a5.23,5.23,0,0,1-1.21,1.4A9.56,9.56,0,0,1,59.46,21.54Zm.73-16.83a3.45,3.45,0,0,1,.81-.1A4.21,4.21,0,0,1,63.93,6,4.26,4.26,0,0,1,61.07,7.4a1.51,1.51,0,0,0-.88-2.69ZM58.64,6.52A6.07,6.07,0,0,1,58,6,5.29,5.29,0,0,1,59,5.23a1.51,1.51,0,0,0-.34,1.29Zm12.69,7.19a5.21,5.21,0,0,0,2.48,3.14,5,5,0,0,0,1,1.14,5.14,5.14,0,0,0,3.23,1.16,3.67,3.67,0,0,0,1.47-.27,4.21,4.21,0,0,0,1.18-.76,3.46,3.46,0,0,0,1-2.09,1.87,1.87,0,0,0,0-.34l1.19.39.24.08c-.11.23-.24.45-.37.67a9.83,9.83,0,0,1-2.35,2.63,9.74,9.74,0,0,1-12-.08,6.8,6.8,0,0,0,1.22-4,6.67,6.67,0,0,0-1.16-3.82,9.89,9.89,0,0,0-.87-1.09l1.57-6a1.93,1.93,0,0,0,.08-.94A9.55,9.55,0,0,1,73.8,2.06a9.68,9.68,0,0,1,7,2.3,9.36,9.36,0,0,1,1.34,1.4,9.57,9.57,0,0,1,2,4.43,9.07,9.07,0,0,1,.13,1.57c0,.23,0,.46,0,.69a10.33,10.33,0,0,1-.17,1.26Zm7.45,2.74A4.07,4.07,0,0,0,78,15.39s0-.09,0-.12A3.43,3.43,0,0,1,79.31,15a2.79,2.79,0,0,1,1.21.26l.06,0a.37.37,0,0,1,.16.2,1.31,1.31,0,0,1,0,.39,2.42,2.42,0,0,1-1.6,2,2.56,2.56,0,0,1-1,.18A4.11,4.11,0,0,1,76,17.49l-.44-.31a3.46,3.46,0,0,1-1.28-1.95A3.25,3.25,0,0,1,75.45,15a2.94,2.94,0,0,1,1.71.52,3.3,3.3,0,0,1,1.17,1.24.28.28,0,0,0,.21.13.25.25,0,0,0,.14,0C78.89,16.72,78.78,16.45,78.78,16.45Zm18.9-2a5,5,0,0,1-.48,2.74,6.42,6.42,0,0,1-1.72,2.12A9,9,0,0,1,93,20.73a12.33,12.33,0,0,1-3,.7,18,18,0,0,1-3,0,13.4,13.4,0,0,1-3-.52l-1.69-.5a11.58,11.58,0,0,0,3.29-5l.23.07a10.87,10.87,0,0,0,1.78.33,8.43,8.43,0,0,0,1.81,0,3.65,3.65,0,0,0,1.38-.39.31.31,0,0,0,.09-.07.22.22,0,0,0,0-.16.59.59,0,0,0-.26-.38,3.38,3.38,0,0,0-.93-.41l-1.49-.44c-.67-.19-1.32-.4-1.93-.62L86,13.34a10.22,10.22,0,0,0,.11-1.58,11.52,11.52,0,0,0-2.82-7.57l.34-.31a7.67,7.67,0,0,1,1.93-1.16,3.35,3.35,0,0,0-.13,1.13,6.28,6.28,0,0,0,1.47,3.66l1.42,1.72A20.34,20.34,0,0,1,90.12,12a1.41,1.41,0,0,0,1.73.35A2,2,0,0,0,92.72,10a5.72,5.72,0,0,0-.27-.85,12.07,12.07,0,0,1,2.14,1,7.69,7.69,0,0,1,2,1.65A4.89,4.89,0,0,1,97.68,14.46ZM99,6.21a.52.52,0,0,1-.61.38l-.86-.17-1.82-.35-1.5-.29s-.41-.12-.49.13.31.46.31.46l1.51.85,1.72,1,.1.06s.44.24.28.59a.41.41,0,0,1-.51.23,1.76,1.76,0,0,1-.3-.1L95.32,8.3l-1.63-.76A4.29,4.29,0,0,0,91.4,7.2a1.26,1.26,0,0,0-.41.26.67.67,0,0,0-.08.73c0,.06.12.28.24.56a10.3,10.3,0,0,1,.53,1.4c.1.51.12.88-.2,1.18s-.56,0-.69-.28A16.53,16.53,0,0,0,88.3,7.54c-1.68-1.95-2-3.15-1.7-4.41a2.09,2.09,0,0,1,.4-.87,2.86,2.86,0,0,1,2.24-1.08,50.93,50.93,0,0,1,7.3,0h.07a.6.6,0,0,1,.27.1A.38.38,0,0,1,97,1.6a.43.43,0,0,1-.43.45c-.15,0-2.73.15-2.73.15a.65.65,0,0,0-.17,0,.38.38,0,0,0-.26.36c0,.28.21.37.5.41l2.15.31,1.84.27.22,0s.53.08.5.47-.37.43-.57.41l-.29,0L96,4.25l-1.72-.19s-.32,0-.36.15.18.29.24.31L95.83,5l1.8.46.87.21S99.05,5.75,99,6.21Z"/><path d="M77.35,10.19a.52.52,0,0,0,.52-.5h0a4.49,4.49,0,0,0-.75-2.52,3.26,3.26,0,0,0-2.68-1.53C72.54,5.63,71,7.44,71,9.68h0a.51.51,0,0,0,.51.5Z"/><path d="M53.28,12.4Z"/><path d="M53.27,12.45v0a0,0,0,0,0,0,0Z"/><path d="M50.75,7.36A5,5,0,0,0,51.88,6.3a.38.38,0,0,0,0-.48,4.5,4.5,0,0,0-.63-.68,4.72,4.72,0,0,0-3.17-1.31,5.18,5.18,0,0,0-3.83,2,.41.41,0,0,0,0,.5,5.35,5.35,0,0,0,3.83,2A4.58,4.58,0,0,0,50.75,7.36ZM45.66,6.5A4.34,4.34,0,0,1,45.14,6a4.71,4.71,0,0,1,.8-.67,1.47,1.47,0,0,0-.3.89A2,2,0,0,0,45.66,6.5Zm1.6-1.75a3.2,3.2,0,0,1,.83-.1A4.09,4.09,0,0,1,51,6s0,0,.05,0l-.09.09a4.21,4.21,0,0,1-2.83,1.3h0a1.51,1.51,0,0,0-.83-2.69Z"/><path d="M58.26,31.14a2.15,2.15,0,0,0-1.16.34V29.13h-.94V35.3h.94V35a2,2,0,0,0,1.14.34h0a2.06,2.06,0,0,0,1.24-.42,2,2,0,0,0,.82-1.62v-.08a2.08,2.08,0,0,0-2.06-2Zm1.12,2.12a1.13,1.13,0,0,1-.21.63,1.12,1.12,0,0,1-.93.47,1.23,1.23,0,0,1-.55-.13,1.18,1.18,0,0,1-.59-1,1.35,1.35,0,0,1,.16-.6,1.14,1.14,0,0,1,1.69-.3,1.11,1.11,0,0,1,.43.85Z"/><path d="M64.16,33a1.9,1.9,0,0,1-.1.57,1,1,0,0,1-1,.8,1.11,1.11,0,0,1-.65-.18,1.66,1.66,0,0,1-.51-1.31V31.14h-.94v1.72a3.19,3.19,0,0,0,.2,1.13A1.91,1.91,0,0,0,63,35.3,2,2,0,0,0,64.16,35v.65a1.59,1.59,0,0,1-.07.44,1,1,0,0,1-1,.71H63v.94h.07a2,2,0,0,0,1.55-.7,2.32,2.32,0,0,0,.47-1.34V31.14h-.94Z"/><path d="M85.3,29.19h-.73v.6h0A3.09,3.09,0,0,0,81,29.74a3,3,0,0,0-1.32,2.52,3.17,3.17,0,0,0,.62,1.86,3,3,0,0,0,2.39,1.21h.16a3,3,0,0,0,1.75-.6v.6H85.8V29.69A.5.5,0,0,0,85.3,29.19Zm-.73,3.13a1.86,1.86,0,0,1-.33,1,1.83,1.83,0,0,1-1.46.78H82.7a1.86,1.86,0,0,1-1.82-1.86,1.87,1.87,0,0,1,1.84-1.84,1.86,1.86,0,0,1,.94.26,1.81,1.81,0,0,1,.91,1.57Z"/><path d="M78.33,33.53a1.78,1.78,0,0,1-1.28.53,2,2,0,0,1-.9-.23,1.88,1.88,0,0,1-1-1.62,2.1,2.1,0,0,1,.26-1A1.87,1.87,0,0,1,77,30.36a1.77,1.77,0,0,1,1.28.5.41.41,0,0,0,.59,0l.51-.6a3,3,0,0,0-2.33-1.1,3.07,3.07,0,1,0,0,6.14h0A3,3,0,0,0,79,34.59a4.37,4.37,0,0,0,.43-.42l-.53-.61A.39.39,0,0,0,78.33,33.53Z"/><path d="M93.59,29.19a3.07,3.07,0,0,0-2.37,5.05,3,3,0,0,0,2.34,1.09h0a3,3,0,0,0,2.07-.82l-.77-.93h0a1.87,1.87,0,0,1-1.31.54,1.91,1.91,0,0,1-.83-.2,2,2,0,0,1-.62-.52.32.32,0,0,1,.25-.52h4.22a5.22,5.22,0,0,0,.06-.62,3.14,3.14,0,0,0-.72-2A3.07,3.07,0,0,0,93.59,29.19Zm1.29,2.46h-3a1.69,1.69,0,0,1,1.72-1.24,2.15,2.15,0,0,1,.92.23,2.2,2.2,0,0,1,.62.59A.27.27,0,0,1,94.88,31.65Z"/><path d="M74,29.68a.33.33,0,0,0-.25-.54H72.9l-.16.17-1.6,1.94-1.78-2.11H67.83l.23.27,2.26,2.79h0l-2.54,3v0h1.6l1.74-2.11,1.78,2.12h1.61L71.93,32.2Z"/><path d="M99.5,29.14H99V27a.5.5,0,0,0-.5-.5h-.68v2.65h-1.1v1.22h1.1v4.92H99V30.36h1v-.72A.5.5,0,0,0,99.5,29.14Z"/><path d="M90.5,29.14a4.07,4.07,0,0,0-2.44.7h0v-.2a.5.5,0,0,0-.5-.5h-.73v6.14h1.23v-3a1.75,1.75,0,0,1,.14-.67,2.24,2.24,0,0,1,2.31-1.24Z"/></svg>