<svg id="b7ba85be-9715-4114-862a-30496b8b9612" data-name="Layer 1" xmlns="http://www.w3.org/2000/svg" xmlns:xlink="http://www.w3.org/1999/xlink" viewBox="0 0 30 30.3"><defs><style>.ae0fc23a-8496-488f-9d70-a533ca5a6ed1{fill:none;}.a75148ea-053e-476b-b9f2-079dd9340fb8{clip-path:url(#b3fff286-e2d6-460d-8f9f-70de3f8afb74);}.eff93ec9-5423-4e01-bcfe-6c4ec77fa7a1{clip-path:url(#bed4567a-751a-43dc-855e-a0a2646a3c85);}.b74d835e-9efb-49ec-aa7f-1307a9cdf000{fill:#fff;}.eb29e4c9-acbb-4b9d-95ec-59021a813e91{fill:#1d2e75;}.ec946420-8dd1-4e83-bc0b-867071027529{fill:#ba1111;}</style><clipPath id="b3fff286-e2d6-460d-8f9f-70de3f8afb74"><circle class="ae0fc23a-8496-488f-9d70-a533ca5a6ed1" cx="15" cy="15.15" r="15"/></clipPath><clipPath id="bed4567a-751a-43dc-855e-a0a2646a3c85"><rect class="ae0fc23a-8496-488f-9d70-a533ca5a6ed1" x="-6.71" y="-0.53" width="43.42" height="31.36" rx="1"/></clipPath></defs><g class="a75148ea-053e-476b-b9f2-079dd9340fb8"><g class="eff93ec9-5423-4e01-bcfe-6c4ec77fa7a1"><rect class="b74d835e-9efb-49ec-aa7f-1307a9cdf000" x="-6.71" y="-0.53" width="43.42" height="31.36" rx="1"/><path class="eb29e4c9-acbb-4b9d-95ec-59021a813e91" d="M-5.71-.53H17.41a0,0,0,0,1,0,0V16.35a0,0,0,0,1,0,0H-6.71a0,0,0,0,1,0,0V.47A1,1,0,0,1-5.71-.53Z"/><rect class="ec946420-8dd1-4e83-bc0b-867071027529" x="-6.71" y="23.59" width="43.42" height="2.41"/><rect class="ec946420-8dd1-4e83-bc0b-867071027529" x="-6.71" y="28.42" width="43.42" height="2.41"/><rect class="ec946420-8dd1-4e83-bc0b-867071027529" x="-6.71" y="18.77" width="43.42" height="2.41"/><rect class="ec946420-8dd1-4e83-bc0b-867071027529" x="17.41" y="13.94" width="19.3" height="2.41"/><rect class="ec946420-8dd1-4e83-bc0b-867071027529" x="17.41" y="9.12" width="19.3" height="2.41"/><rect class="ec946420-8dd1-4e83-bc0b-867071027529" x="17.41" y="4.29" width="19.3" height="2.41"/><polyline class="ec946420-8dd1-4e83-bc0b-867071027529" points="36.71 1.88 17.41 1.88 17.41 -0.53 36.71 -0.53"/><polygon class="b74d835e-9efb-49ec-aa7f-1307a9cdf000" points="-0.29 3.13 0.02 2.17 -0.79 1.58 0.21 1.58 0.52 0.63 0.83 1.58 1.83 1.58 1.03 2.17 1.33 3.13 0.52 2.54 -0.29 3.13"/><polygon class="b74d835e-9efb-49ec-aa7f-1307a9cdf000" points="4.54 3.13 4.85 2.17 4.04 1.58 5.04 1.58 5.35 0.63 5.66 1.58 6.66 1.58 5.86 2.17 6.16 3.13 5.35 2.54 4.54 3.13"/><polygon class="b74d835e-9efb-49ec-aa7f-1307a9cdf000" points="9.42 3.13 9.72 2.17 8.92 1.58 9.92 1.58 10.23 0.63 10.54 1.58 11.54 1.58 10.73 2.17 11.04 3.13 10.23 2.54 9.42 3.13"/><polygon class="b74d835e-9efb-49ec-aa7f-1307a9cdf000" points="14.23 3.13 14.54 2.17 13.73 1.58 14.73 1.58 15.04 0.63 15.35 1.58 16.35 1.58 15.54 2.17 15.85 3.13 15.04 2.54 14.23 3.13"/><polygon class="b74d835e-9efb-49ec-aa7f-1307a9cdf000" points="-0.29 9.16 0.02 8.21 -0.79 7.61 0.21 7.61 0.52 6.66 0.83 7.61 1.83 7.61 1.03 8.21 1.33 9.16 0.52 8.57 -0.29 9.16"/><polygon class="b74d835e-9efb-49ec-aa7f-1307a9cdf000" points="4.54 9.16 4.85 8.21 4.04 7.61 5.04 7.61 5.35 6.66 5.66 7.61 6.66 7.61 5.86 8.21 6.16 9.16 5.35 8.57 4.54 9.16"/><polygon class="b74d835e-9efb-49ec-aa7f-1307a9cdf000" points="9.42 9.16 9.72 8.21 8.92 7.61 9.92 7.61 10.23 6.66 10.54 7.61 11.54 7.61 10.73 8.21 11.04 9.16 10.23 8.57 9.42 9.16"/><polygon class="b74d835e-9efb-49ec-aa7f-1307a9cdf000" points="14.23 9.16 14.54 8.21 13.73 7.61 14.73 7.61 15.04 6.66 15.35 7.61 16.35 7.61 15.54 8.21 15.85 9.16 15.04 8.57 14.23 9.16"/><polygon class="b74d835e-9efb-49ec-aa7f-1307a9cdf000" points="-0.29 15.19 0.02 14.24 -0.79 13.64 0.21 13.64 0.52 12.69 0.83 13.64 1.83 13.64 1.03 14.24 1.33 15.19 0.52 14.6 -0.29 15.19"/><polygon class="b74d835e-9efb-49ec-aa7f-1307a9cdf000" points="4.54 15.19 4.85 14.24 4.04 13.64 5.04 13.64 5.35 12.69 5.66 13.64 6.66 13.64 5.86 14.24 6.16 15.19 5.35 14.6 4.54 15.19"/><polygon class="b74d835e-9efb-49ec-aa7f-1307a9cdf000" points="9.42 15.19 9.72 14.24 8.92 13.64 9.92 13.64 10.23 12.69 10.54 13.64 11.54 13.64 10.73 14.24 11.04 15.19 10.23 14.6 9.42 15.19"/><polygon class="b74d835e-9efb-49ec-aa7f-1307a9cdf000" points="14.23 15.19 14.54 14.24 13.73 13.64 14.73 13.64 15.04 12.69 15.35 13.64 16.35 13.64 15.54 14.24 15.85 15.19 15.04 14.6 14.23 15.19"/><polygon class="b74d835e-9efb-49ec-aa7f-1307a9cdf000" points="2.1 12.17 2.41 11.22 1.6 10.63 2.6 10.63 2.91 9.68 3.23 10.63 4.23 10.63 3.42 11.22 3.72 12.17 2.91 11.59 2.1 12.17"/><polygon class="b74d835e-9efb-49ec-aa7f-1307a9cdf000" points="6.93 12.17 7.24 11.22 6.43 10.63 7.43 10.63 7.74 9.68 8.05 10.63 9.06 10.63 8.25 11.22 8.55 12.17 7.74 11.59 6.93 12.17"/><polygon class="b74d835e-9efb-49ec-aa7f-1307a9cdf000" points="11.81 12.17 12.12 11.22 11.31 10.63 12.31 10.63 12.62 9.68 12.93 10.63 13.93 10.63 13.13 11.22 13.43 12.17 12.62 11.59 11.81 12.17"/><polygon class="b74d835e-9efb-49ec-aa7f-1307a9cdf000" points="2.1 6.24 2.41 5.29 1.6 4.7 2.6 4.7 2.91 3.75 3.23 4.7 4.23 4.7 3.42 5.29 3.72 6.24 2.91 5.66 2.1 6.24"/><polygon class="b74d835e-9efb-49ec-aa7f-1307a9cdf000" points="6.93 6.24 7.24 5.29 6.43 4.7 7.43 4.7 7.74 3.75 8.05 4.7 9.06 4.7 8.25 5.29 8.55 6.24 7.74 5.66 6.93 6.24"/><polygon class="b74d835e-9efb-49ec-aa7f-1307a9cdf000" points="11.81 6.24 12.12 5.29 11.31 4.7 12.31 4.7 12.62 3.75 12.93 4.7 13.93 4.7 13.13 5.29 13.43 6.24 12.62 5.66 11.81 6.24"/></g></g></svg>