<svg id="bf3b736f-f362-4b20-b364-905860781876" data-name="Layer 1" xmlns="http://www.w3.org/2000/svg" viewBox="0 0 100 100"><defs><style>.bf5d0a5a-691c-45fd-8f5b-5951c8df7f12{fill:#e36112;}.b53027b7-a84a-4ebe-a2b0-1f44c63ca694,.b7ad9858-fd82-4001-b56b-a20c701aae17,.bf5d0a5a-691c-45fd-8f5b-5951c8df7f12,.ef060490-a42e-42bf-b6cb-c9e801f669ee{fill-rule:evenodd;}.b53027b7-a84a-4ebe-a2b0-1f44c63ca694{fill:#169ce1;}.b7ad9858-fd82-4001-b56b-a20c701aae17{fill:#a8c307;}.ef060490-a42e-42bf-b6cb-c9e801f669ee{fill:#dc030b;}</style></defs><path class="bf5d0a5a-691c-45fd-8f5b-5951c8df7f12" d="M1.06,33.91C10.12,43,20.81,53.2,20.81,67a40.67,40.67,0,0,1-3,14.31c33.11-31,19-44-1.16-61.94C11.47,24.23,6,28.8,1.06,33.91Z"/><path class="b53027b7-a84a-4ebe-a2b0-1f44c63ca694" d="M98.94,66.09C84.54,52.27,73.63,40.75,82.09,18.65c-33.11,31-19,44.05,1.16,61.94Z"/><path class="b7ad9858-fd82-4001-b56b-a20c701aae17" d="M33.88,99C47.7,84.59,59.22,73.68,81.3,82.14c-30.95-33.13-44-19-61.9,1.16Z"/><path class="ef060490-a42e-42bf-b6cb-c9e801f669ee" d="M66.05,1C52.23,15.41,40.72,26.32,18.63,17.86c31,33.13,44,19,61.91-1.16Z"/></svg>