<svg id="b23299eb-d28a-4f15-8e52-95e3c0f02646" data-name="Layer 1" xmlns="http://www.w3.org/2000/svg" viewBox="0 0 100 100"><defs><style>.f044fba1-1d4b-4dfa-a370-07fa9dd2b24f{fill:#544c60;}</style></defs><path class="f044fba1-1d4b-4dfa-a370-07fa9dd2b24f" d="M70.53,4.21A27.48,27.48,0,0,0,50,13.46,27.48,27.48,0,0,0,29.47,4.21C13.77,4.21,1,17.7,1,34.28,1,51.65,16,71.63,45.66,93.65c.68.5,1.23.91,1.63,1.22a4.45,4.45,0,0,0,5.52-.08c.6-.49,1.52-1.19,2.68-2.07C67.39,83.66,99,59.58,99,34.28,99,17.7,86.23,4.21,70.53,4.21ZM50,91.33c-4.69-3.59-28.16-20-39-39H29.22a2.23,2.23,0,0,0,0-4.46H9.77a2.2,2.2,0,0,0-1,.24A37,37,0,0,1,5.88,39h35a2.23,2.23,0,0,0,0-4.45H5.48a2,2,0,0,1,0-.24c0-14.14,10.76-25.61,24-25.61A23.72,23.72,0,0,1,50,21.05,23.72,23.72,0,0,1,70.53,8.67h0c13.26,0,24,11.47,24,25.61C94.55,60,56.2,86.29,50,91.33Z"/><path class="f044fba1-1d4b-4dfa-a370-07fa9dd2b24f" d="M40.35,47.89a2.22,2.22,0,1,0,2.22,2.22A2.22,2.22,0,0,0,40.35,47.89Z"/></svg>