<svg id="f609167e-fc1a-4c72-8b77-368a18d1001b" data-name="Layer 1" xmlns="http://www.w3.org/2000/svg" viewBox="0 0 100 100"><defs><style>.ee1cb477-97d4-432c-948a-89e9f23bc955{fill:#fff;}</style></defs><path class="ee1cb477-97d4-432c-948a-89e9f23bc955" d="M49.8,70.55A2.22,2.22,0,1,0,52,72.77,2.22,2.22,0,0,0,49.8,70.55Z"/><path class="ee1cb477-97d4-432c-948a-89e9f23bc955" d="M50,1A37.9,37.9,0,0,0,12.14,38.86c0,26.68,33.42,57.66,34.85,59a4.46,4.46,0,0,0,6,0c1.42-1.31,34.85-32.29,34.85-59A37.9,37.9,0,0,0,50,1Zm0,93.55A166,166,0,0,1,32.5,75l6.18,0a2.23,2.23,0,1,0,0-4.45h0l-9.39,0a103.63,103.63,0,0,1-5.6-9l26.88,0a2.23,2.23,0,1,0,0-4.46l-29.17,0c-2.87-6.1-4.79-12.35-4.79-18.3A33.41,33.41,0,0,1,50,5.45h0A33.41,33.41,0,0,1,83.41,38.86C83.41,63.89,50,94.55,50,94.55Z"/><circle class="ee1cb477-97d4-432c-948a-89e9f23bc955" cx="50" cy="35.16" r="11.14"/></svg>