<svg id="a2dcda08-3fe3-436e-91ed-6c21cb6c561c" data-name="Layer 1" xmlns="http://www.w3.org/2000/svg" viewBox="0 0 100 100"><defs><style>.f21b6276-19ac-49b7-8e6b-7ba49269b1c4{fill:#fff;}</style></defs><path class="f21b6276-19ac-49b7-8e6b-7ba49269b1c4" d="M37.61,49.13a2.22,2.22,0,1,0,2.22,2.22A2.21,2.21,0,0,0,37.61,49.13Z"/><path class="f21b6276-19ac-49b7-8e6b-7ba49269b1c4" d="M96.55,84.51l-26.8-26.8a4.41,4.41,0,0,0-.64-.42A37,37,0,1,0,57.3,69.1a4.41,4.41,0,0,0,.42.64l26.8,26.8a8.43,8.43,0,0,0,11.9,0A8.47,8.47,0,0,0,96.55,84.51Zm-87-30.93H26.48a2.23,2.23,0,0,0,0-4.46h-19a32.12,32.12,0,0,1-1.94-8.91H38.15a2.23,2.23,0,1,0,0-4.45H5.57A32.38,32.38,0,1,1,63.18,58s0,0-.06,0a32,32,0,0,1-5,5s0,0,0,.06A32.35,32.35,0,0,1,9.54,53.58ZM93.4,93.27l-.13.12a4,4,0,0,1-5.6,0l-26.8-26.8a37.86,37.86,0,0,0,5.73-5.73h0l26.8,26.8A4,4,0,0,1,93.4,93.27Z"/></svg>