<svg id="fe2e5ddd-5055-4fd8-8756-216f1235f756" data-name="Layer 1" xmlns="http://www.w3.org/2000/svg" viewBox="0 0 100 100"><defs><style>.b2b477b6-1ae8-48b5-8985-846ea60f51d7{fill:#fff;}</style></defs><path class="b2b477b6-1ae8-48b5-8985-846ea60f51d7" d="M25.2,65.75H74.8a5.45,5.45,0,0,0,5.45-5.45V17.35a5.45,5.45,0,0,0-5.45-5.44H66.28a8.47,8.47,0,0,0-8.11-6H43a8.47,8.47,0,0,0-8.11,6.05H25.2a5.45,5.45,0,0,0-5.45,5.44V60.3A5.45,5.45,0,0,0,25.2,65.75Zm0-48.4H37a3,3,0,0,0,3-3,3,3,0,0,1,3-3H58.17a3,3,0,0,1,3,3,3,3,0,0,0,3,3H74.8V60.3H25.2Z"/><path class="b2b477b6-1ae8-48b5-8985-846ea60f51d7" d="M50.61,20.59A17.94,17.94,0,1,0,68.54,38.53,18,18,0,0,0,50.61,20.59Zm0,30.43a12.5,12.5,0,1,1,0-25,12.34,12.34,0,0,1,7,2.15,8.39,8.39,0,0,0-3.74-.9,8.53,8.53,0,1,0,8.53,8.52A8.32,8.32,0,0,0,62,33.5,12.45,12.45,0,0,1,50.61,51Z"/><path class="b2b477b6-1ae8-48b5-8985-846ea60f51d7" d="M99,47.86a5.45,5.45,0,0,0-10.89,0,5.37,5.37,0,0,0,2.47,4.44,40.82,40.82,0,0,1-81.16,0,5.37,5.37,0,0,0,2.47-4.44A5.45,5.45,0,1,0,4,52.64a46.28,46.28,0,0,0,92.06,0A5.41,5.41,0,0,0,99,47.86Z"/></svg>