<svg id="ac1bb574-ab20-4f27-a138-f203f4ef948f" data-name="Layer 1" xmlns="http://www.w3.org/2000/svg" viewBox="0 0 100 100"><defs><style>.bfa9d72f-ca5b-4355-853d-506e447a7b56{fill:#fff;}</style></defs><path class="bfa9d72f-ca5b-4355-853d-506e447a7b56" d="M49.8,70.55A2.22,2.22,0,1,0,52,72.77,2.22,2.22,0,0,0,49.8,70.55Z"/><path class="bfa9d72f-ca5b-4355-853d-506e447a7b56" d="M50,1A37.9,37.9,0,0,0,12.14,38.86c0,26.68,33.42,57.66,34.85,59a4.46,4.46,0,0,0,6,0c1.42-1.31,34.85-32.29,34.85-59A37.9,37.9,0,0,0,50,1Zm0,93.55A166,166,0,0,1,32.5,75l6.18,0a2.23,2.23,0,1,0,0-4.45h0l-9.39,0a103.63,103.63,0,0,1-5.6-9l26.88,0a2.23,2.23,0,1,0,0-4.46l-29.17,0c-2.87-6.1-4.79-12.35-4.79-18.3A33.41,33.41,0,0,1,50,5.45h0A33.41,33.41,0,0,1,83.41,38.86C83.41,63.89,50,94.55,50,94.55Z"/><circle class="bfa9d72f-ca5b-4355-853d-506e447a7b56" cx="50" cy="35.16" r="11.14"/></svg>