<svg id="bd6827bb-56b5-40dc-82ff-2aaedab23d14" data-name="Layer 1" xmlns="http://www.w3.org/2000/svg" viewBox="0 0 100 100"><defs><style>.b245391c-d06b-4dc5-a3fb-83ad0ebe81d7{fill:#fff;}</style></defs><path class="b245391c-d06b-4dc5-a3fb-83ad0ebe81d7" d="M67.83,32.18a2.23,2.23,0,0,0-3.15,0l-32.5,32.5a2.23,2.23,0,0,0,1.57,3.8,2.26,2.26,0,0,0,1.58-.65l32.5-32.5A2.23,2.23,0,0,0,67.83,32.18Z"/><path class="b245391c-d06b-4dc5-a3fb-83ad0ebe81d7" d="M66.25,55.14A11.12,11.12,0,1,0,77.39,66.25,11.14,11.14,0,0,0,66.25,55.14Zm0,17.77a6.66,6.66,0,1,1,6.68-6.66A6.67,6.67,0,0,1,66.25,72.91Z"/><path class="b245391c-d06b-4dc5-a3fb-83ad0ebe81d7" d="M44.89,33.75A11.14,11.14,0,1,0,33.75,44.87,11.15,11.15,0,0,0,44.89,33.75Zm-17.82,0a6.68,6.68,0,1,1,6.68,6.66A6.67,6.67,0,0,1,27.07,33.75Z"/><path class="b245391c-d06b-4dc5-a3fb-83ad0ebe81d7" d="M97.63,39,88.1,29.81l-2.31-13A4.44,4.44,0,0,0,82,13.22L68.9,11.39,59.36,2.24A4.48,4.48,0,0,0,56.27,1a4.42,4.42,0,0,0-2.08.52L42.49,7.71,29.36,5.88a4.3,4.3,0,0,0-.62,0,4.45,4.45,0,0,0-4,2.5l-5.8,11.83L7.25,26.36A4.46,4.46,0,0,0,5,31.08l2.3,13L1.45,55.87a4.47,4.47,0,0,0,.92,5.18l9.53,9.14,2.31,13A4.44,4.44,0,0,0,18,86.78L31.1,88.61l9.54,9.15A4.48,4.48,0,0,0,43.73,99a4.42,4.42,0,0,0,2.08-.52l11.7-6.19,13.13,1.83a4.3,4.3,0,0,0,.62,0,4.46,4.46,0,0,0,4-2.49l5.8-11.84,11.69-6.19a4.46,4.46,0,0,0,2.3-4.72l-2.3-13,5.8-11.83A4.47,4.47,0,0,0,97.63,39ZM88.11,55.31,90.67,69.7l-13,6.87L71.26,89.71l-14.56-2-13,6.87L33.15,84.4l-14.56-2L16,68,5.45,57.83l6.44-13.14L9.33,30.3l13-6.87L28.74,10.3l14.56,2,13-6.87L66.85,15.6l14.56,2L84,32,94.55,42.17Z"/></svg>