<svg id="b0e9b701-a83b-462f-91c4-2badc6883455" data-name="Layer 1" xmlns="http://www.w3.org/2000/svg" viewBox="0 0 100 100"><defs><style>.acf8b16a-ccb7-4510-831a-04d82e42b497{fill:#fff;}</style></defs><path class="acf8b16a-ccb7-4510-831a-04d82e42b497" d="M65.6,5.45c2.83,0,6.74,4.49,6.74,26.21s-4.51,22.79-4.51,22.79V92.32a2.23,2.23,0,0,1-4.46,0V7.68A2.24,2.24,0,0,1,65.6,5.45M65.6,1a6.69,6.69,0,0,0-6.68,6.68V92.32a6.68,6.68,0,0,0,13.36,0V56.49c3-3.79,4.51-12,4.51-24.83C76.79,18.5,75.63,1,65.6,1Z"/><path class="acf8b16a-ccb7-4510-831a-04d82e42b497" d="M47.75,5.45A2.24,2.24,0,0,1,50,7.68s0,26.65,0,26.71c0,10.32,1.09,18.72-8.93,19.84V92.32a2.23,2.23,0,1,1-4.45,0V54.23c-10-1.12-8.93-9.52-8.93-19.84,0-.06,0-26.71,0-26.71a2.23,2.23,0,1,1,4.45,0V32.8c0,1.84,1.12,2.76,2.23,2.76s2.23-.92,2.23-2.76V7.68a2.23,2.23,0,1,1,4.45,0V32.8c0,1.84,1.12,2.76,2.23,2.76s2.23-.92,2.23-2.76V7.68a2.24,2.24,0,0,1,2.22-2.23m0-4.45A6.64,6.64,0,0,0,43.3,2.71a6.66,6.66,0,0,0-8.91,0,6.68,6.68,0,0,0-11.14,5V34.39c0,.93,0,1.85,0,2.74-.08,7.93-.17,17.57,8.94,20.67V92.32a6.69,6.69,0,0,0,13.37,0V57.81c9.11-3.11,9-12.75,8.94-20.68,0-.89,0-1.81,0-2.74V7.68A6.69,6.69,0,0,0,47.75,1Z"/></svg>