<svg id="a668fcbc-d139-48ab-b9f7-862d17f36e8e" data-name="Layer 1" xmlns="http://www.w3.org/2000/svg" viewBox="0 0 100 100"><defs><style>.e995c146-b6c9-43a6-ba29-6c3d48f16c11{fill:#fff;}</style></defs><path class="e995c146-b6c9-43a6-ba29-6c3d48f16c11" d="M22,46.94h.13a2.05,2.05,0,0,0,1.92-2.17L22.92,25.39a2,2,0,0,0-2.17-1.92,2,2,0,0,0-1.92,2.17L20,45A2.06,2.06,0,0,0,22,46.94Z"/><path class="e995c146-b6c9-43a6-ba29-6c3d48f16c11" d="M32,37.55h.12a2,2,0,0,0,1.93-2.16l-.63-10.61a2,2,0,0,0-2.17-1.93A2.06,2.06,0,0,0,29.35,25L30,35.62A2,2,0,0,0,32,37.55Z"/><path class="e995c146-b6c9-43a6-ba29-6c3d48f16c11" d="M32.45,42.51a1.75,1.75,0,1,0,1.86,1.65A1.76,1.76,0,0,0,32.45,42.51Z"/><path class="e995c146-b6c9-43a6-ba29-6c3d48f16c11" d="M24.68,54.89l-7,.45a2.05,2.05,0,0,0,.14,4.1h.13l7-.46a2,2,0,1,0-.26-4.09Z"/><path class="e995c146-b6c9-43a6-ba29-6c3d48f16c11" d="M49.37,27.34l.31-.86-.07-.9L48,5.48l-.32-4-4,.26-8.77.57-4.09.27.26,4.09a6.45,6.45,0,0,1-6,6.85h-.43a6.46,6.46,0,0,1-6.42-6L18,3.37l-4.1.26L5.09,4.2,1,4.47l.26,4.09L5.8,78.72l.27,4.09,4.09-.26L18.93,82l4.1-.27-.27-4.09a6.44,6.44,0,0,1,6-6.84l.42,0q.33,0,.66,0l3.15.33,1.11-3ZM30.28,66.71c-.35,0-.71,0-1.08,0l-.69,0a10.54,10.54,0,0,0-9.84,11.21l-8.77.56L8.71,60h0l3.11-.2a2,2,0,0,0,1.91-2.18,2.08,2.08,0,0,0-2.18-1.91l-3.11.2h0L5.36,8.3l8.77-.57a10.54,10.54,0,0,0,10.51,9.86c.23,0,.46,0,.69,0a10.56,10.56,0,0,0,9.85-11.2L44,5.8l1.57,20.1L35,54.08l-4.28.42a2,2,0,0,0,.2,4.09h.2l2.28-.22Z"/><path class="e995c146-b6c9-43a6-ba29-6c3d48f16c11" d="M68.68,41.84a2.05,2.05,0,1,0-3.79-1.58L58.15,56.43a2.06,2.06,0,0,0,1.11,2.69,2.12,2.12,0,0,0,.78.15A2,2,0,0,0,61.94,58Z"/><path class="e995c146-b6c9-43a6-ba29-6c3d48f16c11" d="M76.36,42.82a2.06,2.06,0,0,0-2.68,1.11L70,52.78a2.05,2.05,0,0,0,3.79,1.58l3.69-8.86A2.06,2.06,0,0,0,76.36,42.82Z"/><path class="e995c146-b6c9-43a6-ba29-6c3d48f16c11" d="M67.37,60.28a1.58,1.58,0,1,0,2.07-.86A1.58,1.58,0,0,0,67.37,60.28Z"/><path class="e995c146-b6c9-43a6-ba29-6c3d48f16c11" d="M70.61,71.07l-5.93-2.26a2,2,0,0,0-1.46,3.83l5.93,2.26a1.89,1.89,0,0,0,.73.14,2.05,2.05,0,0,0,.73-4Z"/><path class="e995c146-b6c9-43a6-ba29-6c3d48f16c11" d="M59.52,66.84l-5.93-2.26a2.05,2.05,0,1,0-1.47,3.83l5.93,2.26a2.11,2.11,0,0,0,.74.14,2.05,2.05,0,0,0,.73-4Z"/><path class="e995c146-b6c9-43a6-ba29-6c3d48f16c11" d="M95.17,30.14l-7.41-2.83-3.84-1.47-1.46,3.84a5.45,5.45,0,0,1-5.06,3.48,5.54,5.54,0,0,1-1.93-.35,5.41,5.41,0,0,1-3.13-7L73.8,22,70,20.52l-7.41-2.83-3.84-1.47-1.46,3.84L34.63,79.35l-1.47,3.83L37,84.64l7.41,2.83,3.83,1.47L49.7,85.1a5.46,5.46,0,0,1,5.07-3.48A5.62,5.62,0,0,1,56.7,82a5.44,5.44,0,0,1,3.13,7L58.36,92.8l3.84,1.46,7.41,2.83,3.83,1.47,1.46-3.84L97.54,35.43,99,31.6ZM78.4,74.05l-2.62-1a2.05,2.05,0,0,0-1.47,3.83l2.63,1h0L71.07,93.26l-7.41-2.83a9.53,9.53,0,0,0-5.5-12.29,9.63,9.63,0,0,0-3.39-.63,9.53,9.53,0,0,0-8.9,6.13l-7.41-2.83,5.87-15.38,2.63,1a2.08,2.08,0,0,0,.73.13,2,2,0,0,0,.74-4l-2.64-1h0l15.3-40.08,7.42,2.83a9.52,9.52,0,1,0,17.78,6.79L93.7,34Z"/></svg>