<?xml version="1.0" encoding="UTF-8"?>
<svg id="abe1f631-b4bf-4c4a-85aa-a590b0de217f" xmlns="http://www.w3.org/2000/svg" xmlns:xlink="http://www.w3.org/1999/xlink" version="1.1" viewBox="0 0 113 40">
  <!-- Generator: Adobe Illustrator 29.0.0, SVG Export Plug-In . SVG Version: 2.1.0 Build 186)  -->
  <defs>
    <style>
      .st0 {
        fill: #fff;
      }

      .st1 {
        fill: url(#Degradado_sin_nombre);
      }

      .st2 {
        fill: url(#Degradado_sin_nombre_7);
      }

      .st3 {
        fill: url(#Degradado_sin_nombre_6);
      }

      .st4 {
        fill: url(#Degradado_sin_nombre_5);
      }

      .st5 {
        fill: url(#Degradado_sin_nombre_8);
      }

      .st6 {
        fill: url(#Degradado_sin_nombre_4);
      }

      .st7 {
        fill: url(#Degradado_sin_nombre_3);
      }

      .st8 {
        fill: url(#Degradado_sin_nombre_2);
      }
    </style>
    <linearGradient id="Degradado_sin_nombre" data-name="Degradado sin nombre" x1="10.1" y1="25.9" x2="2.5" y2="34.6" gradientTransform="translate(0 42) scale(1 -1)" gradientUnits="userSpaceOnUse">
      <stop offset="0" stop-color="#2f81cf"/>
      <stop offset="1" stop-color="#4cc0ee"/>
    </linearGradient>
    <linearGradient id="Degradado_sin_nombre_2" data-name="Degradado sin nombre 2" x1="32.5" y1="40.5" x2="24.1" y2="32.1" gradientTransform="translate(0 42) scale(1 -1)" gradientUnits="userSpaceOnUse">
      <stop offset="0" stop-color="#7d3d96"/>
      <stop offset="1" stop-color="#6b1e7b"/>
    </linearGradient>
    <linearGradient id="Degradado_sin_nombre_3" data-name="Degradado sin nombre 3" x1="30.2" y1="17.7" x2="38.7" y2="9.6" gradientTransform="translate(0 42) scale(1 -1)" gradientUnits="userSpaceOnUse">
      <stop offset="0" stop-color="#b94521"/>
      <stop offset="1" stop-color="#ec6b22"/>
    </linearGradient>
    <linearGradient id="Degradado_sin_nombre_4" data-name="Degradado sin nombre 4" x1="16.3" y1="12.5" x2="9.5" y2="5.3" gradientTransform="translate(0 42) scale(1 -1)" gradientUnits="userSpaceOnUse">
      <stop offset="0" stop-color="#739d10"/>
      <stop offset="1" stop-color="#a5c939"/>
    </linearGradient>
    <linearGradient id="Degradado_sin_nombre_5" data-name="Degradado sin nombre 5" x1="25.3" y1="21.2" x2="37.9" y2="34" gradientTransform="translate(0 42) scale(1 -1)" gradientUnits="userSpaceOnUse">
      <stop offset="0" stop-color="#9f075e"/>
      <stop offset="1" stop-color="#e20782"/>
    </linearGradient>
    <linearGradient id="Degradado_sin_nombre_6" data-name="Degradado sin nombre 6" x1="9.1" y1="39.1" x2="20.4" y2="27.4" gradientTransform="translate(0 42) scale(1 -1)" gradientUnits="userSpaceOnUse">
      <stop offset="0" stop-color="#214485"/>
      <stop offset="1" stop-color="#0f296f"/>
    </linearGradient>
    <linearGradient id="Degradado_sin_nombre_7" data-name="Degradado sin nombre 7" x1="14.9" y1="22.8" x2="3.2" y2="11.3" gradientTransform="translate(0 42) scale(1 -1)" gradientUnits="userSpaceOnUse">
      <stop offset="0" stop-color="#087047"/>
      <stop offset="1" stop-color="#089347"/>
    </linearGradient>
    <linearGradient id="Degradado_sin_nombre_8" data-name="Degradado sin nombre 8" x1="18.8" y1="17" x2="32.1" y2="4.2" gradientTransform="translate(0 42) scale(1 -1)" gradientUnits="userSpaceOnUse">
      <stop offset="0" stop-color="#ec6b22"/>
      <stop offset="1" stop-color="#fdbe10"/>
    </linearGradient>
  </defs>
  <polygon class="st1" points="0 0 20 20 14 26 0 12 0 0"/>
  <polygon class="st8" points="40 0 20 20 14 14 28 0 40 0"/>
  <polygon class="st7" points="40 40 20 20 26 14 40 28 40 40"/>
  <polygon class="st6" points="0 40 20 20 26 26 12 40 0 40"/>
  <polygon class="st4" points="40 0 20 20 26 26 40 12 40 0"/>
  <polygon class="st3" points="0 0 20 20 26 14 12 0 0 0"/>
  <polygon class="st2" points="0 40 20 20 14 14 0 28 0 40"/>
  <polygon class="st5" points="40 40 20 20 14 26 28 40 40 40"/>
  <path class="st0" d="M53.8,19.7l-3.8-5.3h1.7l3,4.3,3-4.4h1.7l-3.7,5.3,4.1,5.9h-1.7l-3.3-4.9-3.3,4.9h-1.7l4-5.9Z"/>
  <path class="st0" d="M68.8,16.7c-.3-.4-.7-.8-1.2-1-.5-.2-1-.3-1.5-.3-.6,0-1.2.1-1.7.4-.5.2-1,.6-1.3,1-.8.9-1.2,2-1.2,3.2,0,.6,0,1.2.3,1.8.2.5.5,1,.9,1.5.4.4.8.8,1.3,1,.5.2,1.1.4,1.7.4.6,0,1.3-.1,1.8-.4.5-.3,1-.7,1.4-1.2l1,.8c-.5.6-1.1,1.1-1.8,1.5-.8.3-1.6.5-2.4.5-.8,0-1.5-.1-2.2-.4-.7-.3-1.3-.7-1.8-1.2-.5-.5-.9-1.2-1.2-1.9-.6-1.5-.6-3.1,0-4.6.8-2.2,2.9-3.6,5.2-3.6.7,0,1.5.1,2.2.4.7.3,1.3.7,1.8,1.3l-1.2.8Z"/>
  <path class="st0" d="M75.7,14.4h1.3l4.7,11.1h-1.5l-1.2-2.7h-5.5l-1.2,2.7h-1.5l4.9-11.1ZM76.3,16.1h0l-2.3,5.5h4.5l-2.2-5.5Z"/>
  <path class="st0" d="M83.2,14.4h2.8c.5,0,1.1,0,1.6,0,.5,0,1,.2,1.4.4.4.2.8.5,1,.9.3.5.4,1.1.4,1.6,0,.7-.2,1.5-.7,2-.5.5-1.2.9-2,1l3.2,5.1h-1.6l-3-5h-1.7v5h-1.3v-11.2ZM84.5,19.3h2.3c.4,0,.7,0,1.1-.2.3-.1.6-.3.8-.5.2-.3.3-.7.3-1.1,0-.3,0-.7-.2-1-.2-.2-.4-.4-.6-.6-.3-.1-.6-.2-.9-.3-.3,0-.7,0-1,0h-1.8v3.7Z"/>
  <path class="st0" d="M92.8,14.4h7v1.2h-5.7v3.5h5.3v1.2h-5.3v4h6v1.2h-7.3v-11.2Z"/>
  <path class="st0" d="M109.6,15.7h-3.7v9.9h-1.3v-9.9h-3.7v-1.2h8.7v1.2Z"/>
</svg>