<?xml version="1.0" encoding="utf-8"?>
<!-- Generator: Adobe Illustrator 23.0.0, SVG Export Plug-In . SVG Version: 6.00 Build 0)  -->
<svg version="1.1" id="Layer_1" xmlns="http://www.w3.org/2000/svg" xmlns:xlink="http://www.w3.org/1999/xlink" x="0px" y="0px"
	 viewBox="0 0 275 34" style="enable-background:new 0 0 275 34;" xml:space="preserve">
<style type="text/css">
	.st0{fill:#FFFFFF;}
</style>
<g>
	<path class="st0" d="M54.8,8.8L54.8,8.8c-1.6-1.1-3.3-1.7-5.2-1.7c-2.4,0-4.5,0.9-6.3,2.7c-1.5,1.8-2.3,3.6-2.3,5.5V16
		c0,1.5,0.5,3,1.5,4.5c1.9,2.5,4.2,3.7,7,3.7h0.1c1.9,0,3.5-0.6,5.1-1.7h0v1.1c0,0.9-0.2,1.7-0.5,2.6c-0.8,2-2.3,3-4.6,3
		c-1.1,0-2.6-0.2-3.6-1.2l-2.4,2.5c1.4,1.4,3.4,2.1,5.9,2.1v0c0,0,0,0,0,0c0,0,0,0,0,0l0,0c1.9,0,3.6-0.5,5.1-1.5
		c2.3-1.8,3.5-4.3,3.5-7.6V7.1h-3.4V8.8z M54.3,17.8c-1.1,2-2.7,3-4.7,3c-1.1,0-2.2-0.4-3.1-1.1c-1.3-1.1-2-2.4-2-3.9v-0.4
		c0-0.7,0.2-1.4,0.6-2.3c1.1-1.8,2.6-2.7,4.5-2.7c1.2,0,2.3,0.4,3.3,1.2c1.2,1.1,1.8,2.4,1.8,3.9C54.8,16.3,54.6,17,54.3,17.8z"/>
	<path class="st0" d="M64.9,9.1V7.2h-3.4v17.1h3.4v-8.4c0-0.6,0.1-1.2,0.4-1.9c1-2.3,3.1-3.5,6.4-3.5V7.2C69,7.2,66.7,7.8,64.9,9.1
		L64.9,9.1z"/>
	<path class="st0" d="M87.7,12.9c0,1.7-0.1,2.9-0.3,3.5c-0.2,1.1-0.7,2.1-1.5,2.9c-1.1,1-2.3,1.5-3.5,1.5c-0.6,0-1.2-0.1-1.8-0.4
		c-2-1.2-3.1-3.6-3.1-7.3v-6h-3.4V13c0,4.3,1.2,7.5,3.5,9.6c1.5,1.2,3,1.8,4.7,1.8h0.4c0.4,0,1.1-0.1,1.7-0.3c2-0.6,3.5-1.6,4.6-3
		c0.6-0.8,1-1.6,1.3-2.4c0.5-1.2,0.8-3.2,0.8-6V7.2h-3.4V12.9z"/>
	<path class="st0" d="M102.7,7.1c-1.8,0-3.5,0.6-5.1,1.7h-0.1V7.1h-3.4v24.7h3.4v-9.3h0.1c1.6,1.1,3.2,1.7,4.8,1.7h0.7
		c1.8,0,3.6-0.7,5.4-2.1c1.9-1.8,2.9-3.9,2.9-6.1v-0.5c0-1.7-0.6-3.4-1.8-5C107.6,8.2,105.4,7.1,102.7,7.1z M107.8,15.8
		c0,1-0.3,2-1,3c-1.2,1.3-2.5,2-3.9,2h-0.5c-0.7,0-1.4-0.2-2.3-0.6c-1.8-1.1-2.7-2.7-2.7-4.6c0-1,0.3-2,1-3c1.1-1.4,2.5-2.2,4.2-2.2
		c1,0,2,0.3,2.9,0.9c1.5,1.1,2.2,2.5,2.2,4.2V15.8z"/>
	<path class="st0" d="M121.4,7.2c-2.9,0-5.3,1.2-7.1,3.7c-1,1.5-1.5,3.2-1.5,4.9c0,2,0.7,3.8,2,5.5c1.8,2,4,3,6.5,3h0.1
		c2.1,0,4.1-0.8,5.8-2.3c1.8-1.8,2.8-3.9,2.8-6.3c0-2.3-0.8-4.3-2.5-6.1C125.6,8,123.6,7.2,121.4,7.2z M125.5,18.7
		c-1.1,1.4-2.5,2.2-4.2,2.2c-1.1,0-2.1-0.4-3.1-1.1c-1.3-1.2-2-2.5-2-3.8v-0.2l0,0l0,0v-0.2c0-0.8,0.3-1.6,0.8-2.5
		c1.1-1.6,2.6-2.4,4.3-2.4c1,0,1.9,0.2,2.8,0.7c1.6,1.2,2.5,2.6,2.5,4.4C126.5,16.8,126.1,17.7,125.5,18.7z"/>
	<polygon class="st0" points="158.8,7.2 154.4,7.2 154,7.7 149.5,13 144.6,7.2 140.1,7.2 147.2,15.7 147.2,15.7 140.1,24.2 
		140.1,24.3 144.6,24.3 149.5,18.4 154.4,24.3 158.8,24.3 151.7,15.7 	"/>
	<path class="st0" d="M167.3,10.6c1.8,0,3.3,0.8,4.3,2.3c0.1,0,1-0.7,2.8-2l-0.1-0.1c-1.9-2.4-4.2-3.6-6.9-3.6
		c-2.2,0-4.1,0.7-5.8,2.2c-1.9,1.8-2.8,3.9-2.8,6.3c0,1.9,0.6,3.6,1.8,5.2c1.8,2.2,4.1,3.3,6.8,3.3h0.1c1.9,0,3.7-0.6,5.3-1.9
		c0.9-0.8,1.5-1.4,1.7-1.8l-2.7-2c-1.2,1.6-2.6,2.3-4.3,2.3c-0.8,0-1.7-0.2-2.5-0.6c-1.8-1.2-2.7-2.6-2.7-4.5c0-0.9,0.2-1.8,0.7-2.7
		C164.1,11.4,165.5,10.6,167.3,10.6z"/>
	<path class="st0" d="M189.4,8.9L189.4,8.9c-1.6-1.1-3.3-1.7-5.1-1.7c-1.8,0-3.4,0.5-4.9,1.5c-2.4,1.9-3.7,4.2-3.7,7
		c0,1.8,0.6,3.6,1.7,5.2c1.9,2.2,4.1,3.4,6.7,3.4h0.5c1.7,0,3.3-0.6,4.9-1.7v1.7h3.4V7.2h-3.4V8.9z M189.4,15.9
		c0,0.9-0.3,1.9-0.9,2.8c-1.2,1.4-2.5,2.2-4.1,2.2h-0.2c-0.8,0-1.6-0.2-2.4-0.6c-1.8-1.1-2.7-2.7-2.7-4.6c0-1,0.3-2,1-3
		c1.1-1.4,2.5-2.2,4.2-2.2c0.9,0,1.8,0.2,2.6,0.7c1.7,1.1,2.5,2.6,2.5,4.4V15.9z"/>
	<path class="st0" d="M199.8,9.1V7.2h-3.4v17.1h3.4v-8.4c0-0.6,0.1-1.2,0.4-1.9c1-2.3,3.1-3.5,6.4-3.5V7.2
		C203.9,7.2,201.7,7.8,199.8,9.1L199.8,9.1z"/>
	<path class="st0" d="M215.4,7.2c-2.1,0-3.9,0.7-5.6,2c-2,1.8-3,4-3,6.6c0,2,0.7,3.8,2,5.5c1.8,2,4,3,6.5,3h0.1c2.3,0,4.3-0.8,6-2.5
		v0l-2.4-2.4c-1.1,1-2.3,1.5-3.6,1.5c-0.8,0-1.6-0.2-2.3-0.6c-1.3-0.7-2.1-1.6-2.5-2.9h13.2c0.1-0.5,0.2-1.1,0.2-1.7
		c0-2-0.7-3.8-2-5.5C220.1,8.2,217.9,7.2,215.4,7.2z M210.5,14l0.3-0.8c1.2-1.7,2.6-2.6,4.5-2.6c0.8,0,1.7,0.2,2.5,0.6
		c1.2,0.7,1.9,1.7,2.3,2.8H210.5z"/>
	<polygon class="st0" points="231.2,7.2 231.2,1.2 227.8,1.2 227.8,7.2 224.9,7.2 224.9,10.6 227.8,10.6 227.8,24.3 231.2,24.3 
		231.2,10.6 234.2,10.6 234.2,7.2 	"/>
</g>
</svg>
