<svg id="abe1f631-b4bf-4c4a-85aa-a590b0de217f" data-name="Layer 1" xmlns="http://www.w3.org/2000/svg" xmlns:xlink="http://www.w3.org/1999/xlink" viewBox="0 0 113.02 40"><defs><style>.a3b66cc2-795f-4437-abd6-c7a329b08189{fill:url(#a1f858bb-b01f-47b4-b581-8603f55f4b78);}.b46a5835-221d-4eae-b4d5-b74ac25669b7{fill:url(#b411f1ae-74e9-42b3-be90-a5d3a741b3ab);}.bb2cdfb7-9235-462e-a9c2-d06d8d32488b{fill:url(#f1d4a465-4bb3-41b6-8ee2-4317499fc3c5);}.bd5fafef-e347-4e45-a6d3-b5eba96f33e7{fill:url(#a5a9f311-5b84-471f-951f-93992c6f55fc);}.a336a863-685e-4033-b028-a7336d9cdd02{fill:url(#ae51b58c-e874-45b3-9ef2-9a366341fece);}.b5ed75ab-ca91-4763-994d-74bf75c3d21e{fill:url(#b45a8eec-db72-4ab6-94e8-e21d7eea92f6);}.e19b4757-3be9-4595-870e-9739f34a0442{fill:url(#a751437b-5d26-47d2-89b5-22250bc50ca8);}.aaf38407-b0fc-49ac-b8ee-199ac315c687{fill:url(#fc09e6bd-5792-450b-a319-66932e472eb2);}.b82c5ded-2dc1-49d0-b445-3b15ae4a57de{fill:#fff;}</style><linearGradient id="a1f858bb-b01f-47b4-b581-8603f55f4b78" x1="10.06" y1="16.08" x2="2.47" y2="7.41" gradientUnits="userSpaceOnUse"><stop offset="0" stop-color="#2f81cf"/><stop offset="1" stop-color="#4cc0ee"/></linearGradient><linearGradient id="b411f1ae-74e9-42b3-be90-a5d3a741b3ab" x1="32.49" y1="1.49" x2="24.11" y2="9.87" gradientUnits="userSpaceOnUse"><stop offset="0.01" stop-color="#7d3d96"/><stop offset="0.96" stop-color="#6b1e7b"/></linearGradient><linearGradient id="f1d4a465-4bb3-41b6-8ee2-4317499fc3c5" x1="30.24" y1="24.33" x2="38.69" y2="32.45" gradientUnits="userSpaceOnUse"><stop offset="0" stop-color="#b94521"/><stop offset="1" stop-color="#ec6b22"/></linearGradient><linearGradient id="a5a9f311-5b84-471f-951f-93992c6f55fc" x1="16.28" y1="29.54" x2="9.52" y2="36.71" gradientUnits="userSpaceOnUse"><stop offset="0" stop-color="#739d10"/><stop offset="1" stop-color="#a5c939"/></linearGradient><linearGradient id="ae51b58c-e874-45b3-9ef2-9a366341fece" x1="25.28" y1="20.8" x2="37.92" y2="7.99" gradientUnits="userSpaceOnUse"><stop offset="0" stop-color="#9f075e"/><stop offset="0.98" stop-color="#e20782"/></linearGradient><linearGradient id="b45a8eec-db72-4ab6-94e8-e21d7eea92f6" x1="9.09" y1="2.91" x2="20.36" y2="14.65" gradientUnits="userSpaceOnUse"><stop offset="0" stop-color="#214485"/><stop offset="1" stop-color="#0f296f"/></linearGradient><linearGradient id="a751437b-5d26-47d2-89b5-22250bc50ca8" x1="14.87" y1="19.24" x2="3.19" y2="30.73" gradientUnits="userSpaceOnUse"><stop offset="0" stop-color="#087047"/><stop offset="1" stop-color="#089347"/></linearGradient><linearGradient id="fc09e6bd-5792-450b-a319-66932e472eb2" x1="18.79" y1="25.02" x2="32.14" y2="37.81" gradientUnits="userSpaceOnUse"><stop offset="0" stop-color="#ec6b22"/><stop offset="1" stop-color="#fdbe10"/></linearGradient></defs><polygon class="a3b66cc2-795f-4437-abd6-c7a329b08189" points="0 0 20 20 13.98 26.02 0 12.04 0 0"/><polygon class="b46a5835-221d-4eae-b4d5-b74ac25669b7" points="40 0 20 20 13.98 13.98 27.96 0 40 0"/><polygon class="bb2cdfb7-9235-462e-a9c2-d06d8d32488b" points="40 40 20 20 26.02 13.98 40 27.96 40 40"/><polygon class="bd5fafef-e347-4e45-a6d3-b5eba96f33e7" points="0 40 20 20 26.02 26.02 12.04 40 0 40"/><polygon class="a336a863-685e-4033-b028-a7336d9cdd02" points="40 0 20 20 26.02 26.02 40 12.04 40 0"/><polygon class="b5ed75ab-ca91-4763-994d-74bf75c3d21e" points="0 0 20 20 26.02 13.98 12.04 0 0 0"/><polygon class="e19b4757-3be9-4595-870e-9739f34a0442" points="0 40 20 20 13.98 13.98 0 27.96 0 40"/><polygon class="aaf38407-b0fc-49ac-b8ee-199ac315c687" points="40 40 20 20 13.98 26.02 27.96 40 40 40"/><path class="b82c5ded-2dc1-49d0-b445-3b15ae4a57de" d="M53.78,19.7,50,14.44h1.7l3,4.35,3-4.35h1.65L55.62,19.7l4.1,5.86H58l-3.3-4.93-3.32,4.93H49.73Z"/><path class="b82c5ded-2dc1-49d0-b445-3b15ae4a57de" d="M68.85,16.73a3.1,3.1,0,0,0-1.24-1,3.6,3.6,0,0,0-1.54-.34,3.82,3.82,0,0,0-1.7.38,4.35,4.35,0,0,0-1.35,1A4.87,4.87,0,0,0,61.83,20a5.1,5.1,0,0,0,.31,1.81A4.58,4.58,0,0,0,63,23.28a4.22,4.22,0,0,0,1.34,1,4,4,0,0,0,1.72.36,4,4,0,0,0,1.82-.4,4.07,4.07,0,0,0,1.4-1.16l1,.84a4.54,4.54,0,0,1-1.81,1.47,5.78,5.78,0,0,1-2.4.47,5.51,5.51,0,0,1-2.23-.44A5.44,5.44,0,0,1,62,24.19a5.5,5.5,0,0,1-1.19-1.85,6.45,6.45,0,0,1,0-4.63,5.5,5.5,0,0,1,5.24-3.55,6,6,0,0,1,2.18.4A4.09,4.09,0,0,1,70,15.9Z"/><path class="b82c5ded-2dc1-49d0-b445-3b15ae4a57de" d="M75.73,14.44H77L81.7,25.56H80.16L79,22.83H73.47l-1.15,2.73H70.83Zm.6,1.69h0L74,21.6h4.54Z"/><path class="b82c5ded-2dc1-49d0-b445-3b15ae4a57de" d="M83.18,14.44H86a14.17,14.17,0,0,1,1.6.09,4.44,4.44,0,0,1,1.42.41,2.58,2.58,0,0,1,1,.92,3,3,0,0,1,.39,1.64,2.7,2.7,0,0,1-.73,2,3.62,3.62,0,0,1-2,1l3.16,5.12H89.21l-3-5H84.5v5H83.18Zm1.32,4.9h1.18l1.14,0a3.7,3.7,0,0,0,1.08-.21,1.84,1.84,0,0,0,.82-.54A1.58,1.58,0,0,0,89,17.5a1.79,1.79,0,0,0-.23-1,1.6,1.6,0,0,0-.63-.55,2.34,2.34,0,0,0-.86-.26,6.24,6.24,0,0,0-1-.07H84.5Z"/><path class="b82c5ded-2dc1-49d0-b445-3b15ae4a57de" d="M92.78,14.44h7v1.22H94.1v3.49h5.29v1.23H94.1v4h6v1.22H92.78Z"/><path class="b82c5ded-2dc1-49d0-b445-3b15ae4a57de" d="M109.56,15.66h-3.68v9.9h-1.32v-9.9h-3.67V14.44h8.67Z"/><path class="b82c5ded-2dc1-49d0-b445-3b15ae4a57de" d="M111.92,23.77a1,1,0,0,1,.94.94.88.88,0,0,1-.29.67.91.91,0,0,1-1.31,0,.88.88,0,0,1-.29-.67.91.91,0,0,1,.28-.66A.88.88,0,0,1,111.92,23.77Zm.66-1.32h-1.32v-8h1.32Z"/></svg>