<?xml version="1.0" encoding="utf-8"?>
<!-- Generator: Adobe Illustrator 24.2.0, SVG Export Plug-In . SVG Version: 6.00 Build 0)  -->
<svg version="1.1" id="Capa_1" xmlns="http://www.w3.org/2000/svg" xmlns:xlink="http://www.w3.org/1999/xlink" x="0px" y="0px"
	 viewBox="0 0 142.3 122.2" style="enable-background:new 0 0 142.3 122.2;" xml:space="preserve">
<style type="text/css">
	.st0{clip-path:url(#SVGID_2_);fill:#88B140;}
	.st1{clip-path:url(#SVGID_2_);fill:#FFFFFF;}
	.st2{clip-path:url(#SVGID_2_);fill:#252442;}
	.st3{clip-path:url(#SVGID_4_);fill:#FFFFFF;}
	.st4{clip-path:url(#SVGID_4_);fill:#88B140;}
	.st5{fill:#252442;}
	.st6{fill:#4BB0E0;}
	.st7{fill:#8900A8;}
	.st8{fill:#F06F13;}
	.st9{fill:#94B941;}
	.st10{fill:#CE0083;}
	.st11{fill:#214385;}
	.st12{fill:#008538;}
	.st13{fill:#FFAC00;}
	.st14{fill:none;}
</style>
<g>
	<g>
		<defs>
			<rect id="SVGID_1_" x="0.1" width="142.3" height="122"/>
		</defs>
		<clipPath id="SVGID_2_">
			<use xlink:href="#SVGID_1_"  style="overflow:visible;"/>
		</clipPath>
		<path class="st0" d="M122.1,61c0,33.7-27.3,61-61,61c-33.7,0-61-27.3-61-61c0-33.7,27.3-61,61-61C94.7,0,122.1,27.3,122.1,61"/>
		<rect x="101.7" y="81.3" class="st1" width="40.7" height="40.7"/>
		<rect x="61.1" y="81.3" class="st2" width="40.7" height="40.7"/>
	</g>
	<g>
		<defs>
			<rect id="SVGID_3_" x="61.1" y="81.3" width="40.7" height="40.7"/>
		</defs>
		<clipPath id="SVGID_4_">
			<use xlink:href="#SVGID_3_"  style="overflow:visible;"/>
		</clipPath>
		<path class="st3" d="M67,94.3c0.2,0,0.5,0,0.8,0c0.3,0,0.5,0,0.8,0v0.2h-0.1c-0.1,0-0.3,0-0.3,0.2c0,0.1,0,0.2,0.1,0.3l0.9,2.6h0
			l1-3.3h0.2l1.1,3.3h0l0.8-2.3c0-0.1,0.1-0.4,0.1-0.5c0-0.2-0.1-0.2-0.3-0.2h-0.1v-0.2c0.2,0,0.4,0,0.7,0c0.2,0,0.5,0,0.7,0v0.2
			h-0.1c-0.2,0-0.4,0.1-0.5,0.4l-1.2,3.6h-0.2l-1.1-3.3h0l-1.1,3.3h-0.2l-1.3-3.6c-0.1-0.3-0.3-0.4-0.5-0.4H67V94.3z"/>
		<path class="st3" d="M75.4,94.2c1.2,0,2.3,0.9,2.3,2.1c0,1-0.8,2.1-2.3,2.1c-1.3,0-2.3-0.9-2.3-2.1C73.1,95.1,74.2,94.2,75.4,94.2
			 M75.4,94.5c-0.9,0-1.7,0.5-1.7,1.8c0,0.9,0.7,1.9,1.7,1.9c1.1,0,1.7-0.8,1.7-1.8C77.1,95.5,76.5,94.5,75.4,94.5"/>
		<path class="st3" d="M77.9,98.2H78c0.3,0,0.4-0.1,0.4-0.5V95c0-0.4-0.1-0.5-0.4-0.5h-0.1v-0.2c0.2,0,0.5,0,0.8,0c0.4,0,0.7,0,1,0
			c1.1,0,1.3,0.8,1.3,1.1c0,0.7-0.6,1-0.9,1.1l0.8,1.3c0.3,0.5,0.4,0.5,0.9,0.6v0.1c-0.1,0-0.2,0-0.3,0c-0.5,0-0.8-0.1-1.1-0.6
			l-0.7-1.1c-0.1-0.2-0.2-0.2-0.7-0.2v1.1c0,0.5,0.1,0.6,0.4,0.6h0.2v0.2c-0.3,0-0.5,0-0.8,0c-0.3,0-0.6,0-0.8,0V98.2z M78.9,96.3
			c0.1,0,0.3,0,0.4,0c0.6,0,1-0.2,1-0.8c0-0.3-0.2-0.9-1.1-0.9c-0.1,0-0.3,0-0.4,0V96.3z"/>
		<path class="st3" d="M82,98.2h0.1c0.3,0,0.4-0.1,0.4-0.5V95c0-0.4-0.1-0.5-0.4-0.5H82v-0.2c0.2,0,0.5,0,0.8,0c0.3,0,0.5,0,0.8,0
			v0.2h-0.1c-0.3,0-0.4,0.1-0.4,0.5v2.6c0,0.4,0.1,0.6,0.9,0.6c1,0,1.1-0.2,1.2-0.8h0.2l0,1c-0.5,0-1.2,0-1.8,0c-0.7,0-1.3,0-1.5,0
			V98.2z"/>
		<path class="st3" d="M85.7,98.2h0.1c0.3,0,0.4-0.1,0.4-0.5V95c0-0.4-0.1-0.5-0.4-0.5h-0.1v-0.2c0.2,0,0.5,0,0.8,0c0.5,0,1,0,1.5,0
			c1.7,0,2.3,1.3,2.3,2c0,0.8-0.6,2.1-2.5,2.1c-0.4,0-0.8,0-1.3,0c-0.3,0-0.6,0-0.8,0V98.2z M86.7,97.6c0,0.4,0.2,0.5,0.9,0.5
			c1.1,0,2-0.4,2-1.7c0-0.8-0.6-1.9-2.1-1.9c-0.3,0-0.5,0-0.8,0V97.6z"/>
		<path class="st3" d="M68.2,103.4h0.1c0.3,0,0.4-0.1,0.4-0.5v-3.1h-0.7c-0.7,0-0.7,0.4-0.8,0.8h-0.2v-1c0.2,0,1.2,0,2,0
			c0.7,0,1.8,0,2,0v1h-0.2c0-0.4-0.1-0.8-0.8-0.8h-0.7v3.1c0,0.5,0.1,0.5,0.4,0.5h0.1v0.2c-0.2,0-0.5,0-0.8,0c-0.3,0-0.6,0-0.8,0
			V103.4z"/>
		<path class="st3" d="M71.4,103.4h0.1c0.3,0,0.4-0.1,0.4-0.5v-2.8c0-0.4-0.1-0.5-0.4-0.5h-0.1v-0.2c0.2,0,0.5,0,0.8,0
			c0.4,0,0.7,0,1,0c1.1,0,1.3,0.8,1.3,1.1c0,0.7-0.6,1-0.9,1.1l0.8,1.3c0.3,0.5,0.4,0.5,0.9,0.5v0.1c-0.1,0-0.3,0-0.4,0.1
			c-0.5,0-0.7,0-1.1-0.5l-0.7-1.1c-0.1-0.2-0.2-0.2-0.7-0.2v1.1c0,0.5,0.1,0.6,0.4,0.6H73v0.2c-0.3,0-0.5,0-0.8,0
			c-0.3,0-0.6,0-0.8,0V103.4z M72.4,101.5c0.1,0,0.3,0,0.4,0c0.6,0,1-0.2,1-0.8c0-0.3-0.2-0.9-1.1-0.9c-0.1,0-0.3,0-0.4,0V101.5z"/>
		<path class="st3" d="M74.9,103.4L74.9,103.4c0.4,0,0.6-0.1,0.7-0.6l1.4-3.4h0.1l1.6,3.5c0.1,0.3,0.3,0.6,0.6,0.6h0.1v0.2
			c-0.2,0-0.5,0-0.8,0c-0.3,0-0.6,0-0.9,0v-0.2H78c0.2,0,0.3-0.1,0.3-0.2c0-0.1-0.1-0.2-0.1-0.3l-0.5-1h-1.4l-0.3,0.9
			c0,0.1-0.1,0.3-0.1,0.4c0,0.1,0.1,0.2,0.3,0.2h0.1v0.2c-0.2,0-0.5,0-0.8,0c-0.2,0-0.5,0-0.6,0V103.4z M77,100.1l-0.6,1.6h1.3
			L77,100.1z"/>
		<path class="st3" d="M78.3,99.5c0.2,0,0.6,0,0.9,0c0.3,0,0.6,0,0.8,0v0.2h-0.1c-0.3,0-0.4,0.1-0.4,0.2c0,0.1,0,0.2,0.1,0.4
			l1.2,2.6l1.2-2.6c0.1-0.2,0.1-0.3,0.1-0.4c0-0.1-0.1-0.2-0.2-0.2h-0.1v-0.2c0.2,0,0.4,0,0.7,0c0.2,0,0.4,0,0.7,0v0.2H83
			c-0.2,0-0.4,0.1-0.6,0.5l-1.6,3.4h-0.2l-1.6-3.5c-0.2-0.4-0.3-0.5-0.6-0.5h-0.1V99.5z"/>
		<path class="st3" d="M83.3,103.4h0.1c0.3,0,0.4-0.1,0.4-0.5v-2.8c0-0.4-0.1-0.5-0.4-0.5h-0.1v-0.2c0.2,0,0.9,0,1.5,0
			c0.7,0,1,0,1.5,0c0,0.4,0,0.7,0.1,1h-0.2c-0.1-0.4-0.1-0.8-1.2-0.8h-0.6v1.6h0.5c0.8,0,0.8-0.1,0.8-0.5h0.2c0,0.1,0,0.3,0,0.6
			c0,0.2,0,0.4,0,0.5h-0.2c0-0.3,0-0.4-0.7-0.4h-0.6v1.4c0,0.3,0.1,0.4,0.5,0.4H85c1,0,1.3-0.2,1.4-0.8h0.2c0,0.4-0.1,0.7-0.1,1
			c-0.4,0-1,0-1.7,0c-0.8,0-1.3,0-1.5,0V103.4z"/>
		<path class="st3" d="M86.9,103.4H87c0.3,0,0.4-0.1,0.4-0.5v-2.8c0-0.4-0.1-0.5-0.4-0.5h-0.1v-0.2c0.2,0,0.5,0,0.8,0
			c0.3,0,0.5,0,0.8,0v0.2h-0.1c-0.3,0-0.4,0.1-0.4,0.5v2.6c0,0.4,0.1,0.6,0.9,0.6c1,0,1.1-0.2,1.2-0.8h0.2l0,1c-0.5,0-1.2,0-1.8,0
			c-0.7,0-1.3,0-1.5,0V103.4z"/>
		<path class="st3" d="M93.9,101.4c0.2,0,0.3,0,0.6,0c0.4,0,0.6,0,0.8,0v0.2c-0.4,0-0.5,0.1-0.5,0.5c0,0.1-0.1,0.5-0.2,0.8
			c0.5,0.6,0.6,0.6,1.2,0.6v0.2c-0.1,0-0.3,0-0.5,0c-0.3,0-0.5,0-0.6,0l-0.4-0.4c-0.2,0.2-0.6,0.4-1.3,0.4c-0.8,0-1.3-0.5-1.3-1.1
			c0-0.4,0.3-0.8,0.9-1.1c-0.3-0.3-0.6-0.6-0.6-1c0-0.6,0.6-1,1.1-1c0.5,0,1,0.3,1,0.8c0,0.4-0.3,0.7-1,1.1l1.3,1.3
			c0.1-0.2,0.1-0.5,0.1-0.7c0-0.4-0.2-0.4-0.5-0.4V101.4z M92.5,101.6c-0.4,0.3-0.5,0.5-0.5,0.8c0,0.4,0.4,1,1.1,1
			c0.4,0,0.7-0.2,0.8-0.4L92.5,101.6z M92.8,99.7c-0.3,0-0.6,0.3-0.6,0.7c0,0.3,0.6,0.8,0.7,0.9c0.4-0.3,0.7-0.4,0.7-0.8
			C93.5,100.1,93.3,99.7,92.8,99.7"/>
		<path class="st3" d="M68.2,108.6h0.1c0.3,0,0.4-0.1,0.4-0.5v-3.1h-0.7c-0.7,0-0.7,0.4-0.8,0.8h-0.2v-1c0.2,0,1.2,0,2,0
			c0.7,0,1.8,0,2,0v1h-0.2c0-0.4-0.1-0.8-0.8-0.8h-0.7v3.1c0,0.5,0.1,0.5,0.4,0.5h0.1v0.2c-0.2,0-0.5,0-0.8,0c-0.3,0-0.6,0-0.8,0
			V108.6z"/>
		<path class="st3" d="M73.4,104.6c1.2,0,2.3,0.9,2.3,2.1c0,1-0.8,2.1-2.3,2.1c-1.3,0-2.3-0.9-2.3-2.1
			C71.1,105.5,72.2,104.6,73.4,104.6 M73.4,104.9c-0.9,0-1.7,0.5-1.7,1.8c0,0.9,0.7,1.9,1.7,1.9c1.1,0,1.7-0.8,1.7-1.8
			C75.1,105.9,74.5,104.9,73.4,104.9"/>
		<path class="st3" d="M77.3,104.9h-0.1c-0.2,0-0.4,0.1-0.4,0.6c0,0.6,0,1.2,0,1.8c0,0.5,0.1,0.7,0.3,0.9c0.2,0.3,0.5,0.5,1,0.5
			c0.6,0,1-0.3,1.2-0.5c0.2-0.3,0.3-0.6,0.3-1v-0.6c0-0.8-0.1-1.4-0.1-1.5c-0.1-0.1-0.1-0.2-0.3-0.2H79v-0.2c0.2,0,0.4,0,0.7,0
			c0.2,0,0.4,0,0.7,0v0.2h-0.1c-0.2,0-0.4,0.1-0.4,0.6v1.5c0,0.6-0.2,1.1-0.5,1.4c-0.3,0.3-0.8,0.5-1.3,0.5c-0.5,0-0.8-0.1-1.2-0.4
			c-0.4-0.3-0.6-0.8-0.6-1.3v-1.8c0-0.4-0.2-0.4-0.4-0.4h-0.1v-0.2c0.3,0,0.5,0,0.8,0c0.3,0,0.5,0,0.8,0V104.9z"/>
		<path class="st3" d="M80.7,108.6h0.1c0.3,0,0.4-0.1,0.4-0.5v-2.8c0-0.4-0.1-0.5-0.4-0.5h-0.1v-0.2c0.2,0,0.5,0,0.8,0
			c0.4,0,0.7,0,1,0c1.1,0,1.3,0.8,1.3,1.1c0,0.7-0.6,1-0.9,1.1l0.8,1.3c0.3,0.5,0.4,0.5,0.9,0.6v0.1c-0.1,0-0.2,0-0.3,0
			c-0.5,0-0.8-0.1-1.1-0.6l-0.7-1.1c-0.1-0.2-0.2-0.2-0.7-0.2v1.1c0,0.5,0.1,0.6,0.4,0.6h0.2v0.2c-0.3,0-0.5,0-0.8,0
			c-0.3,0-0.6,0-0.8,0V108.6z M81.8,106.7c0.1,0,0.3,0,0.4,0c0.6,0,1-0.2,1-0.8c0-0.3-0.2-0.9-1.1-0.9c-0.1,0-0.3,0-0.4,0V106.7z"/>
		<path class="st3" d="M84.8,108.6h0.1c0.3,0,0.4-0.1,0.4-0.5v-2.8c0-0.4-0.1-0.5-0.4-0.5h-0.1v-0.2c0.2,0,0.5,0,0.8,0
			c0.3,0,0.5,0,0.8,0v0.2h-0.1c-0.3,0-0.4,0.1-0.4,0.5v2.8c0,0.4,0.1,0.5,0.4,0.5h0.1v0.2c-0.3,0-0.5,0-0.8,0c-0.3,0-0.6,0-0.8,0
			V108.6z"/>
		<path class="st3" d="M89.4,105.7h-0.2c0-0.2-0.1-0.9-1-0.9c-0.5,0-0.8,0.3-0.8,0.7c0,0.3,0.2,0.6,0.7,0.8l0.6,0.2
			c0.4,0.2,0.9,0.5,0.9,1.1c0,0.7-0.5,1.2-1.5,1.2c-0.1,0-0.6,0-1.1-0.1l0-0.9h0.2c0,0.5,0.5,0.9,1.1,0.9c0.5,0,1-0.3,1-0.8
			c0-0.5-0.4-0.7-0.8-0.8l-0.7-0.3c-0.5-0.2-0.8-0.5-0.8-1c0-0.6,0.5-1.1,1.4-1.1c0.4,0,0.8,0.1,1.2,0.2V105.7z"/>
		<path class="st3" d="M90.1,108.6h0.1c0.3,0,0.4-0.1,0.4-0.8c0-0.8,0.1-1.6,0.1-2.4c0-0.4-0.1-0.5-0.5-0.5h-0.1v-0.2
			c0.2,0,0.3,0,0.5,0c0.2,0,0.4,0,0.5,0l1.7,3.3l1.5-3.3c0.2,0,0.4,0,0.6,0c0.2,0,0.4,0,0.6,0v0.2h-0.1c-0.3,0-0.5,0.1-0.5,0.5
			c0,0.3,0,1.7,0,2.6c0,0.6,0.1,0.7,0.4,0.7h0.1v0.2c-0.2,0-0.5,0-0.8,0c-0.3,0-0.6,0-0.8,0v-0.2H94c0.3,0,0.4-0.1,0.4-0.6v-2.9h0
			l-1.7,3.7h-0.1l-1.7-3.4h0v2.3c0,0.6,0.1,0.8,0.4,0.8h0.1v0.2c-0.2,0-0.4,0-0.7,0c-0.3,0-0.5,0-0.7,0V108.6z"/>
		<path class="st3" d="M71.4,110.9L71.4,110.9c-0.3-0.3-0.6-0.9-1.7-0.9c-1.3,0-1.7,1.1-1.7,1.9c0,1.4,1,1.8,1.7,1.8
			c1,0,1.4-0.5,1.7-0.8h0v0.4c-0.2,0.2-0.7,0.6-1.7,0.6c-1.4,0-2.4-0.8-2.4-2c0-1.1,0.8-2.2,2.3-2.2c0.6,0,1.2,0.2,1.4,0.2
			c0.1,0,0.2,0.1,0.3,0.1L71.4,110.9z"/>
		<path class="st3" d="M74,109.8c1.2,0,2.3,0.9,2.3,2.1c0,1-0.8,2.1-2.3,2.1c-1.3,0-2.3-0.9-2.3-2.1C71.7,110.7,72.8,109.8,74,109.8
			 M74,110.1c-0.9,0-1.7,0.5-1.7,1.8c0,0.9,0.7,1.9,1.7,1.9c1.1,0,1.7-0.8,1.7-1.8C75.7,111.1,75.1,110.1,74,110.1"/>
		<path class="st3" d="M77.9,110.1h-0.1c-0.2,0-0.4,0.1-0.4,0.6c0,0.6,0,1.2,0,1.8c0,0.5,0.1,0.7,0.3,0.9c0.2,0.3,0.5,0.5,1,0.5
			c0.6,0,1-0.3,1.2-0.5c0.2-0.3,0.3-0.6,0.3-1v-0.6c0-0.8-0.1-1.4-0.1-1.5c-0.1-0.1-0.1-0.2-0.3-0.2h-0.1v-0.2c0.2,0,0.4,0,0.7,0
			c0.2,0,0.4,0,0.7,0v0.2h-0.1c-0.2,0-0.4,0.1-0.4,0.6v1.5c0,0.6-0.2,1.1-0.5,1.4c-0.3,0.3-0.8,0.5-1.3,0.5c-0.5,0-0.8-0.1-1.2-0.4
			c-0.4-0.3-0.6-0.8-0.6-1.4v-1.8c0-0.4-0.2-0.4-0.4-0.4h-0.1v-0.2c0.3,0,0.5,0,0.8,0c0.3,0,0.5,0,0.8,0V110.1z"/>
		<path class="st3" d="M81.2,113.8L81.2,113.8c0.4,0,0.5-0.1,0.5-0.7c0-0.8,0-1.8,0-2.5c0-0.4-0.1-0.5-0.4-0.5h-0.2v-0.2
			c0.2,0,0.4,0,0.5,0c0.2,0,0.3,0,0.5,0l2.9,3.3h0l0-2.3c0-0.7-0.1-0.8-0.4-0.8h-0.1v-0.2c0.2,0,0.4,0,0.7,0c0.2,0,0.4,0,0.7,0v0.2
			h-0.1c-0.2,0-0.4,0.1-0.4,0.6l-0.1,3.3h-0.2l-3.1-3.5h0c0,0.9,0,1.8,0,2.6c0,0.5,0.1,0.6,0.4,0.6h0.1v0.2c-0.2,0-0.5,0-0.7,0
			c-0.2,0-0.5,0-0.7,0V113.8z"/>
		<path class="st3" d="M89.9,110.9L89.9,110.9c-0.3-0.3-0.6-0.9-1.7-0.9c-1.3,0-1.7,1.1-1.7,1.9c0,1.4,1.1,1.8,1.7,1.8
			c1,0,1.4-0.5,1.7-0.8h0v0.4c-0.2,0.2-0.7,0.6-1.7,0.6c-1.4,0-2.4-0.8-2.4-2c0-1.1,0.8-2.2,2.3-2.2c0.6,0,1.2,0.2,1.4,0.2
			c0.1,0,0.2,0.1,0.3,0.1L89.9,110.9z"/>
		<path class="st3" d="M90.3,113.8h0.1c0.3,0,0.4-0.1,0.4-0.5v-2.8c0-0.4-0.1-0.5-0.4-0.5h-0.1v-0.2c0.2,0,0.5,0,0.8,0
			c0.3,0,0.5,0,0.8,0v0.2h-0.1c-0.3,0-0.4,0.1-0.4,0.5v2.8c0,0.4,0.1,0.5,0.4,0.5h0.1v0.2c-0.3,0-0.5,0-0.8,0c-0.3,0-0.6,0-0.8,0
			V113.8z"/>
		<path class="st3" d="M92.4,113.8h0.1c0.3,0,0.4-0.1,0.4-0.5v-2.8c0-0.4-0.1-0.5-0.4-0.5h-0.1v-0.2c0.2,0,0.5,0,0.8,0
			c0.3,0,0.5,0,0.8,0v0.2h-0.1c-0.3,0-0.4,0.1-0.4,0.5v2.6c0,0.4,0.1,0.6,0.9,0.6c1,0,1.1-0.2,1.2-0.8h0.2l0,1c-0.5,0-1.2,0-1.8,0
			c-0.7,0-1.3,0-1.5,0V113.8z"/>
		<path class="st3" d="M95.5,92c0.1-0.3,0.2-0.7,0.2-1c0-0.4-0.1-0.8-0.2-1.2c-0.2-0.5-0.6-1-1.1-1.3c-0.5-0.3-1.1-0.5-1.7-0.5
			c-0.4,0-0.8,0.1-1.1,0.2c-0.1,0-0.1,0-0.2,0.1v1c0.1-0.1,0.3-0.2,0.5-0.3c0.3-0.1,0.5-0.2,0.8-0.2c0.3,0,0.6,0.1,0.9,0.2
			c0.4,0.2,0.7,0.5,1,0.8c0.2,0.4,0.4,0.8,0.4,1.2c0,0.2-0.1,0.5-0.1,0.8c-0.1,0.3-0.2,0.5-0.4,0.7l0,0l-3,4.5v1.5l3.7-5.5
			C95.2,92.6,95.4,92.3,95.5,92"/>
		<path class="st4" d="M94.4,91c0,1-0.8,1.8-1.8,1.8c-1,0-1.8-0.8-1.8-1.8c0-1,0.8-1.8,1.8-1.8C93.6,89.2,94.4,90,94.4,91"/>
	</g>
	<g>
		<path class="st5" d="M26.2,61.9h-3.8v5.5c0,1.3,0.7,1.8,2,1.8c0.6,0,0.9,0,1.2-0.2l-0.4,3.6c-0.5,0.2-1.3,0.4-2.2,0.4
			c-3.3,0-5.3-1.8-5.3-4.7v-6.4h-2.5V58h2.5v-3.2l4.8-1.7V58h4.8L26.2,61.9z"/>
		<path class="st5" d="M40.1,63.1c-0.3-0.2-0.9-0.4-1.4-0.4c-1.5,0-2.9,0.8-2.9,3.2v6.9h-4.8V58h4.7v3.3h0c0.5-2.3,2.2-3.6,4.2-3.6
			c0.5,0,1,0.1,1.4,0.2L40.1,63.1z"/>
		<path class="st5" d="M53.7,73.4c-0.9-0.2-1.9-0.9-2.3-2c-0.7,1.2-2.1,1.8-3.8,1.8c-2.6,0-4.9-1.8-4.9-4.9c0-2.7,2.1-4.5,5.1-4.8
			l2.9-0.3v-0.5c0-0.9-0.7-1.5-2.3-1.5c-1.4,0-3,0.5-4.1,1.1l-0.8-3.6c1.2-0.8,3.2-1.3,5.2-1.3c3.9,0,6.7,1.8,6.7,5.3v4.8
			c0,1.7,0.7,2.6,1.8,3.1L53.7,73.4z M50.7,66.3l-1.8,0.2c-1.2,0.1-1.8,1-1.8,1.9c0,0.8,0.6,1.4,1.5,1.4c1.1,0,2.1-0.9,2.1-2.2V66.3
			z"/>
		<path class="st5" d="M65.8,72.9h-3.6L56.5,58h4.6l2.1,5.6c0.3,0.8,0.6,1.9,0.8,2.9h0.1c0.2-0.9,0.6-2.1,0.8-2.9L67,58h4.4
			L65.8,72.9z"/>
		<path class="st5" d="M86.4,64.5l-2.1,2.2H77c0.2,1.2,1.9,2.6,4.4,2.6c1.5,0,3.1-0.5,4.1-1.1L85,72.3c-1.1,0.6-2.8,1-4.7,1
			c-4.5,0-8.1-3.1-8.1-8c0-4.8,3.5-7.8,7.7-7.8c4.1,0,6.6,2.8,6.6,5.9C86.5,63.8,86.4,64.3,86.4,64.5 M79.9,61.1
			c-1.4,0-2.6,1.1-2.9,2.4h5c0-0.1,0-0.2,0-0.3C82,62.2,81.2,61.1,79.9,61.1"/>
		<path class="st5" d="M94.1,73.4c-3-0.1-5.1-1.7-5.1-5.3V49.5h4.7v18c0,1.2,0.7,1.9,2,2L94.1,73.4z"/>
		<path class="st5" d="M102.7,73.1c-2,0-3.5-0.4-4.7-1l-0.4-4.2c1.3,0.9,3,1.6,4.6,1.6c0.9,0,1.4-0.5,1.4-1c0-0.6-0.5-0.9-1.3-1.1
			c-2.8-0.8-4.5-2.3-4.5-4.8c0-2.9,2.3-4.8,5.5-4.8c1.8,0,3.6,0.5,4.4,0.9l-0.8,3.5c-0.7-0.4-1.9-0.8-3.1-0.8
			c-0.8,0-1.3,0.4-1.3,0.9c0,0.6,0.4,0.8,1.3,1.1c3.3,0.9,4.7,2.5,4.7,5C108.6,70.8,106.7,73.1,102.7,73.1"/>
		<path class="st5" d="M22.3,83.8c-0.2,0-0.3-0.2-0.4-0.4c-0.1,0.3-0.3,0.4-0.6,0.4c-0.4,0-0.7-0.3-0.7-0.7c0-0.4,0.4-0.7,0.7-0.7
			l0.6-0.1v-0.2c0-0.2-0.2-0.4-0.5-0.4c-0.2,0-0.5,0.1-0.6,0.2l-0.1-0.3c0.2-0.1,0.4-0.2,0.7-0.2c0.5,0,0.9,0.3,0.9,0.8v1
			c0,0.2,0.1,0.3,0.3,0.4L22.3,83.8z M21.9,82.7l-0.5,0c-0.3,0-0.4,0.2-0.4,0.4c0,0.2,0.2,0.3,0.4,0.3c0.3,0,0.5-0.2,0.5-0.5V82.7z"
			/>
		<path class="st5" d="M23.9,83.8c-0.3,0-0.5-0.1-0.6-0.2v1.3h-0.4v-3.4h0.4v0.2h0c0.1-0.1,0.3-0.3,0.7-0.3c0.5,0,1.1,0.4,1.1,1.2
			C25,83.3,24.5,83.8,23.9,83.8 M23.8,81.8c-0.3,0-0.5,0.1-0.6,0.3v1.1c0.1,0.1,0.3,0.2,0.6,0.2c0.4,0,0.8-0.3,0.8-0.8
			C24.6,82.1,24.3,81.8,23.8,81.8"/>
		<path class="st5" d="M26.5,83.8c-0.3,0-0.5-0.1-0.6-0.2v1.3h-0.4v-3.4h0.4v0.2h0c0.1-0.1,0.3-0.3,0.7-0.3c0.5,0,1.1,0.4,1.1,1.2
			C27.7,83.3,27.2,83.8,26.5,83.8 M26.5,81.8c-0.3,0-0.5,0.1-0.6,0.3v1.1c0.1,0.1,0.3,0.2,0.6,0.2c0.4,0,0.8-0.3,0.8-0.8
			C27.3,82.1,26.9,81.8,26.5,81.8"/>
		<path class="st5" d="M29.3,81.9c0,0-0.1,0-0.2,0c-0.3,0-0.6,0.2-0.6,0.8v1.1h-0.4v-2.3h0.4V82h0c0.1-0.3,0.3-0.5,0.7-0.5
			c0.1,0,0.2,0,0.2,0L29.3,81.9z"/>
		<path class="st5" d="M30.6,83.8c-0.7,0-1.2-0.5-1.2-1.2c0-0.7,0.5-1.2,1.2-1.2c0.7,0,1.2,0.5,1.2,1.2
			C31.8,83.3,31.3,83.8,30.6,83.8 M30.6,81.8c-0.4,0-0.8,0.3-0.8,0.8c0,0.5,0.4,0.8,0.8,0.8c0.4,0,0.8-0.3,0.8-0.8
			C31.4,82.1,31.1,81.8,30.6,81.8"/>
		<path class="st5" d="M33.1,83.8H33L32,81.5h0.4l0.5,1.1c0.1,0.2,0.1,0.4,0.2,0.5h0c0.1-0.2,0.1-0.4,0.2-0.5l0.4-1.1h0.4L33.1,83.8
			z"/>
		<path class="st5" d="M36.4,82.5l-0.2,0.2h-1.5c0,0.4,0.3,0.8,0.9,0.8c0.3,0,0.5-0.1,0.7-0.2l0,0.4c-0.2,0.1-0.4,0.2-0.7,0.2
			c-0.6,0-1.2-0.5-1.2-1.2c0-0.7,0.6-1.2,1.1-1.2c0.6,0,1,0.4,1,0.9C36.4,82.4,36.4,82.4,36.4,82.5 M35.4,81.8
			c-0.3,0-0.7,0.3-0.7,0.6H36c0,0,0,0,0-0.1C36,82.1,35.8,81.8,35.4,81.8"/>
		<path class="st5" d="M38.5,83.8v-0.2h0c-0.1,0.1-0.3,0.3-0.7,0.3c-0.5,0-1.1-0.4-1.1-1.2c0-0.7,0.5-1.2,1.2-1.2
			c0.3,0,0.5,0.1,0.6,0.2v-1.5h0.4v3.6H38.5z M38.5,82c-0.1-0.1-0.3-0.2-0.6-0.2c-0.4,0-0.8,0.3-0.8,0.8c0,0.5,0.4,0.8,0.8,0.8
			c0.3,0,0.5-0.1,0.6-0.3V82z"/>
		<path class="st5" d="M41.6,83.8c-0.4,0-0.8-0.1-0.9-0.3v-3.3h0.4v1.5c0.1-0.1,0.4-0.2,0.7-0.2c0.7,0,1.1,0.5,1.1,1.2
			C42.9,83.3,42.4,83.8,41.6,83.8 M41.7,81.8c-0.3,0-0.5,0.1-0.6,0.2v1.3c0.1,0.1,0.3,0.1,0.5,0.1c0.5,0,0.9-0.4,0.9-0.9
			C42.5,82.1,42.1,81.8,41.7,81.8"/>
		<path class="st5" d="M44.3,83.6c-0.3,0.8-0.7,1.2-1.1,1.4l-0.2-0.2c0.4-0.2,0.7-0.5,1-1.1l-0.9-2.1h0.4l0.4,1.1
			c0.1,0.2,0.1,0.4,0.2,0.6h0c0.1-0.2,0.2-0.4,0.2-0.6l0.4-1.1h0.4L44.3,83.6z"/>
		<path class="st5" d="M36.6,48.5c-2.3,0-4.6-0.7-5.8-1.4l-0.5-4.7c1.7,1.2,3.9,2,6,2c1.8,0,2.9-0.8,2.9-2.1c0-1.2-0.8-1.9-2.7-2.4
			c-4.1-1.1-6-3.4-6-6.5c0-3.5,2.6-6.2,7.1-6.2c2.4,0,4.4,0.7,5.2,1.2L42,32.3c-0.8-0.5-2.5-1.1-3.9-1.1c-1.8,0-2.6,0.8-2.6,1.8
			c0,1,0.9,1.6,2.5,2.1c4,1.1,6.4,3.2,6.4,6.8C44.3,45.9,41.7,48.5,36.6,48.5"/>
		<path class="st5" d="M57.8,48.8c-0.9-0.2-1.9-0.9-2.3-2c-0.7,1.2-2.1,1.8-3.8,1.8c-2.6,0-4.9-1.8-4.9-4.9c0-2.7,2.1-4.5,5.1-4.8
			l2.9-0.3v-0.5c0-0.9-0.7-1.5-2.3-1.5c-1.4,0-3,0.5-4.1,1.1l-0.8-3.6c1.2-0.8,3.2-1.3,5.2-1.3c3.9,0,6.7,1.8,6.7,5.3v4.8
			c0,1.7,0.7,2.6,1.8,3.1L57.8,48.8z M54.8,41.7L53,41.9c-1.2,0.1-1.8,1-1.8,1.9c0,0.8,0.6,1.4,1.5,1.4c1.1,0,2.1-0.9,2.1-2.2V41.7z
			"/>
		<path class="st5" d="M73.7,29.2c-0.6-0.2-1.3-0.4-1.9-0.4c-1.8,0-2.7,1-2.7,3.2v1.4h4.2l-0.9,3.9h-3.3v10.9h-4.6V37.3h-2.3v-3.9
			h2.3v-1.7c0-4.5,2.9-6.7,6.6-6.7c1.4,0,2.7,0.2,3.5,0.5L73.7,29.2z"/>
		<path class="st5" d="M88.2,40l-2.1,2.2h-7.2c0.2,1.2,1.9,2.6,4.4,2.6c1.5,0,3.1-0.5,4.1-1.1l-0.5,4.1c-1.1,0.6-2.8,1-4.7,1
			c-4.5,0-8.1-3.1-8.1-8c0-4.8,3.5-7.8,7.7-7.8c4.1,0,6.6,2.8,6.6,5.9C88.3,39.2,88.3,39.7,88.2,40 M81.7,36.5
			c-1.4,0-2.6,1.1-2.9,2.4h5c0-0.1,0-0.2,0-0.3C83.9,37.6,83,36.5,81.7,36.5"/>
	</g>
	<g>
		<g>
			<g>
				<g>
					<polygon class="st6" points="110.8,85.7 122.2,97.1 118.7,100.5 110.8,92.6 					"/>
					<polygon class="st7" points="133.6,85.7 122.2,97.1 118.7,93.7 126.7,85.7 					"/>
					<polygon class="st8" points="133.6,108.5 122.2,97.1 125.6,93.7 133.6,101.7 					"/>
					<polygon class="st9" points="110.8,108.5 122.2,97.1 125.6,100.5 117.6,108.5 					"/>
					<polygon class="st10" points="133.6,85.7 122.2,97.1 125.6,100.5 133.6,92.6 					"/>
					<polygon class="st11" points="110.8,85.7 122.2,97.1 125.6,93.7 117.6,85.7 					"/>
					<polygon class="st12" points="110.8,108.5 122.2,97.1 118.7,93.7 110.8,101.7 					"/>
					<polygon class="st13" points="133.6,108.5 122.2,97.1 118.7,100.5 126.7,108.5 					"/>
				</g>
			</g>
		</g>
		<g>
			<path d="M132.6,112c-0.5,0-0.9-0.4-0.9-0.9c0-0.5,0.4-0.9,0.9-0.9c0.5,0,0.9,0.4,0.9,0.9C133.6,111.6,133.1,112,132.6,112z
				 M132.6,110.4c-0.3,0-0.5,0.1-0.6,0.4c0,0.1-0.1,0.2-0.1,0.3c0,0.1,0,0.2,0.1,0.3c0.1,0.3,0.3,0.4,0.6,0.4c0.3,0,0.5-0.2,0.6-0.4
				c0-0.1,0-0.2,0-0.2C133.3,110.7,133,110.4,132.6,110.4z"/>
			<path d="M122.3,112c-0.4,0-0.7-0.3-0.7-0.7v-1.1h0.3v1.1c0,0.3,0.2,0.5,0.5,0.5c0.3,0,0.5-0.2,0.5-0.5v-1.1h0.3v1.1
				C123,111.7,122.7,112,122.3,112z"/>
			<path d="M117.3,112h0.3l-0.4-0.7c0.1,0,0.2-0.1,0.2-0.1c0.1-0.1,0.1-0.1,0.1-0.2c0,0,0,0,0,0c0,0,0,0,0,0c0,0,0,0,0,0
				c0,0,0,0,0,0c0,0,0,0,0,0c0,0,0,0,0,0c0,0,0,0,0,0c0,0,0,0,0,0c0,0,0,0,0,0c0,0,0,0,0,0c0,0,0,0,0,0c0,0,0,0,0,0c0,0,0,0,0,0
				c0,0,0,0,0,0c0,0,0,0,0,0c0,0,0,0,0,0h0c0-0.1-0.1-0.2-0.1-0.3c-0.1-0.1-0.3-0.1-0.5-0.1h-0.6v0.4v0.7v0.6h0.3v-0.6h0.2
				L117.3,112z M116.6,110.4h0.3c0.2,0,0.3,0.1,0.4,0.2c0,0,0,0.1,0,0.2c0,0,0,0.1,0,0.1c0,0,0,0,0,0c0,0,0,0,0,0c0,0,0,0,0,0
				c0,0,0,0,0,0c0,0,0,0,0,0c0,0,0,0,0,0c0,0,0,0-0.1,0.1c0,0,0,0,0,0c0,0,0,0,0,0c0,0-0.1,0-0.1,0.1c0,0,0,0,0,0c0,0,0,0,0,0
				c0,0-0.1,0-0.1,0h-0.3v-0.5V110.4z"/>
			<path d="M127.9,110.9C127.9,110.9,127.9,110.9,127.9,110.9C127.9,110.9,127.9,110.9,127.9,110.9
				C127.9,110.9,127.9,110.8,127.9,110.9c0-0.1,0-0.1,0-0.1c0,0,0,0,0,0c0,0,0,0,0,0c0,0,0,0,0,0c0,0,0,0,0,0c0,0,0,0,0,0
				c0,0,0,0,0,0c0,0,0,0,0,0c0,0,0,0,0,0c0,0,0,0,0,0c0,0,0,0,0,0h0c0-0.1-0.1-0.2-0.1-0.3c-0.1-0.1-0.3-0.1-0.5-0.1h-0.6v0.4v0.7
				v0.6h0.3v-0.6h0.3c0.2,0,0.3,0,0.5-0.1C127.8,111.1,127.8,111,127.9,110.9C127.8,111,127.8,111,127.9,110.9
				C127.9,110.9,127.9,110.9,127.9,110.9z M126.9,110.4h0.3c0.2,0,0.3,0.1,0.4,0.2c0,0,0,0.1,0,0.2c0,0,0,0.1,0,0.1c0,0,0,0,0,0
				c0,0,0,0,0,0c0,0,0,0,0,0c0,0,0,0,0,0c0,0,0,0,0,0c0,0,0,0,0,0c0,0,0,0-0.1,0.1c0,0,0,0,0,0c0,0,0,0,0,0c0,0-0.1,0-0.1,0.1
				c0,0,0,0,0,0c0,0,0,0,0,0c0,0-0.1,0-0.1,0h-0.3v-0.5V110.4z"/>
			<path d="M112.5,111.1L112.5,111.1h-0.8v0.2h0.6c-0.1,0.2-0.3,0.4-0.6,0.4c-0.4,0-0.7-0.3-0.7-0.7s0.3-0.7,0.7-0.7
				c0.2,0,0.4,0.1,0.5,0.2v0c0,0,0,0,0,0h0.3c0-0.1-0.1-0.1-0.1-0.2v0c-0.2-0.2-0.4-0.3-0.7-0.3c-0.5,0-0.9,0.4-0.9,0.9
				s0.4,0.9,0.9,0.9c0.5,0,0.9-0.4,0.9-0.9H112.5z"/>
		</g>
		<g>
			<path d="M122.6,114L122.6,114c-0.4-0.3-0.8-0.4-1.2-0.4c-0.4,0-0.8,0.1-1.2,0.4c-0.6,0.4-0.9,1-0.9,1.7c0,0.4,0.1,0.9,0.4,1.2
				c0.4,0.5,1,0.8,1.6,0.8h0.1c0.4,0,0.8-0.1,1.2-0.4v0.4h0.8v-4.1h-0.8V114z M122.6,115.7c0,0.2-0.1,0.4-0.2,0.7
				c-0.3,0.3-0.6,0.5-1,0.5h-0.1c-0.2,0-0.4,0-0.6-0.1c-0.4-0.3-0.7-0.6-0.7-1.1c0-0.2,0.1-0.5,0.2-0.7c0.3-0.3,0.6-0.5,1-0.5
				c0.2,0,0.4,0.1,0.6,0.2C122.4,114.9,122.6,115.2,122.6,115.7L122.6,115.7z"/>
			<path d="M118.4,116.4c-0.3,0.4-0.6,0.6-1,0.6c-0.2,0-0.4-0.1-0.6-0.2c-0.4-0.3-0.6-0.6-0.6-1.1c0-0.2,0.1-0.4,0.2-0.6
				c0.3-0.4,0.6-0.6,1-0.6c0.4,0,0.8,0.2,1,0.6c0,0,0,0,0,0l0.5-0.6c-0.4-0.5-0.9-0.7-1.6-0.7c-0.5,0-1,0.2-1.4,0.5
				c-0.4,0.4-0.7,0.9-0.7,1.5c0,0.5,0.1,0.9,0.4,1.3c0.4,0.5,1,0.8,1.6,0.8h0c0.5,0,0.9-0.2,1.3-0.5c0.1-0.1,0.2-0.2,0.3-0.3
				L118.4,116.4L118.4,116.4z"/>
			<path d="M128.8,113.6c-0.5,0-0.9,0.2-1.3,0.5c-0.5,0.4-0.7,1-0.7,1.6c0,0.5,0.2,0.9,0.5,1.3c0.4,0.5,1,0.7,1.6,0.7h0
				c0.5,0,1-0.2,1.4-0.5l-0.5-0.6l0,0c-0.3,0.2-0.6,0.4-0.9,0.4c-0.2,0-0.4,0-0.6-0.1c-0.3-0.2-0.5-0.4-0.6-0.7h3.2
				c0-0.1,0-0.3,0-0.4c0-0.5-0.2-0.9-0.5-1.3C129.9,113.9,129.4,113.6,128.8,113.6z M127.6,115.3l0.1-0.2c0.3-0.4,0.6-0.6,1.1-0.6
				c0.2,0,0.4,0.1,0.6,0.2c0.3,0.2,0.5,0.4,0.6,0.7H127.6z"/>
			<path d="M126.7,113.6c-0.7,0-1.2,0.2-1.6,0.5h0v-0.5h-0.8v4.1h0.8v-2c0-0.1,0-0.3,0.1-0.4c0.2-0.6,0.8-0.8,1.5-0.8V113.6z"/>
			<g>
				<polygon points="113.6,115.7 115.3,113.6 114.2,113.6 114.1,113.7 113.1,115 111.9,113.6 111.9,113.6 111.9,113.6 110.8,113.6 
					111,113.8 112.5,115.7 112.5,115.7 110.8,117.7 110.8,117.7 111.9,117.7 113,116.3 114.2,117.7 115.3,117.7 				"/>
			</g>
			<polygon points="133.6,113.6 132.6,113.6 132.6,112.9 131.8,112.9 131.8,113.6 130.8,113.6 130.8,114.4 131.8,114.4 131.8,117.7 
				132.6,117.7 132.6,114.4 133.6,114.4 			"/>
		</g>
		<path class="st14" d="M133.5,108.6"/>
		<path class="st14" d="M110.7,85.9"/>
		<g>
			<path d="M134.3,87.2c0-0.2,0-0.4,0.1-0.5c0.1-0.2,0.2-0.3,0.3-0.4c0.1-0.1,0.3-0.2,0.4-0.3c0.2-0.1,0.3-0.1,0.5-0.1
				c0.2,0,0.3,0,0.5,0.1c0.2,0.1,0.3,0.2,0.4,0.3c0.1,0.1,0.2,0.3,0.3,0.4c0.1,0.2,0.1,0.3,0.1,0.5c0,0.2,0,0.4-0.1,0.5
				c-0.1,0.2-0.2,0.3-0.3,0.4c-0.1,0.1-0.3,0.2-0.4,0.3c-0.2,0.1-0.3,0.1-0.5,0.1c-0.2,0-0.3,0-0.5-0.1c-0.2-0.1-0.3-0.2-0.4-0.3
				c-0.1-0.1-0.2-0.3-0.3-0.4C134.4,87.5,134.3,87.4,134.3,87.2z M134.6,87.2c0,0.2,0,0.3,0.1,0.4c0.1,0.1,0.1,0.3,0.2,0.4
				c0.1,0.1,0.2,0.2,0.3,0.2c0.1,0.1,0.3,0.1,0.4,0.1c0.1,0,0.3,0,0.4-0.1c0.1-0.1,0.2-0.1,0.3-0.2c0.1-0.1,0.2-0.2,0.2-0.4
				c0.1-0.1,0.1-0.3,0.1-0.4c0-0.2,0-0.3-0.1-0.4c-0.1-0.1-0.1-0.3-0.2-0.4c-0.1-0.1-0.2-0.2-0.3-0.2c-0.1-0.1-0.3-0.1-0.4-0.1
				c-0.1,0-0.3,0-0.4,0.1c-0.1,0.1-0.2,0.1-0.3,0.2c-0.1,0.1-0.2,0.2-0.2,0.4C134.6,86.9,134.6,87,134.6,87.2z M135.1,86.4h0.6
				c0.4,0,0.5,0.1,0.5,0.4c0,0.1,0,0.2-0.1,0.3c-0.1,0.1-0.2,0.1-0.3,0.1l0.4,0.7H136l-0.4-0.7h-0.2v0.7h-0.2V86.4z M135.4,87.1h0.2
				c0.1,0,0.1,0,0.2,0c0,0,0.1,0,0.1,0c0,0,0.1,0,0.1-0.1c0,0,0-0.1,0-0.1c0-0.1,0-0.1,0-0.1c0,0,0-0.1-0.1-0.1c0,0-0.1,0-0.1,0
				c0,0-0.1,0-0.1,0h-0.3V87.1z"/>
		</g>
	</g>
</g>
</svg>
