<?xml version="1.0" encoding="utf-8"?>
<!-- Generator: Adobe Illustrator 24.2.1, SVG Export Plug-In . SVG Version: 6.00 Build 0)  -->
<svg version="1.1" id="Capa_1" xmlns="http://www.w3.org/2000/svg" xmlns:xlink="http://www.w3.org/1999/xlink" x="0px" y="0px"
	 viewBox="0 0 1266.9 122.2" style="enable-background:new 0 0 1266.9 122.2;" xml:space="preserve">
<style type="text/css">
	.st0{opacity:0.8;fill:#88B140;enable-background:new    ;}
	.st1{fill:none;}
	.st2{fill:#59A7D7;}
	.st3{fill:#8A009F;}
	.st4{fill:#E57015;}
	.st5{fill:#8AB044;}
	.st6{fill:#C30084;}
	.st7{fill:#214385;}
	.st8{fill:#008538;}
	.st9{fill:#FFA200;}
	.st10{fill:#FFFFFF;}
	.st11{fill:none;stroke:#4FFFD3;stroke-width:0.6602;stroke-miterlimit:10;}
	.st12{clip-path:url(#SVGID_2_);}
	.st13{clip-path:url(#SVGID_4_);fill:#88B140;}
	.st14{clip-path:url(#SVGID_6_);fill:#FFFFFF;}
	.st15{clip-path:url(#SVGID_8_);fill:#252442;}
	.st16{clip-path:url(#SVGID_10_);fill:#FFFFFF;}
	.st17{clip-path:url(#SVGID_12_);fill:#FFFFFF;}
	.st18{clip-path:url(#SVGID_14_);fill:#FFFFFF;}
	.st19{clip-path:url(#SVGID_16_);fill:#FFFFFF;}
	.st20{clip-path:url(#SVGID_18_);fill:#FFFFFF;}
	.st21{clip-path:url(#SVGID_20_);fill:#FFFFFF;}
	.st22{clip-path:url(#SVGID_22_);fill:#FFFFFF;}
	.st23{clip-path:url(#SVGID_24_);fill:#FFFFFF;}
	.st24{clip-path:url(#SVGID_26_);fill:#FFFFFF;}
	.st25{clip-path:url(#SVGID_28_);fill:#FFFFFF;}
	.st26{clip-path:url(#SVGID_30_);fill:#FFFFFF;}
	.st27{clip-path:url(#SVGID_32_);fill:#FFFFFF;}
	.st28{clip-path:url(#SVGID_34_);fill:#FFFFFF;}
	.st29{clip-path:url(#SVGID_36_);fill:#FFFFFF;}
	.st30{clip-path:url(#SVGID_38_);fill:#FFFFFF;}
	.st31{clip-path:url(#SVGID_40_);fill:#FFFFFF;}
	.st32{clip-path:url(#SVGID_42_);fill:#FFFFFF;}
	.st33{clip-path:url(#SVGID_44_);fill:#FFFFFF;}
	.st34{clip-path:url(#SVGID_46_);fill:#FFFFFF;}
	.st35{clip-path:url(#SVGID_48_);fill:#FFFFFF;}
	.st36{clip-path:url(#SVGID_50_);fill:#FFFFFF;}
	.st37{clip-path:url(#SVGID_52_);fill:#FFFFFF;}
	.st38{clip-path:url(#SVGID_54_);fill:#FFFFFF;}
	.st39{clip-path:url(#SVGID_56_);fill:#FFFFFF;}
	.st40{clip-path:url(#SVGID_58_);fill:#FFFFFF;}
	.st41{clip-path:url(#SVGID_60_);fill:#FFFFFF;}
	.st42{clip-path:url(#SVGID_62_);fill:#FFFFFF;}
	.st43{clip-path:url(#SVGID_64_);fill:#88B140;}
	.st44{fill:#252442;}
	.st45{fill:#4BB0E0;}
	.st46{fill:#8900A8;}
	.st47{fill:#F06F13;}
	.st48{fill:#94B941;}
	.st49{fill:#CE0083;}
	.st50{fill:#FFAC00;}
</style>
<g>
	<g>
		<g>
			<rect x="-0.5" y="0.4" class="st0" width="429.9" height="122.2"/>
			<rect x="203.5" y="0.4" width="429.9" height="122.2"/>
			<path class="st1" d="M343.7,79.4"/>
		</g>
		<g>
			<g>
				<g>
					<g>
						<polygon class="st2" points="558.2,28.2 582,51.9 574.8,59.1 558.2,42.5 						"/>
						<polygon class="st3" points="605.8,28.2 582,51.9 574.8,44.8 591.5,28.2 						"/>
						<polygon class="st4" points="605.8,75.7 582,51.9 589.1,44.8 605.8,61.4 						"/>
						<polygon class="st5" points="558.2,75.7 582,51.9 589.1,59.1 572.5,75.7 						"/>
						<polygon class="st6" points="605.8,28.2 582,51.9 589.1,59.1 605.8,42.5 						"/>
						<polygon class="st7" points="558.2,28.2 582,51.9 589.1,44.8 572.5,28.2 						"/>
						<polygon class="st8" points="558.2,75.7 582,51.9 574.8,44.8 558.2,61.4 						"/>
						<polygon class="st9" points="605.8,75.7 582,51.9 574.8,59.1 591.5,75.7 						"/>
					</g>
				</g>
			</g>
			<g>
				<path class="st10" d="M603.9,83.1c-1.1,0-1.9-0.9-1.9-1.9c0-1.1,0.9-1.9,1.9-1.9c1.1,0,1.9,0.9,1.9,1.9S604.9,83.1,603.9,83.1z
					 M603.9,79.7c-0.6,0-1,0.3-1.3,0.8c-0.1,0.2-0.1,0.4-0.1,0.6s0.1,0.4,0.1,0.6c0.2,0.5,0.7,0.8,1.3,0.8s1.1-0.4,1.3-0.9
					c0.1-0.2,0.1-0.3,0.1-0.5C605.3,80.3,604.7,79.7,603.9,79.7z"/>
				<path class="st10" d="M582.2,83.1c-0.8,0-1.5-0.7-1.5-1.5v-2.3h0.5v2.3c0,0.5,0.4,1,1,1s1-0.4,1-1v-2.3h0.5v2.3
					C583.7,82.4,583,83.1,582.2,83.1z"/>
				<path class="st10" d="M571.7,83h0.7l-0.9-1.4c0.2,0,0.3-0.1,0.5-0.3c0.1-0.1,0.2-0.3,0.3-0.4l0,0c0,0,0,0,0-0.1v-0.1l0,0
					c0,0,0,0,0-0.1l0,0v-0.1l0,0l0,0l0,0l0,0c0,0,0,0,0-0.1c0,0,0,0,0-0.1c0,0,0,0,0-0.1c0,0,0,0,0-0.1c0,0,0,0,0-0.1l0,0
					c0-0.2-0.1-0.4-0.3-0.6c-0.3-0.3-0.6-0.3-1-0.3h-1.2V80v1.5V83h0.5v-1.3h0.5L571.7,83z M570.3,79.8h0.6c0.3,0,0.6,0.1,0.7,0.4
					c0,0.1,0.1,0.2,0.1,0.3c0,0.1,0,0.1,0,0.2l0,0c0,0,0,0,0,0.1l0,0l0,0l0,0l0,0l-0.1,0.1l0,0l0,0c-0.1,0-0.1,0.1-0.2,0.1l0,0l0,0
					c-0.1,0-0.2,0-0.3,0h-0.6v-1v-0.2H570.3z"/>
				<path class="st10" d="M593.9,80.8C593.9,80.8,593.9,80.7,593.9,80.8C593.9,80.7,593.9,80.7,593.9,80.8c0-0.1,0-0.1,0-0.2l0,0
					v-0.1l0,0l0,0l0,0l0,0c0,0,0,0,0-0.1c0,0,0,0,0-0.1c0,0,0,0,0-0.1c0,0,0,0,0-0.1c0,0,0,0,0-0.1l0,0c0-0.2-0.1-0.4-0.3-0.6
					c-0.3-0.3-0.6-0.3-1-0.3h-1.2V80v1.5V83h0.5v-1.3h0.6c0.4,0,0.7-0.1,1-0.3C593.7,81.2,593.8,81.1,593.9,80.8
					C593.8,80.9,593.9,80.9,593.9,80.8L593.9,80.8z M592,79.8h0.6c0.3,0,0.6,0.1,0.7,0.4c0,0.1,0.1,0.2,0.1,0.3c0,0.1,0,0.1,0,0.2
					l0,0c0,0,0,0,0,0.1l0,0l0,0l0,0l0,0l-0.1,0.1l0,0l0,0c-0.1,0-0.1,0.1-0.2,0.1l0,0l0,0c-0.1,0-0.2,0-0.3,0H592v-1V79.8z"/>
				<path class="st10" d="M561.8,81.1L561.8,81.1h-1.7v0.5h1.3c-0.2,0.5-0.7,0.9-1.3,0.9c-0.8,0-1.4-0.6-1.4-1.4s0.6-1.4,1.4-1.4
					c0.4,0,0.7,0.2,1,0.4l0,0l0,0h0.7c-0.1-0.1-0.2-0.3-0.3-0.4l0,0c-0.4-0.4-0.9-0.6-1.4-0.6c-1.1,0-1.9,0.9-1.9,1.9
					s0.9,1.9,1.9,1.9c1.1,0,1.9-0.9,1.9-1.9L561.8,81.1L561.8,81.1z"/>
			</g>
			<g>
				<path class="st10" d="M582.9,87.3L582.9,87.3c-0.8-0.6-1.7-0.8-2.6-0.8s-1.7,0.3-2.5,0.8c-1.2,0.9-1.8,2.1-1.8,3.5
					c0,0.9,0.3,1.8,0.9,2.6c0.9,1.1,2.1,1.7,3.3,1.7h0.2c0.8,0,1.6-0.3,2.4-0.8V95h1.7v-8.6h-1.7L582.9,87.3L582.9,87.3z
					 M582.9,90.8c0,0.5-0.2,0.9-0.5,1.4c-0.6,0.7-1.3,1.1-2,1.1h-0.1c-0.4,0-0.8-0.1-1.2-0.3c-0.9-0.6-1.4-1.3-1.4-2.3
					c0-0.5,0.2-1,0.5-1.5c0.6-0.7,1.3-1.1,2.1-1.1c0.4,0,0.9,0.1,1.3,0.4c0.9,0.6,1.3,1.3,1.3,2.2L582.9,90.8L582.9,90.8z"/>
				<path class="st10" d="M574.1,92.2c-0.6,0.8-1.3,1.2-2.2,1.2c-0.4,0-0.8-0.1-1.3-0.3c-0.9-0.6-1.3-1.3-1.3-2.3
					c0-0.4,0.1-0.9,0.4-1.4c0.6-0.8,1.3-1.2,2.2-1.2s1.6,0.4,2.2,1.2l0,0l1.1-1.3c-0.9-1-2-1.5-3.3-1.5c-1.1,0-2.1,0.4-2.9,1.1
					c-0.9,0.9-1.4,2-1.4,3.2c0,0.9,0.3,1.8,0.9,2.6c0.9,1.1,2.1,1.7,3.4,1.7h0.1c1,0,1.9-0.3,2.7-1c0.3-0.2,0.5-0.4,0.6-0.6
					L574.1,92.2L574.1,92.2z"/>
				<path class="st10" d="M595.8,86.4c-1,0-2,0.3-2.8,1c-1,0.9-1.5,2-1.5,3.3c0,1,0.3,1.9,1,2.8c0.9,1,2,1.5,3.3,1.5l0,0
					c1.1,0,2.1-0.4,2.9-1.1l-1.1-1.3l0,0c-0.5,0.5-1.2,0.7-1.8,0.7c-0.4,0-0.8-0.1-1.2-0.3c-0.6-0.3-1.1-0.8-1.3-1.5h6.6
					c0-0.3,0.1-0.5,0.1-0.9c0-1-0.3-1.9-1-2.8C598.1,86.9,597,86.4,595.8,86.4z M593.3,89.9l0.2-0.4c0.6-0.9,1.3-1.3,2.2-1.3
					c0.4,0,0.8,0.1,1.3,0.3c0.6,0.4,1,0.8,1.2,1.4H593.3z"/>
				<path class="st10" d="M591.4,86.4c-1.4,0-2.5,0.3-3.4,1l0,0v-1h-1.7V95h1.7v-4.2c0-0.3,0.1-0.6,0.2-0.9c0.5-1.2,1.6-1.7,3.2-1.7
					V86.4L591.4,86.4z"/>
				<g>
					<polygon class="st10" points="564,90.7 567.6,86.4 565.4,86.4 565.2,86.7 562.9,89.4 560.5,86.4 560.5,86.4 560.4,86.4 
						558.3,86.4 558.6,86.8 561.8,90.7 561.8,90.7 558.2,95 558.2,95 560.5,95 562.9,92.1 565.4,95 567.6,95 					"/>
				</g>
				<polygon class="st10" points="605.8,86.4 603.8,86.4 603.8,84.9 602.1,84.9 602.1,86.4 600.1,86.4 600.1,88.1 602.1,88.1 
					602.1,95 603.8,95 603.8,88.1 605.8,88.1 				"/>
			</g>
			<path class="st1" d="M605.7,76"/>
			<path class="st1" d="M558.1,28.5"/>
			<g>
				<path class="st10" d="M607.4,31.2c0-0.4,0.1-0.7,0.2-1.1c0.1-0.3,0.3-0.6,0.6-0.9c0.2-0.2,0.5-0.4,0.9-0.6
					c0.3-0.1,0.7-0.2,1-0.2c0.4,0,0.7,0.1,1,0.2s0.6,0.3,0.9,0.6c0.2,0.2,0.4,0.5,0.6,0.9c0.1,0.3,0.2,0.7,0.2,1.1s-0.1,0.8-0.2,1.1
					c-0.1,0.3-0.3,0.6-0.6,0.9c-0.2,0.2-0.5,0.4-0.9,0.6c-0.3,0.1-0.7,0.2-1,0.2c-0.4,0-0.7-0.1-1-0.2c-0.3-0.1-0.6-0.3-0.9-0.6
					c-0.2-0.2-0.4-0.5-0.6-0.9C607.5,31.9,607.4,31.6,607.4,31.2z M607.9,31.2c0,0.3,0.1,0.6,0.2,0.9c0.1,0.3,0.3,0.5,0.5,0.7
					s0.4,0.4,0.7,0.5s0.6,0.2,0.9,0.2s0.6-0.1,0.9-0.2c0.3-0.1,0.5-0.3,0.7-0.5s0.4-0.5,0.5-0.7c0.1-0.3,0.2-0.6,0.2-0.9
					s-0.1-0.6-0.2-0.9c-0.1-0.3-0.3-0.5-0.5-0.7s-0.4-0.4-0.7-0.5s-0.6-0.2-0.9-0.2s-0.6,0.1-0.9,0.2c-0.3,0.1-0.5,0.3-0.7,0.5
					s-0.4,0.5-0.5,0.7C608,30.5,607.9,30.8,607.9,31.2z M609.1,29.6h1.2c0.7,0,1.1,0.3,1.1,0.9c0,0.3-0.1,0.5-0.2,0.6
					c-0.2,0.1-0.4,0.2-0.6,0.2l0.9,1.4H611l-0.9-1.4h-0.5v1.4h-0.5V29.6z M609.6,31h0.5c0.1,0,0.2,0,0.3,0s0.2,0,0.3-0.1
					c0.1,0,0.1-0.1,0.2-0.2c0-0.1,0.1-0.2,0.1-0.3c0-0.1,0-0.2-0.1-0.3c0-0.1-0.1-0.1-0.2-0.1c-0.1,0-0.1-0.1-0.2-0.1
					c-0.1,0-0.2,0-0.2,0h-0.6L609.6,31L609.6,31z"/>
			</g>
		</g>
		<path class="st11" d="M530.6,94.6"/>
		<rect x="544.6" y="28.1" class="st10" width="0.7" height="67"/>
		<g>
			<path class="st10" d="M264.5,79.1c-9.6,0-17.4-7.8-17.4-17.4s7.8-17.4,17.4-17.4c9.6,0,17.4,7.7,17.4,17.4
				C281.9,71.3,274.1,79.1,264.5,79.1z M264.5,45.6c-8.9,0-16.1,7.2-16.1,16.1s7.2,16.1,16.1,16.1c8.9,0,16.1-7.2,16.1-16.1
				S273.4,45.6,264.5,45.6z"/>
			<g>
				<g>
					<g>
						<defs>
							
								<ellipse id="SVGID_1_" transform="matrix(0.2298 -0.9732 0.9732 0.2298 143.6809 304.9486)" cx="264.5" cy="61.7" rx="16.8" ry="16.8"/>
						</defs>
						<clipPath id="SVGID_2_">
							<use xlink:href="#SVGID_1_"  style="overflow:visible;"/>
						</clipPath>
						<g class="st12">
							<path class="st10" d="M253.1,41.4c3.9-0.8,8.6-0.6,13.1,0c0.6,0.1,3.7-0.2,5,1.6c0.9,1.3,2.3,3.9,1.5,5.3
								c-0.3,0.5-0.8,1-1.1,1.5c-1,1.8-0.2,4.1-0.7,6.1c-0.1,0.4-0.3,0.9-0.6,1.2c-0.5,0.5-1.4,0.4-2.4,0.7
								c-0.8,0.2-2.2,1.5-1.9,2.8c0.4,2.3,1.7,4,4.2,4.4c1.1,0.2,2.2-0.5,2.9-2c0.2-0.5,1-1.1,2-0.9c0.8,0.2,1.2,0.7,1.3,1.5
								c0.1,0.5-0.2,1.6-0.6,2.1c-1.3,1.3-3.4,1.7-3.4,3.5c0,0.7,0.6,1.3,1.3,1.6s1.4,0.3,2.1,0.4c1.2,0.2,2.3,0.5,3.4,0.9
								c0.7,0.3,1.4,0.5,2,1c1.3,1.1,1.6,2.9,1.4,4.5c-0.3,1.6-1.1,3.1-1.9,4.5c-0.9,1.6-1.8,3.1-2.7,4.7l-11,1.3
								c-2.2-4.9-4-9.4-2.8-14.6c0.2-0.9,2-2.3,2.8-2.8c0.4-0.3,0.9-0.3,1.4-0.5c0.8-0.3,1.5-0.8,1-1.8c-1.4-1.7-4,0.2-6.2-1.8
								c-1.2-1.1-2.6-2.1-3.5-3.5c-0.8-1.4-1.5-3-2.4-4.4c-0.2-0.4-0.7-0.8-1.1-0.6c-0.2,0.2,0,1,0.1,1.5s0.5,4.1,0.2,4.4
								c-0.7,0.8-2.2,0.7-2.4-1.1c-0.1-1.6-1.1-6.7-2-7.4c-0.8-0.6-5.4-0.4-7.2-4.3"/>
						</g>
					</g>
				</g>
			</g>
			<path class="st10" d="M258.2,94.4c3.2,0.6,6.6,0.8,10,0.4c15.8-1.7,28.3-14.7,29.5-30.5c0.6-8-1.6-15.5-5.8-21.5
				c0,0-0.5-0.7-0.9-1.3c-1.7-2.4-4.4-2.8-5.7-1.5c-1.9,1.7-0.9,3.7,0,4.8c1,1.2,3.4,5.1,3.4,5.1c3.8,5.9,3.1,14,1.3,14.8
				c-1.4,0.6-1.7-1.2-2-4.6c-0.4-4-2.7-3.4-2.7-3.4c-2.3,0.9-2,4.2-2,4.2c-0.3,5.2,0.6,9.8-0.1,12.5c-1.2,4.4-6,7-6,7
				c-3.6,2.4-7.9,3.8-12.5,3.8c-1.5,0-3-0.1-4.4-0.4c-2.7-0.5-5.3,1.1-6.2,3.7l0,0C252.9,90.5,254.9,93.8,258.2,94.4z"/>
			<path class="st10" d="M271.4,29c-3.4-0.7-6.9-0.9-10.6-0.5C245,30.2,232.5,43.2,231.3,59c-0.6,8,1.6,15.5,5.8,21.5
				c0,0,0.5,0.7,0.9,1.3c1.7,2.4,4.4,2.8,5.7,1.5c1.9-1.7,0.9-3.7,0-4.8c-1-1.2-3.4-5.1-3.4-5.1c-3.8-5.9-3.1-14-1.3-14.8
				c1.4-0.6,1.7,1.2,2,4.6c0.4,4,2.7,3.4,2.7,3.4c2.3-0.9,2-4.2,2-4.2c0.3-5.2-0.6-9.8,0.1-12.5c1.2-4.4,6.3-7.2,6.3-7.2l0,0
				c3.5-2.3,7.8-3.7,12.3-3.7c1.5,0,3.1,0.2,4.5,0.5c2.9,0.6,5.8-1.1,6.5-4l0,0C276.3,32.7,274.5,29.6,271.4,29z"/>
		</g>
		<g>
			<g>
				<path class="st10" d="M320.9,43.4L320.9,43.4l-10.4-15.1h3.5l8.8,12.8h0.1l8.9-12.8h3.3l-10.6,15.1v0.1l10.5,15h-3.4l-8.8-12.8
					h-0.1l-8.9,12.8h-3.2L320.9,43.4z"/>
				<path class="st10" d="M357,58.5h-18.2V28.3H357v2.6h-15.4v10.9h14.6v2.6h-14.6V56H357V58.5z"/>
				<path class="st10" d="M374.3,59c-8.2,0-13.6-6.2-13.6-15.8c0-9.4,5.3-15.4,13.6-15.4c6.3,0,11.2,3.8,12.4,9.6h-3
					c-1.2-4.3-4.8-6.9-9.4-6.9c-6.6,0-10.6,4.9-10.6,12.8c0,8,4.2,13.1,10.6,13.1c5.8,0,9.7-3.7,9.7-9.4v-1.1h-9.4v-2.5h12.2v2.9
					C386.8,54.2,382.1,59,374.3,59z"/>
				<path class="st10" d="M394.3,47.8c0,5.1,3.3,8.5,8.8,8.5c5.6,0,8.8-3.5,8.8-8.5V28.3h2.9V48c0,6.5-4.4,11-11.7,11
					s-11.7-4.5-11.7-11V28.3h2.8L394.3,47.8L394.3,47.8z"/>
				<path class="st10" d="M423.3,58.5h-2.8V28.3h10.7c5.9,0,9.7,3.5,9.7,8.8c0,4.3-2.4,7.5-6.5,8.5l7.3,12.8h-3.4l-7-12.4
					c-0.1,0-0.3,0-0.5,0h-7.6L423.3,58.5L423.3,58.5z M423.3,43.6h7.6c4.4,0,7-2.3,7-6.4c0-4-2.7-6.4-7.1-6.4h-7.5V43.6z"/>
				<path class="st10" d="M446,58.5V28.3h2.9v30.2H446z"/>
				<path class="st10" d="M464.7,28.3c9.1,0,14.3,5.6,14.3,15.1c0,9.6-5.3,15.1-14.3,15.1h-9.8V28.3H464.7z M457.8,55.9h6.8
					c7.4,0,11.6-4.5,11.6-12.5s-4.1-12.5-11.6-12.5h-6.8V55.9z"/>
				<path class="st10" d="M499.3,49.3h-12.7l-3.4,9.3h-3l11.3-30.2h2.8l11.3,30.2h-3L499.3,49.3z M487.4,46.8h11l-5.4-15h-0.1
					L487.4,46.8z"/>
				<path class="st10" d="M518.8,28.3c9.1,0,14.3,5.6,14.3,15.1c0,9.6-5.3,15.1-14.3,15.1H509V28.3H518.8z M511.8,55.9h6.8
					c7.4,0,11.6-4.5,11.6-12.5s-4.1-12.5-11.6-12.5h-6.8V55.9z"/>
			</g>
		</g>
		<g>
			<g>
				<path class="st10" d="M315.2,78h3.3c4.4,0,7.5-2.7,7.5-6.6c0-3.7-3-6.4-7.3-6.4c-4,0-7.1,2.7-7.3,6.4h-1.6
					c0.2-4.6,3.9-7.9,8.9-7.9s8.8,3.3,8.8,7.8c0,3.8-2.4,6.6-6.2,7.4v0.1c4.6,0.3,7.5,3.3,7.5,7.6c0,5.1-4.2,8.9-9.9,8.9
					c-5.6,0-9.7-3.5-9.8-8.2h1.6c0.1,3.8,3.6,6.7,8.3,6.7s8.3-3.1,8.3-7.3c0-4.3-3.3-6.9-8.7-6.9h-3.3L315.2,78L315.2,78z"/>
				<path class="st10" d="M334.6,90.9c-1.8-2.5-2.7-6.1-2.7-10.7c0-10.3,4.2-16.7,10.8-16.7c4.7,0,8.4,3.1,9.1,7.6h-1.6
					c-0.6-3.6-3.7-6.1-7.5-6.1c-5.9,0-9.4,6.2-9.2,16.6h0.1c1-4.1,4.8-7,9.2-7c5.5,0,9.7,4.4,9.7,10.2c0,6-4.2,10.5-9.9,10.5
					C339.3,95.3,336.4,93.7,334.6,90.9z M350.9,84.8c0-4.9-3.6-8.7-8.3-8.7c-4.6,0-8.4,3.8-8.4,8.4c0,5.2,3.7,9.2,8.4,9.2
					C347.3,93.7,350.9,89.9,350.9,84.8z"/>
				<path class="st10" d="M355.3,79.4c0-9.7,4-15.9,10.4-15.9s10.4,6.1,10.4,15.9s-3.9,15.9-10.4,15.9
					C359.3,95.3,355.3,89.1,355.3,79.4z M374.5,79.4c0-8.8-3.4-14.4-8.8-14.4s-8.8,5.6-8.8,14.4s3.3,14.4,8.8,14.4
					C371.1,93.7,374.5,88.2,374.5,79.4z"/>
			</g>
		</g>
		<g>
			<path class="st5" d="M397,79.6L397,79.6l-10.7-15.4h3.5l9,13.1h0.1l9.1-13.1h3.4l-10.9,15.5v0.1L411.3,95h-3.5l-9-13.1h-0.1
				L389.6,95h-3.3L397,79.6z"/>
			<path class="st5" d="M431.4,85.5h-13L415,95h-3.1l11.6-30.9h2.9L437.9,95h-3.1L431.4,85.5z M419.3,83h11.2L425,67.7h-0.1
				L419.3,83z"/>
			<path class="st5" d="M440.7,95V64.1H459v2.7h-15.4v11.6h14.2V81h-14.2v14H440.7z"/>
			<path class="st5" d="M481.5,95h-18.7V64.1h18.7v2.7h-15.7v11.1h14.9v2.6h-14.9v11.9h15.7V95z"/>
			<path class="st5" d="M494.1,95V66.8h-10.2v-2.7h23.3v2.7H497V95H494.1z"/>
			<path class="st5" d="M519.1,95V81.7L508,64.1h3.3l9.1,14.7h0.1l9.1-14.7h3.3L522,81.7V95H519.1z"/>
		</g>
		<path class="st10" d="M378.5,69.1c-1.8,0-3.3-1.5-3.3-3.3c0-1.8,1.5-3.3,3.3-3.3s3.3,1.5,3.3,3.3
			C381.8,67.6,380.3,69.1,378.5,69.1z M378.5,63.2c-1.4,0-2.6,1.2-2.6,2.6s1.2,2.6,2.6,2.6s2.6-1.2,2.6-2.6S379.9,63.2,378.5,63.2z"
			/>
	</g>
	<g>
		<rect x="633.1" y="0.4" class="st0" width="429.3" height="122.2"/>
		<g>
			<g>
				<path d="M679.3,38.2c-0.5-0.6-1.2-1.1-2.1-1.4c-0.9-0.3-1.7-0.5-2.5-0.5c-0.5,0-0.9,0.1-1.4,0.2c-0.5,0.1-0.9,0.3-1.4,0.5
					c-0.4,0.2-0.8,0.5-1,0.9c-0.3,0.4-0.4,0.8-0.4,1.4c0,0.9,0.3,1.5,1,2c0.6,0.5,1.5,0.8,2.4,1.2s2,0.6,3.2,1s2.2,0.8,3.2,1.4
					c1,0.6,1.8,1.4,2.4,2.4s1,2.3,1,4c0,1.6-0.3,3-0.9,4.1c-0.6,1.2-1.4,2.2-2.4,2.9c-1,0.8-2.2,1.4-3.5,1.7
					c-1.3,0.4-2.7,0.6-4.2,0.6c-1.8,0-3.6-0.3-5.1-0.8c-1.6-0.6-3.1-1.5-4.4-2.7l4.5-4.9c0.6,0.9,1.5,1.5,2.4,2c1,0.5,2,0.7,3,0.7
					c0.5,0,1-0.1,1.5-0.2c0.5-0.1,1-0.3,1.4-0.5s0.8-0.5,1-0.9c0.3-0.4,0.4-0.8,0.4-1.3c0-0.9-0.3-1.5-1-2s-1.5-0.9-2.5-1.3
					c-1-0.3-2.1-0.7-3.2-1c-1.2-0.3-2.2-0.8-3.2-1.4c-1-0.6-1.8-1.4-2.5-2.3c-0.7-1-1-2.2-1-3.8c0-1.5,0.3-2.9,0.9-4
					c0.6-1.2,1.4-2.1,2.4-2.9c1-0.8,2.2-1.4,3.5-1.7c1.3-0.4,2.7-0.6,4.1-0.6c1.6,0,3.2,0.2,4.7,0.7c1.5,0.5,2.9,1.2,4.1,2.3
					L679.3,38.2z"/>
				<path d="M687.1,34.1c0-1,0.3-1.8,1-2.5s1.5-1,2.5-1s1.8,0.3,2.5,1s1,1.5,1,2.5s-0.3,1.8-1,2.5s-1.5,1-2.5,1s-1.8-0.3-2.5-1
					C687.5,35.9,687.1,35,687.1,34.1z M687.6,40.2h6v19.5h-6V40.2z"/>
				<path d="M716.4,56.3c-1,1.2-2.2,2.2-3.7,2.9s-3,1-4.6,1c-1.5,0-2.9-0.2-4.2-0.7s-2.5-1.2-3.5-2.1c-1-0.9-1.7-2-2.3-3.2
					c-0.6-1.3-0.8-2.7-0.8-4.2c0-1.6,0.3-3,0.8-4.2c0.6-1.3,1.3-2.3,2.3-3.2s2.1-1.6,3.5-2.1s2.7-0.7,4.2-0.7c1.4,0,2.7,0.2,3.8,0.7
					s2.1,1.2,2.9,2.1s1.4,2,1.8,3.2s0.6,2.7,0.6,4.2v1.9h-14c0.2,1.2,0.8,2.1,1.6,2.8s1.8,1,3,1c1,0,1.8-0.2,2.5-0.7s1.3-1,1.8-1.7
					L716.4,56.3z M707.4,31.3h8.2l-6.9,5.8h-5.3L707.4,31.3z M711.3,47.8c0-1-0.3-1.9-1-2.6s-1.6-1.1-2.7-1.1
					c-0.7,0-1.3,0.1-1.8,0.3s-0.9,0.5-1.3,0.8s-0.6,0.7-0.8,1.2c-0.2,0.4-0.3,0.9-0.3,1.4C703.4,47.8,711.3,47.8,711.3,47.8z"/>
				<path d="M721,40.2h5.8v2.6h0.1c0.2-0.4,0.5-0.7,0.8-1.1c0.3-0.4,0.8-0.7,1.2-1c0.5-0.3,1-0.5,1.6-0.7s1.3-0.3,2-0.3
					c1.5,0,2.8,0.2,3.7,0.7s1.7,1.1,2.2,1.9c0.5,0.8,0.9,1.8,1.1,2.9s0.3,2.3,0.3,3.7v10.8h-6v-9.6c0-0.6,0-1.1-0.1-1.7
					c0-0.6-0.2-1.2-0.4-1.7s-0.5-0.9-0.9-1.2s-1-0.5-1.8-0.5s-1.4,0.1-1.9,0.4c-0.5,0.3-0.8,0.7-1.1,1.1c-0.3,0.5-0.4,1-0.5,1.6
					s-0.1,1.2-0.1,1.8v9.7h-6L721,40.2L721,40.2z"/>
				<path d="M757.3,45H752v6.5c0,0.5,0,1,0.1,1.5c0.1,0.4,0.2,0.8,0.4,1.1s0.5,0.6,0.9,0.7c0.4,0.2,0.9,0.3,1.5,0.3
					c0.3,0,0.7,0,1.3-0.1c0.5-0.1,0.9-0.2,1.2-0.5v5c-0.7,0.2-1.4,0.4-2.1,0.5s-1.4,0.1-2.1,0.1c-1,0-2-0.1-2.8-0.3
					c-0.9-0.2-1.6-0.6-2.2-1c-0.6-0.5-1.1-1.1-1.5-1.8s-0.5-1.7-0.5-2.7V45h-3.9v-4.8h3.9v-5.8h6v5.8h5.3V45H757.3z"/>
				<path d="M778.8,56.3c-1,1.2-2.2,2.2-3.7,2.9s-3,1-4.6,1c-1.5,0-2.9-0.2-4.2-0.7s-2.5-1.2-3.5-2.1c-1-0.9-1.7-2-2.3-3.2
					c-0.6-1.3-0.8-2.7-0.8-4.2c0-1.6,0.3-3,0.8-4.2s1.3-2.3,2.3-3.2s2.1-1.6,3.5-2.1c1.3-0.5,2.7-0.7,4.2-0.7c1.4,0,2.7,0.2,3.8,0.7
					s2.1,1.2,2.9,2.1c0.8,0.9,1.4,2,1.8,3.2c0.4,1.3,0.6,2.7,0.6,4.2v1.9h-14c0.2,1.2,0.8,2.1,1.6,2.8s1.8,1,3,1
					c1,0,1.8-0.2,2.5-0.7c0.7-0.4,1.3-1,1.8-1.7L778.8,56.3z M773.7,47.8c0-1-0.3-1.9-1-2.6c-0.7-0.7-1.6-1.1-2.7-1.1
					c-0.7,0-1.3,0.1-1.8,0.3s-0.9,0.5-1.3,0.8c-0.4,0.3-0.6,0.7-0.8,1.2s-0.3,0.9-0.3,1.4C765.8,47.8,773.7,47.8,773.7,47.8z"/>
				<path d="M796.7,45h-5.3v6.5c0,0.5,0,1,0.1,1.5c0.1,0.4,0.2,0.8,0.4,1.1s0.5,0.6,0.9,0.7c0.4,0.2,0.9,0.3,1.5,0.3
					c0.3,0,0.7,0,1.3-0.1c0.5-0.1,0.9-0.2,1.2-0.5v5c-0.7,0.2-1.4,0.4-2.1,0.5s-1.4,0.1-2.1,0.1c-1,0-2-0.1-2.8-0.3
					c-0.9-0.2-1.6-0.6-2.2-1c-0.6-0.5-1.1-1.1-1.5-1.8s-0.5-1.7-0.5-2.7V45h-3.9v-4.8h3.9v-5.8h6v5.8h5.3V45H796.7z"/>
				<path d="M818.2,56.3c-1,1.2-2.2,2.2-3.7,2.9s-3,1-4.6,1c-1.5,0-2.9-0.2-4.2-0.7s-2.5-1.2-3.5-2.1c-1-0.9-1.7-2-2.3-3.2
					c-0.6-1.3-0.8-2.7-0.8-4.2c0-1.6,0.3-3,0.8-4.2s1.3-2.3,2.3-3.2s2.1-1.6,3.5-2.1c1.3-0.5,2.7-0.7,4.2-0.7c1.4,0,2.7,0.2,3.8,0.7
					s2.1,1.2,2.9,2.1s1.4,2,1.8,3.2c0.4,1.3,0.6,2.7,0.6,4.2v1.9h-14c0.2,1.2,0.8,2.1,1.6,2.8s1.8,1,3,1c1,0,1.8-0.2,2.5-0.7
					c0.7-0.4,1.3-1,1.8-1.7L818.2,56.3z M813.1,47.8c0-1-0.3-1.9-1-2.6c-0.7-0.7-1.6-1.1-2.7-1.1c-0.7,0-1.3,0.1-1.8,0.3
					s-0.9,0.5-1.3,0.8c-0.4,0.3-0.6,0.7-0.8,1.2s-0.3,0.9-0.3,1.4C805.2,47.8,813.1,47.8,813.1,47.8z"/>
				<path d="M848,45h-5.3v6.5c0,0.5,0,1,0.1,1.5c0.1,0.4,0.2,0.8,0.4,1.1s0.5,0.6,0.9,0.7c0.4,0.2,0.9,0.3,1.5,0.3
					c0.3,0,0.7,0,1.3-0.1c0.5-0.1,0.9-0.2,1.2-0.5v5c-0.7,0.2-1.4,0.4-2.1,0.5s-1.4,0.1-2.1,0.1c-1,0-2-0.1-2.8-0.3
					c-0.9-0.2-1.6-0.6-2.2-1c-0.6-0.5-1.1-1.1-1.5-1.8s-0.5-1.7-0.5-2.7V45H833v-4.8h3.9v-5.8h6v5.8h5.3V45H848z"/>
				<path d="M863.3,57.3L863.3,57.3c-0.8,1-1.6,1.8-2.8,2.2c-1.1,0.5-2.3,0.7-3.5,0.7c-0.9,0-1.8-0.1-2.6-0.4
					c-0.8-0.3-1.6-0.6-2.2-1.1c-0.6-0.5-1.2-1.1-1.5-1.9c-0.4-0.7-0.6-1.6-0.6-2.6c0-1.1,0.2-2.1,0.6-2.8c0.4-0.8,1-1.4,1.7-1.9
					s1.5-0.9,2.4-1.2s1.9-0.5,2.8-0.6s2-0.2,2.9-0.2c1,0,1.9,0,2.7,0c0-1.1-0.4-1.9-1.1-2.5s-1.7-0.9-2.7-0.9s-1.9,0.2-2.7,0.6
					s-1.5,1-2.2,1.7l-3.2-3.3c1.1-1,2.4-1.8,3.9-2.3s3.1-0.8,4.7-0.8c1.8,0,3.2,0.2,4.4,0.7c1.1,0.4,2,1.1,2.7,1.9s1.2,1.9,1.4,3.2
					c0.3,1.2,0.4,2.7,0.4,4.3V60h-5.5L863.3,57.3L863.3,57.3z M861.8,51.2c-0.5,0-1,0-1.7,0.1c-0.7,0-1.3,0.2-2,0.3
					c-0.6,0.2-1.2,0.5-1.6,0.8c-0.4,0.4-0.7,0.9-0.7,1.6c0,0.7,0.3,1.3,0.9,1.6c0.6,0.3,1.3,0.5,1.9,0.5c0.6,0,1.2-0.1,1.7-0.2
					c0.5-0.2,1-0.4,1.5-0.7c0.4-0.3,0.8-0.7,1-1.1c0.3-0.5,0.4-1,0.4-1.6v-1.3C863.2,51.2,861.8,51.2,861.8,51.2z"/>
				<path d="M872.6,40.2h5.8v2.6h0.1c0.2-0.4,0.5-0.7,0.8-1.1c0.3-0.4,0.8-0.7,1.2-1c0.5-0.3,1-0.5,1.6-0.7s1.3-0.3,2-0.3
					c1.5,0,2.8,0.2,3.7,0.7s1.7,1.1,2.2,1.9c0.5,0.8,0.9,1.8,1.1,2.9s0.3,2.3,0.3,3.7v10.8h-6v-9.6c0-0.6,0-1.1-0.1-1.7
					c0-0.6-0.2-1.2-0.4-1.7s-0.5-0.9-0.9-1.2s-1-0.5-1.8-0.5s-1.4,0.1-1.9,0.4c-0.5,0.3-0.8,0.7-1.1,1.1c-0.3,0.5-0.4,1-0.5,1.6
					s-0.1,1.2-0.1,1.8v9.7h-6L872.6,40.2L872.6,40.2z"/>
				<path d="M918.5,45.9c-0.9-1.1-2-1.6-3.5-1.6c-0.5,0-1,0.1-1.5,0.4c-0.5,0.2-0.7,0.7-0.7,1.2s0.2,0.8,0.7,1.1
					c0.5,0.2,1.1,0.4,1.9,0.6c0.8,0.2,1.6,0.4,2.4,0.6c0.9,0.2,1.7,0.5,2.4,0.9c0.8,0.4,1.4,1,1.9,1.7s0.7,1.7,0.7,3
					s-0.3,2.3-0.8,3.1s-1.3,1.5-2.1,2c-0.9,0.5-1.8,0.8-2.9,1s-2.1,0.3-3.2,0.3c-1.4,0-2.7-0.2-4.1-0.6s-2.6-1.1-3.5-2.1l3.7-4.1
					c0.6,0.7,1.2,1.2,1.9,1.6c0.7,0.4,1.5,0.5,2.4,0.5c0.7,0,1.3-0.1,1.9-0.3c0.6-0.2,0.8-0.6,0.8-1.1s-0.2-0.9-0.7-1.1
					c-0.5-0.3-1.1-0.5-1.9-0.6c-0.8-0.2-1.6-0.4-2.4-0.6c-0.9-0.2-1.7-0.5-2.4-0.9c-0.8-0.4-1.4-1-1.9-1.7s-0.7-1.7-0.7-3
					c0-1.2,0.2-2.1,0.7-3c0.5-0.8,1.1-1.5,1.8-2c0.8-0.5,1.6-0.9,2.6-1.2s2-0.4,3-0.4c1.3,0,2.6,0.2,3.9,0.6c1.3,0.4,2.4,1,3.3,2
					L918.5,45.9z"/>
				<path d="M944.6,56.3c-1,1.2-2.2,2.2-3.7,2.9s-3,1-4.6,1c-1.5,0-2.9-0.2-4.2-0.7s-2.5-1.2-3.5-2.1c-1-0.9-1.7-2-2.3-3.2
					c-0.6-1.3-0.8-2.7-0.8-4.2c0-1.6,0.3-3,0.8-4.2c0.6-1.3,1.3-2.3,2.3-3.2s2.1-1.6,3.5-2.1s2.7-0.7,4.2-0.7c1.4,0,2.7,0.2,3.8,0.7
					s2.1,1.2,2.9,2.1s1.4,2,1.8,3.2s0.6,2.7,0.6,4.2v1.9h-14c0.2,1.2,0.8,2.1,1.6,2.8s1.8,1,3,1c1,0,1.8-0.2,2.5-0.7s1.3-1,1.8-1.7
					L944.6,56.3z M939.5,47.8c0-1-0.3-1.9-1-2.6s-1.6-1.1-2.7-1.1c-0.7,0-1.3,0.1-1.8,0.3s-0.9,0.5-1.3,0.8
					c-0.4,0.3-0.6,0.7-0.8,1.2c-0.2,0.4-0.3,0.9-0.3,1.4C931.6,47.8,939.5,47.8,939.5,47.8z"/>
				<path d="M969.6,58.1c0,3.7-0.9,6.5-2.8,8.4c-1.9,1.9-4.7,2.9-8.5,2.9c-1.7,0-3.5-0.2-5.1-0.6c-1.7-0.4-3.2-1.1-4.7-2.3l3.3-5
					c0.9,0.8,1.9,1.4,3,1.8c1,0.5,2.2,0.7,3.4,0.7c1.8,0,3.2-0.4,4.1-1.3c0.9-0.9,1.3-2,1.3-3.4v-1.9h-0.1c-0.7,0.9-1.6,1.6-2.6,2
					s-2,0.6-2.9,0.6c-1.4,0-2.8-0.2-3.9-0.7c-1.2-0.5-2.2-1.2-3-2.1s-1.5-2-1.9-3.2c-0.5-1.2-0.7-2.6-0.7-4.1c0-1.3,0.2-2.5,0.6-3.8
					c0.4-1.2,1-2.3,1.8-3.3c0.8-0.9,1.7-1.7,2.8-2.3s2.3-0.9,3.7-0.9c0.9,0,1.6,0.1,2.3,0.3s1.3,0.4,1.9,0.7c0.6,0.3,1,0.6,1.4,1
					s0.7,0.7,1,1.1h0.1v-2.6h5.5L969.6,58.1L969.6,58.1z M954.4,49.8c0,0.6,0.1,1.3,0.4,1.8c0.2,0.6,0.6,1.1,1,1.5s1,0.8,1.5,1.1
					s1.2,0.4,1.9,0.4s1.3-0.1,1.9-0.4c0.6-0.3,1.1-0.6,1.5-1.1s0.8-0.9,1-1.5s0.4-1.2,0.4-1.8s-0.1-1.3-0.4-1.8
					c-0.2-0.6-0.6-1.1-1-1.5s-1-0.8-1.5-1.1c-0.6-0.3-1.2-0.4-1.9-0.4s-1.3,0.1-1.9,0.4s-1.1,0.6-1.5,1.1c-0.4,0.4-0.8,1-1,1.5
					C954.5,48.6,954.4,49.2,954.4,49.8z"/>
				<path d="M993.2,59.7h-5.8v-2.6h-0.1c-0.2,0.4-0.5,0.8-0.8,1.1c-0.3,0.4-0.7,0.7-1.2,1s-1,0.5-1.6,0.7s-1.3,0.3-2,0.3
					c-1.5,0-2.8-0.2-3.7-0.7c-1-0.5-1.7-1.1-2.2-1.9c-0.5-0.8-0.9-1.8-1-2.9s-0.3-2.3-0.3-3.7V40.2h6v9.6c0,0.6,0,1.1,0.1,1.7
					c0,0.6,0.2,1.2,0.4,1.7s0.5,0.9,0.9,1.2s1,0.5,1.8,0.5s1.4-0.1,1.9-0.4c0.5-0.3,0.8-0.7,1.1-1.1c0.3-0.5,0.4-1,0.5-1.6
					s0.1-1.2,0.1-1.8v-9.7h6v19.4C993.3,59.7,993.2,59.7,993.2,59.7z"/>
				<path d="M997.5,40.2h6v3.1h0.1c0.6-1.2,1.4-2.1,2.3-2.7c0.9-0.6,2-0.9,3.3-0.9c0.3,0,0.7,0,1,0s0.7,0.1,1,0.2v5.5
					c-0.4-0.1-0.8-0.2-1.3-0.3c-0.4-0.1-0.8-0.1-1.3-0.1c-1.2,0-2.1,0.2-2.7,0.5c-0.7,0.3-1.2,0.8-1.5,1.3c-0.4,0.6-0.6,1.3-0.7,2.1
					c-0.1,0.8-0.2,1.7-0.2,2.6v8.1h-6L997.5,40.2L997.5,40.2z"/>
				<path d="M1012.4,50c0-1.6,0.3-3,0.8-4.2s1.3-2.3,2.3-3.2s2.1-1.6,3.5-2.1c1.3-0.5,2.7-0.7,4.2-0.7c1.5,0,2.9,0.2,4.2,0.7
					s2.5,1.2,3.5,2.1c1,0.9,1.7,2,2.3,3.2c0.6,1.2,0.8,2.7,0.8,4.2c0,1.6-0.3,3-0.8,4.2c-0.6,1.3-1.3,2.3-2.3,3.2s-2.1,1.6-3.5,2.1
					c-1.3,0.5-2.7,0.7-4.2,0.7c-1.5,0-2.9-0.2-4.2-0.7s-2.5-1.2-3.5-2.1c-1-0.9-1.7-2-2.3-3.2C1012.6,52.9,1012.4,51.5,1012.4,50z
					 M1018.4,50c0,1.5,0.4,2.7,1.3,3.6c0.8,0.9,2,1.4,3.6,1.4c1.6,0,2.7-0.5,3.6-1.4c0.8-0.9,1.3-2.1,1.3-3.6s-0.4-2.7-1.3-3.6
					c-0.8-0.9-2-1.4-3.6-1.4s-2.7,0.5-3.6,1.4C1018.8,47.3,1018.4,48.5,1018.4,50z"/>
				<path d="M678.9,78.1c-0.5-0.7-1.1-1.3-1.9-1.8s-1.7-0.7-2.8-0.7s-2.1,0.1-3,0.5s-1.6,0.9-2.2,1.6s-1.1,1.5-1.4,2.4
					c-0.3,0.9-0.5,1.9-0.5,3s0.2,2.1,0.5,3s0.8,1.7,1.4,2.4c0.6,0.7,1.4,1.2,2.2,1.6s1.9,0.5,3,0.5c1,0,2-0.2,2.8-0.7
					s1.5-1.1,1.9-1.8l2.2,1.6c-0.9,1.1-2,1.9-3.2,2.4s-2.4,0.8-3.7,0.8c-1.5,0-2.9-0.2-4.1-0.7s-2.3-1.2-3.2-2.1s-1.5-1.9-2-3.2
					c-0.5-1.2-0.7-2.5-0.7-4c0-1.4,0.2-2.7,0.7-4c0.5-1.2,1.1-2.3,2-3.2c0.9-0.9,1.9-1.6,3.2-2.1c1.2-0.5,2.6-0.7,4.1-0.7
					c1.3,0,2.5,0.3,3.7,0.8s2.2,1.3,3.2,2.4L678.9,78.1z"/>
				<path d="M703.6,83c0,1.4-0.2,2.7-0.7,3.9c-0.5,1.2-1.2,2.2-2.1,3.1s-1.9,1.6-3.2,2.1c-1.2,0.5-2.6,0.7-4,0.7s-2.8-0.2-4-0.7
					s-2.3-1.2-3.2-2.1s-1.6-1.9-2.1-3.1s-0.7-2.5-0.7-3.9s0.2-2.7,0.7-3.9c0.5-1.2,1.2-2.2,2.1-3.1s1.9-1.6,3.2-2.1
					c1.2-0.5,2.5-0.7,4-0.7s2.8,0.2,4,0.7s2.3,1.2,3.2,2.1s1.6,1.9,2.1,3.1C703.3,80.3,703.6,81.6,703.6,83z M700.7,83
					c0-1-0.2-2-0.5-2.9s-0.8-1.7-1.4-2.4c-0.6-0.7-1.4-1.2-2.2-1.6c-0.9-0.4-1.9-0.6-3-0.6s-2.1,0.2-3,0.6s-1.6,0.9-2.2,1.6
					c-0.6,0.7-1.1,1.5-1.4,2.4s-0.5,1.9-0.5,2.9s0.2,2,0.5,2.9s0.8,1.7,1.4,2.4c0.6,0.7,1.3,1.2,2.2,1.6s1.9,0.6,3,0.6
					s2.1-0.2,3-0.6s1.6-0.9,2.2-1.6c0.6-0.7,1.1-1.5,1.4-2.4C700.5,85.1,700.7,84.1,700.7,83z"/>
				<path d="M708.4,77.8c0-0.7,0-1.4-0.1-2.1c0-0.7-0.1-1.4-0.1-2.1h2.8v2.9h0.1c0.6-1.1,1.5-1.9,2.7-2.5c1.1-0.6,2.3-0.8,3.4-0.8
					c0.5,0,1,0.1,1.6,0.2s1.1,0.3,1.7,0.6c0.5,0.3,1,0.7,1.5,1.2s0.9,1.2,1.2,2c0.5-1.2,1.4-2.2,2.5-2.8s2.4-1,3.6-1
					c2.4,0,4.2,0.6,5.3,1.9c1.2,1.3,1.7,3.1,1.7,5.4v11.9h-2.7v-11c0-1.9-0.3-3.4-1-4.4s-1.9-1.5-3.7-1.5c-1,0-1.8,0.2-2.5,0.6
					s-1.2,0.9-1.6,1.5c-0.4,0.6-0.7,1.4-0.9,2.2c-0.2,0.8-0.3,1.7-0.3,2.5v10H721v-11c0-1.9-0.3-3.4-1-4.4s-1.9-1.5-3.7-1.5
					c-0.2,0-0.5,0.1-1.1,0.2s-1.2,0.4-1.8,0.9s-1.2,1.2-1.7,2.2s-0.7,2.3-0.7,4v9.6h-2.6V77.8L708.4,77.8z"/>
				<path d="M761.6,83c0,1.4-0.2,2.7-0.7,3.9c-0.5,1.2-1.2,2.2-2.1,3.1c-0.9,0.9-1.9,1.6-3.2,2.1c-1.2,0.5-2.6,0.7-4,0.7
					s-2.8-0.2-4-0.7s-2.3-1.2-3.2-2.1s-1.6-1.9-2.1-3.1s-0.7-2.5-0.7-3.9s0.2-2.7,0.7-3.9c0.5-1.2,1.2-2.2,2.1-3.1
					c0.9-0.9,1.9-1.6,3.2-2.1c1.2-0.5,2.5-0.7,4-0.7s2.8,0.2,4,0.7s2.3,1.2,3.2,2.1s1.6,1.9,2.1,3.1C761.3,80.3,761.6,81.6,761.6,83
					z M758.7,83c0-1-0.2-2-0.5-2.9s-0.8-1.7-1.4-2.4s-1.4-1.2-2.2-1.6c-0.9-0.4-1.9-0.6-3-0.6s-2.1,0.2-3,0.6s-1.6,0.9-2.2,1.6
					c-0.6,0.7-1.1,1.5-1.4,2.4c-0.3,0.9-0.5,1.9-0.5,2.9s0.2,2,0.5,2.9s0.8,1.7,1.4,2.4c0.6,0.7,1.3,1.2,2.2,1.6s1.9,0.6,3,0.6
					s2.1-0.2,3-0.6s1.6-0.9,2.2-1.6s1.1-1.5,1.4-2.4C758.5,85.1,758.7,84.1,758.7,83z"/>
				<path d="M779.4,83.8c0.1,0.9,0.3,1.8,0.7,2.6c0.4,0.8,0.9,1.5,1.5,2.1s1.3,1.1,2.1,1.4s1.7,0.5,2.6,0.5c1.4,0,2.6-0.3,3.7-1
					c1-0.7,1.8-1.4,2.3-2.3l2,1.7c-1.1,1.4-2.4,2.4-3.7,3.1s-2.8,0.9-4.4,0.9c-1.4,0-2.7-0.2-3.9-0.7s-2.2-1.2-3.1-2.1
					c-0.9-0.9-1.5-1.9-2-3.1s-0.7-2.5-0.7-3.9s0.2-2.7,0.7-3.9c0.5-1.2,1.2-2.2,2-3.1c0.9-0.9,1.9-1.6,3-2.1
					c1.2-0.5,2.4-0.7,3.7-0.7c1.4,0,2.7,0.3,3.8,0.8s2.1,1.2,2.8,2c0.8,0.8,1.3,1.8,1.7,3c0.4,1.1,0.6,2.3,0.6,3.6v1.2H779.4z
					 M792.2,81.6c0-1.8-0.5-3.2-1.6-4.4c-1.1-1.1-2.6-1.7-4.5-1.7c-0.9,0-1.7,0.2-2.5,0.5s-1.5,0.8-2.1,1.3
					c-0.6,0.6-1.1,1.2-1.4,1.9c-0.4,0.7-0.5,1.5-0.5,2.2h12.6V81.6z"/>
				<path d="M802.4,73.6c0.1,0.5,0.1,1,0.1,1.5s0,1,0,1.5h0.1c0.3-0.5,0.7-1,1.1-1.4c0.5-0.4,1-0.8,1.5-1.1c0.6-0.3,1.2-0.5,1.8-0.7
					s1.2-0.3,1.9-0.3c2.4,0,4.2,0.6,5.3,1.9c1.2,1.3,1.7,3.1,1.7,5.4v11.9h-2.6V82c0-2.1-0.4-3.7-1.1-4.8c-0.7-1.1-2.1-1.7-4-1.7
					c-0.1,0-0.5,0.1-1.1,0.2s-1.3,0.4-1.9,0.9c-0.7,0.5-1.3,1.2-1.8,2.2s-0.8,2.3-0.8,4v9.6H800V77.8c0-0.5,0-1.2-0.1-1.9
					c0-0.8-0.1-1.5-0.1-2.2h2.6V73.6z"/>
				<path d="M847,78.1c-0.5-0.7-1.1-1.3-1.9-1.8c-0.8-0.5-1.7-0.7-2.8-0.7s-2.1,0.1-3,0.5s-1.6,0.9-2.2,1.6
					c-0.6,0.7-1.1,1.5-1.4,2.4c-0.3,0.9-0.5,1.9-0.5,3s0.2,2.1,0.5,3s0.8,1.7,1.4,2.4c0.6,0.7,1.4,1.2,2.2,1.6s1.9,0.5,3,0.5
					c1,0,2-0.2,2.8-0.7s1.5-1.1,1.9-1.8l2.2,1.6c-0.9,1.1-2,1.9-3.2,2.4s-2.4,0.8-3.7,0.8c-1.5,0-2.9-0.2-4.1-0.7s-2.3-1.2-3.2-2.1
					s-1.5-1.9-2-3.2c-0.5-1.2-0.7-2.5-0.7-4c0-1.4,0.2-2.7,0.7-4c0.5-1.2,1.1-2.3,2-3.2c0.9-0.9,1.9-1.6,3.2-2.1
					c1.2-0.5,2.6-0.7,4.1-0.7c1.3,0,2.5,0.3,3.7,0.8s2.2,1.3,3.2,2.4L847,78.1z"/>
				<path d="M864.8,80.9v-0.5c0-3.2-1.6-4.9-4.8-4.9c-2.2,0-4.1,0.7-5.7,2.2l-1.6-1.9c1.8-1.8,4.4-2.7,7.9-2.7
					c0.9,0,1.8,0.1,2.6,0.4s1.6,0.7,2.2,1.2s1.1,1.2,1.5,2.1c0.4,0.8,0.6,1.8,0.6,3v8.4c0,0.7,0,1.5,0.1,2.3s0.1,1.4,0.2,1.9h-2.6
					c-0.1-0.5-0.1-0.9-0.2-1.5c0-0.5-0.1-1.1-0.1-1.6h-0.1c-0.8,1.3-1.7,2.2-2.8,2.7s-2.3,0.8-3.9,0.8c-0.8,0-1.6-0.1-2.4-0.3
					c-0.8-0.2-1.5-0.6-2.1-1c-0.6-0.5-1.1-1-1.4-1.7c-0.4-0.7-0.5-1.5-0.5-2.4c0-1.5,0.4-2.7,1.2-3.6s1.8-1.5,3-1.9s2.5-0.7,3.8-0.8
					c1.4-0.1,2.6-0.2,3.7-0.2H864.8z M863.4,83.1c-0.7,0-1.5,0-2.5,0.1s-2,0.2-2.9,0.5s-1.7,0.6-2.4,1.2c-0.7,0.5-1,1.3-1,2.2
					c0,0.6,0.1,1.1,0.4,1.6c0.3,0.4,0.6,0.8,1,1.1c0.4,0.3,0.9,0.5,1.4,0.6s1,0.2,1.6,0.2c1,0,1.8-0.2,2.5-0.5s1.3-0.8,1.8-1.3
					s0.8-1.2,1.1-1.9c0.2-0.7,0.3-1.5,0.3-2.3v-1.4L863.4,83.1L863.4,83.1z"/>
				<path d="M883.5,78.1c-0.4-0.8-0.9-1.4-1.6-1.8c-0.7-0.5-1.5-0.7-2.4-0.7c-0.5,0-0.9,0.1-1.4,0.2s-0.9,0.3-1.3,0.5
					c-0.4,0.2-0.7,0.5-0.9,0.9c-0.2,0.3-0.3,0.8-0.3,1.3c0,0.9,0.3,1.5,0.9,1.9s1.5,0.7,2.8,1L882,82c1.3,0.3,2.4,0.9,3.3,1.8
					s1.3,2,1.3,3.4c0,1-0.2,1.9-0.6,2.6c-0.4,0.7-1,1.3-1.6,1.8c-0.7,0.5-1.5,0.8-2.3,1s-1.8,0.3-2.7,0.3c-1.4,0-2.8-0.3-4-0.8
					s-2.3-1.5-3.2-2.8l2.3-1.6c0.5,0.9,1.2,1.5,2,2s1.8,0.8,2.9,0.8c0.5,0,1.1-0.1,1.6-0.2s1-0.3,1.4-0.6c0.4-0.3,0.7-0.6,1-1
					s0.4-0.9,0.4-1.4c0-0.9-0.3-1.6-1-2s-1.5-0.7-2.5-1l-2.6-0.6c-0.3-0.1-0.8-0.2-1.3-0.4c-0.5-0.2-1.1-0.5-1.6-0.8s-1-0.9-1.3-1.5
					c-0.4-0.6-0.6-1.3-0.6-2.2c0-1,0.2-1.8,0.6-2.5c0.4-0.7,0.9-1.3,1.6-1.8s1.4-0.8,2.2-1s1.7-0.3,2.6-0.3c1.3,0,2.5,0.3,3.7,0.8
					c1.1,0.5,2,1.4,2.6,2.6L883.5,78.1z"/>
				<path d="M902.7,80.9v-0.5c0-3.2-1.6-4.9-4.8-4.9c-2.2,0-4.1,0.7-5.7,2.2l-1.6-1.9c1.8-1.8,4.4-2.7,7.9-2.7
					c0.9,0,1.8,0.1,2.6,0.4s1.6,0.7,2.2,1.2c0.6,0.5,1.1,1.2,1.5,2.1s0.6,1.8,0.6,3v8.4c0,0.7,0,1.5,0.1,2.3s0.1,1.4,0.2,1.9h-2.6
					c-0.1-0.5-0.1-0.9-0.2-1.5c0-0.5-0.1-1.1-0.1-1.6h-0.1c-0.8,1.3-1.7,2.2-2.8,2.7s-2.3,0.8-3.9,0.8c-0.8,0-1.6-0.1-2.4-0.3
					c-0.8-0.2-1.5-0.6-2.1-1c-0.6-0.5-1.1-1-1.4-1.7c-0.4-0.7-0.5-1.5-0.5-2.4c0-1.5,0.4-2.7,1.2-3.6s1.8-1.5,3-1.9s2.5-0.7,3.8-0.8
					c1.4-0.1,2.6-0.2,3.7-0.2H902.7z M901.3,83.1c-0.7,0-1.5,0-2.5,0.1s-2,0.2-2.9,0.5s-1.7,0.6-2.4,1.2c-0.7,0.5-1,1.3-1,2.2
					c0,0.6,0.1,1.1,0.4,1.6c0.3,0.4,0.6,0.8,1,1.1c0.4,0.3,0.9,0.5,1.4,0.6s1.1,0.2,1.6,0.2c1,0,1.8-0.2,2.5-0.5s1.3-0.8,1.8-1.3
					s0.8-1.2,1.1-1.9c0.2-0.7,0.3-1.5,0.3-2.3v-1.4L901.3,83.1L901.3,83.1z"/>
				<path d="M916.3,90.5c0,0.6-0.2,1.1-0.6,1.5c-0.4,0.4-0.9,0.7-1.6,0.7c-0.6,0-1.2-0.2-1.6-0.7c-0.4-0.4-0.6-0.9-0.6-1.5
					s0.2-1.1,0.6-1.5c0.4-0.4,0.9-0.7,1.6-0.7c0.6,0,1.2,0.2,1.6,0.7C916.1,89.4,916.3,89.9,916.3,90.5z"/>
			</g>
		</g>
	</g>
</g>
<g>
	<g>
		<g>
			<g>
				<defs>
					<rect id="SVGID_3_" x="1104.1" y="0" width="142.3" height="122"/>
				</defs>
				<clipPath id="SVGID_4_">
					<use xlink:href="#SVGID_3_"  style="overflow:visible;"/>
				</clipPath>
				<path class="st13" d="M1226.1,61c0,33.7-27.3,61-61,61s-61-27.3-61-61s27.3-61,61-61C1198.7,0,1226.1,27.3,1226.1,61"/>
			</g>
		</g>
		<g>
			<g>
				<defs>
					<rect id="SVGID_5_" x="1104.1" y="0" width="142.3" height="122"/>
				</defs>
				<clipPath id="SVGID_6_">
					<use xlink:href="#SVGID_5_"  style="overflow:visible;"/>
				</clipPath>
				<rect x="1205.7" y="81.3" class="st14" width="40.7" height="40.7"/>
			</g>
		</g>
		<g>
			<g>
				<defs>
					<rect id="SVGID_7_" x="1104.1" y="0" width="142.3" height="122"/>
				</defs>
				<clipPath id="SVGID_8_">
					<use xlink:href="#SVGID_7_"  style="overflow:visible;"/>
				</clipPath>
				<rect x="1165.1" y="81.3" class="st15" width="40.7" height="40.7"/>
			</g>
		</g>
	</g>
	<g>
		<g>
			<g>
				<defs>
					<rect id="SVGID_9_" x="1165.1" y="81.3" width="40.7" height="40.7"/>
				</defs>
				<clipPath id="SVGID_10_">
					<use xlink:href="#SVGID_9_"  style="overflow:visible;"/>
				</clipPath>
				<path class="st16" d="M1171,94.3c0.2,0,0.5,0,0.8,0s0.5,0,0.8,0v0.2h-0.1c-0.1,0-0.3,0-0.3,0.2c0,0.1,0,0.2,0.1,0.3l0.9,2.6l0,0
					l1-3.3h0.2l1.1,3.3l0,0l0.8-2.3c0-0.1,0.1-0.4,0.1-0.5c0-0.2-0.1-0.2-0.3-0.2h-0.1v-0.2c0.2,0,0.4,0,0.7,0c0.2,0,0.5,0,0.7,0
					v0.2h-0.1c-0.2,0-0.4,0.1-0.5,0.4l-1.2,3.6h-0.2l-1.1-3.3l0,0l-1.1,3.3h-0.2l-1.3-3.6c-0.1-0.3-0.3-0.4-0.5-0.4h-0.2L1171,94.3
					L1171,94.3z"/>
			</g>
		</g>
		<g>
			<g>
				<defs>
					<rect id="SVGID_11_" x="1165.1" y="81.3" width="40.7" height="40.7"/>
				</defs>
				<clipPath id="SVGID_12_">
					<use xlink:href="#SVGID_11_"  style="overflow:visible;"/>
				</clipPath>
				<path class="st17" d="M1179.4,94.2c1.2,0,2.3,0.9,2.3,2.1c0,1-0.8,2.1-2.3,2.1c-1.3,0-2.3-0.9-2.3-2.1S1178.2,94.2,1179.4,94.2
					 M1179.4,94.5c-0.9,0-1.7,0.5-1.7,1.8c0,0.9,0.7,1.9,1.7,1.9c1.1,0,1.7-0.8,1.7-1.8C1181.1,95.5,1180.5,94.5,1179.4,94.5"/>
			</g>
		</g>
		<g>
			<g>
				<defs>
					<rect id="SVGID_13_" x="1165.1" y="81.3" width="40.7" height="40.7"/>
				</defs>
				<clipPath id="SVGID_14_">
					<use xlink:href="#SVGID_13_"  style="overflow:visible;"/>
				</clipPath>
				<path class="st18" d="M1181.9,98.2L1181.9,98.2c0.4,0,0.5-0.1,0.5-0.5V95c0-0.4-0.1-0.5-0.4-0.5h-0.1v-0.2c0.2,0,0.5,0,0.8,0
					c0.4,0,0.7,0,1,0c1.1,0,1.3,0.8,1.3,1.1c0,0.7-0.6,1-0.9,1.1l0.8,1.3c0.3,0.5,0.4,0.5,0.9,0.6v0.1c-0.1,0-0.2,0-0.3,0
					c-0.5,0-0.8-0.1-1.1-0.6l-0.7-1.1c-0.1-0.2-0.2-0.2-0.7-0.2v1.1c0,0.5,0.1,0.6,0.4,0.6h0.2v0.2c-0.3,0-0.5,0-0.8,0s-0.6,0-0.8,0
					L1181.9,98.2L1181.9,98.2z M1182.9,96.3c0.1,0,0.3,0,0.4,0c0.6,0,1-0.2,1-0.8c0-0.3-0.2-0.9-1.1-0.9c-0.1,0-0.3,0-0.4,0
					L1182.9,96.3L1182.9,96.3z"/>
			</g>
		</g>
		<g>
			<g>
				<defs>
					<rect id="SVGID_15_" x="1165.1" y="81.3" width="40.7" height="40.7"/>
				</defs>
				<clipPath id="SVGID_16_">
					<use xlink:href="#SVGID_15_"  style="overflow:visible;"/>
				</clipPath>
				<path class="st19" d="M1186,98.2L1186,98.2c0.4,0,0.5-0.1,0.5-0.5V95c0-0.4-0.1-0.5-0.4-0.5h-0.1v-0.2c0.2,0,0.5,0,0.8,0
					s0.5,0,0.8,0v0.2h-0.1c-0.3,0-0.4,0.1-0.4,0.5v2.6c0,0.4,0.1,0.6,0.9,0.6c1,0,1.1-0.2,1.2-0.8h0.2v1c-0.5,0-1.2,0-1.8,0
					c-0.7,0-1.3,0-1.5,0L1186,98.2L1186,98.2z"/>
			</g>
		</g>
		<g>
			<g>
				<defs>
					<rect id="SVGID_17_" x="1165.1" y="81.3" width="40.7" height="40.7"/>
				</defs>
				<clipPath id="SVGID_18_">
					<use xlink:href="#SVGID_17_"  style="overflow:visible;"/>
				</clipPath>
				<path class="st20" d="M1189.7,98.2L1189.7,98.2c0.4,0,0.5-0.1,0.5-0.5V95c0-0.4-0.1-0.5-0.4-0.5h-0.1v-0.2c0.2,0,0.5,0,0.8,0
					c0.5,0,1,0,1.5,0c1.7,0,2.3,1.3,2.3,2c0,0.8-0.6,2.1-2.5,2.1c-0.4,0-0.8,0-1.3,0c-0.3,0-0.6,0-0.8,0V98.2z M1190.7,97.6
					c0,0.4,0.2,0.5,0.9,0.5c1.1,0,2-0.4,2-1.7c0-0.8-0.6-1.9-2.1-1.9c-0.3,0-0.5,0-0.8,0V97.6z"/>
			</g>
		</g>
		<g>
			<g>
				<defs>
					<rect id="SVGID_19_" x="1165.1" y="81.3" width="40.7" height="40.7"/>
				</defs>
				<clipPath id="SVGID_20_">
					<use xlink:href="#SVGID_19_"  style="overflow:visible;"/>
				</clipPath>
				<path class="st21" d="M1172.2,103.4L1172.2,103.4c0.4,0,0.5-0.1,0.5-0.5v-3.1h-0.7c-0.7,0-0.7,0.4-0.8,0.8h-0.2v-1
					c0.2,0,1.2,0,2,0c0.7,0,1.8,0,2,0v1h-0.2c0-0.4-0.1-0.8-0.8-0.8h-0.7v3.1c0,0.5,0.1,0.5,0.4,0.5h0.1v0.2c-0.2,0-0.5,0-0.8,0
					s-0.6,0-0.8,0V103.4z"/>
			</g>
		</g>
		<g>
			<g>
				<defs>
					<rect id="SVGID_21_" x="1165.1" y="81.3" width="40.7" height="40.7"/>
				</defs>
				<clipPath id="SVGID_22_">
					<use xlink:href="#SVGID_21_"  style="overflow:visible;"/>
				</clipPath>
				<path class="st22" d="M1175.4,103.4L1175.4,103.4c0.4,0,0.5-0.1,0.5-0.5v-2.8c0-0.4-0.1-0.5-0.4-0.5h-0.1v-0.2
					c0.2,0,0.5,0,0.8,0c0.4,0,0.7,0,1,0c1.1,0,1.3,0.8,1.3,1.1c0,0.7-0.6,1-0.9,1.1l0.8,1.3c0.3,0.5,0.4,0.5,0.9,0.5v0.1
					c-0.1,0-0.3,0-0.4,0.1c-0.5,0-0.7,0-1.1-0.5l-0.7-1.1c-0.1-0.2-0.2-0.2-0.7-0.2v1.1c0,0.5,0.1,0.6,0.4,0.6h0.2v0.2
					c-0.3,0-0.5,0-0.8,0s-0.6,0-0.8,0C1175.4,103.7,1175.4,103.4,1175.4,103.4z M1176.4,101.5c0.1,0,0.3,0,0.4,0c0.6,0,1-0.2,1-0.8
					c0-0.3-0.2-0.9-1.1-0.9c-0.1,0-0.3,0-0.4,0L1176.4,101.5L1176.4,101.5z"/>
			</g>
		</g>
		<g>
			<g>
				<defs>
					<rect id="SVGID_23_" x="1165.1" y="81.3" width="40.7" height="40.7"/>
				</defs>
				<clipPath id="SVGID_24_">
					<use xlink:href="#SVGID_23_"  style="overflow:visible;"/>
				</clipPath>
				<path class="st23" d="M1178.9,103.4L1178.9,103.4c0.4,0,0.6-0.1,0.7-0.6l1.4-3.4h0.1l1.6,3.5c0.1,0.3,0.3,0.6,0.6,0.6h0.1v0.2
					c-0.2,0-0.5,0-0.8,0s-0.6,0-0.9,0v-0.2h0.3c0.2,0,0.3-0.1,0.3-0.2s-0.1-0.2-0.1-0.3l-0.5-1h-1.4l-0.3,0.9c0,0.1-0.1,0.3-0.1,0.4
					s0.1,0.2,0.3,0.2h0.1v0.2c-0.2,0-0.5,0-0.8,0c-0.2,0-0.5,0-0.6,0L1178.9,103.4L1178.9,103.4z M1181,100.1l-0.6,1.6h1.3
					L1181,100.1z"/>
			</g>
		</g>
		<g>
			<g>
				<defs>
					<rect id="SVGID_25_" x="1165.1" y="81.3" width="40.7" height="40.7"/>
				</defs>
				<clipPath id="SVGID_26_">
					<use xlink:href="#SVGID_25_"  style="overflow:visible;"/>
				</clipPath>
				<path class="st24" d="M1182.3,99.5c0.2,0,0.6,0,0.9,0s0.6,0,0.8,0v0.2h-0.1c-0.3,0-0.4,0.1-0.4,0.2s0,0.2,0.1,0.4l1.2,2.6
					l1.2-2.6c0.1-0.2,0.1-0.3,0.1-0.4s-0.1-0.2-0.2-0.2h-0.1v-0.2c0.2,0,0.4,0,0.7,0c0.2,0,0.4,0,0.7,0v0.2h-0.2
					c-0.2,0-0.4,0.1-0.6,0.5l-1.6,3.4h-0.2l-1.6-3.5C1182.8,99.7,1182.7,99.6,1182.3,99.5L1182.3,99.5
					C1182.3,99.6,1182.3,99.5,1182.3,99.5z"/>
			</g>
		</g>
		<g>
			<g>
				<defs>
					<rect id="SVGID_27_" x="1165.1" y="81.3" width="40.7" height="40.7"/>
				</defs>
				<clipPath id="SVGID_28_">
					<use xlink:href="#SVGID_27_"  style="overflow:visible;"/>
				</clipPath>
				<path class="st25" d="M1187.3,103.4L1187.3,103.4c0.4,0,0.5-0.1,0.5-0.5v-2.8c0-0.4-0.1-0.5-0.4-0.5h-0.1v-0.2
					c0.2,0,0.9,0,1.5,0c0.7,0,1,0,1.5,0c0,0.4,0,0.7,0.1,1h-0.2c-0.1-0.4-0.1-0.8-1.2-0.8h-0.6v1.6h0.5c0.8,0,0.8-0.1,0.8-0.5h0.2
					c0,0.1,0,0.3,0,0.6c0,0.2,0,0.4,0,0.5h-0.2c0-0.3,0-0.4-0.7-0.4h-0.6v1.4c0,0.3,0.1,0.4,0.5,0.4h0.1c1,0,1.3-0.2,1.4-0.8h0.2
					c0,0.4-0.1,0.7-0.1,1c-0.4,0-1,0-1.7,0C1188,103.4,1187.5,103.4,1187.3,103.4L1187.3,103.4z"/>
			</g>
		</g>
		<g>
			<g>
				<defs>
					<rect id="SVGID_29_" x="1165.1" y="81.3" width="40.7" height="40.7"/>
				</defs>
				<clipPath id="SVGID_30_">
					<use xlink:href="#SVGID_29_"  style="overflow:visible;"/>
				</clipPath>
				<path class="st26" d="M1190.9,103.4L1190.9,103.4c0.4,0,0.5-0.1,0.5-0.5v-2.8c0-0.4-0.1-0.5-0.4-0.5h-0.1v-0.2
					c0.2,0,0.5,0,0.8,0s0.5,0,0.8,0v0.2h-0.1c-0.3,0-0.4,0.1-0.4,0.5v2.6c0,0.4,0.1,0.6,0.9,0.6c1,0,1.1-0.2,1.2-0.8h0.2v1
					c-0.5,0-1.2,0-1.8,0C1191.8,103.5,1191.2,103.5,1190.9,103.4L1190.9,103.4L1190.9,103.4z"/>
			</g>
		</g>
		<g>
			<g>
				<defs>
					<rect id="SVGID_31_" x="1165.1" y="81.3" width="40.7" height="40.7"/>
				</defs>
				<clipPath id="SVGID_32_">
					<use xlink:href="#SVGID_31_"  style="overflow:visible;"/>
				</clipPath>
				<path class="st27" d="M1197.9,101.4c0.2,0,0.3,0,0.6,0c0.4,0,0.6,0,0.8,0v0.2c-0.4,0-0.5,0.1-0.5,0.5c0,0.1-0.1,0.5-0.2,0.8
					c0.5,0.6,0.6,0.6,1.2,0.6v0.2c-0.1,0-0.3,0-0.5,0c-0.3,0-0.5,0-0.6,0l-0.4-0.4c-0.2,0.2-0.6,0.4-1.3,0.4c-0.8,0-1.3-0.5-1.3-1.1
					c0-0.4,0.3-0.8,0.9-1.1c-0.3-0.3-0.6-0.6-0.6-1c0-0.6,0.6-1,1.1-1s1,0.3,1,0.8c0,0.4-0.3,0.7-1,1.1l1.3,1.3
					c0.1-0.2,0.1-0.5,0.1-0.7c0-0.4-0.2-0.4-0.5-0.4L1197.9,101.4L1197.9,101.4z M1196.5,101.6c-0.4,0.3-0.5,0.5-0.5,0.8
					c0,0.4,0.4,1,1.1,1c0.4,0,0.7-0.2,0.8-0.4L1196.5,101.6z M1196.8,99.7c-0.3,0-0.6,0.3-0.6,0.7c0,0.3,0.6,0.8,0.7,0.9
					c0.4-0.3,0.7-0.4,0.7-0.8C1197.5,100.1,1197.3,99.7,1196.8,99.7"/>
			</g>
		</g>
		<g>
			<g>
				<defs>
					<rect id="SVGID_33_" x="1165.1" y="81.3" width="40.7" height="40.7"/>
				</defs>
				<clipPath id="SVGID_34_">
					<use xlink:href="#SVGID_33_"  style="overflow:visible;"/>
				</clipPath>
				<path class="st28" d="M1172.2,108.6L1172.2,108.6c0.4,0,0.5-0.1,0.5-0.5V105h-0.7c-0.7,0-0.7,0.4-0.8,0.8h-0.2v-1
					c0.2,0,1.2,0,2,0c0.7,0,1.8,0,2,0v1h-0.2c0-0.4-0.1-0.8-0.8-0.8h-0.7v3.1c0,0.5,0.1,0.5,0.4,0.5h0.1v0.2c-0.2,0-0.5,0-0.8,0
					s-0.6,0-0.8,0V108.6z"/>
			</g>
		</g>
		<g>
			<g>
				<defs>
					<rect id="SVGID_35_" x="1165.1" y="81.3" width="40.7" height="40.7"/>
				</defs>
				<clipPath id="SVGID_36_">
					<use xlink:href="#SVGID_35_"  style="overflow:visible;"/>
				</clipPath>
				<path class="st29" d="M1177.4,104.6c1.2,0,2.3,0.9,2.3,2.1c0,1-0.8,2.1-2.3,2.1c-1.3,0-2.3-0.9-2.3-2.1
					S1176.2,104.6,1177.4,104.6 M1177.4,104.9c-0.9,0-1.7,0.5-1.7,1.8c0,0.9,0.7,1.9,1.7,1.9c1.1,0,1.7-0.8,1.7-1.8
					C1179.1,105.9,1178.5,104.9,1177.4,104.9"/>
			</g>
		</g>
		<g>
			<g>
				<defs>
					<rect id="SVGID_37_" x="1165.1" y="81.3" width="40.7" height="40.7"/>
				</defs>
				<clipPath id="SVGID_38_">
					<use xlink:href="#SVGID_37_"  style="overflow:visible;"/>
				</clipPath>
				<path class="st30" d="M1181.3,104.9L1181.3,104.9c-0.3,0-0.5,0.1-0.5,0.6c0,0.6,0,1.2,0,1.8c0,0.5,0.1,0.7,0.3,0.9
					c0.2,0.3,0.5,0.5,1,0.5c0.6,0,1-0.3,1.2-0.5c0.2-0.3,0.3-0.6,0.3-1v-0.6c0-0.8-0.1-1.4-0.1-1.5c-0.1-0.1-0.1-0.2-0.3-0.2h-0.2
					v-0.2c0.2,0,0.4,0,0.7,0c0.2,0,0.4,0,0.7,0v0.2h-0.1c-0.2,0-0.4,0.1-0.4,0.6v1.5c0,0.6-0.2,1.1-0.5,1.4s-0.8,0.5-1.3,0.5
					s-0.8-0.1-1.2-0.4s-0.6-0.8-0.6-1.3v-1.8c0-0.4-0.2-0.4-0.4-0.4h-0.1v-0.2c0.3,0,0.5,0,0.8,0
					C1180.9,104.8,1181.1,104.8,1181.3,104.9L1181.3,104.9L1181.3,104.9z"/>
			</g>
		</g>
		<g>
			<g>
				<defs>
					<rect id="SVGID_39_" x="1165.1" y="81.3" width="40.7" height="40.7"/>
				</defs>
				<clipPath id="SVGID_40_">
					<use xlink:href="#SVGID_39_"  style="overflow:visible;"/>
				</clipPath>
				<path class="st31" d="M1184.7,108.6L1184.7,108.6c0.4,0,0.5-0.1,0.5-0.5v-2.8c0-0.4-0.1-0.5-0.4-0.5h-0.1v-0.2
					c0.2,0,0.5,0,0.8,0c0.4,0,0.7,0,1,0c1.1,0,1.3,0.8,1.3,1.1c0,0.7-0.6,1-0.9,1.1l0.8,1.3c0.3,0.5,0.4,0.5,0.9,0.6v0.1
					c-0.1,0-0.2,0-0.3,0c-0.5,0-0.8-0.1-1.1-0.6l-0.7-1.1c-0.1-0.2-0.2-0.2-0.7-0.2v1.1c0,0.5,0.1,0.6,0.4,0.6h0.2v0.2
					c-0.3,0-0.5,0-0.8,0s-0.6,0-0.8,0L1184.7,108.6L1184.7,108.6z M1185.8,106.7c0.1,0,0.3,0,0.4,0c0.6,0,1-0.2,1-0.8
					c0-0.3-0.2-0.9-1.1-0.9c-0.1,0-0.3,0-0.4,0L1185.8,106.7L1185.8,106.7z"/>
			</g>
		</g>
		<g>
			<g>
				<defs>
					<rect id="SVGID_41_" x="1165.1" y="81.3" width="40.7" height="40.7"/>
				</defs>
				<clipPath id="SVGID_42_">
					<use xlink:href="#SVGID_41_"  style="overflow:visible;"/>
				</clipPath>
				<path class="st32" d="M1188.8,108.6L1188.8,108.6c0.4,0,0.5-0.1,0.5-0.5v-2.8c0-0.4-0.1-0.5-0.4-0.5h-0.1v-0.2
					c0.2,0,0.5,0,0.8,0s0.5,0,0.8,0v0.2h-0.1c-0.3,0-0.4,0.1-0.4,0.5v2.8c0,0.4,0.1,0.5,0.4,0.5h0.1v0.2c-0.3,0-0.5,0-0.8,0
					s-0.6,0-0.8,0V108.6z"/>
			</g>
		</g>
		<g>
			<g>
				<defs>
					<rect id="SVGID_43_" x="1165.1" y="81.3" width="40.7" height="40.7"/>
				</defs>
				<clipPath id="SVGID_44_">
					<use xlink:href="#SVGID_43_"  style="overflow:visible;"/>
				</clipPath>
				<path class="st33" d="M1193.4,105.7h-0.2c0-0.2-0.1-0.9-1-0.9c-0.5,0-0.8,0.3-0.8,0.7c0,0.3,0.2,0.6,0.7,0.8l0.6,0.2
					c0.4,0.2,0.9,0.5,0.9,1.1c0,0.7-0.5,1.2-1.5,1.2c-0.1,0-0.6,0-1.1-0.1v-0.9h0.2c0,0.5,0.5,0.9,1.1,0.9c0.5,0,1-0.3,1-0.8
					s-0.4-0.7-0.8-0.8l-0.7-0.3c-0.5-0.2-0.8-0.5-0.8-1c0-0.6,0.5-1.1,1.4-1.1c0.4,0,0.8,0.1,1.2,0.2v0.8L1193.4,105.7L1193.4,105.7
					z"/>
			</g>
		</g>
		<g>
			<g>
				<defs>
					<rect id="SVGID_45_" x="1165.1" y="81.3" width="40.7" height="40.7"/>
				</defs>
				<clipPath id="SVGID_46_">
					<use xlink:href="#SVGID_45_"  style="overflow:visible;"/>
				</clipPath>
				<path class="st34" d="M1194.1,108.6L1194.1,108.6c0.4,0,0.5-0.1,0.5-0.8c0-0.8,0.1-1.6,0.1-2.4c0-0.4-0.1-0.5-0.5-0.5h-0.1v-0.2
					c0.2,0,0.3,0,0.5,0s0.4,0,0.5,0l1.7,3.3l1.5-3.3c0.2,0,0.4,0,0.6,0s0.4,0,0.6,0v0.2h-0.1c-0.3,0-0.5,0.1-0.5,0.5
					c0,0.3,0,1.7,0,2.6c0,0.6,0.1,0.7,0.4,0.7h0.1v0.2c-0.2,0-0.5,0-0.8,0s-0.6,0-0.8,0v-0.2h0.2c0.3,0,0.4-0.1,0.4-0.6v-2.9l0,0
					l-1.7,3.7h-0.1l-1.7-3.4l0,0v2.3c0,0.6,0.1,0.8,0.4,0.8h0.1v0.2c-0.2,0-0.4,0-0.7,0c-0.3,0-0.5,0-0.7,0L1194.1,108.6
					L1194.1,108.6z"/>
			</g>
		</g>
		<g>
			<g>
				<defs>
					<rect id="SVGID_47_" x="1165.1" y="81.3" width="40.7" height="40.7"/>
				</defs>
				<clipPath id="SVGID_48_">
					<use xlink:href="#SVGID_47_"  style="overflow:visible;"/>
				</clipPath>
				<path class="st35" d="M1175.4,110.9L1175.4,110.9c-0.3-0.3-0.6-0.9-1.7-0.9c-1.3,0-1.7,1.1-1.7,1.9c0,1.4,1,1.8,1.7,1.8
					c1,0,1.4-0.5,1.7-0.8l0,0v0.4c-0.2,0.2-0.7,0.6-1.7,0.6c-1.4,0-2.4-0.8-2.4-2c0-1.1,0.8-2.2,2.3-2.2c0.6,0,1.2,0.2,1.4,0.2
					c0.1,0,0.2,0.1,0.3,0.1L1175.4,110.9z"/>
			</g>
		</g>
		<g>
			<g>
				<defs>
					<rect id="SVGID_49_" x="1165.1" y="81.3" width="40.7" height="40.7"/>
				</defs>
				<clipPath id="SVGID_50_">
					<use xlink:href="#SVGID_49_"  style="overflow:visible;"/>
				</clipPath>
				<path class="st36" d="M1178,109.8c1.2,0,2.3,0.9,2.3,2.1c0,1-0.8,2.1-2.3,2.1c-1.3,0-2.3-0.9-2.3-2.1
					C1175.7,110.7,1176.8,109.8,1178,109.8 M1178,110.1c-0.9,0-1.7,0.5-1.7,1.8c0,0.9,0.7,1.9,1.7,1.9c1.1,0,1.7-0.8,1.7-1.8
					C1179.7,111.1,1179.1,110.1,1178,110.1"/>
			</g>
		</g>
		<g>
			<g>
				<defs>
					<rect id="SVGID_51_" x="1165.1" y="81.3" width="40.7" height="40.7"/>
				</defs>
				<clipPath id="SVGID_52_">
					<use xlink:href="#SVGID_51_"  style="overflow:visible;"/>
				</clipPath>
				<path class="st37" d="M1181.9,110.1L1181.9,110.1c-0.3,0-0.5,0.1-0.5,0.6c0,0.6,0,1.2,0,1.8c0,0.5,0.1,0.7,0.3,0.9
					c0.2,0.3,0.5,0.5,1,0.5c0.6,0,1-0.3,1.2-0.5c0.2-0.3,0.3-0.6,0.3-1v-0.6c0-0.8-0.1-1.4-0.1-1.5c-0.1-0.1-0.1-0.2-0.3-0.2h-0.1
					v-0.2c0.2,0,0.4,0,0.7,0c0.2,0,0.4,0,0.7,0v0.2h-0.1c-0.2,0-0.4,0.1-0.4,0.6v1.5c0,0.6-0.2,1.1-0.5,1.4s-0.8,0.5-1.3,0.5
					s-0.8-0.1-1.2-0.4c-0.4-0.3-0.6-0.8-0.6-1.4v-1.8c0-0.4-0.2-0.4-0.4-0.4h-0.1v-0.2c0.3,0,0.5,0,0.8,0s0.5,0,0.8,0v0.2H1181.9z"
					/>
			</g>
		</g>
		<g>
			<g>
				<defs>
					<rect id="SVGID_53_" x="1165.1" y="81.3" width="40.7" height="40.7"/>
				</defs>
				<clipPath id="SVGID_54_">
					<use xlink:href="#SVGID_53_"  style="overflow:visible;"/>
				</clipPath>
				<path class="st38" d="M1185.2,113.8L1185.2,113.8c0.4,0,0.5-0.1,0.5-0.7c0-0.8,0-1.8,0-2.5c0-0.4-0.1-0.5-0.4-0.5h-0.2v-0.2
					c0.2,0,0.4,0,0.5,0c0.2,0,0.3,0,0.5,0l2.9,3.3l0,0v-2.3c0-0.7-0.1-0.8-0.4-0.8h-0.1v-0.2c0.2,0,0.4,0,0.7,0c0.2,0,0.4,0,0.7,0
					v0.2h-0.1c-0.2,0-0.4,0.1-0.4,0.6l-0.1,3.3h-0.2l-3.1-3.5l0,0c0,0.9,0,1.8,0,2.6c0,0.5,0.1,0.6,0.4,0.6h0.1v0.2
					c-0.2,0-0.5,0-0.7,0S1185.3,113.9,1185.2,113.8L1185.2,113.8L1185.2,113.8z"/>
			</g>
		</g>
		<g>
			<g>
				<defs>
					<rect id="SVGID_55_" x="1165.1" y="81.3" width="40.7" height="40.7"/>
				</defs>
				<clipPath id="SVGID_56_">
					<use xlink:href="#SVGID_55_"  style="overflow:visible;"/>
				</clipPath>
				<path class="st39" d="M1193.9,110.9L1193.9,110.9c-0.3-0.3-0.6-0.9-1.7-0.9c-1.3,0-1.7,1.1-1.7,1.9c0,1.4,1.1,1.8,1.7,1.8
					c1,0,1.4-0.5,1.7-0.8l0,0v0.4c-0.2,0.2-0.7,0.6-1.7,0.6c-1.4,0-2.4-0.8-2.4-2c0-1.1,0.8-2.2,2.3-2.2c0.6,0,1.2,0.2,1.4,0.2
					c0.1,0,0.2,0.1,0.3,0.1L1193.9,110.9z"/>
			</g>
		</g>
		<g>
			<g>
				<defs>
					<rect id="SVGID_57_" x="1165.1" y="81.3" width="40.7" height="40.7"/>
				</defs>
				<clipPath id="SVGID_58_">
					<use xlink:href="#SVGID_57_"  style="overflow:visible;"/>
				</clipPath>
				<path class="st40" d="M1194.3,113.8L1194.3,113.8c0.4,0,0.5-0.1,0.5-0.5v-2.8c0-0.4-0.1-0.5-0.4-0.5h-0.1v-0.2
					c0.2,0,0.5,0,0.8,0s0.5,0,0.8,0v0.2h-0.1c-0.3,0-0.4,0.1-0.4,0.5v2.8c0,0.4,0.1,0.5,0.4,0.5h0.1v0.2c-0.3,0-0.5,0-0.8,0
					s-0.6,0-0.8,0V113.8z"/>
			</g>
		</g>
		<g>
			<g>
				<defs>
					<rect id="SVGID_59_" x="1165.1" y="81.3" width="40.7" height="40.7"/>
				</defs>
				<clipPath id="SVGID_60_">
					<use xlink:href="#SVGID_59_"  style="overflow:visible;"/>
				</clipPath>
				<path class="st41" d="M1196.4,113.8L1196.4,113.8c0.4,0,0.5-0.1,0.5-0.5v-2.8c0-0.4-0.1-0.5-0.4-0.5h-0.1v-0.2
					c0.2,0,0.5,0,0.8,0s0.5,0,0.8,0v0.2h-0.1c-0.3,0-0.4,0.1-0.4,0.5v2.6c0,0.4,0.1,0.6,0.9,0.6c1,0,1.1-0.2,1.2-0.8h0.2v1
					c-0.5,0-1.2,0-1.8,0C1197.3,113.9,1196.7,113.9,1196.4,113.8L1196.4,113.8L1196.4,113.8z"/>
			</g>
		</g>
		<g>
			<g>
				<defs>
					<rect id="SVGID_61_" x="1165.1" y="81.3" width="40.7" height="40.7"/>
				</defs>
				<clipPath id="SVGID_62_">
					<use xlink:href="#SVGID_61_"  style="overflow:visible;"/>
				</clipPath>
				<path class="st42" d="M1199.5,92c0.1-0.3,0.2-0.7,0.2-1c0-0.4-0.1-0.8-0.2-1.2c-0.2-0.5-0.6-1-1.1-1.3s-1.1-0.5-1.7-0.5
					c-0.4,0-0.8,0.1-1.1,0.2c-0.1,0-0.1,0-0.2,0.1v1c0.1-0.1,0.3-0.2,0.5-0.3c0.3-0.1,0.5-0.2,0.8-0.2s0.6,0.1,0.9,0.2
					c0.4,0.2,0.7,0.5,1,0.8c0.2,0.4,0.4,0.8,0.4,1.2c0,0.2-0.1,0.5-0.1,0.8c-0.1,0.3-0.2,0.5-0.4,0.7l0,0l-3,4.5v1.5l3.7-5.5
					C1199.2,92.6,1199.4,92.3,1199.5,92"/>
			</g>
		</g>
		<g>
			<g>
				<defs>
					<rect id="SVGID_63_" x="1165.1" y="81.3" width="40.7" height="40.7"/>
				</defs>
				<clipPath id="SVGID_64_">
					<use xlink:href="#SVGID_63_"  style="overflow:visible;"/>
				</clipPath>
				<path class="st43" d="M1198.4,91c0,1-0.8,1.8-1.8,1.8s-1.8-0.8-1.8-1.8s0.8-1.8,1.8-1.8S1198.4,90,1198.4,91"/>
			</g>
		</g>
	</g>
	<g>
		<path class="st44" d="M1130.2,61.9h-3.8v5.5c0,1.3,0.7,1.8,2,1.8c0.6,0,0.9,0,1.2-0.2l-0.4,3.6c-0.5,0.2-1.3,0.4-2.2,0.4
			c-3.3,0-5.3-1.8-5.3-4.7v-6.4h-2.5V58h2.5v-3.2l4.8-1.7V58h4.8L1130.2,61.9z"/>
		<path class="st44" d="M1144.1,63.1c-0.3-0.2-0.9-0.4-1.4-0.4c-1.5,0-2.9,0.8-2.9,3.2v6.9h-4.8V58h4.7v3.3l0,0
			c0.5-2.3,2.2-3.6,4.2-3.6c0.5,0,1,0.1,1.4,0.2L1144.1,63.1z"/>
		<path class="st44" d="M1157.7,73.4c-0.9-0.2-1.9-0.9-2.3-2c-0.7,1.2-2.1,1.8-3.8,1.8c-2.6,0-4.9-1.8-4.9-4.9
			c0-2.7,2.1-4.5,5.1-4.8l2.9-0.3v-0.5c0-0.9-0.7-1.5-2.3-1.5c-1.4,0-3,0.5-4.1,1.1l-0.8-3.6c1.2-0.8,3.2-1.3,5.2-1.3
			c3.9,0,6.7,1.8,6.7,5.3v4.8c0,1.7,0.7,2.6,1.8,3.1L1157.7,73.4z M1154.7,66.3l-1.8,0.2c-1.2,0.1-1.8,1-1.8,1.9
			c0,0.8,0.6,1.4,1.5,1.4c1.1,0,2.1-0.9,2.1-2.2L1154.7,66.3L1154.7,66.3z"/>
		<path class="st44" d="M1169.8,72.9h-3.6l-5.7-14.9h4.6l2.1,5.6c0.3,0.8,0.6,1.9,0.8,2.9h0.1c0.2-0.9,0.6-2.1,0.8-2.9l2.1-5.6h4.4
			L1169.8,72.9z"/>
		<path class="st44" d="M1190.4,64.5l-2.1,2.2h-7.3c0.2,1.2,1.9,2.6,4.4,2.6c1.5,0,3.1-0.5,4.1-1.1l-0.5,4.1c-1.1,0.6-2.8,1-4.7,1
			c-4.5,0-8.1-3.1-8.1-8c0-4.8,3.5-7.8,7.7-7.8c4.1,0,6.6,2.8,6.6,5.9C1190.5,63.8,1190.4,64.3,1190.4,64.5 M1183.9,61.1
			c-1.4,0-2.6,1.1-2.9,2.4h5c0-0.1,0-0.2,0-0.3C1186,62.2,1185.2,61.1,1183.9,61.1"/>
		<path class="st44" d="M1198.1,73.4c-3-0.1-5.1-1.7-5.1-5.3V49.5h4.7v18c0,1.2,0.7,1.9,2,2L1198.1,73.4z"/>
		<path class="st44" d="M1206.7,73.1c-2,0-3.5-0.4-4.7-1l-0.4-4.2c1.3,0.9,3,1.6,4.6,1.6c0.9,0,1.4-0.5,1.4-1c0-0.6-0.5-0.9-1.3-1.1
			c-2.8-0.8-4.5-2.3-4.5-4.8c0-2.9,2.3-4.8,5.5-4.8c1.8,0,3.6,0.5,4.4,0.9l-0.8,3.5c-0.7-0.4-1.9-0.8-3.1-0.8
			c-0.8,0-1.3,0.4-1.3,0.9c0,0.6,0.4,0.8,1.3,1.1c3.3,0.9,4.7,2.5,4.7,5C1212.6,70.8,1210.7,73.1,1206.7,73.1"/>
		<path class="st44" d="M1126.3,83.8c-0.2,0-0.3-0.2-0.4-0.4c-0.1,0.3-0.3,0.4-0.6,0.4c-0.4,0-0.7-0.3-0.7-0.7
			c0-0.4,0.4-0.7,0.7-0.7l0.6-0.1v-0.2c0-0.2-0.2-0.4-0.5-0.4c-0.2,0-0.5,0.1-0.6,0.2l-0.1-0.3c0.2-0.1,0.4-0.2,0.7-0.2
			c0.5,0,0.9,0.3,0.9,0.8v1c0,0.2,0.1,0.3,0.3,0.4L1126.3,83.8z M1125.9,82.7h-0.5c-0.3,0-0.4,0.2-0.4,0.4c0,0.2,0.2,0.3,0.4,0.3
			c0.3,0,0.5-0.2,0.5-0.5V82.7z"/>
		<path class="st44" d="M1127.9,83.8c-0.3,0-0.5-0.1-0.6-0.2v1.3h-0.4v-3.4h0.4v0.2l0,0c0.1-0.1,0.3-0.3,0.7-0.3
			c0.5,0,1.1,0.4,1.1,1.2C1129,83.3,1128.5,83.8,1127.9,83.8 M1127.8,81.8c-0.3,0-0.5,0.1-0.6,0.3v1.1c0.1,0.1,0.3,0.2,0.6,0.2
			c0.4,0,0.8-0.3,0.8-0.8S1128.3,81.8,1127.8,81.8"/>
		<path class="st44" d="M1130.5,83.8c-0.3,0-0.5-0.1-0.6-0.2v1.3h-0.4v-3.4h0.4v0.2l0,0c0.1-0.1,0.3-0.3,0.7-0.3
			c0.5,0,1.1,0.4,1.1,1.2C1131.7,83.3,1131.2,83.8,1130.5,83.8 M1130.5,81.8c-0.3,0-0.5,0.1-0.6,0.3v1.1c0.1,0.1,0.3,0.2,0.6,0.2
			c0.4,0,0.8-0.3,0.8-0.8S1130.9,81.8,1130.5,81.8"/>
		<path class="st44" d="M1133.3,81.9c0,0-0.1,0-0.2,0c-0.3,0-0.6,0.2-0.6,0.8v1.1h-0.4v-2.3h0.4V82l0,0c0.1-0.3,0.3-0.5,0.7-0.5
			c0.1,0,0.2,0,0.2,0L1133.3,81.9z"/>
		<path class="st44" d="M1134.6,83.8c-0.7,0-1.2-0.5-1.2-1.2s0.5-1.2,1.2-1.2s1.2,0.5,1.2,1.2S1135.3,83.8,1134.6,83.8 M1134.6,81.8
			c-0.4,0-0.8,0.3-0.8,0.8s0.4,0.8,0.8,0.8s0.8-0.3,0.8-0.8C1135.4,82.1,1135.1,81.8,1134.6,81.8"/>
		<path class="st44" d="M1137.1,83.8L1137.1,83.8l-1.1-2.3h0.4l0.5,1.1c0.1,0.2,0.1,0.4,0.2,0.5l0,0c0.1-0.2,0.1-0.4,0.2-0.5
			l0.4-1.1h0.4L1137.1,83.8z"/>
		<path class="st44" d="M1140.4,82.5l-0.2,0.2h-1.5c0,0.4,0.3,0.8,0.9,0.8c0.3,0,0.5-0.1,0.7-0.2v0.4c-0.2,0.1-0.4,0.2-0.7,0.2
			c-0.6,0-1.2-0.5-1.2-1.2s0.6-1.2,1.1-1.2C1140.1,81.5,1140.5,81.9,1140.4,82.5C1140.4,82.4,1140.4,82.4,1140.4,82.5 M1139.4,81.8
			c-0.3,0-0.7,0.3-0.7,0.6h1.3c0,0,0,0,0-0.1C1140,82.1,1139.8,81.8,1139.4,81.8"/>
		<path class="st44" d="M1142.5,83.8v-0.2l0,0c-0.1,0.1-0.3,0.3-0.7,0.3c-0.5,0-1.1-0.4-1.1-1.2c0-0.7,0.5-1.2,1.2-1.2
			c0.3,0,0.5,0.1,0.6,0.2v-1.5h0.4v3.6C1142.9,83.8,1142.5,83.8,1142.5,83.8z M1142.5,82c-0.1-0.1-0.3-0.2-0.6-0.2
			c-0.4,0-0.8,0.3-0.8,0.8s0.4,0.8,0.8,0.8c0.3,0,0.5-0.1,0.6-0.3V82z"/>
		<path class="st44" d="M1145.6,83.8c-0.4,0-0.8-0.1-0.9-0.3v-3.3h0.4v1.5c0.1-0.1,0.4-0.2,0.7-0.2c0.7,0,1.1,0.5,1.1,1.2
			C1146.9,83.3,1146.4,83.8,1145.6,83.8 M1145.7,81.8c-0.3,0-0.5,0.1-0.6,0.2v1.3c0.1,0.1,0.3,0.1,0.5,0.1c0.5,0,0.9-0.4,0.9-0.9
			C1146.5,82.1,1146.1,81.8,1145.7,81.8"/>
		<path class="st44" d="M1148.3,83.6c-0.3,0.8-0.7,1.2-1.1,1.4l-0.2-0.2c0.4-0.2,0.7-0.5,1-1.1l-0.9-2.1h0.4l0.4,1.1
			c0.1,0.2,0.1,0.4,0.2,0.6l0,0c0.1-0.2,0.2-0.4,0.2-0.6l0.4-1.1h0.4L1148.3,83.6z"/>
		<path class="st44" d="M1140.6,48.5c-2.3,0-4.6-0.7-5.8-1.4l-0.5-4.7c1.7,1.2,3.9,2,6,2c1.8,0,2.9-0.8,2.9-2.1
			c0-1.2-0.8-1.9-2.7-2.4c-4.1-1.1-6-3.4-6-6.5c0-3.5,2.6-6.2,7.1-6.2c2.4,0,4.4,0.7,5.2,1.2l-0.8,3.9c-0.8-0.5-2.5-1.1-3.9-1.1
			c-1.8,0-2.6,0.8-2.6,1.8c0,1,0.9,1.6,2.5,2.1c4,1.1,6.4,3.2,6.4,6.8C1148.3,45.9,1145.7,48.5,1140.6,48.5"/>
		<path class="st44" d="M1161.8,48.8c-0.9-0.2-1.9-0.9-2.3-2c-0.7,1.2-2.1,1.8-3.8,1.8c-2.6,0-4.9-1.8-4.9-4.9
			c0-2.7,2.1-4.5,5.1-4.8l2.9-0.3v-0.5c0-0.9-0.7-1.5-2.3-1.5c-1.4,0-3,0.5-4.1,1.1l-0.8-3.6c1.2-0.8,3.2-1.3,5.2-1.3
			c3.9,0,6.7,1.8,6.7,5.3v4.8c0,1.7,0.7,2.6,1.8,3.1L1161.8,48.8z M1158.8,41.7l-1.8,0.2c-1.2,0.1-1.8,1-1.8,1.9
			c0,0.8,0.6,1.4,1.5,1.4c1.1,0,2.1-0.9,2.1-2.2L1158.8,41.7L1158.8,41.7z"/>
		<path class="st44" d="M1177.7,29.2c-0.6-0.2-1.3-0.4-1.9-0.4c-1.8,0-2.7,1-2.7,3.2v1.4h4.2l-0.9,3.9h-3.3v10.9h-4.6V37.3h-2.3
			v-3.9h2.3v-1.7c0-4.5,2.9-6.7,6.6-6.7c1.4,0,2.7,0.2,3.5,0.5L1177.7,29.2z"/>
		<path class="st44" d="M1192.2,40l-2.1,2.2h-7.2c0.2,1.2,1.9,2.6,4.4,2.6c1.5,0,3.1-0.5,4.1-1.1l-0.5,4.1c-1.1,0.6-2.8,1-4.7,1
			c-4.5,0-8.1-3.1-8.1-8c0-4.8,3.5-7.8,7.7-7.8c4.1,0,6.6,2.8,6.6,5.9C1192.3,39.2,1192.3,39.7,1192.2,40 M1185.7,36.5
			c-1.4,0-2.6,1.1-2.9,2.4h5c0-0.1,0-0.2,0-0.3C1187.9,37.6,1187,36.5,1185.7,36.5"/>
	</g>
	<g>
		<g>
			<g>
				<g>
					<polygon class="st45" points="1214.8,85.7 1226.2,97.1 1222.7,100.5 1214.8,92.6 					"/>
					<polygon class="st46" points="1237.6,85.7 1226.2,97.1 1222.7,93.7 1230.7,85.7 					"/>
					<polygon class="st47" points="1237.6,108.5 1226.2,97.1 1229.6,93.7 1237.6,101.7 					"/>
					<polygon class="st48" points="1214.8,108.5 1226.2,97.1 1229.6,100.5 1221.6,108.5 					"/>
					<polygon class="st49" points="1237.6,85.7 1226.2,97.1 1229.6,100.5 1237.6,92.6 					"/>
					<polygon class="st7" points="1214.8,85.7 1226.2,97.1 1229.6,93.7 1221.6,85.7 					"/>
					<polygon class="st8" points="1214.8,108.5 1226.2,97.1 1222.7,93.7 1214.8,101.7 					"/>
					<polygon class="st50" points="1237.6,108.5 1226.2,97.1 1222.7,100.5 1230.7,108.5 					"/>
				</g>
			</g>
		</g>
		<g>
			<path d="M1236.6,112c-0.5,0-0.9-0.4-0.9-0.9s0.4-0.9,0.9-0.9s0.9,0.4,0.9,0.9C1237.6,111.6,1237.1,112,1236.6,112z M1236.6,110.4
				c-0.3,0-0.5,0.1-0.6,0.4c0,0.1-0.1,0.2-0.1,0.3c0,0.1,0,0.2,0.1,0.3c0.1,0.3,0.3,0.4,0.6,0.4c0.3,0,0.5-0.2,0.6-0.4
				c0-0.1,0-0.2,0-0.2C1237.3,110.7,1237,110.4,1236.6,110.4z"/>
			<path d="M1226.3,112c-0.4,0-0.7-0.3-0.7-0.7v-1.1h0.3v1.1c0,0.3,0.2,0.5,0.5,0.5s0.5-0.2,0.5-0.5v-1.1h0.3v1.1
				C1227,111.7,1226.7,112,1226.3,112z"/>
			<path d="M1221.3,112h0.3l-0.4-0.7c0.1,0,0.2-0.1,0.2-0.1c0.1-0.1,0.1-0.1,0.1-0.2l0,0l0,0l0,0l0,0l0,0l0,0l0,0l0,0l0,0l0,0l0,0
				l0,0l0,0l0,0l0,0l0,0l0,0c0-0.1-0.1-0.2-0.1-0.3c-0.1-0.1-0.3-0.1-0.5-0.1h-0.6v0.4v0.7v0.6h0.3v-0.6h0.2L1221.3,112z
				 M1220.6,110.4h0.3c0.2,0,0.3,0.1,0.4,0.2c0,0,0,0.1,0,0.2v0.1l0,0l0,0l0,0l0,0l0,0l0,0c0,0,0,0-0.1,0.1l0,0l0,0
				c0,0-0.1,0-0.1,0.1l0,0l0,0h-0.1h-0.3v-0.5v-0.2C1220.7,110.4,1220.6,110.4,1220.6,110.4z"/>
			<path d="M1231.9,110.9L1231.9,110.9L1231.9,110.9C1231.9,110.9,1231.9,110.8,1231.9,110.9
				C1231.9,110.8,1231.9,110.8,1231.9,110.9L1231.9,110.9L1231.9,110.9L1231.9,110.9L1231.9,110.9L1231.9,110.9L1231.9,110.9
				L1231.9,110.9L1231.9,110.9L1231.9,110.9L1231.9,110.9L1231.9,110.9c0-0.2-0.1-0.3-0.1-0.4c-0.1-0.1-0.3-0.1-0.5-0.1h-0.6v0.4
				v0.7v0.6h0.3v-0.6h0.3c0.2,0,0.3,0,0.5-0.1C1231.8,111.1,1231.8,111,1231.9,110.9C1231.8,111,1231.8,111,1231.9,110.9
				L1231.9,110.9z M1230.9,110.4h0.3c0.2,0,0.3,0.1,0.4,0.2c0,0,0,0.1,0,0.2v0.1l0,0l0,0l0,0l0,0l0,0l0,0c0,0,0,0-0.1,0.1l0,0l0,0
				c0,0-0.1,0-0.1,0.1l0,0l0,0h-0.1h-0.3v-0.5L1230.9,110.4L1230.9,110.4z"/>
			<path d="M1216.5,111.1L1216.5,111.1h-0.8v0.2h0.6c-0.1,0.2-0.3,0.4-0.6,0.4c-0.4,0-0.7-0.3-0.7-0.7s0.3-0.7,0.7-0.7
				c0.2,0,0.4,0.1,0.5,0.2l0,0l0,0h0.3c0-0.1-0.1-0.1-0.1-0.2l0,0c-0.2-0.2-0.4-0.3-0.7-0.3c-0.5,0-0.9,0.4-0.9,0.9s0.4,0.9,0.9,0.9
				s0.9-0.4,0.9-0.9h-0.1L1216.5,111.1L1216.5,111.1z"/>
		</g>
		<g>
			<path d="M1226.6,114L1226.6,114c-0.4-0.3-0.8-0.4-1.2-0.4s-0.8,0.1-1.2,0.4c-0.6,0.4-0.9,1-0.9,1.7c0,0.4,0.1,0.9,0.4,1.2
				c0.4,0.5,1,0.8,1.6,0.8h0.1c0.4,0,0.8-0.1,1.2-0.4v0.4h0.8v-4.1h-0.8V114z M1226.6,115.7c0,0.2-0.1,0.4-0.2,0.7
				c-0.3,0.3-0.6,0.5-1,0.5h-0.1c-0.2,0-0.4,0-0.6-0.1c-0.4-0.3-0.7-0.6-0.7-1.1c0-0.2,0.1-0.5,0.2-0.7c0.3-0.3,0.6-0.5,1-0.5
				c0.2,0,0.4,0.1,0.6,0.2C1226.4,114.9,1226.6,115.2,1226.6,115.7L1226.6,115.7z"/>
			<path d="M1222.4,116.4c-0.3,0.4-0.6,0.6-1,0.6c-0.2,0-0.4-0.1-0.6-0.2c-0.4-0.3-0.6-0.6-0.6-1.1c0-0.2,0.1-0.4,0.2-0.6
				c0.3-0.4,0.6-0.6,1-0.6s0.8,0.2,1,0.6l0,0l0.5-0.6c-0.4-0.5-0.9-0.7-1.6-0.7c-0.5,0-1,0.2-1.4,0.5c-0.4,0.4-0.7,0.9-0.7,1.5
				c0,0.5,0.1,0.9,0.4,1.3c0.4,0.5,1,0.8,1.6,0.8l0,0c0.5,0,0.9-0.2,1.3-0.5c0.1-0.1,0.2-0.2,0.3-0.3L1222.4,116.4L1222.4,116.4z"/>
			<path d="M1232.8,113.6c-0.5,0-0.9,0.2-1.3,0.5c-0.5,0.4-0.7,1-0.7,1.6c0,0.5,0.2,0.9,0.5,1.3c0.4,0.5,1,0.7,1.6,0.7l0,0
				c0.5,0,1-0.2,1.4-0.5l-0.5-0.6l0,0c-0.3,0.2-0.6,0.4-0.9,0.4c-0.2,0-0.4,0-0.6-0.1c-0.3-0.2-0.5-0.4-0.6-0.7h3.2
				c0-0.1,0-0.3,0-0.4c0-0.5-0.2-0.9-0.5-1.3C1233.9,113.9,1233.4,113.6,1232.8,113.6z M1231.6,115.3l0.1-0.2
				c0.3-0.4,0.6-0.6,1.1-0.6c0.2,0,0.4,0.1,0.6,0.2c0.3,0.2,0.5,0.4,0.6,0.7L1231.6,115.3L1231.6,115.3z"/>
			<path d="M1230.7,113.6c-0.7,0-1.2,0.2-1.6,0.5l0,0v-0.5h-0.8v4.1h0.8v-2c0-0.1,0-0.3,0.1-0.4c0.2-0.6,0.8-0.8,1.5-0.8V113.6z"/>
			<g>
				<polygon points="1217.6,115.7 1219.3,113.6 1218.2,113.6 1218.1,113.7 1217.1,115 1215.9,113.6 1215.9,113.6 1215.9,113.6 
					1214.8,113.6 1215,113.8 1216.5,115.7 1216.5,115.7 1214.8,117.7 1214.8,117.7 1215.9,117.7 1217,116.3 1218.2,117.7 
					1219.3,117.7 				"/>
			</g>
			<polygon points="1237.6,113.6 1236.6,113.6 1236.6,112.9 1235.8,112.9 1235.8,113.6 1234.8,113.6 1234.8,114.4 1235.8,114.4 
				1235.8,117.7 1236.6,117.7 1236.6,114.4 1237.6,114.4 			"/>
		</g>
		<path class="st1" d="M1237.5,108.6"/>
		<path class="st1" d="M1214.7,85.9"/>
		<g>
			<path d="M1238.3,87.2c0-0.2,0-0.4,0.1-0.5c0.1-0.2,0.2-0.3,0.3-0.4s0.3-0.2,0.4-0.3c0.2-0.1,0.3-0.1,0.5-0.1s0.3,0,0.5,0.1
				s0.3,0.2,0.4,0.3c0.1,0.1,0.2,0.3,0.3,0.4c0.1,0.2,0.1,0.3,0.1,0.5s0,0.4-0.1,0.5c-0.1,0.2-0.2,0.3-0.3,0.4
				c-0.1,0.1-0.3,0.2-0.4,0.3c-0.2,0.1-0.3,0.1-0.5,0.1s-0.3,0-0.5-0.1s-0.3-0.2-0.4-0.3c-0.1-0.1-0.2-0.3-0.3-0.4
				C1238.4,87.5,1238.3,87.4,1238.3,87.2z M1238.6,87.2c0,0.2,0,0.3,0.1,0.4s0.1,0.3,0.2,0.4s0.2,0.2,0.3,0.2
				c0.1,0.1,0.3,0.1,0.4,0.1s0.3,0,0.4-0.1s0.2-0.1,0.3-0.2s0.2-0.2,0.2-0.4c0.1-0.1,0.1-0.3,0.1-0.4c0-0.2,0-0.3-0.1-0.4
				s-0.1-0.3-0.2-0.4s-0.2-0.2-0.3-0.2c-0.1-0.1-0.3-0.1-0.4-0.1s-0.3,0-0.4,0.1s-0.2,0.1-0.3,0.2s-0.2,0.2-0.2,0.4
				C1238.6,86.9,1238.6,87,1238.6,87.2z M1239.1,86.4h0.6c0.4,0,0.5,0.1,0.5,0.4c0,0.1,0,0.2-0.1,0.3c-0.1,0.1-0.2,0.1-0.3,0.1
				l0.4,0.7h-0.2l-0.4-0.7h-0.2v0.7h-0.2L1239.1,86.4L1239.1,86.4z M1239.4,87.1h0.2c0.1,0,0.1,0,0.2,0h0.1c0,0,0.1,0,0.1-0.1v-0.1
				c0-0.1,0-0.1,0-0.1s0-0.1-0.1-0.1h-0.1h-0.1h-0.3L1239.4,87.1L1239.4,87.1z"/>
		</g>
	</g>
</g>
</svg>
