<?xml version="1.0" encoding="utf-8"?>
<!-- Generator: Adobe Illustrator 24.2.0, SVG Export Plug-In . SVG Version: 6.00 Build 0)  -->
<svg version="1.1" id="Capa_1" xmlns="http://www.w3.org/2000/svg" xmlns:xlink="http://www.w3.org/1999/xlink" x="0px" y="0px"
	 viewBox="0 0 858.9 122.2" style="enable-background:new 0 0 858.9 122.2;" xml:space="preserve">
<style type="text/css">
	.st0{fill:none;}
	.st1{fill:#59A7D7;}
	.st2{fill:#8A009F;}
	.st3{fill:#E57015;}
	.st4{fill:#8AB044;}
	.st5{fill:#C30084;}
	.st6{fill:#214385;}
	.st7{fill:#008538;}
	.st8{fill:#FFA200;}
	.st9{fill:#FFFFFF;}
	.st10{fill:none;stroke:#4FFFD3;stroke-width:0.6602;stroke-miterlimit:10;}
	.st11{clip-path:url(#SVGID_2_);}
	.st12{opacity:0.8;fill:#88B140;enable-background:new    ;}
</style>
<g>
	<g>
		<rect x="-0.5" y="0.4" width="429.9" height="122.2"/>
		<path class="st0" d="M139.7,79.4"/>
	</g>
	<g>
		<g>
			<g>
				<g>
					<polygon class="st1" points="354.2,28.2 378,51.9 370.8,59.1 354.2,42.5 					"/>
					<polygon class="st2" points="401.8,28.2 378,51.9 370.8,44.8 387.5,28.2 					"/>
					<polygon class="st3" points="401.8,75.7 378,51.9 385.1,44.8 401.8,61.4 					"/>
					<polygon class="st4" points="354.2,75.7 378,51.9 385.1,59.1 368.5,75.7 					"/>
					<polygon class="st5" points="401.8,28.2 378,51.9 385.1,59.1 401.8,42.5 					"/>
					<polygon class="st6" points="354.2,28.2 378,51.9 385.1,44.8 368.5,28.2 					"/>
					<polygon class="st7" points="354.2,75.7 378,51.9 370.8,44.8 354.2,61.4 					"/>
					<polygon class="st8" points="401.8,75.7 378,51.9 370.8,59.1 387.5,75.7 					"/>
				</g>
			</g>
		</g>
		<g>
			<path class="st9" d="M399.9,83.1c-1.1,0-1.9-0.9-1.9-1.9c0-1.1,0.9-1.9,1.9-1.9c1.1,0,1.9,0.9,1.9,1.9S400.9,83.1,399.9,83.1z
				 M399.9,79.7c-0.6,0-1,0.3-1.3,0.8c-0.1,0.2-0.1,0.4-0.1,0.6s0.1,0.4,0.1,0.6c0.2,0.5,0.7,0.8,1.3,0.8c0.6,0,1.1-0.4,1.3-0.9
				c0.1-0.2,0.1-0.3,0.1-0.5C401.3,80.3,400.7,79.7,399.9,79.7z"/>
			<path class="st9" d="M378.2,83.1c-0.8,0-1.5-0.7-1.5-1.5v-2.3h0.5v2.3c0,0.5,0.4,1,1,1s1-0.4,1-1v-2.3h0.5v2.3
				C379.7,82.4,379,83.1,378.2,83.1z"/>
			<path class="st9" d="M367.7,83h0.7l-0.9-1.4c0.2,0,0.3-0.1,0.5-0.3c0.1-0.1,0.2-0.3,0.3-0.4l0,0c0,0,0,0,0-0.1v-0.1l0,0
				c0,0,0,0,0-0.1l0,0v-0.1l0,0l0,0l0,0l0,0c0,0,0,0,0-0.1c0,0,0,0,0-0.1c0,0,0,0,0-0.1c0,0,0,0,0-0.1c0,0,0,0,0-0.1l0,0
				c0-0.2-0.1-0.4-0.3-0.6c-0.3-0.3-0.6-0.3-1-0.3h-1.2V80v1.5V83h0.5v-1.3h0.5L367.7,83z M366.3,79.8h0.6c0.3,0,0.6,0.1,0.7,0.4
				c0,0.1,0.1,0.2,0.1,0.3c0,0.1,0,0.1,0,0.2l0,0c0,0,0,0,0,0.1l0,0l0,0l0,0l0,0l-0.1,0.1l0,0l0,0c-0.1,0-0.1,0.1-0.2,0.1l0,0l0,0
				c-0.1,0-0.2,0-0.3,0h-0.6v-1v-0.2H366.3z"/>
			<path class="st9" d="M389.9,80.8C389.9,80.8,389.9,80.7,389.9,80.8C389.9,80.7,389.9,80.7,389.9,80.8c0-0.1,0-0.1,0-0.2l0,0v-0.1
				l0,0l0,0l0,0l0,0c0,0,0,0,0-0.1c0,0,0,0,0-0.1c0,0,0,0,0-0.1c0,0,0,0,0-0.1c0,0,0,0,0-0.1l0,0c0-0.2-0.1-0.4-0.3-0.6
				c-0.3-0.3-0.6-0.3-1-0.3h-1.2V80v1.5V83h0.5v-1.3h0.6c0.4,0,0.7-0.1,1-0.3C389.7,81.2,389.8,81.1,389.9,80.8
				C389.8,80.9,389.9,80.9,389.9,80.8L389.9,80.8z M388,79.8h0.6c0.3,0,0.6,0.1,0.7,0.4c0,0.1,0.1,0.2,0.1,0.3c0,0.1,0,0.1,0,0.2
				l0,0c0,0,0,0,0,0.1l0,0l0,0l0,0l0,0l-0.1,0.1l0,0l0,0c-0.1,0-0.1,0.1-0.2,0.1l0,0l0,0c-0.1,0-0.2,0-0.3,0H388v-1V79.8z"/>
			<path class="st9" d="M357.8,81.1L357.8,81.1h-1.7v0.5h1.3c-0.2,0.5-0.7,0.9-1.3,0.9c-0.8,0-1.4-0.6-1.4-1.4s0.6-1.4,1.4-1.4
				c0.4,0,0.7,0.2,1,0.4l0,0l0,0h0.7c-0.1-0.1-0.2-0.3-0.3-0.4l0,0c-0.4-0.4-0.9-0.6-1.4-0.6c-1.1,0-1.9,0.9-1.9,1.9
				s0.9,1.9,1.9,1.9c1.1,0,1.9-0.9,1.9-1.9L357.8,81.1L357.8,81.1z"/>
		</g>
		<g>
			<path class="st9" d="M378.9,87.3L378.9,87.3c-0.8-0.6-1.7-0.8-2.6-0.8s-1.7,0.3-2.5,0.8c-1.2,0.9-1.8,2.1-1.8,3.5
				c0,0.9,0.3,1.8,0.9,2.6c0.9,1.1,2.1,1.7,3.3,1.7h0.2c0.8,0,1.6-0.3,2.4-0.8V95h1.7v-8.6h-1.7v0.9H378.9z M378.9,90.8
				c0,0.5-0.2,0.9-0.5,1.4c-0.6,0.7-1.3,1.1-2,1.1h-0.1c-0.4,0-0.8-0.1-1.2-0.3c-0.9-0.6-1.4-1.3-1.4-2.3c0-0.5,0.2-1,0.5-1.5
				c0.6-0.7,1.3-1.1,2.1-1.1c0.4,0,0.9,0.1,1.3,0.4c0.9,0.6,1.3,1.3,1.3,2.2L378.9,90.8L378.9,90.8z"/>
			<path class="st9" d="M370.1,92.2c-0.6,0.8-1.3,1.2-2.2,1.2c-0.4,0-0.8-0.1-1.3-0.3c-0.9-0.6-1.3-1.3-1.3-2.3
				c0-0.4,0.1-0.9,0.4-1.4c0.6-0.8,1.3-1.2,2.2-1.2c0.9,0,1.6,0.4,2.2,1.2l0,0l1.1-1.3c-0.9-1-2-1.5-3.3-1.5c-1.1,0-2.1,0.4-2.9,1.1
				c-0.9,0.9-1.4,2-1.4,3.2c0,0.9,0.3,1.8,0.9,2.6c0.9,1.1,2.1,1.7,3.4,1.7h0.1c1,0,1.9-0.3,2.7-1c0.3-0.2,0.5-0.4,0.6-0.6
				L370.1,92.2L370.1,92.2z"/>
			<path class="st9" d="M391.8,86.4c-1,0-2,0.3-2.8,1c-1,0.9-1.5,2-1.5,3.3c0,1,0.3,1.9,1,2.8c0.9,1,2,1.5,3.3,1.5l0,0
				c1.1,0,2.1-0.4,2.9-1.1l-1.1-1.3l0,0c-0.5,0.5-1.2,0.7-1.8,0.7c-0.4,0-0.8-0.1-1.2-0.3c-0.6-0.3-1.1-0.8-1.3-1.5h6.6
				c0-0.3,0.1-0.5,0.1-0.9c0-1-0.3-1.9-1-2.8C394.1,86.9,393,86.4,391.8,86.4z M389.3,89.9l0.2-0.4c0.6-0.9,1.3-1.3,2.2-1.3
				c0.4,0,0.8,0.1,1.3,0.3c0.6,0.4,1,0.8,1.2,1.4H389.3z"/>
			<path class="st9" d="M387.4,86.4c-1.4,0-2.5,0.3-3.4,1l0,0v-1h-1.7V95h1.7v-4.2c0-0.3,0.1-0.6,0.2-0.9c0.5-1.2,1.6-1.7,3.2-1.7
				L387.4,86.4L387.4,86.4z"/>
			<g>
				<polygon class="st9" points="360,90.7 363.6,86.4 361.4,86.4 361.2,86.7 358.9,89.4 356.5,86.4 356.5,86.4 356.4,86.4 
					354.3,86.4 354.6,86.8 357.8,90.7 357.8,90.7 354.2,95 354.2,95 356.5,95 358.9,92.1 361.4,95 363.6,95 				"/>
			</g>
			<polygon class="st9" points="401.8,86.4 399.8,86.4 399.8,84.9 398.1,84.9 398.1,86.4 396.1,86.4 396.1,88.1 398.1,88.1 
				398.1,95 399.8,95 399.8,88.1 401.8,88.1 			"/>
		</g>
		<path class="st0" d="M401.7,76"/>
		<path class="st0" d="M354.1,28.5"/>
		<g>
			<path class="st9" d="M403.4,31.2c0-0.4,0.1-0.7,0.2-1.1c0.1-0.3,0.3-0.6,0.6-0.9c0.2-0.2,0.5-0.4,0.9-0.6c0.3-0.1,0.7-0.2,1-0.2
				c0.4,0,0.7,0.1,1,0.2s0.6,0.3,0.9,0.6c0.2,0.2,0.4,0.5,0.6,0.9c0.1,0.3,0.2,0.7,0.2,1.1s-0.1,0.8-0.2,1.1s-0.3,0.6-0.6,0.9
				c-0.2,0.2-0.5,0.4-0.9,0.6c-0.3,0.1-0.7,0.2-1,0.2c-0.4,0-0.7-0.1-1-0.2c-0.3-0.1-0.6-0.3-0.9-0.6c-0.2-0.2-0.4-0.5-0.6-0.9
				C403.5,31.9,403.4,31.6,403.4,31.2z M403.9,31.2c0,0.3,0.1,0.6,0.2,0.9c0.1,0.3,0.3,0.5,0.5,0.7s0.4,0.4,0.7,0.5
				c0.3,0.1,0.6,0.2,0.9,0.2s0.6-0.1,0.9-0.2c0.3-0.1,0.5-0.3,0.7-0.5s0.4-0.5,0.5-0.7c0.1-0.3,0.2-0.6,0.2-0.9s-0.1-0.6-0.2-0.9
				s-0.3-0.5-0.5-0.7s-0.4-0.4-0.7-0.5c-0.3-0.1-0.6-0.2-0.9-0.2s-0.6,0.1-0.9,0.2s-0.5,0.3-0.7,0.5s-0.4,0.5-0.5,0.7
				C404,30.5,403.9,30.8,403.9,31.2z M405.1,29.6h1.2c0.7,0,1.1,0.3,1.1,0.9c0,0.3-0.1,0.5-0.2,0.6c-0.2,0.1-0.4,0.2-0.6,0.2
				l0.9,1.4H407l-0.9-1.4h-0.5v1.4h-0.5V29.6z M405.6,31h0.5c0.1,0,0.2,0,0.3,0c0.1,0,0.2,0,0.3-0.1c0.1,0,0.1-0.1,0.2-0.2
				c0-0.1,0.1-0.2,0.1-0.3c0-0.1,0-0.2-0.1-0.3c0-0.1-0.1-0.1-0.2-0.1s-0.1-0.1-0.2-0.1s-0.2,0-0.2,0h-0.6L405.6,31L405.6,31z"/>
		</g>
	</g>
	<path class="st10" d="M326.6,94.6"/>
	<rect x="340.6" y="28.1" class="st9" width="0.7" height="67"/>
	<g>
		<path class="st9" d="M60.5,79.1c-9.6,0-17.4-7.8-17.4-17.4s7.8-17.4,17.4-17.4S77.9,52,77.9,61.7C77.9,71.3,70.1,79.1,60.5,79.1z
			 M60.5,45.6c-8.9,0-16.1,7.2-16.1,16.1s7.2,16.1,16.1,16.1s16.1-7.2,16.1-16.1S69.4,45.6,60.5,45.6z"/>
		<g>
			<g>
				<defs>
					<circle id="SVGID_1_" cx="60.5" cy="61.7" r="16.8"/>
				</defs>
				<clipPath id="SVGID_2_">
					<use xlink:href="#SVGID_1_"  style="overflow:visible;"/>
				</clipPath>
				<g class="st11">
					<path class="st9" d="M49.1,41.4c3.9-0.8,8.6-0.6,13.1,0c0.6,0.1,3.7-0.2,5,1.6c0.9,1.3,2.3,3.9,1.5,5.3c-0.3,0.5-0.8,1-1.1,1.5
						c-1,1.8-0.2,4.1-0.7,6.1c-0.1,0.4-0.3,0.9-0.6,1.2c-0.5,0.5-1.4,0.4-2.4,0.7c-0.8,0.2-2.2,1.5-1.9,2.8c0.4,2.3,1.7,4,4.2,4.4
						c1.1,0.2,2.2-0.5,2.9-2c0.2-0.5,1-1.1,2-0.9c0.8,0.2,1.2,0.7,1.3,1.5c0.1,0.5-0.2,1.6-0.6,2.1c-1.3,1.3-3.4,1.7-3.4,3.5
						c0,0.7,0.6,1.3,1.3,1.6s1.4,0.3,2.1,0.4c1.2,0.2,2.3,0.5,3.4,0.9c0.7,0.3,1.4,0.5,2,1c1.3,1.1,1.6,2.9,1.4,4.5
						c-0.3,1.6-1.1,3.1-1.9,4.5c-0.9,1.6-1.8,3.1-2.7,4.7l-11,1.3c-2.2-4.9-4-9.4-2.8-14.6c0.2-0.9,2-2.3,2.8-2.8
						c0.4-0.3,0.9-0.3,1.4-0.5c0.8-0.3,1.5-0.8,1-1.8c-1.4-1.7-4,0.2-6.2-1.8c-1.2-1.1-2.6-2.1-3.5-3.5c-0.8-1.4-1.5-3-2.4-4.4
						c-0.2-0.4-0.7-0.8-1.1-0.6c-0.2,0.2,0,1,0.1,1.5s0.5,4.1,0.2,4.4c-0.7,0.8-2.2,0.7-2.4-1.1c-0.1-1.6-1.1-6.7-2-7.4
						c-0.8-0.6-5.4-0.4-7.2-4.3"/>
				</g>
			</g>
		</g>
		<path class="st9" d="M54.2,94.4c3.2,0.6,6.6,0.8,10,0.4C80,93.1,92.5,80.1,93.7,64.3c0.6-8-1.6-15.5-5.8-21.5c0,0-0.5-0.7-0.9-1.3
			c-1.7-2.4-4.4-2.8-5.7-1.5c-1.9,1.7-0.9,3.7,0,4.8c1,1.2,3.4,5.1,3.4,5.1c3.8,5.9,3.1,14,1.3,14.8c-1.4,0.6-1.7-1.2-2-4.6
			c-0.4-4-2.7-3.4-2.7-3.4c-2.3,0.9-2,4.2-2,4.2c-0.3,5.2,0.6,9.8-0.1,12.5c-1.2,4.4-6,7-6,7c-3.6,2.4-7.9,3.8-12.5,3.8
			c-1.5,0-3-0.1-4.4-0.4c-2.7-0.5-5.3,1.1-6.2,3.7l0,0C48.9,90.5,50.9,93.8,54.2,94.4z"/>
		<path class="st9" d="M67.4,29c-3.4-0.7-6.9-0.9-10.6-0.5C41,30.2,28.5,43.2,27.3,59c-0.6,8,1.6,15.5,5.8,21.5c0,0,0.5,0.7,0.9,1.3
			c1.7,2.4,4.4,2.8,5.7,1.5c1.9-1.7,0.9-3.7,0-4.8c-1-1.2-3.4-5.1-3.4-5.1c-3.8-5.9-3.1-14-1.3-14.8c1.4-0.6,1.7,1.2,2,4.6
			c0.4,4,2.7,3.4,2.7,3.4c2.3-0.9,2-4.2,2-4.2c0.3-5.2-0.6-9.8,0.1-12.5c1.2-4.4,6.3-7.2,6.3-7.2l0,0c3.5-2.3,7.8-3.7,12.3-3.7
			c1.5,0,3.1,0.2,4.5,0.5c2.9,0.6,5.8-1.1,6.5-4l0,0C72.3,32.7,70.5,29.6,67.4,29z"/>
	</g>
	<g>
		<g>
			<path class="st9" d="M116.9,43.4L116.9,43.4l-10.4-15.1h3.5l8.8,12.8h0.1l8.9-12.8h3.3l-10.6,15.1v0.1l10.5,15h-3.4l-8.8-12.8
				h-0.1l-8.9,12.8h-3.2L116.9,43.4z"/>
			<path class="st9" d="M153,58.5h-18.2V28.3H153v2.6h-15.4v10.9h14.6v2.6h-14.6V56H153V58.5z"/>
			<path class="st9" d="M170.3,59c-8.2,0-13.6-6.2-13.6-15.8c0-9.4,5.3-15.4,13.6-15.4c6.3,0,11.2,3.8,12.4,9.6h-3
				c-1.2-4.3-4.8-6.9-9.4-6.9c-6.6,0-10.6,4.9-10.6,12.8c0,8,4.2,13.1,10.6,13.1c5.8,0,9.7-3.7,9.7-9.4v-1.1h-9.4v-2.5h12.2v2.9
				C182.8,54.2,178.1,59,170.3,59z"/>
			<path class="st9" d="M190.3,47.8c0,5.1,3.3,8.5,8.8,8.5c5.6,0,8.8-3.5,8.8-8.5V28.3h2.9V48c0,6.5-4.4,11-11.7,11
				s-11.7-4.5-11.7-11V28.3h2.8L190.3,47.8L190.3,47.8z"/>
			<path class="st9" d="M219.3,58.5h-2.8V28.3h10.7c5.9,0,9.7,3.5,9.7,8.8c0,4.3-2.4,7.5-6.5,8.5l7.3,12.8h-3.4l-7-12.4
				c-0.1,0-0.3,0-0.5,0h-7.6v12.5H219.3z M219.3,43.6h7.6c4.4,0,7-2.3,7-6.4c0-4-2.7-6.4-7.1-6.4h-7.5V43.6z"/>
			<path class="st9" d="M242,58.5V28.3h2.9v30.2H242z"/>
			<path class="st9" d="M260.7,28.3c9.1,0,14.3,5.6,14.3,15.1c0,9.6-5.3,15.1-14.3,15.1h-9.8V28.3H260.7z M253.8,55.9h6.8
				c7.4,0,11.6-4.5,11.6-12.5s-4.1-12.5-11.6-12.5h-6.8V55.9z"/>
			<path class="st9" d="M295.3,49.3h-12.7l-3.4,9.3h-3l11.3-30.2h2.8l11.3,30.2h-3L295.3,49.3z M283.4,46.8h11l-5.4-15h-0.1
				L283.4,46.8z"/>
			<path class="st9" d="M314.8,28.3c9.1,0,14.3,5.6,14.3,15.1c0,9.6-5.3,15.1-14.3,15.1H305V28.3H314.8z M307.8,55.9h6.8
				c7.4,0,11.6-4.5,11.6-12.5s-4.1-12.5-11.6-12.5h-6.8V55.9z"/>
		</g>
	</g>
	<g>
		<g>
			<path class="st9" d="M111.2,78h3.3c4.4,0,7.5-2.7,7.5-6.6c0-3.7-3-6.4-7.3-6.4c-4,0-7.1,2.7-7.3,6.4h-1.6
				c0.2-4.6,3.9-7.9,8.9-7.9s8.8,3.3,8.8,7.8c0,3.8-2.4,6.6-6.2,7.4v0.1c4.6,0.3,7.5,3.3,7.5,7.6c0,5.1-4.2,8.9-9.9,8.9
				c-5.6,0-9.7-3.5-9.8-8.2h1.6c0.1,3.8,3.6,6.7,8.3,6.7c4.7,0,8.3-3.1,8.3-7.3c0-4.3-3.3-6.9-8.7-6.9h-3.3V78H111.2z"/>
			<path class="st9" d="M130.6,90.9c-1.8-2.5-2.7-6.1-2.7-10.7c0-10.3,4.2-16.7,10.8-16.7c4.7,0,8.4,3.1,9.1,7.6h-1.6
				c-0.6-3.6-3.7-6.1-7.5-6.1c-5.9,0-9.4,6.2-9.2,16.6h0.1c1-4.1,4.8-7,9.2-7c5.5,0,9.7,4.4,9.7,10.2c0,6-4.2,10.5-9.9,10.5
				C135.3,95.3,132.4,93.7,130.6,90.9z M146.9,84.8c0-4.9-3.6-8.7-8.3-8.7c-4.6,0-8.4,3.8-8.4,8.4c0,5.2,3.7,9.2,8.4,9.2
				C143.3,93.7,146.9,89.9,146.9,84.8z"/>
			<path class="st9" d="M151.3,79.4c0-9.7,4-15.9,10.4-15.9s10.4,6.1,10.4,15.9s-3.9,15.9-10.4,15.9
				C155.3,95.3,151.3,89.1,151.3,79.4z M170.5,79.4c0-8.8-3.4-14.4-8.8-14.4c-5.4,0-8.8,5.6-8.8,14.4s3.3,14.4,8.8,14.4
				C167.1,93.7,170.5,88.2,170.5,79.4z"/>
		</g>
	</g>
	<g>
		<path class="st4" d="M193,79.6L193,79.6l-10.7-15.4h3.5l9,13.1h0.1l9.1-13.1h3.4l-10.9,15.5v0.1L207.3,95h-3.5l-9-13.1h-0.1
			L185.6,95h-3.3L193,79.6z"/>
		<path class="st4" d="M227.4,85.5h-13L211,95h-3.1l11.6-30.9h2.9L233.9,95h-3.1L227.4,85.5z M215.3,83h11.2L221,67.7h-0.1L215.3,83
			z"/>
		<path class="st4" d="M236.7,95V64.1H255v2.7h-15.4v11.6h14.2V81h-14.2v14H236.7z"/>
		<path class="st4" d="M277.5,95h-18.7V64.1h18.7v2.7h-15.7v11.1h14.9v2.6h-14.9v11.9h15.7V95z"/>
		<path class="st4" d="M290.1,95V66.8h-10.2v-2.7h23.3v2.7H293V95H290.1z"/>
		<path class="st4" d="M315.1,95V81.7L304,64.1h3.3l9.1,14.7h0.1l9.1-14.7h3.3L318,81.7V95H315.1z"/>
	</g>
	<path class="st9" d="M174.5,69.1c-1.8,0-3.3-1.5-3.3-3.3c0-1.8,1.5-3.3,3.3-3.3s3.3,1.5,3.3,3.3C177.8,67.6,176.3,69.1,174.5,69.1z
		 M174.5,63.2c-1.4,0-2.6,1.2-2.6,2.6s1.2,2.6,2.6,2.6c1.4,0,2.6-1.2,2.6-2.6S175.9,63.2,174.5,63.2z"/>
</g>
<rect x="429.1" y="0.4" class="st12" width="429.3" height="122.2"/>
<g>
	<g>
		<path d="M465,34.2h18.1v5.5h-12.2v5.5h11.3v5.5h-11.3v10.5h-6V34.2z"/>
		<path d="M504.2,58c-0.9,1.2-2.1,2.1-3.5,2.7c-1.4,0.6-2.9,1-4.4,1c-1.4,0-2.8-0.2-4-0.7c-1.3-0.5-2.4-1.1-3.3-2
			c-0.9-0.9-1.7-1.9-2.2-3.1c-0.5-1.2-0.8-2.5-0.8-4c0-1.5,0.3-2.8,0.8-4c0.5-1.2,1.3-2.2,2.2-3.1c0.9-0.9,2-1.5,3.3-2
			c1.3-0.5,2.6-0.7,4-0.7c1.3,0,2.5,0.2,3.6,0.7c1.1,0.5,2,1.1,2.7,2c0.7,0.9,1.3,1.9,1.7,3.1c0.4,1.2,0.6,2.5,0.6,4v1.8h-13.3
			c0.2,1.1,0.7,2,1.5,2.6c0.8,0.6,1.7,1,2.8,1c0.9,0,1.7-0.2,2.4-0.6c0.6-0.4,1.2-1,1.7-1.6L504.2,58z M499.4,49.8
			c0-1-0.3-1.8-1-2.5c-0.7-0.7-1.5-1-2.6-1c-0.6,0-1.2,0.1-1.7,0.3c-0.5,0.2-0.9,0.5-1.2,0.8c-0.3,0.3-0.6,0.7-0.8,1.1
			c-0.2,0.4-0.3,0.9-0.3,1.3H499.4z"/>
		<path d="M526.2,58c-0.9,1.2-2.1,2.1-3.5,2.7c-1.4,0.6-2.9,1-4.4,1c-1.4,0-2.8-0.2-4-0.7c-1.3-0.5-2.4-1.1-3.3-2
			c-0.9-0.9-1.7-1.9-2.2-3.1c-0.5-1.2-0.8-2.5-0.8-4c0-1.5,0.3-2.8,0.8-4c0.5-1.2,1.3-2.2,2.2-3.1c0.9-0.9,2-1.5,3.3-2
			c1.3-0.5,2.6-0.7,4-0.7c1.3,0,2.5,0.2,3.6,0.7c1.1,0.5,2,1.1,2.7,2c0.7,0.9,1.3,1.9,1.7,3.1c0.4,1.2,0.6,2.5,0.6,4v1.8h-13.3
			c0.2,1.1,0.7,2,1.5,2.6c0.8,0.6,1.7,1,2.8,1c0.9,0,1.7-0.2,2.4-0.6c0.6-0.4,1.2-1,1.7-1.6L526.2,58z M521.3,49.8
			c0-1-0.3-1.8-1-2.5c-0.7-0.7-1.5-1-2.6-1c-0.6,0-1.2,0.1-1.7,0.3c-0.5,0.2-0.9,0.5-1.2,0.8c-0.3,0.3-0.6,0.7-0.8,1.1
			c-0.2,0.4-0.3,0.9-0.3,1.3H521.3z"/>
		<path d="M530.6,32.3h5.7v28.9h-5.7V32.3z"/>
		<path d="M563.4,58.9L563.4,58.9c-0.7,1-1.6,1.7-2.6,2.1c-1.1,0.4-2.2,0.6-3.3,0.6c-0.9,0-1.7-0.1-2.5-0.4
			c-0.8-0.2-1.5-0.6-2.1-1.1c-0.6-0.5-1.1-1.1-1.5-1.8c-0.4-0.7-0.5-1.5-0.5-2.5c0-1.1,0.2-2,0.6-2.7s0.9-1.3,1.6-1.8
			c0.7-0.5,1.4-0.9,2.3-1.1c0.9-0.3,1.8-0.5,2.7-0.6c0.9-0.1,1.9-0.2,2.8-0.2c0.9,0,1.8,0,2.6,0c0-1-0.4-1.8-1.1-2.4
			c-0.7-0.6-1.6-0.9-2.6-0.9c-0.9,0-1.8,0.2-2.6,0.6s-1.5,0.9-2.1,1.6l-3.1-3.1c1.1-1,2.3-1.7,3.7-2.2c1.4-0.5,2.9-0.7,4.4-0.7
			c1.7,0,3.1,0.2,4.1,0.6c1.1,0.4,1.9,1,2.6,1.9c0.6,0.8,1.1,1.8,1.4,3c0.3,1.2,0.4,2.6,0.4,4.1v9.4h-5.3V58.9z M562,53.1
			c-0.4,0-1,0-1.6,0.1c-0.6,0-1.3,0.1-1.9,0.3c-0.6,0.2-1.1,0.4-1.5,0.8c-0.4,0.4-0.6,0.9-0.6,1.5c0,0.7,0.3,1.2,0.9,1.5
			c0.6,0.3,1.2,0.5,1.8,0.5c0.6,0,1.1-0.1,1.6-0.2c0.5-0.2,1-0.4,1.4-0.6c0.4-0.3,0.7-0.6,1-1.1c0.2-0.4,0.4-0.9,0.4-1.5v-1.2H562z"
			/>
		<path d="M582.7,48.1c-0.8-1-1.9-1.6-3.3-1.6c-0.5,0-1,0.1-1.4,0.3c-0.5,0.2-0.7,0.6-0.7,1.2c0,0.5,0.2,0.8,0.7,1
			c0.5,0.2,1.1,0.4,1.8,0.6c0.7,0.2,1.5,0.3,2.3,0.5c0.8,0.2,1.6,0.5,2.3,0.9c0.7,0.4,1.3,1,1.8,1.7c0.5,0.7,0.7,1.6,0.7,2.8
			c0,1.2-0.3,2.2-0.8,3c-0.5,0.8-1.2,1.4-2,1.9c-0.8,0.5-1.7,0.8-2.7,1c-1,0.2-2,0.3-3,0.3c-1.3,0-2.6-0.2-3.9-0.6
			c-1.3-0.4-2.4-1-3.4-2l3.5-3.9c0.5,0.7,1.1,1.2,1.8,1.5c0.6,0.3,1.4,0.5,2.3,0.5c0.7,0,1.3-0.1,1.8-0.3c0.5-0.2,0.8-0.5,0.8-1
			c0-0.5-0.2-0.8-0.7-1.1c-0.5-0.2-1.1-0.4-1.8-0.6c-0.7-0.2-1.5-0.3-2.3-0.5c-0.8-0.2-1.6-0.5-2.3-0.9c-0.7-0.4-1.3-0.9-1.8-1.6
			c-0.5-0.7-0.7-1.6-0.7-2.8c0-1.1,0.2-2,0.7-2.8c0.4-0.8,1-1.4,1.8-1.9c0.7-0.5,1.6-0.9,2.5-1.1c0.9-0.2,1.9-0.4,2.9-0.4
			c1.2,0,2.5,0.2,3.7,0.5c1.2,0.4,2.3,1,3.2,1.9L582.7,48.1z"/>
		<path d="M611.7,48.1c-0.8-1-1.9-1.6-3.3-1.6c-0.5,0-1,0.1-1.4,0.3c-0.5,0.2-0.7,0.6-0.7,1.2c0,0.5,0.2,0.8,0.7,1
			c0.5,0.2,1.1,0.4,1.8,0.6c0.7,0.2,1.5,0.3,2.3,0.5c0.8,0.2,1.6,0.5,2.3,0.9c0.7,0.4,1.3,1,1.8,1.7c0.5,0.7,0.7,1.6,0.7,2.8
			c0,1.2-0.3,2.2-0.8,3c-0.5,0.8-1.2,1.4-2,1.9c-0.8,0.5-1.7,0.8-2.7,1c-1,0.2-2,0.3-3,0.3c-1.3,0-2.6-0.2-3.9-0.6
			c-1.3-0.4-2.4-1-3.4-2l3.5-3.9c0.5,0.7,1.1,1.2,1.8,1.5c0.6,0.3,1.4,0.5,2.3,0.5c0.7,0,1.3-0.1,1.8-0.3c0.5-0.2,0.8-0.5,0.8-1
			c0-0.5-0.2-0.8-0.7-1.1c-0.5-0.2-1.1-0.4-1.8-0.6c-0.7-0.2-1.5-0.3-2.3-0.5c-0.8-0.2-1.6-0.5-2.3-0.9c-0.7-0.4-1.3-0.9-1.8-1.6
			c-0.5-0.7-0.7-1.6-0.7-2.8c0-1.1,0.2-2,0.7-2.8c0.4-0.8,1-1.4,1.8-1.9c0.7-0.5,1.6-0.9,2.5-1.1c0.9-0.2,1.9-0.4,2.9-0.4
			c1.2,0,2.5,0.2,3.7,0.5c1.2,0.4,2.3,1,3.2,1.9L611.7,48.1z"/>
		<path d="M630.6,58.9L630.6,58.9c-0.7,1-1.6,1.7-2.6,2.1c-1.1,0.4-2.2,0.6-3.3,0.6c-0.9,0-1.7-0.1-2.5-0.4
			c-0.8-0.2-1.5-0.6-2.1-1.1c-0.6-0.5-1.1-1.1-1.5-1.8s-0.5-1.5-0.5-2.5c0-1.1,0.2-2,0.6-2.7s0.9-1.3,1.6-1.8
			c0.7-0.5,1.4-0.9,2.3-1.1c0.9-0.3,1.8-0.5,2.7-0.6c0.9-0.1,1.9-0.2,2.8-0.2c0.9,0,1.8,0,2.6,0c0-1-0.4-1.8-1.1-2.4
			s-1.6-0.9-2.6-0.9c-0.9,0-1.8,0.2-2.6,0.6c-0.8,0.4-1.5,0.9-2.1,1.6l-3.1-3.1c1.1-1,2.3-1.7,3.7-2.2c1.4-0.5,2.9-0.7,4.4-0.7
			c1.7,0,3.1,0.2,4.1,0.6c1.1,0.4,1.9,1,2.6,1.9c0.7,0.8,1.1,1.8,1.4,3c0.3,1.2,0.4,2.6,0.4,4.1v9.4h-5.3V58.9z M629.1,53.1
			c-0.4,0-1,0-1.6,0.1c-0.6,0-1.3,0.1-1.9,0.3c-0.6,0.2-1.1,0.4-1.5,0.8c-0.4,0.4-0.6,0.9-0.6,1.5c0,0.7,0.3,1.2,0.9,1.5
			c0.6,0.3,1.2,0.5,1.8,0.5c0.6,0,1.1-0.1,1.6-0.2c0.5-0.2,1-0.4,1.4-0.6c0.4-0.3,0.7-0.6,1-1.1c0.2-0.4,0.4-0.9,0.4-1.5v-1.2H629.1
			z"/>
		<path d="M641.4,47.2h-3.8v-4.6h3.8v-3.3c0-1,0.1-2,0.3-2.9c0.2-0.9,0.5-1.7,1-2.4c0.5-0.7,1.2-1.2,2.2-1.6c1-0.4,2.2-0.6,3.8-0.6
			c0.6,0,1.2,0,1.7,0.1c0.6,0.1,1.1,0.1,1.6,0.3l-0.3,4.9c-0.3-0.1-0.6-0.2-0.9-0.3c-0.3-0.1-0.6-0.1-1-0.1c-0.9,0-1.6,0.2-2.1,0.6
			c-0.5,0.4-0.7,1.2-0.7,2.4v2.9h4.2v4.6h-4.2v14h-5.7V47.2z"/>
		<path d="M671.1,58c-0.9,1.2-2.1,2.1-3.5,2.7s-2.9,1-4.4,1c-1.4,0-2.8-0.2-4-0.7s-2.4-1.1-3.3-2c-0.9-0.9-1.7-1.9-2.2-3.1
			c-0.5-1.2-0.8-2.5-0.8-4c0-1.5,0.3-2.8,0.8-4c0.5-1.2,1.3-2.2,2.2-3.1c0.9-0.9,2-1.5,3.3-2s2.6-0.7,4-0.7c1.3,0,2.5,0.2,3.6,0.7
			c1.1,0.5,2,1.1,2.7,2c0.8,0.9,1.3,1.9,1.7,3.1c0.4,1.2,0.6,2.5,0.6,4v1.8h-13.3c0.2,1.1,0.7,2,1.5,2.6c0.8,0.6,1.7,1,2.8,1
			c0.9,0,1.7-0.2,2.4-0.6c0.6-0.4,1.2-1,1.7-1.6L671.1,58z M666.3,49.8c0-1-0.3-1.8-1-2.5c-0.7-0.7-1.5-1-2.6-1
			c-0.6,0-1.2,0.1-1.7,0.3c-0.5,0.2-0.9,0.5-1.2,0.8c-0.3,0.3-0.6,0.7-0.8,1.1c-0.2,0.4-0.3,0.9-0.3,1.3H666.3z"/>
		<path d="M476.2,81.4v-0.5c0-3.1-1.5-4.6-4.6-4.6c-2.1,0-3.9,0.7-5.5,2.1l-1.5-1.8c1.7-1.7,4.2-2.6,7.6-2.6c0.9,0,1.7,0.1,2.5,0.4
			c0.8,0.3,1.5,0.6,2.1,1.2c0.6,0.5,1.1,1.2,1.4,2c0.4,0.8,0.5,1.7,0.5,2.8v8c0,0.7,0,1.4,0.1,2.2c0.1,0.8,0.1,1.4,0.2,1.9h-2.4
			c-0.1-0.4-0.1-0.9-0.2-1.4c0-0.5-0.1-1-0.1-1.5h-0.1c-0.7,1.2-1.6,2.1-2.6,2.6c-1,0.5-2.2,0.8-3.7,0.8c-0.8,0-1.6-0.1-2.3-0.3
			c-0.7-0.2-1.4-0.5-2-1c-0.6-0.4-1-1-1.4-1.6c-0.3-0.7-0.5-1.4-0.5-2.3c0-1.5,0.4-2.6,1.1-3.4c0.7-0.8,1.7-1.4,2.8-1.9
			c1.1-0.4,2.3-0.7,3.6-0.8c1.3-0.1,2.5-0.2,3.5-0.2H476.2z M474.9,83.4c-0.6,0-1.4,0-2.4,0.1s-1.9,0.2-2.7,0.5
			c-0.9,0.2-1.6,0.6-2.3,1.1c-0.6,0.5-0.9,1.2-0.9,2.1c0,0.6,0.1,1.1,0.4,1.5c0.2,0.4,0.6,0.8,1,1c0.4,0.3,0.9,0.5,1.4,0.6
			c0.5,0.1,1,0.2,1.5,0.2c0.9,0,1.7-0.2,2.4-0.5c0.7-0.3,1.2-0.7,1.7-1.2s0.8-1.1,1-1.8c0.2-0.7,0.3-1.4,0.3-2.2v-1.3H474.9z"/>
		<path d="M494,78.7c-0.4-0.7-0.9-1.3-1.5-1.8c-0.6-0.4-1.4-0.6-2.3-0.6c-0.4,0-0.9,0.1-1.3,0.2c-0.4,0.1-0.8,0.3-1.2,0.5
			c-0.4,0.2-0.6,0.5-0.9,0.8c-0.2,0.3-0.3,0.7-0.3,1.2c0,0.8,0.3,1.5,0.9,1.8c0.6,0.4,1.5,0.7,2.6,1l2.6,0.6
			c1.2,0.3,2.3,0.8,3.1,1.7c0.8,0.9,1.2,1.9,1.2,3.2c0,1-0.2,1.8-0.6,2.5c-0.4,0.7-0.9,1.3-1.6,1.7c-0.6,0.4-1.4,0.8-2.2,1
			c-0.8,0.2-1.7,0.3-2.6,0.3c-1.4,0-2.7-0.3-3.8-0.8c-1.2-0.5-2.2-1.4-3-2.7l2.2-1.5c0.5,0.8,1.2,1.5,1.9,1.9
			c0.8,0.5,1.7,0.7,2.8,0.7c0.5,0,1-0.1,1.5-0.2c0.5-0.1,1-0.3,1.4-0.5c0.4-0.2,0.7-0.6,1-0.9c0.2-0.4,0.4-0.8,0.4-1.3
			c0-0.9-0.3-1.5-1-1.9c-0.7-0.4-1.5-0.7-2.4-0.9l-2.4-0.6c-0.3-0.1-0.7-0.2-1.2-0.4c-0.5-0.2-1-0.4-1.5-0.8
			c-0.5-0.4-0.9-0.8-1.3-1.4c-0.4-0.6-0.5-1.3-0.5-2.1c0-0.9,0.2-1.7,0.6-2.4c0.4-0.7,0.9-1.2,1.5-1.7c0.6-0.4,1.3-0.8,2.1-1
			c0.8-0.2,1.6-0.3,2.4-0.3c1.2,0,2.4,0.2,3.5,0.7c1.1,0.5,1.9,1.3,2.5,2.5L494,78.7z"/>
		<path d="M511.4,63.5h2.5v13.9h0.1c0.3-0.5,0.6-0.9,1.1-1.3c0.4-0.4,0.9-0.8,1.5-1.1c0.5-0.3,1.1-0.5,1.7-0.7
			c0.6-0.2,1.2-0.2,1.8-0.2c2.3,0,4,0.6,5.1,1.8c1.1,1.2,1.6,2.9,1.6,5.2v11.3h-2.5v-9.9c0-2-0.3-3.5-1-4.6c-0.7-1.1-2-1.6-3.8-1.6
			c-0.1,0-0.5,0.1-1.1,0.2c-0.6,0.1-1.2,0.4-1.9,0.8c-0.7,0.5-1.2,1.1-1.7,2.1s-0.8,2.2-0.8,3.8v9.2h-2.5V63.5z"/>
		<path d="M550.7,83.4c0,1.3-0.2,2.6-0.7,3.7c-0.5,1.1-1.1,2.1-2,3c-0.8,0.8-1.8,1.5-3,2c-1.2,0.5-2.4,0.7-3.8,0.7
			c-1.4,0-2.6-0.2-3.8-0.7c-1.2-0.5-2.2-1.1-3-2c-0.8-0.8-1.5-1.8-2-3c-0.5-1.1-0.7-2.4-0.7-3.7c0-1.3,0.2-2.6,0.7-3.7
			c0.5-1.1,1.1-2.1,2-3c0.8-0.8,1.8-1.5,3-2c1.2-0.5,2.4-0.7,3.8-0.7c1.4,0,2.7,0.2,3.8,0.7c1.2,0.5,2.2,1.1,3,2
			c0.8,0.8,1.5,1.8,2,3C550.5,80.8,550.7,82,550.7,83.4z M548,83.4c0-1-0.2-1.9-0.5-2.8c-0.3-0.9-0.8-1.6-1.4-2.3
			c-0.6-0.6-1.3-1.1-2.1-1.5c-0.8-0.4-1.8-0.6-2.8-0.6s-2,0.2-2.8,0.6c-0.8,0.4-1.5,0.9-2.1,1.5c-0.6,0.6-1,1.4-1.3,2.3
			c-0.3,0.9-0.5,1.8-0.5,2.8c0,1,0.2,1.9,0.5,2.8c0.3,0.9,0.8,1.6,1.3,2.3s1.3,1.1,2.1,1.5c0.8,0.4,1.8,0.6,2.8,0.6s2-0.2,2.8-0.6
			c0.8-0.4,1.5-0.9,2.1-1.5c0.6-0.6,1-1.4,1.4-2.3C547.8,85.3,548,84.4,548,83.4z"/>
		<path d="M555.3,78.4c0-0.7,0-1.3-0.1-2c0-0.7-0.1-1.3-0.1-2h2.7v2.7h0.1c0.6-1,1.5-1.8,2.5-2.4c1.1-0.5,2.2-0.8,3.2-0.8
			c0.5,0,1,0.1,1.5,0.2c0.5,0.1,1.1,0.3,1.6,0.6c0.5,0.3,1,0.6,1.4,1.1c0.4,0.5,0.8,1.1,1.1,1.9c0.5-1.1,1.3-2.1,2.4-2.7
			c1.1-0.7,2.3-1,3.5-1c2.3,0,4,0.6,5.1,1.8c1.1,1.2,1.6,2.9,1.6,5.2v11.3h-2.5V81.9c0-1.8-0.3-3.2-1-4.2c-0.6-1-1.8-1.5-3.6-1.5
			c-0.9,0-1.7,0.2-2.4,0.6c-0.6,0.4-1.2,0.9-1.5,1.5c-0.4,0.6-0.7,1.3-0.9,2.1c-0.2,0.8-0.3,1.6-0.3,2.4v9.5h-2.5V81.9
			c0-1.8-0.3-3.2-1-4.2c-0.6-1-1.8-1.5-3.6-1.5c-0.2,0-0.5,0.1-1.1,0.2c-0.5,0.1-1.1,0.4-1.7,0.8c-0.6,0.5-1.1,1.1-1.6,2.1
			s-0.7,2.2-0.7,3.8v9.2h-2.5V78.4z"/>
		<path d="M589.6,84.1c0.1,0.9,0.3,1.7,0.6,2.5c0.4,0.8,0.8,1.5,1.4,2s1.3,1,2,1.4c0.8,0.3,1.6,0.5,2.5,0.5c1.3,0,2.5-0.3,3.5-0.9
			c1-0.6,1.7-1.3,2.2-2.2l1.9,1.6c-1.1,1.3-2.2,2.3-3.5,2.9s-2.7,0.9-4.1,0.9c-1.3,0-2.6-0.2-3.7-0.7c-1.1-0.5-2.1-1.1-2.9-2
			c-0.8-0.8-1.5-1.8-1.9-3c-0.5-1.1-0.7-2.4-0.7-3.7c0-1.3,0.2-2.6,0.7-3.7c0.5-1.1,1.1-2.1,1.9-3c0.8-0.8,1.8-1.5,2.9-2
			c1.1-0.5,2.3-0.7,3.6-0.7c1.3,0,2.6,0.2,3.6,0.7c1.1,0.5,2,1.1,2.7,1.9c0.7,0.8,1.3,1.7,1.7,2.8c0.4,1.1,0.6,2.2,0.6,3.5v1.1
			H589.6z M601.8,82c0-1.7-0.5-3.1-1.5-4.1c-1-1.1-2.4-1.6-4.3-1.6c-0.8,0-1.6,0.2-2.4,0.5c-0.8,0.3-1.4,0.7-2,1.3
			c-0.6,0.5-1,1.1-1.4,1.8c-0.3,0.7-0.5,1.4-0.5,2.1H601.8z"/>
		<path d="M613.7,90.5c0,0.5-0.2,1-0.6,1.4c-0.4,0.4-0.9,0.6-1.5,0.6c-0.6,0-1.1-0.2-1.5-0.6c-0.4-0.4-0.6-0.9-0.6-1.4
			c0-0.5,0.2-1,0.6-1.4c0.4-0.4,0.9-0.6,1.5-0.6c0.6,0,1.1,0.2,1.5,0.6C613.5,89.5,613.7,90,613.7,90.5z"/>
	</g>
</g>
</svg>
